<svg width="891" height="324" viewBox="0 0 891 324" fill="none" xmlns="http://www.w3.org/2000/svg">
<g filter="url(#filter0_ddd_169_5)">
<path d="M214.526 177.15C218.006 177.15 220.616 173.09 222.356 164.97C224.29 156.657 225.16 146.313 224.966 133.94C224.773 120.987 223.806 110.643 222.066 102.91C220.52 94.9833 217.813 91.1167 213.946 91.31C206.6 91.31 203.12 105.617 203.506 134.23C203.893 162.843 207.566 177.15 214.526 177.15ZM226.706 88.99C239.273 92.6633 248.843 100.203 255.416 111.61C261.99 122.823 263.536 134.617 260.056 146.99C257.156 157.237 251.453 165.453 242.946 171.64C234.633 177.827 225.256 180.92 214.816 180.92C210.37 180.92 206.02 180.34 201.766 179.18C189.2 175.7 179.63 168.257 173.056 156.85C166.483 145.443 164.936 133.553 168.416 121.18C171.316 110.933 176.923 102.717 185.236 96.53C193.743 90.3433 203.313 87.25 213.946 87.25C218.2 87.25 222.453 87.83 226.706 88.99Z" fill="url(#paint0_linear_169_5)"/>
<path d="M321.294 177.15C324.774 177.15 327.384 173.09 329.124 164.97C331.057 156.657 331.927 146.313 331.734 133.94C331.541 120.987 330.574 110.643 328.834 102.91C327.287 94.9833 324.581 91.1167 320.714 91.31C313.367 91.31 309.887 105.617 310.274 134.23C310.661 162.843 314.334 177.15 321.294 177.15ZM333.474 88.99C346.041 92.6633 355.611 100.203 362.184 111.61C368.757 122.823 370.304 134.617 366.824 146.99C363.924 157.237 358.221 165.453 349.714 171.64C341.401 177.827 332.024 180.92 321.584 180.92C317.137 180.92 312.787 180.34 308.534 179.18C295.967 175.7 286.397 168.257 279.824 156.85C273.251 145.443 271.704 133.553 275.184 121.18C278.084 110.933 283.691 102.717 292.004 96.53C300.511 90.3433 310.081 87.25 320.714 87.25C324.967 87.25 329.221 87.83 333.474 88.99Z" fill="url(#paint1_linear_169_5)"/>
<path d="M425.161 178.31H378.762C382.435 171.543 384.271 164.873 384.271 158.3V114.51C384.271 107.937 382.435 101.267 378.762 94.5L419.362 84.35V103.78C423.035 94.3067 430.382 88.8933 441.401 87.54C441.788 87.54 442.368 87.54 443.142 87.54C443.915 87.3467 444.592 87.25 445.172 87.25C451.552 87.25 457.545 88.7 463.151 91.6C468.951 94.5 473.012 99.0433 475.332 105.23C479.585 93.2433 488.962 87.25 503.462 87.25C526.468 87.25 537.971 101.073 537.971 128.72V159.75C537.971 165.937 539.808 172.123 543.482 178.31H520.861C509.455 178.31 503.751 171.447 503.751 157.72V120.31C503.751 103.49 499.788 94.8867 491.862 94.5C488.188 94.3067 484.901 96.3367 482.001 100.59C479.102 104.65 477.651 111.417 477.651 120.89V159.75C477.651 165.937 479.488 172.123 483.161 178.31H460.542C448.941 178.31 443.142 171.447 443.142 157.72V118.28C443.142 117.12 443.142 116.057 443.142 115.09C443.142 114.123 443.045 112.867 442.852 111.32C442.852 109.58 442.755 108.033 442.561 106.68C442.368 105.327 441.981 103.973 441.401 102.62C440.822 101.073 440.145 99.8167 439.371 98.85C438.792 97.8833 437.922 97.11 436.762 96.53C435.602 95.7567 434.248 95.37 432.702 95.37C432.508 95.37 432.218 95.4667 431.831 95.66C431.445 95.66 431.155 95.66 430.961 95.66C427.288 96.4333 424.388 99.8167 422.262 105.81C420.135 111.61 419.265 117.7 419.651 124.08V158.3C419.651 164.873 421.488 171.543 425.161 178.31Z" fill="url(#paint2_linear_169_5)"/>
<path d="M592.972 158.3C592.972 164.873 594.808 171.543 598.482 178.31H552.082C555.755 171.543 557.592 164.873 557.592 158.3V118.86C557.592 112.867 555.755 106.197 552.082 98.85C554.015 99.0433 556.335 99.14 559.042 99.14C575.475 99.14 586.688 95.66 592.682 88.7L592.972 158.3ZM584.104 82.03C580.625 85.7033 576.371 87.54 571.344 87.54C566.318 87.54 561.968 85.8 558.294 82.32C554.621 78.6467 552.785 74.2967 552.785 69.27C552.785 64.2433 554.621 59.99 558.294 56.51C561.968 52.8367 566.318 51 571.344 51C576.371 51 580.625 52.8367 584.104 56.51C587.778 59.99 589.615 64.2433 589.615 69.27C589.615 74.1033 587.778 78.3567 584.104 82.03Z" fill="url(#paint3_linear_169_5)"/>
<path d="M673.573 169.44C675.042 163.2 673.573 120.14 673.573 120.14C673.573 103.707 669.03 95.49 659.943 95.49C652.597 96.4567 648.536 103.9 647.763 117.82V158.42C647.763 164.607 649.6 171.373 653.273 178.72H606.873C610.547 171.953 612.383 165.187 612.383 158.42V114.63C612.383 108.057 610.547 101.387 606.873 94.62L647.763 84.18V102.74C652.016 93.0734 659.653 87.95 670.673 87.37C683.24 87.37 692.617 91.3334 698.803 99.26C704.99 107.187 708.083 117.627 708.083 130.58C708.221 148.128 708.173 160.865 708.134 168.68C708.095 176.495 716.104 178.72 716.104 178.72L666.604 178.89C666.604 178.89 672.104 175.68 673.573 169.44Z" fill="url(#paint4_linear_169_5)"/>
<path fill-rule="evenodd" clip-rule="evenodd" d="M497.629 261.74C492.022 250.333 490.379 239.603 492.699 229.55C495.212 219.497 501.399 210.99 511.259 204.03C521.119 197.263 532.719 193.88 546.059 193.88H548.959C563.266 194.653 578.732 197.747 595.359 203.16C611.985 208.767 629.385 215.34 647.559 222.88C665.732 230.613 680.039 235.93 690.479 238.83C709.232 244.243 726.825 246.95 743.259 246.95C760.272 246.95 771.325 247.887 787.339 241.18C794.928 238.002 800.048 236.748 805.604 230.68C809.155 226.803 810.881 224.147 812.604 219.18C814.47 213.802 814.491 208.933 814.104 204.68C813.911 199.267 807.733 195.42 799.42 195.42C796.713 195.42 793.427 195.903 789.56 196.87C780.087 199.77 771.29 201.22 763.17 201.22C742.29 201.22 730.69 193.777 728.37 178.89C727.403 172.703 728.177 166.903 730.69 161.49C733.203 155.883 736.683 151.437 741.13 148.15C729.723 141.19 724.02 132.49 724.02 122.05C724.02 112.383 729.047 104.167 739.1 97.4C749.153 90.44 761.333 86.96 775.64 86.96C782.407 86.96 788.883 87.83 795.07 89.57C791.783 83.5767 791.397 77.5833 793.91 71.59C796.423 65.5967 801.16 61.8267 808.12 60.28C810.44 59.8933 812.18 59.7 813.34 59.7C820.493 59.7 828.71 62.7933 837.99 68.98C839.15 69.9467 839.44 70.9133 838.86 71.88C834.413 81.74 830.45 90.6333 826.97 98.56C826.583 98.9467 826.197 99.14 825.81 99.14C825.423 99.14 825.133 98.85 824.94 98.27C822.427 90.5367 819.527 84.5433 816.24 80.29C812.953 76.0367 809.57 73.91 806.09 73.91C805.317 73.91 804.737 74.0067 804.35 74.2C801.063 74.9733 799.227 77.1967 798.84 80.87C798.647 84.5433 800.483 88.5067 804.35 92.76C811.503 96.0467 817.11 100.3 821.17 105.52C825.23 110.547 827.26 116.057 827.26 122.05C827.26 131.717 822.233 140.03 812.18 146.99C802.127 153.757 789.947 157.14 775.64 157.14C764.233 157.14 754.277 154.917 745.77 150.47C744.223 153.757 743.837 156.753 744.61 159.46C746.157 165.067 750.99 167.87 759.11 167.87C764.717 167.87 771.097 166.807 778.25 164.68C785.79 162.553 792.363 161.49 797.97 161.49C806.863 161.49 814.113 163.423 819.72 167.29C825.327 171.157 828.903 176.377 830.45 182.95C830.45 182.95 833.032 198.672 830.45 208.18C827.589 218.716 815.604 231.868 815.604 231.868C808.104 240.18 799.855 248.913 787.339 256.52C764.663 270.302 749.059 272.18 721.219 272.18C709.619 272.18 696.569 271.02 682.069 268.7C664.476 265.607 641.276 259.13 612.469 249.27C583.855 239.603 564.716 233.707 555.049 231.58C549.249 230.42 543.739 229.84 538.519 229.84C527.499 229.84 518.605 232.353 511.839 237.38C505.266 242.6 501.785 250.43 501.399 260.87C501.399 262.223 500.722 262.9 499.369 262.9C498.596 262.9 498.016 262.513 497.629 261.74ZM791.88 142.93C790.913 149.117 788.11 152.5 783.47 153.08C773.61 153.08 766.36 143.413 761.72 124.08C756.5 103.587 758.723 92.8567 768.39 91.89C778.057 91.89 785.21 101.557 789.85 120.89C792.17 129.203 792.847 136.55 791.88 142.93Z" fill="url(#paint5_linear_169_5)"/>
<path d="M152.629 143.8C153.596 142.253 154.659 141.48 155.819 141.48C157.753 141.48 158.333 143.123 157.559 146.41C155.433 156.657 149.729 165.067 140.449 171.64C131.363 178.02 121.019 181.21 109.419 181.21H105.649C88.2495 179.857 74.5228 173.187 64.4695 161.2C54.6095 149.213 50.1628 134.81 51.1295 117.99C52.2895 102.91 57.8961 89.9567 67.9495 79.13C78.0028 68.3033 91.0528 62.89 107.099 62.89C118.699 62.89 128.656 65.6933 136.969 71.3C145.476 76.9067 151.469 85.22 154.949 96.24C155.336 97.4 155.046 98.27 154.079 98.85C152.726 99.6233 148.279 102.33 140.739 106.97C133.393 111.61 128.366 114.607 125.659 115.96H125.369C125.176 116.153 124.983 116.25 124.789 116.25C123.243 116.25 122.469 115.38 122.469 113.64C123.243 102.233 122.469 91.9867 120.149 82.9C118.023 73.8133 114.253 69.0767 108.839 68.69C103.233 68.69 98.7861 71.6867 95.4995 77.68C92.2128 83.48 90.1828 89.7633 89.4095 96.53C87.0895 114.317 88.6361 129.977 94.0495 143.51C99.6561 157.043 108.936 164.1 121.889 164.68C127.883 164.68 133.779 162.65 139.579 158.59C145.573 154.337 149.923 149.407 152.629 143.8Z" fill="url(#paint6_linear_169_5)"/>
<path d="M214.526 177.15C218.006 177.15 220.616 173.09 222.356 164.97C224.29 156.657 225.16 146.313 224.966 133.94C224.773 120.987 223.806 110.643 222.066 102.91C220.52 94.9833 217.813 91.1167 213.946 91.31C206.6 91.31 203.12 105.617 203.506 134.23C203.893 162.843 207.566 177.15 214.526 177.15ZM226.706 88.99C239.273 92.6633 248.843 100.203 255.416 111.61C261.99 122.823 263.536 134.617 260.056 146.99C257.156 157.237 251.453 165.453 242.946 171.64C234.633 177.827 225.256 180.92 214.816 180.92C210.37 180.92 206.02 180.34 201.766 179.18C189.2 175.7 179.63 168.257 173.056 156.85C166.483 145.443 164.936 133.553 168.416 121.18C171.316 110.933 176.923 102.717 185.236 96.53C193.743 90.3433 203.313 87.25 213.946 87.25C218.2 87.25 222.453 87.83 226.706 88.99Z" stroke="#C58328" stroke-width="2" stroke-linejoin="round"/>
<path d="M321.294 177.15C324.774 177.15 327.384 173.09 329.124 164.97C331.057 156.657 331.927 146.313 331.734 133.94C331.541 120.987 330.574 110.643 328.834 102.91C327.287 94.9833 324.581 91.1167 320.714 91.31C313.367 91.31 309.887 105.617 310.274 134.23C310.661 162.843 314.334 177.15 321.294 177.15ZM333.474 88.99C346.041 92.6633 355.611 100.203 362.184 111.61C368.757 122.823 370.304 134.617 366.824 146.99C363.924 157.237 358.221 165.453 349.714 171.64C341.401 177.827 332.024 180.92 321.584 180.92C317.137 180.92 312.787 180.34 308.534 179.18C295.967 175.7 286.397 168.257 279.824 156.85C273.251 145.443 271.704 133.553 275.184 121.18C278.084 110.933 283.691 102.717 292.004 96.53C300.511 90.3433 310.081 87.25 320.714 87.25C324.967 87.25 329.221 87.83 333.474 88.99Z" stroke="#C58328" stroke-width="2" stroke-linejoin="round"/>
<path d="M425.161 178.31H378.762C382.435 171.543 384.271 164.873 384.271 158.3V114.51C384.271 107.937 382.435 101.267 378.762 94.5L419.362 84.35V103.78C423.035 94.3067 430.382 88.8933 441.401 87.54C441.788 87.54 442.368 87.54 443.142 87.54C443.915 87.3467 444.592 87.25 445.172 87.25C451.552 87.25 457.545 88.7 463.151 91.6C468.951 94.5 473.012 99.0433 475.332 105.23C479.585 93.2433 488.962 87.25 503.462 87.25C526.468 87.25 537.971 101.073 537.971 128.72V159.75C537.971 165.937 539.808 172.123 543.482 178.31H520.861C509.455 178.31 503.751 171.447 503.751 157.72V120.31C503.751 103.49 499.788 94.8867 491.862 94.5C488.188 94.3067 484.901 96.3367 482.001 100.59C479.102 104.65 477.651 111.417 477.651 120.89V159.75C477.651 165.937 479.488 172.123 483.161 178.31H460.542C448.941 178.31 443.142 171.447 443.142 157.72V118.28C443.142 117.12 443.142 116.057 443.142 115.09C443.142 114.123 443.045 112.867 442.852 111.32C442.852 109.58 442.755 108.033 442.561 106.68C442.368 105.327 441.981 103.973 441.401 102.62C440.822 101.073 440.145 99.8167 439.371 98.85C438.792 97.8833 437.922 97.11 436.762 96.53C435.602 95.7567 434.248 95.37 432.702 95.37C432.508 95.37 432.218 95.4667 431.831 95.66C431.445 95.66 431.155 95.66 430.961 95.66C427.288 96.4333 424.388 99.8167 422.262 105.81C420.135 111.61 419.265 117.7 419.651 124.08V158.3C419.651 164.873 421.488 171.543 425.161 178.31Z" stroke="#C58328" stroke-width="2" stroke-linejoin="round"/>
<path d="M592.972 158.3C592.972 164.873 594.808 171.543 598.482 178.31H552.082C555.755 171.543 557.592 164.873 557.592 158.3V118.86C557.592 112.867 555.755 106.197 552.082 98.85C554.015 99.0433 556.335 99.14 559.042 99.14C575.475 99.14 586.688 95.66 592.682 88.7L592.972 158.3ZM584.104 82.03C580.625 85.7033 576.371 87.54 571.344 87.54C566.318 87.54 561.968 85.8 558.294 82.32C554.621 78.6467 552.785 74.2967 552.785 69.27C552.785 64.2433 554.621 59.99 558.294 56.51C561.968 52.8367 566.318 51 571.344 51C576.371 51 580.625 52.8367 584.104 56.51C587.778 59.99 589.615 64.2433 589.615 69.27C589.615 74.1033 587.778 78.3567 584.104 82.03Z" stroke="#C58328" stroke-width="2" stroke-linejoin="round"/>
<path d="M673.573 169.44C675.042 163.2 673.573 120.14 673.573 120.14C673.573 103.707 669.03 95.49 659.943 95.49C652.597 96.4567 648.536 103.9 647.763 117.82V158.42C647.763 164.607 649.6 171.373 653.273 178.72H606.873C610.547 171.953 612.383 165.187 612.383 158.42V114.63C612.383 108.057 610.547 101.387 606.873 94.62L647.763 84.18V102.74C652.016 93.0734 659.653 87.95 670.673 87.37C683.24 87.37 692.617 91.3334 698.803 99.26C704.99 107.187 708.083 117.627 708.083 130.58C708.221 148.128 708.173 160.865 708.134 168.68C708.095 176.495 716.104 178.72 716.104 178.72L666.604 178.89C666.604 178.89 672.104 175.68 673.573 169.44Z" stroke="#C58328" stroke-width="2" stroke-linejoin="round"/>
<path fill-rule="evenodd" clip-rule="evenodd" d="M497.629 261.74C492.022 250.333 490.379 239.603 492.699 229.55C495.212 219.497 501.399 210.99 511.259 204.03C521.119 197.263 532.719 193.88 546.059 193.88H548.959C563.266 194.653 578.732 197.747 595.359 203.16C611.985 208.767 629.385 215.34 647.559 222.88C665.732 230.613 680.039 235.93 690.479 238.83C709.232 244.243 726.825 246.95 743.259 246.95C760.272 246.95 771.325 247.887 787.339 241.18C794.928 238.002 800.048 236.748 805.604 230.68C809.155 226.803 810.881 224.147 812.604 219.18C814.47 213.802 814.491 208.933 814.104 204.68C813.911 199.267 807.733 195.42 799.42 195.42C796.713 195.42 793.427 195.903 789.56 196.87C780.087 199.77 771.29 201.22 763.17 201.22C742.29 201.22 730.69 193.777 728.37 178.89C727.403 172.703 728.177 166.903 730.69 161.49C733.203 155.883 736.683 151.437 741.13 148.15C729.723 141.19 724.02 132.49 724.02 122.05C724.02 112.383 729.047 104.167 739.1 97.4C749.153 90.44 761.333 86.96 775.64 86.96C782.407 86.96 788.883 87.83 795.07 89.57C791.783 83.5767 791.397 77.5833 793.91 71.59C796.423 65.5967 801.16 61.8267 808.12 60.28C810.44 59.8933 812.18 59.7 813.34 59.7C820.493 59.7 828.71 62.7933 837.99 68.98C839.15 69.9467 839.44 70.9133 838.86 71.88C834.413 81.74 830.45 90.6333 826.97 98.56C826.583 98.9467 826.197 99.14 825.81 99.14C825.423 99.14 825.133 98.85 824.94 98.27C822.427 90.5367 819.527 84.5433 816.24 80.29C812.953 76.0367 809.57 73.91 806.09 73.91C805.317 73.91 804.737 74.0067 804.35 74.2C801.063 74.9733 799.227 77.1967 798.84 80.87C798.647 84.5433 800.483 88.5067 804.35 92.76C811.503 96.0467 817.11 100.3 821.17 105.52C825.23 110.547 827.26 116.057 827.26 122.05C827.26 131.717 822.233 140.03 812.18 146.99C802.127 153.757 789.947 157.14 775.64 157.14C764.233 157.14 754.277 154.917 745.77 150.47C744.223 153.757 743.837 156.753 744.61 159.46C746.157 165.067 750.99 167.87 759.11 167.87C764.717 167.87 771.097 166.807 778.25 164.68C785.79 162.553 792.363 161.49 797.97 161.49C806.863 161.49 814.113 163.423 819.72 167.29C825.327 171.157 828.903 176.377 830.45 182.95C830.45 182.95 833.032 198.672 830.45 208.18C827.589 218.716 815.604 231.868 815.604 231.868C808.104 240.18 799.855 248.913 787.339 256.52C764.663 270.302 749.059 272.18 721.219 272.18C709.619 272.18 696.569 271.02 682.069 268.7C664.476 265.607 641.276 259.13 612.469 249.27C583.855 239.603 564.716 233.707 555.049 231.58C549.249 230.42 543.739 229.84 538.519 229.84C527.499 229.84 518.605 232.353 511.839 237.38C505.266 242.6 501.785 250.43 501.399 260.87C501.399 262.223 500.722 262.9 499.369 262.9C498.596 262.9 498.016 262.513 497.629 261.74ZM791.88 142.93C790.913 149.117 788.11 152.5 783.47 153.08C773.61 153.08 766.36 143.413 761.72 124.08C756.5 103.587 758.723 92.8567 768.39 91.89C778.057 91.89 785.21 101.557 789.85 120.89C792.17 129.203 792.847 136.55 791.88 142.93Z" stroke="#C58328" stroke-width="2" stroke-linejoin="round"/>
<path d="M152.629 143.8C153.596 142.253 154.659 141.48 155.819 141.48C157.753 141.48 158.333 143.123 157.559 146.41C155.433 156.657 149.729 165.067 140.449 171.64C131.363 178.02 121.019 181.21 109.419 181.21H105.649C88.2495 179.857 74.5228 173.187 64.4695 161.2C54.6095 149.213 50.1628 134.81 51.1295 117.99C52.2895 102.91 57.8961 89.9567 67.9495 79.13C78.0028 68.3033 91.0528 62.89 107.099 62.89C118.699 62.89 128.656 65.6933 136.969 71.3C145.476 76.9067 151.469 85.22 154.949 96.24C155.336 97.4 155.046 98.27 154.079 98.85C152.726 99.6233 148.279 102.33 140.739 106.97C133.393 111.61 128.366 114.607 125.659 115.96H125.369C125.176 116.153 124.983 116.25 124.789 116.25C123.243 116.25 122.469 115.38 122.469 113.64C123.243 102.233 122.469 91.9867 120.149 82.9C118.023 73.8133 114.253 69.0767 108.839 68.69C103.233 68.69 98.7861 71.6867 95.4995 77.68C92.2128 83.48 90.1828 89.7633 89.4095 96.53C87.0895 114.317 88.6361 129.977 94.0495 143.51C99.6561 157.043 108.936 164.1 121.889 164.68C127.883 164.68 133.779 162.65 139.579 158.59C145.573 154.337 149.923 149.407 152.629 143.8Z" stroke="#C58328" stroke-width="2" stroke-linejoin="round"/>
</g>
<defs>
<filter id="filter0_ddd_169_5" x="0" y="0" width="890.15" height="323.18" filterUnits="userSpaceOnUse" color-interpolation-filters="sRGB">
<feFlood flood-opacity="0" result="BackgroundImageFix"/>
<feColorMatrix in="SourceAlpha" type="matrix" values="0 0 0 0 0 0 0 0 0 0 0 0 0 0 0 0 0 0 127 0" result="hardAlpha"/>
<feOffset/>
<feGaussianBlur stdDeviation="7.5"/>
<feComposite in2="hardAlpha" operator="out"/>
<feColorMatrix type="matrix" values="0 0 0 0 0 0 0 0 0 0 0 0 0 0 0 0 0 0 0.5 0"/>
<feBlend mode="normal" in2="BackgroundImageFix" result="effect1_dropShadow_169_5"/>
<feColorMatrix in="SourceAlpha" type="matrix" values="0 0 0 0 0 0 0 0 0 0 0 0 0 0 0 0 0 0 127 0" result="hardAlpha"/>
<feOffset/>
<feGaussianBlur stdDeviation="25"/>
<feComposite in2="hardAlpha" operator="out"/>
<feColorMatrix type="matrix" values="0 0 0 0 1 0 0 0 0 0.843137 0 0 0 0 0 0 0 0 0.5 0"/>
<feBlend mode="normal" in2="effect1_dropShadow_169_5" result="effect2_dropShadow_169_5"/>
<feColorMatrix in="SourceAlpha" type="matrix" values="0 0 0 0 0 0 0 0 0 0 0 0 0 0 0 0 0 0 127 0" result="hardAlpha"/>
<feOffset dx="3" dy="3"/>
<feGaussianBlur stdDeviation="1"/>
<feComposite in2="hardAlpha" operator="out"/>
<feColorMatrix type="matrix" values="0 0 0 0 0.839216 0 0 0 0 0.584314 0 0 0 0 0.227451 0 0 0 1 0"/>
<feBlend mode="normal" in2="effect2_dropShadow_169_5" result="effect3_dropShadow_169_5"/>
<feBlend mode="normal" in="SourceGraphic" in2="effect3_dropShadow_169_5" result="shape"/>
</filter>
<linearGradient id="paint0_linear_169_5" x1="51" y1="161.59" x2="839.15" y2="161.59" gradientUnits="userSpaceOnUse">
<stop stop-color="#FFE086"/>
<stop offset="1" stop-color="#FFC03F"/>
</linearGradient>
<linearGradient id="paint1_linear_169_5" x1="51" y1="161.59" x2="839.15" y2="161.59" gradientUnits="userSpaceOnUse">
<stop stop-color="#FFE086"/>
<stop offset="1" stop-color="#FFC03F"/>
</linearGradient>
<linearGradient id="paint2_linear_169_5" x1="51" y1="161.59" x2="839.15" y2="161.59" gradientUnits="userSpaceOnUse">
<stop stop-color="#FFE086"/>
<stop offset="1" stop-color="#FFC03F"/>
</linearGradient>
<linearGradient id="paint3_linear_169_5" x1="51" y1="161.59" x2="839.15" y2="161.59" gradientUnits="userSpaceOnUse">
<stop stop-color="#FFE086"/>
<stop offset="1" stop-color="#FFC03F"/>
</linearGradient>
<linearGradient id="paint4_linear_169_5" x1="51" y1="161.59" x2="839.15" y2="161.59" gradientUnits="userSpaceOnUse">
<stop stop-color="#FFE086"/>
<stop offset="1" stop-color="#FFC03F"/>
</linearGradient>
<linearGradient id="paint5_linear_169_5" x1="51" y1="161.59" x2="839.15" y2="161.59" gradientUnits="userSpaceOnUse">
<stop stop-color="#FFE086"/>
<stop offset="1" stop-color="#FFC03F"/>
</linearGradient>
<linearGradient id="paint6_linear_169_5" x1="51" y1="161.59" x2="839.15" y2="161.59" gradientUnits="userSpaceOnUse">
<stop stop-color="#FFE086"/>
<stop offset="1" stop-color="#FFC03F"/>
</linearGradient>
</defs>
</svg>
