<svg width="403" height="250" viewBox="0 0 403 250" fill="none" xmlns="http://www.w3.org/2000/svg">
<path d="M219.827 61.1862C228.281 64.3138 237.734 73.7794 238.427 82.0332C238.519 83.1352 238.453 84.3423 238.384 85.4428C256.944 84.6007 262.872 95.1873 264.708 109.893C265.557 116.689 263.403 125.599 270.241 130.736C274.203 133.711 280.592 134.659 285.485 134.411C293.232 134.124 301.112 128.405 292.102 122.523C290.894 122.355 289.898 122.19 288.651 122.273C285.15 122.506 278.814 125.559 276.761 121.334C275.983 119.736 275.862 116.528 276.609 114.854C277.64 112.542 281.951 111.405 284.343 110.48C295.035 108.129 310.884 111.484 314.999 122.108C317.109 127.556 316.618 136.899 313.739 141.829C310.193 147.902 303.7 154.137 296.126 156.305C293.227 157.112 290.072 157.441 287.067 158.255C284.893 175.19 279.106 190.591 255.943 178.405C253.612 177.179 250.547 173.49 250.139 171.144C248.827 163.612 259.925 159.792 258.017 170.01C257.928 170.486 258.626 170.941 258.975 171.209C261.352 171.891 265.923 170.486 266.566 168.458C269.895 157.96 258.738 154.272 249.764 157.118C245.718 158.408 242.51 161.108 240.858 164.614C236.267 174.172 247.118 184.392 256.693 187.93C261.694 189.777 263.989 190.223 269.177 190.291C281.399 190.453 284.575 182.687 289.971 174.822C294.309 168.912 301.185 162.618 308.956 160.298C322.885 156.143 330.719 155.843 344.633 161.544C352.711 164.853 357.217 171.676 360.526 178.634C362.985 183.802 361.536 188.946 359.255 193.778C356.362 199.918 352.915 203.911 345.709 206.373C341.982 207.645 337.196 206.759 333.548 205.168C330.511 203.844 325.485 199.939 324.316 197.051L324.224 196.813C324.666 193.856 325.843 189.664 328.928 188.183C330.267 187.537 333.12 186.707 334.698 187.286C338.075 188.261 337.868 193.292 339.306 195.009C344.244 200.898 347.209 191.935 346.504 188.269C345.538 183.247 342.496 177.719 336.51 176.775C329.778 175.715 323.679 180.074 318.519 182.918C315.411 184.652 312.109 186.288 309.092 188.184C305.816 190.156 302.416 191.967 298.904 193.608C285.56 199.872 270.616 206.083 254.984 201.324C243.048 197.689 231.227 185.168 225.253 175.535C218.375 164.447 217.094 153.915 220.738 142.284C201.506 151.72 188.856 151.931 167.891 143.597C160.894 140.816 159.037 139.25 153.382 134.692C141.566 125.168 143.317 113.364 137.927 101.52C133.686 92.3909 122.374 83.9909 112.181 80.2899C108.751 79.0447 105.189 78.3332 101.918 77.109C111.001 75.8234 118.248 78.6633 126.63 81.5563C138.995 85.4624 146.931 91.7311 151.848 102.735C154.306 108.236 156.706 114.969 161.398 119.582C167.125 125.21 176.621 132.481 184.512 135.817C191.979 138.973 204.077 137.832 211.211 135.183C218.91 132.195 227.982 126.595 230.942 119.346C233.999 110.261 229.312 102.699 219.315 98.8183C209.268 94.9188 201.21 99.6896 196.904 107.456C195.875 109.313 196.489 113.897 199.19 114.535C203.48 115.549 206.641 108.651 211.297 110.144C215.806 111.727 216.759 116.836 215.354 120.238C210.993 130.804 196.303 129.232 186.406 125.529C176.981 122.003 167.51 115.7 163.3 107.3C159 98.7184 159.052 90.8861 162.386 82.4294C165.438 74.4247 168.075 70.66 175.891 65.9477C182.894 61.7258 185.137 60.8186 193.433 58.9951C204.275 56.6117 209.445 57.428 219.827 61.1862Z" fill="url(#paint0_linear_500_2944)"/>
<path d="M116.435 91.4508C123.457 94.9816 130.181 102.852 131.981 109.682C133.082 114.675 133.836 119.227 136.208 123.992C148.093 147.863 178.281 159.584 205.511 153.704C208.3 153.102 211.321 151.947 214.035 151.015C213.434 158.48 214.328 165.896 216.62 173.271C217.348 175.614 219.013 178.344 219.571 180.647C219.097 181.112 218.741 181.208 217.998 181.239C200.916 181.965 188.295 182.524 171.658 176.729C152.496 170.055 150.554 162.809 144.355 146.606C142.848 142.666 140.922 139.06 136.953 136.542C133.866 134.645 129.812 133.331 126.222 132.681C117.776 131.025 110.437 135.753 109.485 143.149C109.03 146.684 111.644 155.066 116.497 155.499C121.04 155.906 129.782 151.484 125.732 146.774C124.413 145.241 120.683 145.458 118.853 145.452C117.736 144.169 116.504 142.685 117.104 141.049C119.161 138.2 125.283 138.18 128.537 139.973C135.629 143.88 139.3 151.066 134.934 157.486C131.474 162.575 126.713 163.853 120.462 165.108C104.657 166.778 89.376 160.87 81.8386 147.368C78.1487 140.759 79.3817 131.815 84.2436 126.342C86.3729 123.945 89.1907 122.692 92.3399 121.512C80.3693 118.565 79.2128 121.931 68.7594 125.366C49.0026 131.857 30.3713 129.153 10.2133 124.171C12.7442 123.389 17.6014 123.004 20.503 122.679C24.2586 122.274 27.9894 121.751 31.6891 121.109C43.5586 119.027 55.4323 115.27 65.8882 110.103C69.9339 108.103 73.5258 105.644 77.5084 103.64C79.648 106.827 83.261 111.494 86.6381 113.605C91.6556 116.699 98.6736 118.422 104.51 117.422C111.887 116.159 119.5 112.476 117.275 104.607C115.629 98.075 109.912 93.9136 102.352 95.0855C99.3512 95.5505 91.0746 99.7864 96.5451 102.506C99.7832 102.021 96.6404 97.3453 106.796 100.643C107.854 101.912 108.277 102.417 109.068 103.868L108.651 106.866C105.196 110.26 100.565 111.308 95.467 109.469C92.6772 108.465 90.4092 106.523 89.1806 104.087C85.5903 96.9975 91.7567 91.4413 98.534 89.174C105.182 86.95 110.251 89.0404 116.435 91.4508Z" fill="url(#paint1_linear_500_2944)"/>
<defs>
<linearGradient id="paint0_linear_500_2944" x1="261.6" y1="81.0794" x2="213.38" y2="181.781" gradientUnits="userSpaceOnUse">
<stop stop-color="#E8CC83"/>
<stop offset="1" stop-color="#C8932F"/>
</linearGradient>
<linearGradient id="paint1_linear_500_2944" x1="142.488" y1="103.926" x2="109.929" y2="171.92" gradientUnits="userSpaceOnUse">
<stop stop-color="#E8CC83"/>
<stop offset="1" stop-color="#C8932F"/>
</linearGradient>
</defs>
</svg>
