<svg width="547" height="432" viewBox="0 0 547 432" fill="none" xmlns="http://www.w3.org/2000/svg">
<path d="M303.848 156.444C315.885 160.225 330.159 174.31 332.237 187.829C332.515 189.634 332.589 191.639 332.645 193.468C358.016 189.037 367.601 205.552 372.132 229.539C374.225 240.624 372.485 255.693 382.577 263.058C388.424 267.324 397.325 267.842 404.011 266.632C414.61 264.888 424.649 254.153 411.473 245.913C409.792 245.833 408.401 245.724 406.7 246.065C401.925 247.023 393.642 253.104 390.245 246.462C388.959 243.949 388.354 238.671 389.151 235.783C390.251 231.796 396.016 229.212 399.174 227.292C413.535 221.658 435.757 224.604 442.858 241.478C446.499 250.13 447.101 265.642 443.822 274.256C439.782 284.867 431.718 296.229 421.613 301.05C417.743 302.858 413.455 303.917 409.441 305.754C408.768 334.082 402.925 360.465 369.454 344.134C366.086 342.491 361.374 336.9 360.492 333.092C357.662 320.865 372.38 312.738 371.155 329.928C371.098 330.728 372.119 331.365 372.635 331.75C375.991 332.488 382.077 329.418 382.683 325.965C385.821 308.08 369.996 303.815 358.061 309.987C352.682 312.78 348.646 317.765 346.856 323.826C341.857 340.364 358.154 355.466 371.785 359.741C378.905 361.974 382.117 362.334 389.25 361.597C406.056 359.862 409.356 346.516 415.691 332.641C420.841 322.169 429.422 310.648 439.776 305.543C458.336 296.399 469.053 294.621 488.938 301.758C500.482 305.901 507.601 316.431 513.096 327.381C517.179 335.514 515.892 344.247 513.42 352.603C510.285 363.218 506.097 370.376 496.538 375.624C491.595 378.336 484.902 377.656 479.675 375.626C475.324 373.936 467.889 368.31 465.89 363.73L465.73 363.353C465.933 358.397 466.977 351.279 471.011 348.328C472.761 347.043 476.565 345.205 478.811 345.901C483.582 346.959 483.985 355.303 486.194 357.902C493.779 366.82 496.627 351.532 495.158 345.592C493.145 337.455 488.213 328.823 479.864 328.245C470.475 327.596 462.696 335.795 455.998 341.337C451.967 344.71 447.657 347.953 443.772 351.579C439.544 355.373 435.122 358.92 430.524 362.206C413.056 374.738 393.384 387.444 371.267 382.144C354.381 378.096 336.439 359.351 326.919 344.419C315.961 327.232 312.763 310.047 316.178 290.24C291.058 308.974 273.715 311.395 243.789 301.065C233.801 297.617 231.037 295.335 222.649 288.732C205.122 274.938 205.915 255.155 196.895 236.475C189.825 222.092 173.145 210.071 158.642 205.628C153.762 204.133 148.773 203.541 144.115 202.055C156.412 198.444 166.751 201.947 178.656 205.352C196.168 209.779 207.922 218.833 216.177 236.202C220.304 244.886 224.519 255.613 231.593 262.463C240.225 270.821 254.258 281.275 265.549 285.491C276.234 289.481 292.692 285.615 302.125 280.072C312.289 273.876 323.981 263.141 327.056 250.683C330.013 235.176 322.544 223.455 308.286 218.683C293.958 213.888 283.543 223.087 278.692 236.619C277.532 239.855 279.002 247.326 282.798 247.938C288.828 248.909 292.226 236.999 298.823 238.702C305.231 240.579 307.238 248.861 305.774 254.71C301.228 272.875 280.841 272.684 266.746 268.19C253.321 263.91 239.455 255.051 232.526 241.865C225.449 228.397 224.452 215.452 227.875 200.938C230.972 187.217 234.078 180.567 244.167 171.504C253.207 163.384 256.163 161.518 267.306 157.148C281.869 151.435 289.08 151.937 303.848 156.444Z" fill="url(#paint0_linear_609_284)"/>
<path d="M166.012 223.365C176.136 228.046 186.444 239.944 189.85 250.93C192.044 258.996 193.701 266.392 197.609 273.872C217.189 311.353 260.243 325.767 296.832 311.596C300.58 310.145 304.57 307.741 308.169 305.757C308.363 318.185 310.604 330.288 314.759 342.094C316.079 345.845 318.738 350.08 319.819 353.793C319.231 354.639 318.756 354.855 317.74 355.029C294.383 359.026 277.128 362.016 253.491 355.17C226.267 347.285 222.611 335.636 211.885 309.888C209.277 303.628 206.14 297.987 200.345 294.479C195.848 291.851 190.102 290.345 185.083 289.859C173.258 288.508 163.826 297.519 163.53 309.891C163.388 315.804 168.122 329.219 174.846 329.14C181.139 329.067 192.54 320.332 186.335 313.217C184.314 310.901 179.223 311.87 176.708 312.16C174.999 310.223 173.105 307.974 173.705 305.173C176.14 300.131 184.545 299.096 189.258 301.524C199.53 306.815 205.552 318.084 200.435 329.401C196.378 338.373 190.014 341.265 181.603 344.362C160.128 349.708 138.337 342.453 126.143 321.387C120.173 311.075 120.645 296.101 126.573 286.264C129.17 281.957 132.868 279.426 137.031 276.962C120.191 274.054 119.063 279.803 105.177 287.189C78.9346 301.147 52.9813 299.732 24.6204 294.805C27.9888 293.099 34.6061 291.668 38.5461 290.655C43.6478 289.372 48.6994 287.896 53.692 286.229C69.7065 280.847 85.498 272.698 99.1499 262.45C104.432 258.485 109.028 253.834 114.224 249.873C117.597 254.786 123.196 261.903 128.121 264.836C135.434 269.124 145.306 270.82 153.184 268.214C163.142 264.919 173.093 257.589 168.962 244.957C165.81 234.437 157.391 228.501 147.17 231.674C143.112 232.934 132.326 241.286 140.209 244.882C144.589 243.55 139.635 236.342 154.03 240.125C155.657 242.049 156.307 242.812 157.591 245.08L157.428 250.1C153.147 256.271 146.932 258.76 139.68 256.559C135.712 255.358 132.333 252.522 130.312 248.699C124.414 237.578 132.123 227.391 141.119 222.536C149.944 217.774 157.191 220.396 166.012 223.365Z" fill="url(#paint1_linear_609_284)"/>
<path d="M95.5485 41.8607C83.8117 44.5518 68.7644 56.843 65.2247 69.5011C64.752 71.1912 64.4467 73.0855 64.1791 74.8146C40.8997 68.7351 29.9651 83.6758 22.893 106.074C19.6247 116.424 19.4848 130.834 9.15102 137.065C3.16444 140.675 -5.24729 140.507 -11.3764 138.865C-21.1149 136.426 -29.2695 125.508 -15.9399 118.675C-14.3533 118.724 -13.0356 118.724 -11.4801 119.173C-7.11315 120.435 -0.0579171 126.812 3.91019 120.769C5.41189 118.483 6.60084 113.525 6.19288 110.73C5.62942 106.869 0.525321 103.993 -2.21157 101.94C-15.0203 95.5359 -36.2134 96.6805 -44.8601 112.146C-49.2938 120.076 -51.6834 134.732 -49.6204 143.139C-47.0784 153.495 -40.8502 164.861 -31.9384 170.178C-28.5204 172.178 -24.6229 173.5 -21.0728 175.538C-23.7744 202.435 -21.3969 227.872 11.9239 214.875C15.277 213.567 20.355 208.618 21.6298 205.074C25.7236 193.697 12.8722 184.904 11.9992 201.286C11.9586 202.048 10.9261 202.577 10.397 202.903C7.16107 203.354 1.81327 199.993 1.65124 196.675C0.811673 179.493 16.1588 176.624 26.6284 183.358C31.3461 186.404 34.5458 191.427 35.512 197.304C38.2563 213.347 21.1912 226.452 7.90112 229.494C0.959381 231.082 -2.09643 231.185 -8.70123 229.958C-24.2624 227.068 -25.7885 214.175 -30.0993 200.556C-33.6984 190.25 -40.393 178.695 -49.5059 173.09C-65.8413 163.049 -75.6856 160.569 -95.1789 165.859C-106.496 168.93 -114.413 178.382 -120.856 188.352C-125.643 195.758 -125.463 204.129 -124.127 212.231C-122.435 222.524 -119.348 229.618 -110.998 235.3C-106.68 238.236 -100.322 238.088 -95.1792 236.551C-90.8989 235.273 -83.2619 230.491 -80.8477 226.3L-80.6534 225.954C-80.2615 221.242 -80.4032 214.419 -83.8407 211.323C-85.3307 209.975 -88.6834 207.951 -90.8723 208.445C-95.4717 209.094 -96.8319 216.971 -99.2102 219.272C-107.374 227.161 -108.247 212.461 -106.17 206.941C-103.325 199.378 -97.6828 191.563 -89.7824 191.634C-80.8984 191.715 -74.5652 200.062 -68.9344 205.81C-65.5493 209.306 -61.8876 212.698 -58.6699 216.423C-55.15 220.332 -51.4186 224.021 -47.4917 227.476C-32.5798 240.647 -15.6196 254.147 5.75131 250.763C22.0684 248.178 41.1051 231.743 51.7924 218.298C64.0943 202.821 69.116 186.772 68.2419 167.748C89.6038 187.364 105.588 190.944 134.877 183.372C144.652 180.844 147.513 178.886 156.16 173.251C174.224 161.477 175.807 142.669 186.466 125.635C194.791 112.527 211.853 102.371 225.981 99.2348C230.734 98.1798 235.484 97.9888 240.029 96.9254C228.918 92.5918 218.807 95.1459 207.237 97.4907C190.289 100.388 178.198 108.097 168.41 123.947C163.517 131.87 158.301 141.724 150.86 147.691C141.778 154.973 127.384 163.841 116.295 166.999C105.803 169.988 90.8188 165.105 82.6215 159.153C73.8157 152.527 64.1099 141.487 62.691 129.452C61.7417 114.538 70.127 103.983 84.064 100.517C98.0689 97.034 106.757 106.525 109.715 119.709C110.423 122.861 108.165 129.833 104.533 130.131C98.7618 130.605 96.9746 119.066 90.5855 120.191C84.3535 121.494 81.4969 129.194 82.1823 134.846C84.3097 152.398 103.457 153.728 117.208 150.514C130.306 147.453 144.356 140.084 152.407 128.102C160.63 115.862 163.089 103.668 161.585 89.6595C160.293 76.4265 158.162 69.8941 149.764 60.557C142.239 52.1915 139.685 50.2041 129.746 45.2363C116.757 38.7433 109.933 38.6841 95.5485 41.8607Z" fill="url(#paint2_linear_609_284)"/>
<defs>
<linearGradient id="paint0_linear_609_284" x1="363.928" y1="182.458" x2="291.733" y2="348.077" gradientUnits="userSpaceOnUse">
<stop stop-color="#E8CC83"/>
<stop offset="1" stop-color="#FFC03F"/>
</linearGradient>
<linearGradient id="paint1_linear_609_284" x1="203.491" y1="239.702" x2="154.744" y2="351.528" gradientUnits="userSpaceOnUse">
<stop stop-color="#E8CC83"/>
<stop offset="1" stop-color="#FFC03F"/>
</linearGradient>
<linearGradient id="paint2_linear_609_284" x1="36.1269" y1="62.0623" x2="90.967" y2="222.111" gradientUnits="userSpaceOnUse">
<stop stop-color="#E8CC83"/>
<stop offset="1" stop-color="#FFC03F"/>
</linearGradient>
</defs>
</svg>
