<svg width="1085" height="192" viewBox="0 0 1085 192" fill="none" xmlns="http://www.w3.org/2000/svg">
<path d="M13.4862 147.271C12.4476 146.198 11.3768 145.076 10.9205 143.619C10.8224 143.306 10.605 142.641 10.7538 142.341C11.1768 142.167 12.485 144.055 12.7866 144.416C13.1861 144.891 13.5951 145.359 14.0137 145.818C14.6232 146.483 15.4848 147.329 16.2108 147.865C15.2277 146.722 14.2234 145.614 13.7714 144.138C13.6747 143.823 13.3835 143.057 13.6871 142.811C13.8298 142.827 14.0294 142.959 14.0974 143.08C15.3982 145.396 16.8856 147.359 18.5991 149.379C19.7666 150.756 21.0065 151.592 22.2484 152.802C23.1178 153.648 23.5647 155.564 24.5987 156.396C25.4833 157.277 26.274 158.243 27.576 158.509C28.5189 158.049 28.9219 157.495 29.5641 156.683C30.8311 155.082 33.1666 153.339 35.2507 154.533C35.8916 154.229 36.8103 153.992 37.5266 154.022C37.1182 154.408 36.3364 155.113 36.0609 155.582C35.6622 156.26 35.5001 157.482 35.2245 158.232C34.8175 159.338 34.3818 160.399 33.9945 161.512C35.0757 162.405 36.2422 162.874 37.6002 163.184C38.2807 163.34 38.9347 163.473 39.5849 163.739C41.8575 164.671 45.5357 167.221 47.8818 167.008C48.6137 166.941 49.2673 166.623 49.9804 166.48C50.1541 166.845 49.1194 167.33 48.8398 167.435C47.7719 167.837 46.8041 167.598 45.7405 167.4C47.1487 168.203 48.2635 168.869 49.9074 168.862C49.9938 168.861 50.0487 168.901 50.105 168.958C50.0787 169.076 50.0514 169.121 49.9339 169.185C48.3594 170.037 47.2052 169.716 45.6429 169.15C46.6246 170 47.4028 170.645 48.6031 171.15C48.6752 171.18 48.6852 171.249 48.7001 171.315C48.2255 172.02 45.5045 171.299 44.8737 171.029C45.1797 171.368 46.3233 172.403 46.2208 172.725C45.9719 173.505 43.6255 172.748 43.2573 172.622C43.2039 172.603 43.1508 172.584 43.0977 172.565C43.7759 174.157 42.2859 173.87 41.2823 173.556C41.1626 173.519 40.8332 173.318 40.7833 173.403L40.7992 173.452C40.8286 173.548 40.8881 173.711 40.8298 173.789C40.224 174.604 39.0624 174.184 38.439 173.862C38.0266 174.765 36.9435 174.47 36.2914 174.022C35.7185 174.796 34.8519 174.663 34.2333 174.025C33.9609 174.324 33.7112 174.511 33.3003 174.564C32.8195 174.626 32.2739 173.873 32.1513 173.902C31.7214 174.044 31.3244 174.393 30.8988 174.032C30.7335 173.892 30.5921 173.435 30.3747 173.501C29.6978 173.706 29.1982 173.833 28.9481 172.94C28.1068 173.007 27.5996 173.042 27.5267 172.075C26.6454 171.967 26.3945 171.976 26.1779 171.071C25.6705 171.374 24.9879 171.888 24.3892 171.727C23.7867 172.253 22.9251 172.819 22.4501 173.355C22.2815 173.546 21.7532 174.511 21.5896 174.803C20.8706 176.097 20.2026 177.419 19.5873 178.766C19.2341 179.545 18.5371 181.429 17.8064 181.797C17.6068 181.75 17.6588 181.586 17.4392 181.722C17.2116 181.864 16.989 182.06 16.7021 182.004C16.4354 181.952 16.4401 181.613 16.2693 181.519C16.0952 181.423 15.4503 182.068 15.0921 181.404C15.0088 181.25 14.9712 181.076 14.9305 180.908C13.8957 181.072 13.186 181.301 13.4913 179.898C12.2868 180.283 11.8623 180.001 12.2422 178.742C11.2523 178.969 10.6915 178.312 11.3781 177.581C12.0352 176.881 13.0119 176.157 13.7607 175.551C15.5493 174.105 17.506 172.763 18.9098 170.913C19.3455 170.318 20.3724 168.247 20.7213 167.528C20.2951 167.672 19.9841 167.763 19.6306 167.394C19.1888 166.933 18.7192 167.978 18.176 167.443C17.904 167.175 17.8418 167.027 17.6772 166.69C16.6295 167.303 16.7042 166.493 16.3328 166.095C16.0178 165.757 14.8983 166.047 14.894 164.66C13.9212 164.683 13.5748 164.316 13.7769 163.321C13.1089 163.385 12.7435 163.289 12.7184 162.512C12.7132 162.36 12.7201 162.208 12.7388 162.056C11.618 161.67 11.6437 161.453 11.8966 160.323C10.9052 160.092 10.6862 159.731 11.201 158.836C10.2543 158.576 9.49928 158.213 10.1695 157.157C9.61445 156.919 8.80488 156.403 9.08942 155.661C9.12981 155.555 9.31303 155.366 9.3949 155.277C9.09182 155.107 8.94383 155.014 8.65777 154.722C8.33579 154.394 7.86737 153.648 8.63283 153.47C8.71865 153.45 8.8269 153.441 8.91754 153.424C8.39551 153.063 8.07821 152.793 7.73775 152.248C7.00233 151.072 8.71643 151.464 9.34927 151.535C8.69651 151.236 8.03983 150.92 7.56175 150.363C7.29732 150.055 6.83476 149.292 7.00674 148.905C7.33115 148.729 8.34328 149.085 8.70819 149.185C9.20978 149.316 9.71749 149.425 10.2294 149.509C8.99603 148.91 7.65698 148.15 7.18374 146.781C7.09632 146.527 7.03299 146.339 7.10347 146.081L7.18798 145.997C7.51785 146.047 8.72949 146.871 9.11106 147.049C9.89069 147.414 10.9329 148.012 11.7231 148.29C10.4697 147.289 8.34539 145.471 8.51687 143.679C9.05087 143.928 9.35088 144.198 9.77757 144.61C10.861 145.658 12.1402 146.523 13.3852 147.366L13.4862 147.271Z" fill="#5F6C6F"/>
<path d="M56.684 127.233C54.8796 125.37 53.0192 123.42 52.2265 120.89C52.056 120.345 51.6783 119.19 51.9369 118.669C52.6717 118.367 54.9445 121.647 55.4686 122.273C56.1627 123.1 56.8731 123.912 57.6005 124.709C58.6592 125.865 60.1562 127.335 61.4176 128.266C59.7095 126.281 57.9647 124.356 57.1794 121.792C57.0115 121.243 56.5056 119.912 57.033 119.486C57.2809 119.513 57.6277 119.742 57.7457 119.953C60.0056 123.976 62.5899 127.387 65.5667 130.896C67.595 133.288 69.7492 134.741 71.9069 136.842C73.4173 138.313 74.1936 141.642 75.9901 143.087C77.5269 144.618 78.9006 146.295 81.1626 146.758C82.8008 145.96 83.501 144.996 84.6167 143.586C86.8179 140.804 90.8754 137.776 94.4961 139.851C95.6096 139.322 97.2057 138.911 98.4502 138.962C97.7406 139.634 96.3824 140.859 95.9038 141.672C95.211 142.85 94.9295 144.974 94.4507 146.277C93.7435 148.198 92.9865 150.042 92.3138 151.975C94.1921 153.527 96.2188 154.343 98.578 154.881C99.7603 155.151 100.897 155.382 102.026 155.845C105.974 157.464 112.365 161.894 116.441 161.523C117.712 161.407 118.848 160.855 120.087 160.606C120.388 161.24 118.591 162.083 118.105 162.266C116.25 162.965 114.568 162.548 112.72 162.204C115.167 163.6 117.104 164.757 119.96 164.745C120.11 164.744 120.205 164.812 120.303 164.911C120.257 165.117 120.21 165.195 120.006 165.305C117.27 166.786 115.265 166.229 112.551 165.245C114.256 166.722 115.608 167.843 117.694 168.72C117.819 168.772 117.836 168.892 117.862 169.006C117.038 170.231 112.31 168.978 111.215 168.51C111.746 169.099 113.733 170.896 113.555 171.456C113.122 172.811 109.046 171.497 108.406 171.277C108.314 171.245 108.221 171.212 108.129 171.179C109.307 173.945 106.719 173.445 104.975 172.9C104.767 172.835 104.195 172.487 104.108 172.634L104.136 172.72C104.187 172.885 104.29 173.169 104.189 173.306C103.136 174.721 101.118 173.991 100.035 173.432C99.3189 175 97.4372 174.489 96.3043 173.71C95.3089 175.054 93.8033 174.824 92.7286 173.715C92.2554 174.234 91.8216 174.559 91.1077 174.651C90.2724 174.759 89.3245 173.45 89.1114 173.501C88.3646 173.747 87.6748 174.355 86.9354 173.727C86.6482 173.484 86.4026 172.689 86.0249 172.804C84.849 173.16 83.9809 173.381 83.5464 171.83C82.0849 171.947 81.2036 172.006 81.0769 170.327C79.5459 170.139 79.1099 170.155 78.7337 168.583C77.8522 169.109 76.6662 170.002 75.6261 169.723C74.5795 170.636 73.0825 171.619 72.2572 172.551C71.9643 172.882 71.0465 174.559 70.7623 175.067C69.5132 177.315 68.3526 179.612 67.2836 181.951C66.67 183.304 65.459 186.578 64.1895 187.217C63.8428 187.135 63.9332 186.851 63.5517 187.087C63.1563 187.333 62.7696 187.674 62.2711 187.577C61.8077 187.486 61.8159 186.898 61.5191 186.734C61.2166 186.567 60.0962 187.687 59.4739 186.534C59.3292 186.267 59.2639 185.965 59.1931 185.673C57.3953 185.958 56.1623 186.355 56.6927 183.919C54.6002 184.586 53.8628 184.098 54.5228 181.91C52.8029 182.303 51.8286 181.163 53.0215 179.892C54.163 178.676 55.86 177.418 57.1609 176.366C60.2682 173.854 63.6677 171.522 66.1065 168.308C66.8635 167.274 68.6475 163.677 69.2538 162.428C68.5133 162.678 67.9729 162.835 67.3589 162.195C66.5913 161.394 65.7755 163.209 64.8318 162.279C64.3592 161.815 64.2511 161.557 63.9651 160.971C62.145 162.037 62.2747 160.629 61.6294 159.937C61.0822 159.351 59.1372 159.855 59.1297 157.444C57.4397 157.484 56.8379 156.848 57.1891 155.118C56.0285 155.23 55.3937 155.062 55.3501 153.714C55.341 153.449 55.353 153.184 55.3854 152.921C53.4383 152.25 53.4829 151.872 53.9224 149.909C52.1999 149.509 51.8195 148.882 52.7137 147.326C51.0691 146.874 49.7573 146.244 50.9217 144.409C49.9574 143.995 48.5509 143.099 49.0453 141.81C49.1155 141.626 49.4337 141.298 49.576 141.143C49.0494 140.848 48.7923 140.687 48.2954 140.18C47.736 139.61 46.9222 138.313 48.252 138.003C48.4011 137.968 48.5892 137.954 48.7467 137.925C47.8397 137.297 47.2885 136.827 46.697 135.88C45.4193 133.837 48.3973 134.518 49.4967 134.642C48.3627 134.122 47.2218 133.573 46.3912 132.606C45.9318 132.07 45.1282 130.746 45.427 130.073C45.9906 129.767 47.749 130.386 48.3829 130.559C49.2544 130.788 50.1364 130.976 51.0257 131.123C48.883 130.082 46.5567 128.761 45.7345 126.382C45.5826 125.942 45.4726 125.614 45.595 125.166L45.7418 125.02C46.3149 125.108 48.42 126.54 49.0829 126.849C50.4373 127.482 52.248 128.521 53.6208 129.005C51.4433 127.265 47.7526 124.107 48.0506 120.994C48.9783 121.427 49.4995 121.895 50.2408 122.611C52.1231 124.432 54.3456 125.934 56.5085 127.398L56.684 127.233Z" fill="#5F6C6F"/>
<path d="M1013.46 25.0718C1015.27 23.209 1017.13 21.2589 1017.92 18.7281C1018.09 18.1838 1018.47 17.0287 1018.21 16.5079C1017.48 16.2053 1015.2 19.4851 1014.68 20.1118C1013.99 20.9383 1013.28 21.7505 1012.55 22.5478C1011.49 23.7032 1009.99 25.1731 1008.73 26.1043C1010.44 24.1195 1012.18 22.1943 1012.97 19.6302C1013.14 19.0817 1013.64 17.7507 1013.12 17.3247C1012.87 17.3516 1012.52 17.5807 1012.4 17.7913C1010.14 21.8148 1007.56 25.2256 1004.58 28.7348C1002.55 31.1264 1000.4 32.5795 998.242 34.681C996.731 36.1519 995.955 39.4805 994.158 40.9251C992.622 42.4564 991.248 44.1339 988.986 44.5961C987.348 43.7981 986.647 42.8349 985.532 41.4248C983.331 38.6423 979.273 35.6143 975.652 37.6891C974.539 37.1606 972.943 36.7497 971.698 36.8009C972.408 37.4722 973.766 38.6976 974.245 39.5108C974.937 40.6886 975.219 42.8121 975.698 44.1153C976.405 46.037 977.162 47.8803 977.835 49.814C975.956 51.366 973.93 52.1811 971.57 52.7194C970.388 52.9892 969.252 53.2201 968.122 53.6837C964.174 55.303 957.784 59.7326 953.708 59.3616C952.436 59.2458 951.301 58.6936 950.062 58.4446C949.76 59.0784 951.558 59.9217 952.043 60.1046C953.899 60.8033 955.58 60.3868 957.428 60.043C954.981 61.4383 953.045 62.5958 950.189 62.5833C950.039 62.5825 949.943 62.651 949.845 62.7499C949.891 62.9552 949.938 63.0337 950.143 63.1438C952.878 64.6247 954.883 64.0673 957.597 63.0833C955.892 64.5606 954.54 65.6817 952.455 66.5582C952.329 66.6109 952.312 66.7308 952.286 66.8445C953.111 68.0693 957.838 66.817 958.934 66.3487C958.402 66.9379 956.415 68.7345 956.594 69.2943C957.026 70.6493 961.103 69.3354 961.742 69.1152C961.835 69.0833 961.927 69.0504 962.019 69.0174C960.841 71.7831 963.43 71.2837 965.173 70.7385C965.381 70.6734 965.954 70.3254 966.04 70.4729L966.013 70.5582C965.962 70.7238 965.858 71.008 965.96 71.1441C967.012 72.5599 969.03 71.8294 970.113 71.2701C970.83 72.8387 972.711 72.3271 973.844 71.5486C974.84 72.8925 976.345 72.6622 977.42 71.5531C977.893 72.0727 978.327 72.3974 979.041 72.4896C979.876 72.5973 980.824 71.2884 981.037 71.3391C981.784 71.5854 982.474 72.1933 983.213 71.5658C983.5 71.3221 983.746 70.5278 984.124 70.6422C985.299 70.9983 986.167 71.22 986.602 69.6684C988.064 69.7854 988.945 69.8449 989.071 68.166C990.603 67.978 991.039 67.994 991.415 66.4217C992.296 66.9471 993.482 67.8407 994.522 67.5611C995.569 68.4749 997.066 69.4579 997.891 70.39C998.184 70.7205 999.102 72.3975 999.386 72.9057C1000.64 75.1537 1001.8 77.4502 1002.86 79.7895C1003.48 81.143 1004.69 84.4166 1005.96 85.0551C1006.31 84.9738 1006.22 84.6893 1006.6 84.9258C1006.99 85.1718 1007.38 85.5122 1007.88 85.4152C1008.34 85.325 1008.33 84.7368 1008.63 84.5722C1008.93 84.4055 1010.05 85.5258 1010.67 84.3726C1010.82 84.1059 1010.88 83.8038 1010.96 83.5117C1012.75 83.7969 1013.99 84.194 1013.46 81.7574C1015.55 82.4247 1016.29 81.9363 1015.63 79.7486C1017.35 80.1419 1018.32 79.0014 1017.13 77.7305C1015.99 76.5145 1014.29 75.2566 1012.99 74.2049C1009.88 71.6928 1006.48 69.3604 1004.04 66.1461C1003.28 65.1126 1001.5 61.5151 1000.89 60.2665C1001.64 60.5167 1002.18 60.6739 1002.79 60.0331C1003.56 59.2327 1004.37 61.0476 1005.32 60.1178C1005.79 59.6532 1005.9 59.3954 1006.18 58.81C1008 59.8756 1007.87 58.4673 1008.52 57.7759C1009.07 57.1892 1011.01 57.6931 1011.02 55.2828C1012.71 55.3224 1013.31 54.6862 1012.96 52.9562C1014.12 53.0688 1014.75 52.9009 1014.8 51.5521C1014.81 51.2875 1014.8 51.0225 1014.76 50.7596C1016.71 50.0884 1016.67 49.711 1016.23 47.7476C1017.95 47.3473 1018.33 46.7203 1017.43 45.1649C1019.08 44.7127 1020.39 44.0825 1019.23 42.2471C1020.19 41.8338 1021.6 40.9371 1021.1 39.6481C1021.03 39.4644 1020.71 39.1366 1020.57 38.9818C1021.1 38.6862 1021.36 38.5254 1021.85 38.0183C1022.41 37.4484 1023.23 36.1517 1021.9 35.8416C1021.75 35.8068 1021.56 35.7927 1021.4 35.7632C1022.31 35.1358 1022.86 34.6659 1023.45 33.719C1024.73 31.6759 1021.75 32.3567 1020.65 32.4805C1021.79 31.9606 1022.93 31.4114 1023.76 30.4444C1024.22 29.9086 1025.02 28.5844 1024.72 27.9116C1024.16 27.6055 1022.4 28.2248 1021.77 28.3975C1020.89 28.6261 1020.01 28.8143 1019.12 28.9616C1021.27 27.9206 1023.59 26.5993 1024.41 24.2207C1024.57 23.7807 1024.68 23.453 1024.55 23.0048L1024.41 22.8586C1023.83 22.9468 1021.73 24.3782 1021.07 24.6877C1019.71 25.3209 1017.9 26.3592 1016.53 26.8433C1018.71 25.1031 1022.4 21.946 1022.1 18.8321C1021.17 19.2652 1020.65 19.7334 1019.91 20.4499C1018.03 22.2707 1015.8 23.7727 1013.64 25.237L1013.46 25.0718Z" fill="#5F6C6F"/>
<path d="M1071.51 64.6901C1072.55 63.6179 1073.62 62.4954 1074.08 61.0387C1074.18 60.7254 1074.4 60.0605 1074.25 59.7608C1073.82 59.5866 1072.52 61.4744 1072.21 61.8351C1071.81 62.3109 1071.4 62.7784 1070.99 63.2373C1070.38 63.9023 1069.52 64.7484 1068.79 65.2844C1069.77 64.142 1070.78 63.0338 1071.23 61.5579C1071.33 61.2422 1071.62 60.4761 1071.31 60.2309C1071.17 60.2464 1070.97 60.3783 1070.9 60.4995C1069.6 62.8154 1068.11 64.7786 1066.4 66.7985C1065.23 68.1751 1063.99 69.0115 1062.75 70.2211C1061.88 71.0677 1061.44 72.9837 1060.4 73.8152C1059.52 74.6965 1058.73 75.6621 1057.42 75.9282C1056.48 75.4689 1056.08 74.9144 1055.44 74.1028C1054.17 72.5012 1051.83 70.7583 1049.75 71.9525C1049.11 71.6484 1048.19 71.4118 1047.47 71.4413C1047.88 71.8277 1048.66 72.533 1048.94 73.0011C1049.34 73.6791 1049.5 74.9013 1049.78 75.6514C1050.18 76.7576 1050.62 77.8185 1051.01 78.9316C1049.92 79.8249 1048.76 80.294 1047.4 80.6039C1046.72 80.7592 1046.07 80.8921 1045.42 81.159C1043.14 82.091 1039.46 84.6406 1037.12 84.4271C1036.39 84.3604 1035.73 84.0426 1035.02 83.8993C1034.85 84.2641 1035.88 84.7495 1036.16 84.8548C1037.23 85.2569 1038.2 85.0172 1039.26 84.8193C1037.85 85.6224 1036.74 86.2887 1035.09 86.2815C1035.01 86.281 1034.95 86.3205 1034.9 86.3774C1034.92 86.4956 1034.95 86.5407 1035.07 86.6041C1036.64 87.4565 1037.79 87.1357 1039.36 86.5693C1038.38 87.4196 1037.6 88.0649 1036.4 88.5694C1036.32 88.5998 1036.31 88.6688 1036.3 88.7342C1036.77 89.4392 1039.5 88.7184 1040.13 88.4488C1039.82 88.788 1038.68 89.8221 1038.78 90.1443C1039.03 90.9243 1041.37 90.168 1041.74 90.0412C1041.8 90.0228 1041.85 90.0039 1041.9 89.9849C1041.22 91.5769 1042.71 91.2894 1043.72 90.9756C1043.84 90.9381 1044.17 90.7378 1044.22 90.8227L1044.2 90.8718C1044.17 90.9671 1044.11 91.1307 1044.17 91.209C1044.78 92.024 1045.94 91.6035 1046.56 91.2816C1046.97 92.1844 1048.06 91.89 1048.71 91.4419C1049.28 92.2154 1050.15 92.0828 1050.77 91.4445C1051.04 91.7436 1051.29 91.9304 1051.7 91.9835C1052.18 92.0455 1052.73 91.2921 1052.85 91.3213C1053.28 91.4631 1053.68 91.8129 1054.1 91.4518C1054.27 91.3115 1054.41 90.8543 1054.63 90.9201C1055.3 91.1251 1055.8 91.2528 1056.05 90.3596C1056.89 90.427 1057.4 90.4612 1057.47 89.4949C1058.35 89.3866 1058.61 89.3958 1058.82 88.4909C1059.33 88.7933 1060.01 89.3076 1060.61 89.1467C1061.21 89.6726 1062.07 90.2385 1062.55 90.775C1062.72 90.9652 1063.25 91.9305 1063.41 92.223C1064.13 93.517 1064.8 94.8388 1065.41 96.1853C1065.77 96.9644 1066.46 98.8486 1067.19 99.2161C1067.39 99.1693 1067.34 99.0056 1067.56 99.1417C1067.79 99.2833 1068.01 99.4793 1068.3 99.4234C1068.56 99.3715 1068.56 99.0329 1068.73 98.9382C1068.9 98.8422 1069.55 99.4871 1069.91 98.8233C1069.99 98.6698 1070.03 98.4959 1070.07 98.3278C1071.1 98.4919 1071.81 98.7205 1071.51 97.318C1072.71 97.7021 1073.14 97.4209 1072.76 96.1617C1073.75 96.3881 1074.31 95.7317 1073.62 95.0001C1072.96 94.3002 1071.99 93.5762 1071.24 92.9708C1069.45 91.5249 1067.49 90.1824 1066.09 88.3322C1065.65 87.7374 1064.63 85.6667 1064.28 84.9479C1064.7 85.092 1065.02 85.1824 1065.37 84.8136C1065.81 84.3529 1066.28 85.3976 1066.82 84.8624C1067.1 84.5949 1067.16 84.4466 1067.32 84.1096C1068.37 84.723 1068.3 83.9123 1068.67 83.5144C1068.98 83.1767 1070.1 83.4667 1070.11 82.0794C1071.08 82.1022 1071.43 81.736 1071.22 80.7402C1071.89 80.805 1072.26 80.7083 1072.28 79.932C1072.29 79.7797 1072.28 79.6272 1072.26 79.4759C1073.38 79.0895 1073.36 78.8723 1073.1 77.7422C1074.09 77.5118 1074.31 77.1508 1073.8 76.2555C1074.75 75.9953 1075.5 75.6326 1074.83 74.5761C1075.39 74.3382 1076.2 73.8221 1075.91 73.0801C1075.87 72.9744 1075.69 72.7857 1075.61 72.6966C1075.91 72.5265 1076.06 72.4339 1076.34 72.142C1076.66 71.814 1077.13 71.0676 1076.37 70.8891C1076.28 70.8691 1076.17 70.861 1076.08 70.844C1076.6 70.4829 1076.92 70.2124 1077.26 69.6674C1078 68.4913 1076.28 68.8833 1075.65 68.9545C1076.3 68.6553 1076.96 68.3391 1077.44 67.7825C1077.7 67.4742 1078.17 66.7119 1077.99 66.3247C1077.67 66.1485 1076.66 66.5049 1076.29 66.6043C1075.79 66.7359 1075.28 66.8443 1074.77 66.9291C1076 66.3298 1077.34 65.5693 1077.82 64.2002C1077.9 63.9469 1077.97 63.7583 1077.9 63.5003L1077.81 63.4162C1077.48 63.467 1076.27 64.2909 1075.89 64.469C1075.11 64.8335 1074.07 65.4311 1073.28 65.7098C1074.53 64.7081 1076.65 62.8909 1076.48 61.0986C1075.95 61.3479 1075.65 61.6173 1075.22 62.0297C1074.14 63.0778 1072.86 63.9423 1071.61 64.7852L1071.51 64.6901Z" fill="#5F6C6F"/>
<path d="M1018.25 109.04C1019.42 107.835 1020.62 106.574 1021.13 104.936C1021.24 104.584 1021.49 103.837 1021.32 103.5C1020.84 103.304 1019.37 105.426 1019.04 105.832C1018.59 106.366 1018.13 106.892 1017.66 107.407C1016.97 108.155 1016 109.106 1015.19 109.708C1016.29 108.424 1017.42 107.179 1017.93 105.52C1018.04 105.165 1018.36 104.304 1018.02 104.029C1017.86 104.046 1017.64 104.194 1017.56 104.33C1016.1 106.933 1014.43 109.14 1012.5 111.41C1011.19 112.957 1009.8 113.897 1008.4 115.256C1007.42 116.208 1006.92 118.361 1005.76 119.296C1004.77 120.286 1003.88 121.372 1002.41 121.671C1001.35 121.154 1000.9 120.531 1000.18 119.619C998.755 117.819 996.131 115.86 993.788 117.202C993.068 116.861 992.035 116.595 991.23 116.628C991.689 117.062 992.568 117.855 992.878 118.381C993.326 119.143 993.508 120.517 993.818 121.36C994.275 122.603 994.765 123.795 995.2 125.046C993.985 126.05 992.674 126.577 991.148 126.926C990.383 127.1 989.648 127.249 988.917 127.549C986.363 128.597 982.229 131.462 979.592 131.222C978.77 131.148 978.035 130.79 977.234 130.629C977.039 131.039 978.201 131.585 978.516 131.703C979.716 132.155 980.804 131.886 981.999 131.663C980.416 132.566 979.163 133.315 977.316 133.307C977.219 133.306 977.157 133.35 977.094 133.414C977.123 133.547 977.154 133.598 977.286 133.669C979.055 134.627 980.353 134.267 982.109 133.63C981.005 134.586 980.131 135.311 978.782 135.878C978.701 135.912 978.689 135.99 978.673 136.063C979.206 136.856 982.264 136.045 982.973 135.742C982.629 136.124 981.344 137.286 981.459 137.648C981.739 138.525 984.376 137.675 984.79 137.532C984.85 137.511 984.909 137.49 984.969 137.469C984.207 139.258 985.881 138.935 987.009 138.582C987.144 138.54 987.514 138.315 987.57 138.41L987.552 138.466C987.519 138.573 987.453 138.757 987.518 138.845C988.199 139.761 989.504 139.288 990.205 138.926C990.668 139.941 991.886 139.61 992.619 139.106C993.263 139.976 994.237 139.827 994.932 139.109C995.238 139.445 995.518 139.655 995.98 139.715C996.521 139.785 997.134 138.938 997.272 138.971C997.755 139.13 998.201 139.523 998.679 139.117C998.865 138.96 999.024 138.446 999.268 138.52C1000.03 138.75 1000.59 138.894 1000.87 137.89C1001.82 137.966 1002.39 138.004 1002.47 136.918C1003.46 136.796 1003.74 136.807 1003.99 135.79C1004.56 136.13 1005.32 136.708 1006 136.527C1006.67 137.118 1007.64 137.754 1008.17 138.357C1008.36 138.571 1008.96 139.655 1009.14 139.984C1009.95 141.439 1010.7 142.924 1011.39 144.437C1011.79 145.313 1012.57 147.431 1013.39 147.844C1013.62 147.791 1013.56 147.607 1013.81 147.76C1014.06 147.919 1014.31 148.139 1014.63 148.077C1014.93 148.018 1014.93 147.638 1015.12 147.531C1015.32 147.424 1016.04 148.148 1016.44 147.402C1016.54 147.23 1016.58 147.034 1016.63 146.845C1017.79 147.03 1018.59 147.287 1018.24 145.71C1019.6 146.142 1020.07 145.826 1019.65 144.411C1020.76 144.665 1021.39 143.928 1020.62 143.105C1019.88 142.319 1018.78 141.505 1017.94 140.825C1015.93 139.2 1013.73 137.691 1012.15 135.611C1011.66 134.943 1010.51 132.616 1010.12 131.808C1010.6 131.97 1010.95 132.071 1011.34 131.657C1011.84 131.139 1012.37 132.313 1012.98 131.712C1013.28 131.411 1013.35 131.244 1013.54 130.866C1014.72 131.555 1014.63 130.644 1015.05 130.197C1015.4 129.817 1016.66 130.143 1016.67 128.584C1017.76 128.61 1018.15 128.198 1017.92 127.079C1018.67 127.152 1019.08 127.043 1019.11 126.17C1019.12 125.999 1019.11 125.828 1019.09 125.658C1020.35 125.224 1020.32 124.979 1020.04 123.709C1021.15 123.45 1021.4 123.045 1020.82 122.039C1021.88 121.746 1022.73 121.338 1021.98 120.151C1022.6 119.884 1023.51 119.304 1023.19 118.47C1023.15 118.351 1022.94 118.139 1022.85 118.039C1023.19 117.847 1023.35 117.743 1023.68 117.415C1024.04 117.047 1024.56 116.208 1023.7 116.007C1023.61 115.985 1023.49 115.976 1023.38 115.957C1023.97 115.551 1024.33 115.247 1024.71 114.634C1025.54 113.312 1023.61 113.753 1022.9 113.833C1023.63 113.497 1024.37 113.141 1024.91 112.516C1025.2 112.169 1025.72 111.313 1025.53 110.877C1025.17 110.679 1024.03 111.08 1023.62 111.192C1023.06 111.34 1022.48 111.461 1021.91 111.557C1023.3 110.883 1024.8 110.028 1025.33 108.49C1025.43 108.205 1025.5 107.993 1025.42 107.703L1025.33 107.608C1024.96 107.666 1023.6 108.592 1023.17 108.792C1022.29 109.201 1021.12 109.873 1020.23 110.186C1021.64 109.06 1024.03 107.018 1023.83 105.004C1023.23 105.284 1022.9 105.587 1022.42 106.05C1021.2 107.228 1019.76 108.2 1018.36 109.147L1018.25 109.04Z" fill="#5F6C6F"/>
</svg>
