<svg width="162" height="177" viewBox="0 0 162 177" fill="none" xmlns="http://www.w3.org/2000/svg">
<path d="M77.6916 29.4496C79.811 27.2616 81.9963 24.9709 82.9275 21.9982C83.1277 21.3588 83.5714 20.002 83.2676 19.3904C82.4045 19.035 79.7349 22.8874 79.1192 23.6235C78.304 24.5943 77.4695 25.5484 76.6151 26.4848C75.3715 27.842 73.6131 29.5686 72.1315 30.6624C74.1378 28.331 76.1873 26.0697 77.1097 23.0579C77.3069 22.4135 77.9011 20.8502 77.2817 20.3498C76.9905 20.3813 76.5831 20.6505 76.4445 20.8978C73.7899 25.624 70.7545 29.6303 67.2579 33.7522C64.8753 36.5614 62.345 38.2683 59.8106 40.7367C58.0365 42.4645 57.1246 46.3743 55.0144 48.0711C53.2092 49.8697 51.5957 51.8402 48.9387 52.3831C47.0145 51.4458 46.192 50.3144 44.8814 48.6581C42.296 45.3897 37.5299 41.833 33.277 44.2701C31.9691 43.6493 30.0943 43.1666 28.6324 43.2267C29.4659 44.0153 31.0613 45.4547 31.6235 46.4098C32.4372 47.7934 32.7679 50.2876 33.3303 51.8184C34.161 54.0757 35.0501 56.2407 35.8404 58.5121C33.6341 60.3351 31.2535 61.2925 28.4823 61.9249C27.0935 62.2418 25.7589 62.5129 24.4322 63.0576C19.7944 64.9595 12.2884 70.1626 7.50062 69.7268C6.00712 69.5908 4.67327 68.9422 3.21812 68.6497C2.86365 69.3942 4.97508 70.3847 5.54563 70.5996C7.72492 71.4203 9.69998 70.931 11.8704 70.5272C8.99661 72.1661 6.72181 73.5258 3.36706 73.5111C3.19073 73.5101 3.07857 73.5907 2.9638 73.7068C3.01737 73.948 3.07314 74.0401 3.31295 74.1695C6.52596 75.909 8.88143 75.2542 12.0695 74.0985C10.0662 75.8337 8.47824 77.1505 6.02866 78.1801C5.88163 78.242 5.86114 78.3828 5.83066 78.5164C6.79923 79.955 12.352 78.484 13.6393 77.934C13.0148 78.6261 10.6811 80.7364 10.8903 81.3939C11.3983 82.9856 16.1866 81.4423 16.9379 81.1836C17.0468 81.1461 17.1551 81.1074 17.2635 81.0687C15.8795 84.3173 18.9202 83.7307 20.9683 83.0904C21.2125 83.0138 21.8848 82.6051 21.9866 82.7783L21.9541 82.8786C21.8941 83.073 21.7728 83.4069 21.8917 83.5667C23.128 85.2298 25.4985 84.3717 26.7706 83.7147C27.6121 85.5572 29.8223 84.9563 31.1531 84.0419C32.3223 85.6204 34.0908 85.3498 35.3532 84.0471C35.9089 84.6575 36.4185 85.0389 37.257 85.1471C38.2381 85.2736 39.3516 83.7362 39.6019 83.7958C40.4792 84.0851 41.2894 84.7991 42.1578 84.0621C42.4952 83.7758 42.7838 82.8429 43.2274 82.9772C44.6086 83.3955 45.6282 83.6559 46.1386 81.8333C47.8554 81.9707 48.8905 82.0407 49.0393 80.0686C50.8377 79.8478 51.3498 79.8665 51.7917 78.0197C52.8272 78.6368 54.2202 79.6865 55.442 79.3581C56.6713 80.4314 58.4297 81.5861 59.3991 82.6809C59.7431 83.0692 60.8212 85.039 61.155 85.6359C62.6222 88.2765 63.9855 90.974 65.2411 93.7218C65.9619 95.3116 67.3844 99.1567 68.8755 99.9067C69.2827 99.8113 69.1766 99.4771 69.6247 99.7548C70.0891 100.044 70.5434 100.444 71.1289 100.33C71.6732 100.224 71.6636 99.5329 72.0122 99.3396C72.3675 99.1437 73.6836 100.46 74.4145 99.1051C74.5845 98.7918 74.6612 98.4369 74.7444 98.0939C76.8561 98.4289 78.3043 98.8953 77.6813 96.0332C80.1392 96.8171 81.0055 96.2433 80.2302 93.6737C82.2504 94.1356 83.3948 92.796 81.9936 91.3032C80.6527 89.8748 78.6595 88.3973 77.1314 87.162C73.4816 84.2112 69.4884 81.4716 66.6238 77.696C65.7346 76.4821 63.6391 72.2564 62.9269 70.7897C63.7968 71.0837 64.4315 71.2683 65.1527 70.5156C66.0544 69.5755 67.0126 71.7073 68.1211 70.6151C68.6762 70.0694 68.8032 69.7666 69.1391 69.0789C71.277 70.3306 71.1247 68.6764 71.8826 67.8643C72.5253 67.1751 74.8101 67.767 74.8188 64.9359C76.8039 64.9824 77.5108 64.2351 77.0983 62.203C78.4616 62.3353 79.2072 62.138 79.2584 60.5538C79.2691 60.243 79.255 59.9316 79.2169 59.6229C81.504 58.8345 81.4516 58.3911 80.9354 56.085C82.9587 55.6147 83.4055 54.8782 82.3551 53.0512C84.287 52.5201 85.8277 51.7799 84.4601 49.624C85.5927 49.1385 87.2448 48.0853 86.6641 46.5711C86.5817 46.3553 86.2078 45.9703 86.0407 45.7885C86.6592 45.4413 86.9613 45.2524 87.545 44.6567C88.2021 43.9874 89.158 42.4642 87.5959 42.1C87.4208 42.0591 87.1999 42.0425 87.0149 42.0079C88.0802 41.271 88.7277 40.7189 89.4225 39.6068C90.9233 37.2068 87.4253 38.0066 86.1339 38.1519C87.4659 37.5413 88.806 36.8962 89.7817 35.7604C90.3213 35.131 91.2652 33.5755 90.9143 32.7853C90.2522 32.4258 88.1868 33.1531 87.4421 33.356C86.4185 33.6246 85.3824 33.8456 84.3379 34.0186C86.8547 32.7959 89.5873 31.2438 90.5531 28.4499C90.7315 27.933 90.8607 27.5482 90.7169 27.0217L90.5444 26.85C89.8712 26.9536 87.3987 28.6349 86.62 28.9984C85.029 29.7422 82.9022 30.9618 81.2897 31.5305C83.8474 29.4864 88.1825 25.778 87.8325 22.1204C86.7428 22.6291 86.1306 23.1791 85.2598 24.0206C83.0489 26.1594 80.4383 27.9237 77.8977 29.6437L77.6916 29.4496Z" fill="#5F6C6F"/>
<path d="M145.878 75.9857C147.098 74.7262 148.355 73.4077 148.891 71.6967C149.007 71.3286 149.262 70.5477 149.087 70.1956C148.59 69.991 147.054 72.2085 146.699 72.6322C146.23 73.191 145.75 73.7401 145.258 74.2791C144.542 75.0603 143.53 76.0541 142.677 76.6837C143.832 75.3418 145.012 74.0402 145.543 72.3066C145.656 71.9357 145.998 71.0358 145.642 70.7478C145.474 70.766 145.24 70.9209 145.16 71.0633C143.632 73.7836 141.885 76.0896 139.872 78.4622C138.501 80.0791 137.044 81.0616 135.585 82.4824C134.564 83.4769 134.039 85.7274 132.825 86.7041C131.786 87.7393 130.857 88.8735 129.328 89.186C128.22 88.6465 127.747 87.9953 126.992 87.0419C125.504 85.1607 122.761 83.1135 120.313 84.5162C119.56 84.1589 118.481 83.8811 117.639 83.9157C118.119 84.3696 119.038 85.1981 119.361 85.7478C119.829 86.5442 120.02 87.9799 120.344 88.861C120.822 90.1602 121.333 91.4064 121.788 92.7138C120.518 93.7632 119.148 94.3142 117.553 94.6782C116.754 94.8606 115.985 95.0167 115.222 95.3302C112.552 96.4249 108.232 99.4198 105.476 99.169C104.616 99.0907 103.849 98.7173 103.011 98.549C102.807 98.9775 104.022 99.5476 104.351 99.6713C105.605 100.144 106.742 99.8621 107.991 99.6296C106.337 100.573 105.028 101.356 103.097 101.347C102.995 101.347 102.931 101.393 102.865 101.46C102.896 101.599 102.928 101.652 103.066 101.726C104.915 102.727 106.271 102.35 108.106 101.685C106.953 102.684 106.039 103.442 104.629 104.035C104.544 104.07 104.532 104.151 104.515 104.228C105.072 105.056 108.269 104.21 109.01 103.893C108.65 104.291 107.307 105.506 107.427 105.884C107.72 106.801 110.476 105.912 110.908 105.763C110.971 105.742 111.033 105.72 111.096 105.697C110.299 107.567 112.049 107.23 113.228 106.861C113.369 106.817 113.756 106.582 113.814 106.681L113.795 106.739C113.761 106.851 113.691 107.043 113.76 107.135C114.471 108.092 115.836 107.599 116.568 107.22C117.052 108.281 118.324 107.935 119.09 107.409C119.763 108.317 120.781 108.161 121.508 107.412C121.828 107.763 122.121 107.982 122.604 108.045C123.168 108.118 123.809 107.233 123.953 107.267C124.458 107.434 124.925 107.844 125.425 107.42C125.619 107.256 125.785 106.718 126.04 106.796C126.835 107.037 127.422 107.186 127.716 106.137C128.704 106.216 129.3 106.257 129.386 105.122C130.421 104.995 130.715 105.005 130.97 103.942C131.566 104.298 132.368 104.902 133.071 104.713C133.779 105.33 134.791 105.995 135.349 106.625C135.547 106.849 136.167 107.983 136.359 108.326C137.204 109.846 137.988 111.399 138.711 112.98C139.126 113.895 139.945 116.109 140.803 116.54C141.038 116.485 140.976 116.293 141.234 116.453C141.502 116.619 141.763 116.849 142.1 116.784C142.414 116.723 142.408 116.325 142.609 116.214C142.813 116.101 143.571 116.859 143.991 116.079C144.089 115.899 144.133 115.694 144.181 115.497C145.397 115.69 146.23 115.958 145.872 114.311C147.287 114.762 147.785 114.432 147.339 112.953C148.502 113.219 149.16 112.447 148.354 111.588C147.582 110.766 146.435 109.916 145.555 109.205C143.454 107.506 141.156 105.929 139.507 103.756C138.995 103.057 137.789 100.625 137.379 99.7808C137.88 99.95 138.245 100.056 138.66 99.623C139.179 99.0818 139.731 100.309 140.369 99.6803C140.688 99.3661 140.762 99.1919 140.955 98.796C142.185 99.5165 142.098 98.5643 142.534 98.0969C142.904 97.7002 144.219 98.0409 144.224 96.4113C145.367 96.4381 145.774 96.0079 145.536 94.8383C146.321 94.9144 146.75 94.8009 146.779 93.889C146.786 93.7101 146.778 93.5309 146.756 93.3532C148.072 92.8994 148.042 92.6442 147.745 91.3168C148.909 91.0461 149.167 90.6222 148.562 89.5706C149.674 89.2649 150.561 88.8388 149.774 87.5979C150.425 87.3185 151.376 86.7122 151.042 85.8407C150.995 85.7165 150.78 85.4948 150.683 85.3902C151.039 85.1904 151.213 85.0816 151.549 84.7388C151.927 84.3535 152.478 83.4768 151.579 83.2671C151.478 83.2436 151.351 83.234 151.244 83.2141C151.857 82.7899 152.23 82.4722 152.63 81.832C153.494 80.4506 151.48 80.911 150.737 80.9946C151.504 80.6432 152.275 80.2719 152.837 79.6181C153.147 79.2558 153.691 78.3605 153.489 77.9057C153.107 77.6987 151.919 78.1174 151.49 78.2342C150.901 78.3887 150.304 78.516 149.703 78.6155C151.152 77.9117 152.725 77.0184 153.281 75.4102C153.383 75.1127 153.458 74.8912 153.375 74.5881L153.276 74.4893C152.888 74.549 151.465 75.5167 151.017 75.7259C150.101 76.1541 148.877 76.856 147.949 77.1834C149.421 76.0068 151.916 73.8723 151.715 71.767C151.087 72.0598 150.735 72.3764 150.234 72.8607C148.961 74.0918 147.459 75.1073 145.996 76.0973L145.878 75.9857Z" fill="#5F6C6F"/>
<path d="M83.3116 128.08C84.6826 126.664 86.0963 125.183 86.6987 123.26C86.8282 122.846 87.1152 121.968 86.9187 121.573C86.3603 121.343 84.6334 123.835 84.2351 124.311C83.7077 124.939 83.1679 125.556 82.6152 126.162C81.8106 127.04 80.6732 128.157 79.7147 128.864C81.0126 127.356 82.3384 125.893 82.9351 123.945C83.0627 123.528 83.4471 122.517 83.0464 122.193C82.858 122.214 82.5945 122.388 82.5048 122.548C80.7875 125.605 78.8239 128.197 76.5619 130.863C75.0206 132.681 73.3838 133.785 71.7442 135.382C70.5965 136.499 70.0066 139.029 68.6415 140.126C67.4738 141.29 66.43 142.564 64.7111 142.916C63.4664 142.309 62.9343 141.577 62.0865 140.506C60.4139 138.392 57.3308 136.091 54.5795 137.667C53.7334 137.266 52.5206 136.954 51.5749 136.992C52.1141 137.503 53.1461 138.434 53.5099 139.052C54.0362 139.947 54.2501 141.56 54.614 142.55C55.1513 144.011 55.7266 145.411 56.2378 146.881C54.8105 148.06 53.2705 148.679 51.4778 149.088C50.5794 149.293 49.716 149.469 48.8577 149.821C45.8575 151.051 41.0019 154.417 37.9046 154.135C36.9385 154.047 36.0756 153.628 35.1342 153.439C34.9049 153.92 36.2708 154.561 36.6399 154.7C38.0497 155.231 39.3274 154.914 40.7315 154.653C38.8724 155.713 37.4008 156.593 35.2306 156.584C35.1165 156.583 35.044 156.635 34.9697 156.71C35.0044 156.866 35.0404 156.926 35.1956 157.009C37.2741 158.135 38.7979 157.711 40.8602 156.963C39.5643 158.086 38.537 158.938 36.9524 159.604C36.8573 159.644 36.844 159.735 36.8243 159.821C37.4509 160.752 41.043 159.801 41.8757 159.445C41.4717 159.892 39.9621 161.258 40.0974 161.683C40.426 162.713 43.5236 161.714 44.0097 161.547C44.0801 161.523 44.1502 161.498 44.2203 161.473C43.325 163.574 45.292 163.195 46.6169 162.78C46.7749 162.731 47.2098 162.466 47.2757 162.579L47.2547 162.643C47.2158 162.769 47.1374 162.985 47.2143 163.089C48.014 164.164 49.5475 163.609 50.3705 163.184C50.9148 164.376 52.3447 163.987 53.2055 163.396C53.9619 164.417 55.1059 164.242 55.9226 163.399C56.2821 163.794 56.6117 164.041 57.1542 164.111C57.7889 164.193 58.5092 163.198 58.6711 163.237C59.2386 163.424 59.7627 163.886 60.3246 163.409C60.5428 163.224 60.7295 162.62 61.0164 162.707C61.91 162.978 62.5696 163.146 62.8998 161.967C64.0103 162.056 64.68 162.101 64.7762 160.826C65.9396 160.683 66.2709 160.695 66.5568 159.5C67.2266 159.899 68.1278 160.578 68.9182 160.366C69.7134 161.06 70.8509 161.807 71.4781 162.516C71.7006 162.767 72.398 164.041 72.614 164.427C73.5631 166.135 74.445 167.88 75.2573 169.658C75.7236 170.686 76.6438 173.174 77.6084 173.659C77.8718 173.597 77.8031 173.381 78.093 173.561C78.3935 173.748 78.6873 174.006 79.0661 173.933C79.4182 173.864 79.412 173.417 79.6376 173.292C79.8674 173.165 80.7188 174.017 81.1916 173.14C81.3015 172.938 81.3512 172.708 81.405 172.486C82.7711 172.703 83.7079 173.005 83.3049 171.153C84.895 171.66 85.4553 171.289 84.9538 169.627C86.2606 169.926 87.001 169.059 86.0945 168.093C85.2271 167.169 83.9377 166.213 82.9492 165.414C80.5881 163.505 78.0048 161.733 76.1517 159.291C75.5765 158.505 74.2209 155.772 73.7602 154.823C74.3229 155.013 74.7335 155.133 75.2001 154.646C75.7834 154.038 76.4033 155.417 77.1203 154.71C77.4794 154.357 77.5616 154.161 77.7789 153.716C79.1619 154.526 79.0634 153.456 79.5537 152.931C79.9695 152.485 81.4475 152.868 81.4531 151.036C82.7373 151.066 83.1946 150.583 82.9278 149.268C83.8096 149.354 84.292 149.226 84.3251 148.201C84.332 148 84.3229 147.799 84.2983 147.599C85.7778 147.089 85.7439 146.802 85.41 145.31C86.7189 145.006 87.0079 144.53 86.3284 143.348C87.5781 143.004 88.5749 142.525 87.6901 141.131C88.4228 140.817 89.4916 140.135 89.1159 139.156C89.0626 139.016 88.8208 138.767 88.7127 138.65C89.1128 138.425 89.3081 138.303 89.6858 137.917C90.1108 137.484 90.7292 136.499 89.7187 136.263C89.6054 136.237 89.4625 136.226 89.3428 136.204C90.032 135.727 90.4509 135.37 90.9003 134.651C91.8712 133.098 89.6083 133.615 88.7729 133.709C89.6346 133.314 90.5015 132.897 91.1327 132.162C91.4818 131.755 92.0924 130.749 91.8654 130.238C91.4371 130.005 90.101 130.476 89.6192 130.607C88.9571 130.781 88.2868 130.924 87.6111 131.036C89.2392 130.245 91.007 129.241 91.6317 127.433C91.7471 127.099 91.8307 126.85 91.7377 126.509L91.6261 126.398C91.1906 126.465 89.5911 127.553 89.0874 127.788C88.0582 128.269 86.6823 129.058 85.6392 129.426C87.2938 128.104 90.0982 125.705 89.8718 123.339C89.1668 123.668 88.7708 124.023 88.2075 124.568C86.7772 125.951 85.0884 127.093 83.4449 128.205L83.3116 128.08Z" fill="#5F6C6F"/>
</svg>
