<svg width="145" height="105" viewBox="0 0 145 105" fill="none" xmlns="http://www.w3.org/2000/svg">
<path d="M15.8411 52.9857C14.6212 51.7262 13.3633 50.4077 12.8274 48.6967C12.7121 48.3286 12.4567 47.5477 12.6316 47.1956C13.1284 46.991 14.665 49.2085 15.0194 49.6322C15.4886 50.191 15.9689 50.7401 16.4607 51.2791C17.1766 52.0603 18.1886 53.0541 19.0415 53.6837C17.8867 52.3418 16.707 51.0402 16.176 49.3066C16.0625 48.9357 15.7205 48.0358 16.077 47.7478C16.2447 47.766 16.4791 47.9209 16.5589 48.0633C18.0869 50.7836 19.8341 53.0896 21.8467 55.4622C23.2181 57.0791 24.6745 58.0616 26.1333 59.4824C27.1545 60.4769 27.6794 62.7274 28.894 63.7041C29.933 64.7393 30.8618 65.8735 32.3911 66.186C33.4987 65.6465 33.9721 64.9953 34.7264 64.0419C36.2146 62.1607 38.9579 60.1135 41.4059 61.5162C42.1587 61.1589 43.2378 60.8811 44.0793 60.9157C43.5995 61.3696 42.6812 62.1981 42.3576 62.7478C41.8893 63.5442 41.6989 64.9799 41.3752 65.861C40.8971 67.1602 40.3853 68.4064 39.9304 69.7138C41.2003 70.7632 42.5706 71.3142 44.1657 71.6782C44.9651 71.8606 45.7333 72.0167 46.4969 72.3302C49.1664 73.4249 53.4868 76.4198 56.2426 76.169C57.1023 76.0907 57.87 75.7173 58.7076 75.549C58.9116 75.9775 57.6963 76.5476 57.3679 76.6713C56.1135 77.1437 54.9767 76.8621 53.7274 76.6296C55.3815 77.573 56.6909 78.3556 58.6219 78.3472C58.7234 78.3466 58.7879 78.393 58.854 78.4598C58.8232 78.5986 58.7911 78.6517 58.653 78.7261C56.8036 79.7274 55.4478 79.3505 53.6128 78.6853C54.7659 79.684 55.6799 80.442 57.0899 81.0346C57.1745 81.0703 57.1863 81.1513 57.2038 81.2282C56.6463 82.0563 53.4502 81.2096 52.7092 80.893C53.0687 81.2913 54.412 82.506 54.2915 82.8845C53.9992 83.8006 51.243 82.9123 50.8106 82.7634C50.7479 82.7418 50.6855 82.7196 50.6232 82.6973C51.4198 84.5672 49.6696 84.2295 48.4907 83.8609C48.3501 83.8169 47.9632 83.5816 47.9046 83.6813L47.9233 83.739C47.9578 83.851 48.0277 84.0431 47.9592 84.1351C47.2476 85.0924 45.8832 84.5985 45.1509 84.2203C44.6666 85.2808 43.3944 84.9349 42.6284 84.4086C41.9554 85.3172 40.9375 85.1615 40.2109 84.4116C39.891 84.763 39.5977 84.9825 39.115 85.0448C38.5503 85.1176 37.9094 84.2327 37.7653 84.267C37.2604 84.4335 36.794 84.8445 36.2941 84.4203C36.0999 84.2555 35.9338 83.7185 35.6785 83.7958C34.8835 84.0366 34.2966 84.1865 34.0028 83.1374C33.0147 83.2165 32.4189 83.2567 32.3332 82.1216C31.298 81.9945 31.0033 82.0053 30.7489 80.9423C30.1529 81.2975 29.3511 81.9017 28.6478 81.7127C27.9402 82.3305 26.9281 82.9951 26.3701 83.6253C26.1722 83.8488 25.5516 84.9826 25.3595 85.3261C24.5149 86.8461 23.7303 88.3987 23.0075 89.9803C22.5926 90.8954 21.7739 93.1087 20.9156 93.5403C20.6812 93.4854 20.7423 93.2931 20.4843 93.4529C20.217 93.6193 19.9556 93.8494 19.6186 93.7838C19.3052 93.7228 19.3108 93.3252 19.1101 93.2139C18.9056 93.1012 18.1481 93.8586 17.7274 93.0789C17.6295 92.8986 17.5854 92.6943 17.5375 92.4969C16.322 92.6897 15.4884 92.9582 15.847 91.3108C14.4322 91.762 13.9337 91.4317 14.3799 89.9526C13.2171 90.2185 12.5584 89.4475 13.3649 88.5882C14.1367 87.766 15.284 86.9156 16.1635 86.2046C18.2644 84.5061 20.5628 82.9292 22.2117 80.756C22.7235 80.0572 23.9296 77.625 24.3396 76.7808C23.8389 76.95 23.4735 77.0562 23.0584 76.623C22.5394 76.0818 21.9879 77.3089 21.3498 76.6803C21.0303 76.3661 20.9572 76.1919 20.7639 75.796C19.5333 76.5165 19.621 75.5643 19.1847 75.0969C18.8148 74.7002 17.4997 75.0409 17.4947 73.4113C16.352 73.4381 15.9452 73.0079 16.1826 71.8383C15.3979 71.9144 14.9687 71.8009 14.9393 70.889C14.9331 70.7101 14.9412 70.5309 14.9631 70.3532C13.6467 69.8994 13.6768 69.6442 13.974 68.3168C12.8094 68.0461 12.5522 67.6222 13.1568 66.5706C12.0448 66.2649 11.158 65.8388 11.9452 64.5979C11.2933 64.3185 10.3423 63.7122 10.6766 62.8407C10.724 62.7165 10.9392 62.4948 11.0354 62.3902C10.6794 62.1904 10.5055 62.0816 10.1695 61.7388C9.79133 61.3535 9.24112 60.4768 10.1402 60.2671C10.241 60.2436 10.3682 60.234 10.4747 60.2141C9.86148 59.7899 9.48878 59.4722 9.08886 58.832C8.22503 57.4506 10.2384 57.911 10.9818 57.9946C10.215 57.6432 9.4437 57.2719 8.88213 56.6181C8.57153 56.2558 8.0282 55.3605 8.23021 54.9057C8.61127 54.6987 9.80013 55.1174 10.2288 55.2342C10.8179 55.3887 11.4143 55.516 12.0155 55.6155C10.5669 54.9117 8.994 54.0184 8.43811 52.4102C8.33543 52.1127 8.26105 51.8912 8.34383 51.5881L8.4431 51.4893C8.83056 51.549 10.2538 52.5167 10.702 52.7259C11.6177 53.1541 12.8419 53.856 13.7701 54.1834C12.2978 53.0068 9.80261 50.8723 10.004 48.767C10.6313 49.0598 10.9837 49.3764 11.4849 49.8607C12.7575 51.0918 14.2601 52.1073 15.7225 53.0973L15.8411 52.9857Z" fill="#5F6C6F"/>
<path d="M66.5838 29.4496C64.4644 27.2616 62.279 24.9709 61.3479 21.9982C61.1477 21.3588 60.704 20.002 61.0078 19.3904C61.8709 19.035 64.5405 22.8874 65.1561 23.6235C65.9714 24.5943 66.8059 25.5484 67.6603 26.4848C68.9039 27.842 70.6623 29.5686 72.1439 30.6624C70.1376 28.331 68.0881 26.0697 67.1657 23.0579C66.9685 22.4135 66.3742 20.8502 66.9937 20.3498C67.2849 20.3813 67.6922 20.6505 67.8309 20.8978C70.4855 25.624 73.5209 29.6303 77.0175 33.7522C79.4 36.5614 81.9304 38.2683 84.4648 40.7367C86.2389 42.4645 87.1508 46.3743 89.261 48.0711C91.0662 49.8697 92.6797 51.8402 95.3367 52.3831C97.2609 51.4458 98.0834 50.3144 99.394 48.6581C101.979 45.3897 106.745 41.833 110.998 44.2701C112.306 43.6493 114.181 43.1666 115.643 43.2267C114.809 44.0153 113.214 45.4547 112.652 46.4098C111.838 47.7934 111.508 50.2876 110.945 51.8184C110.114 54.0757 109.225 56.2407 108.435 58.5121C110.641 60.3351 113.022 61.2925 115.793 61.9249C117.182 62.2418 118.516 62.5129 119.843 63.0576C124.481 64.9595 131.987 70.1626 136.775 69.7268C138.268 69.5908 139.602 68.9422 141.057 68.6497C141.412 69.3942 139.3 70.3847 138.73 70.5996C136.55 71.4203 134.575 70.931 132.405 70.5272C135.279 72.1661 137.554 73.5258 140.908 73.5111C141.085 73.5101 141.197 73.5907 141.312 73.7068C141.258 73.948 141.202 74.0401 140.962 74.1695C137.749 75.909 135.394 75.2542 132.206 74.0985C134.209 75.8337 135.797 77.1505 138.247 78.1801C138.394 78.242 138.414 78.3828 138.445 78.5164C137.476 79.955 131.923 78.484 130.636 77.934C131.261 78.6261 133.594 80.7364 133.385 81.3939C132.877 82.9856 128.089 81.4423 127.337 81.1836C127.229 81.1461 127.12 81.1074 127.012 81.0687C128.396 84.3173 125.355 83.7307 123.307 83.0904C123.063 83.0138 122.391 82.6051 122.289 82.7783L122.321 82.8786C122.381 83.073 122.503 83.4069 122.384 83.5667C121.147 85.2298 118.777 84.3717 117.505 83.7147C116.663 85.5572 114.453 84.9563 113.122 84.0419C111.953 85.6204 110.185 85.3498 108.922 84.0471C108.366 84.6575 107.857 85.0389 107.018 85.1471C106.037 85.2736 104.924 83.7362 104.673 83.7958C103.796 84.0851 102.986 84.7991 102.118 84.0621C101.78 83.7758 101.492 82.8429 101.048 82.9772C99.6668 83.3955 98.6472 83.6559 98.1367 81.8333C96.42 81.9707 95.3849 82.0407 95.2361 80.0686C93.4377 79.8478 92.9256 79.8665 92.4837 78.0197C91.4482 78.6368 90.0552 79.6865 88.8334 79.3581C87.604 80.4314 85.8457 81.5861 84.8762 82.6809C84.5323 83.0692 83.4542 85.039 83.1204 85.6359C81.6531 88.2765 80.2899 90.974 79.0343 93.7218C78.3135 95.3116 76.891 99.1567 75.3999 99.9067C74.9927 99.8113 75.0988 99.4771 74.6507 99.7548C74.1862 100.044 73.732 100.444 73.1465 100.33C72.6022 100.224 72.6118 99.5329 72.2631 99.3396C71.9078 99.1437 70.5918 100.46 69.8609 99.1051C69.6909 98.7918 69.6142 98.4369 69.531 98.0939C67.4193 98.4289 65.971 98.8953 66.5941 96.0332C64.1361 96.8171 63.2699 96.2433 64.0452 93.6737C62.025 94.1356 60.8806 92.796 62.2818 91.3032C63.6227 89.8748 65.6159 88.3973 67.144 87.162C70.7938 84.2112 74.787 81.4716 77.6516 77.696C78.5408 76.4821 80.6363 72.2564 81.3485 70.7897C80.4786 71.0837 79.8439 71.2683 79.1227 70.5156C78.221 69.5755 77.2628 71.7073 76.1543 70.6151C75.5992 70.0694 75.4722 69.7666 75.1363 69.0789C72.9984 70.3306 73.1507 68.6764 72.3928 67.8643C71.75 67.1751 69.4653 67.767 69.4566 64.9359C67.4715 64.9824 66.7646 64.2351 67.1771 62.203C65.8138 62.3353 65.0682 62.138 65.017 60.5538C65.0063 60.243 65.0204 59.9316 65.0585 59.6229C62.7714 58.8345 62.8238 58.3911 63.3399 56.085C61.3167 55.6147 60.8699 54.8782 61.9202 53.0512C59.9884 52.5201 58.4477 51.7799 59.8153 49.624C58.6827 49.1385 57.0306 48.0853 57.6113 46.5711C57.6937 46.3553 58.0676 45.9703 58.2346 45.7885C57.6162 45.4413 57.3141 45.2524 56.7304 44.6567C56.0733 43.9874 55.1174 42.4642 56.6795 42.1C56.8546 42.0591 57.0755 42.0425 57.2605 42.0079C56.1952 41.271 55.5477 40.7189 54.8529 39.6068C53.3521 37.2068 56.8501 38.0066 58.1415 38.1519C56.8094 37.5413 55.4694 36.8962 54.4937 35.7604C53.9541 35.131 53.0102 33.5755 53.3611 32.7853C54.0232 32.4258 56.0886 33.1531 56.8333 33.356C57.8569 33.6246 58.893 33.8456 59.9375 34.0186C57.4207 32.7959 54.6881 31.2438 53.7223 28.4499C53.5439 27.933 53.4147 27.5482 53.5585 27.0217L53.731 26.85C54.4041 26.9536 56.8767 28.6349 57.6554 28.9984C59.2464 29.7422 61.3732 30.9618 62.9857 31.5305C60.428 29.4864 56.0929 25.778 56.4429 22.1204C57.5326 22.6291 58.1448 23.1791 59.0156 24.0206C61.2265 26.1594 63.8371 27.9237 66.3777 29.6437L66.5838 29.4496Z" fill="#5F6C6F"/>
</svg>
