<svg preserveAspectRatio="none" overflow="visible" style="display: block;" width="409.015" height="77.6381" viewBox="0 0 409.015 77.6381" fill="none" xmlns="http://www.w3.org/2000/svg">
<g id="Hiasan Bawah" filter="url(#filter0_d_0_9)">
<path id="Vector" d="M205.351 0.0849463C205.595 0.16373 205.595 0.16373 205.773 0.23939L205.774 0.393033C205.867 0.403757 205.867 0.403757 205.963 0.414698C206.253 0.484499 206.352 0.573499 206.545 0.744995C206.608 0.800074 206.671 0.855154 206.736 0.911903C206.834 0.998392 206.834 0.998392 206.935 1.08663C207.135 1.24966 207.336 1.41223 207.538 1.57451C207.674 1.7026 207.674 1.7026 207.675 1.85624L208.096 2.01069L208.097 2.24115C208.192 2.27104 208.192 2.27104 208.289 2.30153C209.281 2.7074 209.861 3.86769 210.338 4.5859C210.516 4.85163 210.705 5.08542 210.952 5.31942C211.028 5.46715 211.104 5.61492 211.178 5.76307C211.493 6.36879 211.493 6.36879 212.161 6.75731C212.58 6.7849 212.793 6.7657 213.168 6.62959C213.415 6.47176 213.626 6.30514 213.836 6.12102C214.186 5.81483 214.554 5.55224 214.971 5.29465C215.179 5.16748 215.179 5.16748 215.413 4.987C215.583 4.86729 215.583 4.86729 215.794 4.86769L215.898 4.63743C216.069 4.53135 216.245 4.42972 216.424 4.33114C216.506 4.27951 216.588 4.22787 216.672 4.17467C217.726 3.5178 218.897 3.02838 220.146 2.59354C220.422 2.49717 220.422 2.49717 220.687 2.37581C221.237 2.1396 221.879 1.97288 222.523 2.0381C222.932 2.14988 223.031 2.24012 223.22 2.53066C223.42 2.9429 223.43 3.34956 223.444 3.78273C223.448 3.87034 223.452 3.95795 223.456 4.04821C223.493 4.98596 223.491 5.92427 223.484 6.86216C223.484 6.92167 223.484 6.98118 223.484 7.04249C223.483 7.1542 223.482 7.2659 223.481 7.3776C223.48 7.65607 223.489 7.91741 223.598 8.18583C223.802 8.28613 223.802 8.28613 224.02 8.34027L224.126 8.41729C224.381 8.42721 224.634 8.43255 224.889 8.43495C225.046 8.4374 225.203 8.4399 225.36 8.44245C225.609 8.44609 225.857 8.4494 226.106 8.45189C226.345 8.45446 226.585 8.45844 226.824 8.46263C226.898 8.46302 226.973 8.46342 227.05 8.46382C227.26 8.46808 227.26 8.46807 227.601 8.50072C227.812 8.73158 227.812 8.73158 227.794 8.99562C227.713 9.25685 227.651 9.38894 227.394 9.57582L227.184 9.57542L227.08 9.88251L226.869 9.88211L226.81 10.0452C226.63 10.309 226.412 10.4366 226.098 10.6158C225.898 10.7321 225.898 10.7321 225.715 10.9554L225.504 10.955L225.439 11.1085C225.273 11.3744 225.052 11.5715 224.796 11.7939C224.635 11.9887 224.634 12.112 224.667 12.3362C224.784 12.4375 224.784 12.4375 225.075 12.4378C225.646 12.4313 226.143 12.2595 226.667 12.1095C226.88 12.0511 227.094 11.9933 227.307 11.9355C227.586 11.8602 227.864 11.7843 228.143 11.7082C228.287 11.6689 228.432 11.6298 228.577 11.5909C228.898 11.5045 229.211 11.4162 229.52 11.3083C230.615 10.967 231.874 10.917 233.049 10.8343C233.298 10.816 233.546 10.7952 233.793 10.7736C236.325 10.554 236.325 10.554 237.192 10.9004C237.017 11.3526 236.611 11.5594 236.076 11.7823C235.876 11.8613 235.674 11.9395 235.473 12.0167C235.245 12.1065 235.034 12.2001 234.822 12.3075C234.565 12.4318 234.565 12.4318 234.355 12.4314L234.355 12.5851C234.144 12.6924 234.144 12.6924 233.863 12.8098C233.725 12.8676 233.725 12.8676 233.585 12.9266C233.493 12.9653 233.4 13.0041 233.304 13.044C232.572 13.3151 232.572 13.3151 232.043 13.733L231.727 13.7324L231.728 13.886L231.517 13.8856L231.518 14.0393C231.336 14.1323 231.149 14.219 230.959 14.3023C230.615 14.454 230.325 14.5942 230.046 14.8047C229.871 14.8773 229.695 14.9496 229.518 15.02C229.209 15.155 228.931 15.317 228.648 15.4802C228.47 15.5699 228.47 15.5699 228.259 15.5695L228.155 15.7998C227.99 15.9207 227.99 15.9207 227.78 16.0487C227.704 16.0957 227.628 16.1427 227.55 16.1911C227.472 16.2389 227.394 16.2867 227.314 16.3359C227.176 16.4251 227.038 16.5145 226.901 16.604C226.537 16.8362 226.16 17.0534 225.777 17.2684C224.823 17.8017 224.823 17.8017 223.952 18.4037C223.824 18.5015 223.695 18.5989 223.565 18.6958C223.504 18.7422 223.443 18.7885 223.38 18.8362C223.217 18.94 223.217 18.94 223.007 18.9396L222.922 19.0883C222.797 19.2465 222.797 19.2465 222.481 19.3228C222.408 19.4238 222.339 19.5264 222.272 19.6296C222.137 19.7522 221.996 19.8719 221.852 19.9889C221.742 20.0795 221.742 20.0795 221.629 20.1719C221.432 20.3194 221.432 20.3194 221.222 20.3959C221.19 20.4441 221.157 20.4924 221.124 20.5421C220.976 20.7548 220.745 20.8619 220.495 21.0096C220.119 21.2727 219.833 21.5877 219.534 21.8973C219.468 21.9583 219.401 22.0194 219.333 22.0823L219.122 22.0819L219.018 22.3122C218.564 22.678 218.564 22.678 218.177 22.7715C218.115 22.9168 218.115 22.9168 218.073 23.0786C217.91 23.259 217.744 23.4325 217.568 23.6058C217.475 23.6982 217.383 23.7906 217.291 23.8831C217.245 23.9282 217.2 23.9733 217.154 24.0198C216.963 24.2137 216.784 24.4127 216.604 24.6122C216.521 24.7025 216.521 24.7025 216.437 24.7947C216.119 25.1406 216.119 25.1406 215.818 25.4942C215.675 25.6677 215.523 25.8312 215.366 25.9975C215.056 26.3342 214.814 26.6845 214.574 27.0496C214.424 27.2661 214.262 27.4738 214.092 27.6819C213.66 28.211 213.354 28.7449 213.074 29.3252C212.943 29.5861 212.794 29.8252 212.616 30.0698C212.359 30.444 212.163 30.8416 211.982 31.2389C211.891 31.4404 211.891 31.4404 211.788 31.5851C210.691 33.2557 210.733 35.604 210.571 37.4299C210.564 37.5023 210.558 37.5748 210.551 37.6495C210.416 39.1617 210.43 40.6599 210.542 42.1735C210.547 42.2402 210.552 42.3068 210.557 42.3754C210.637 43.4495 210.768 44.5098 210.996 45.5737C211.031 45.7417 211.066 45.9098 211.1 46.0778C211.189 46.4985 211.281 46.9188 211.374 47.339C211.422 47.5595 211.467 47.7801 211.512 48.0009C211.526 48.0668 211.539 48.1327 211.553 48.2006C211.578 48.3205 211.602 48.4405 211.625 48.5605C211.695 48.8917 211.814 49.1814 211.985 49.4924C212.118 49.7541 212.195 50.0239 212.277 50.2959C212.505 51.0943 212.505 51.0943 212.967 51.8294C213.136 52.0434 213.206 52.223 213.279 52.4632C213.43 52.9246 213.636 53.3566 213.869 53.799C213.921 53.8988 213.972 53.9987 214.023 54.0985C214.315 54.6682 214.613 55.2357 214.93 55.7984C214.972 55.8761 215.015 55.9538 215.059 56.0339C215.104 56.1148 215.149 56.1957 215.195 56.279L215.317 56.5013C215.477 56.7472 215.672 56.9587 215.883 57.183C216.396 57.8025 216.862 58.4348 217.29 59.0876C217.457 59.3381 217.611 59.5339 217.893 59.7219C218.064 59.9848 218.203 60.2411 218.317 60.5197L218.423 60.7216L218.739 60.799C218.894 60.9641 218.894 60.9641 219.05 61.1693C219.264 61.4503 219.485 61.6509 219.796 61.8765C219.911 62.0027 220.021 62.1311 220.127 62.2612C220.483 62.6785 220.893 63.044 221.33 63.4171C221.654 63.7003 221.945 63.9969 222.238 64.2971C222.488 64.5419 222.761 64.7664 223.046 64.9894C223.178 65.1094 223.178 65.1094 223.178 65.2631L223.6 65.4175L223.601 65.5712C223.661 65.5874 223.722 65.6037 223.784 65.6204C224.11 65.7641 224.252 65.9413 224.459 66.1729C224.531 66.2528 224.603 66.3327 224.678 66.4149C224.844 66.6187 224.97 66.8113 225.08 67.0336L224.87 67.11C224.588 67.0211 224.319 66.9277 224.046 66.8251C223.934 66.7843 223.934 66.7843 223.819 66.7426C223.241 66.5285 222.756 66.2962 222.352 65.9193C222.085 65.6849 221.81 65.5289 221.465 65.3609C221.264 65.2488 221.119 65.1281 220.96 64.9852C220.682 64.7371 220.39 64.5828 220.016 64.412C219.341 64.0502 218.625 63.5402 218.318 62.966L218.22 62.7954L217.904 62.718C217.794 62.5915 217.689 62.463 217.587 62.3332C217.456 62.2219 217.322 62.1128 217.184 62.006C216.838 61.7275 216.546 61.444 216.268 61.128C216.027 60.8577 215.766 60.5981 215.507 60.337C215.367 60.178 215.367 60.178 215.367 60.0244L215.156 60.024C215.128 59.9814 215.1 59.9387 215.071 59.8948C215.034 59.8391 214.996 59.7833 214.958 59.7259C214.902 59.6429 214.902 59.6429 214.846 59.5583C214.736 59.397 214.736 59.397 214.521 59.2546C214.489 59.1955 214.457 59.1364 214.424 59.0755C214.302 58.8569 214.151 58.6942 213.959 58.5045C213.711 58.2531 213.49 58.0042 213.292 57.7302C213.026 57.3729 212.743 57.1075 212.236 56.9216C211.978 56.8576 211.978 56.8576 211.67 56.8677C211.664 57.1126 211.661 57.3574 211.659 57.6023C211.658 57.6696 211.656 57.7369 211.654 57.8062C211.648 58.808 211.906 59.7675 212.247 60.7336C212.304 60.8937 212.358 61.0541 212.412 61.2146C212.582 61.7056 212.768 62.169 213.072 62.6268C213.245 62.9209 213.317 63.2329 213.405 63.5448C213.657 64.3633 214.056 65.1036 214.546 65.8612C214.58 65.9137 214.613 65.9663 214.648 66.0204C214.926 66.4493 215.201 66.872 215.598 67.2508C215.816 67.4769 215.816 67.4769 215.856 67.6978C215.817 67.861 215.817 67.861 215.712 67.9376C214.618 68.0729 213.554 67.6653 212.656 67.2404C212.477 67.1139 212.302 66.9851 212.128 66.8553C211.97 66.7554 211.812 66.6559 211.653 66.5567C211.244 66.2936 210.937 66.0379 210.649 65.7002L210.649 65.5465L210.333 65.4691C210.162 65.2899 210.162 65.2899 209.982 65.0651C209.681 64.7109 209.441 64.4623 208.959 64.2374C208.749 64.2073 208.539 64.1807 208.327 64.1594C208.315 64.8599 208.347 65.5534 208.412 66.2525C208.417 66.3154 208.422 66.3783 208.428 66.4432C208.436 66.5271 208.436 66.5271 208.444 66.6126C208.442 66.7796 208.401 66.9189 208.338 67.0786C207.664 66.9954 207.375 66.8652 206.967 66.4614C206.827 66.2779 206.696 66.0965 206.57 65.9085C206.536 65.8602 206.503 65.8118 206.468 65.762C206.226 65.4051 206.226 65.4051 206.225 65.2309L206.014 65.2305L206.013 65C205.723 64.9331 205.723 64.9331 205.381 64.922C205.092 65.0637 205.092 65.0637 204.856 65.2283L204.645 65.2279L204.541 65.5349L204.331 65.5345C204.315 65.5837 204.3 65.6329 204.284 65.6836C204.118 66.1561 203.914 66.5236 203.388 66.8387C203.098 66.915 203.098 66.915 202.862 66.9145C202.651 66.8373 202.651 66.8373 202.544 66.6066C202.538 66.472 202.537 66.3371 202.54 66.2024C202.541 66.1228 202.542 66.0431 202.543 65.961C202.546 65.7944 202.55 65.6277 202.554 65.4611C202.559 64.9935 202.516 64.5959 202.325 64.1479L202.114 64.1475L202.114 63.9939C201.586 64.2131 201.323 64.4407 201.044 64.8369C200.828 65.1334 200.608 65.4123 200.33 65.6806L200.225 65.9108L200.015 65.9104C199.978 65.9759 199.978 65.9759 199.941 66.0426C199.664 66.3986 199.175 66.642 198.755 66.9067C198.666 66.9657 198.666 66.9657 198.575 67.0258C197.814 67.5195 196.48 68.0039 195.462 67.9625C195.178 67.8986 195.178 67.8986 194.967 67.6677C195.1 67.3239 195.376 67.0575 195.654 66.7688C195.811 66.5869 195.906 66.4099 196.014 66.2101C196.114 66.0752 196.213 65.9403 196.315 65.8064C196.635 65.3846 196.922 64.9829 197.086 64.5128C197.151 64.3314 197.224 64.1554 197.304 63.9773C197.655 63.1935 197.944 62.4078 198.192 61.6032C198.264 61.3709 198.34 61.1406 198.426 60.9111C198.742 60.0618 198.879 59.2087 199.005 58.3342C199.038 58.1497 199.038 58.1497 199.094 57.9894C199.175 57.7456 199.152 57.4969 199.147 57.2472C199.146 57.1669 199.146 57.1669 199.145 57.0849C199.143 56.9533 199.141 56.8218 199.138 56.6903C198.255 56.9756 197.631 57.4996 197.243 58.1412C197.079 58.4013 196.868 58.6407 196.665 58.8852C196.543 59.032 196.426 59.1809 196.311 59.3304C195.868 59.8993 195.409 60.4409 194.792 60.9186C194.617 61.0597 194.617 61.0597 194.484 61.2382C194.226 61.5468 193.897 61.8066 193.571 62.078C193.319 62.2903 193.095 62.4862 192.948 62.7474L192.737 62.747L192.665 62.9149C192.498 63.1779 192.291 63.3129 192.003 63.5138C191.869 63.6267 191.736 63.7402 191.603 63.8539C191.268 64.1319 190.924 64.3539 190.508 64.5642C190.316 64.6602 190.316 64.6602 190.154 64.7904C190.007 64.8928 190.007 64.8928 189.797 64.8924C189.769 64.9381 189.742 64.9838 189.714 65.0308C189.157 65.7717 187.562 66.4679 186.539 66.8067L186.198 66.9741C185.946 67.095 185.782 67.1563 185.488 67.1888C185.527 67.04 185.527 67.04 185.592 66.8817L185.802 66.8053L185.907 66.575C186.044 66.471 186.185 66.3691 186.327 66.2685C186.471 66.1422 186.613 66.0144 186.753 65.8852C186.824 65.8204 186.894 65.7556 186.967 65.6888C187.094 65.5696 187.218 65.4484 187.337 65.3246C187.384 65.2819 187.432 65.2392 187.481 65.1952L187.692 65.1956L187.901 64.8119L188.112 64.8123C188.137 64.7562 188.163 64.7001 188.19 64.6423C188.333 64.4082 188.5 64.2645 188.741 64.0789C189.008 63.8723 189.215 63.6936 189.37 63.4319L189.581 63.4323C189.606 63.3913 189.631 63.3502 189.656 63.308C189.828 63.0743 190.037 62.8721 190.256 62.6606C190.338 62.5807 190.42 62.5007 190.504 62.4183C190.678 62.2574 190.849 62.1175 191.049 61.9755C191.157 61.8487 191.261 61.7206 191.364 61.592C191.527 61.4146 191.691 61.238 191.856 61.0618C192.009 60.8974 192.009 60.8974 192.098 60.6716L192.308 60.672L192.38 60.5233C192.568 60.2013 192.804 59.9017 193.041 59.5979L193.252 59.5983C193.44 59.3349 193.59 59.063 193.743 58.7878C193.942 58.4373 194.159 58.1209 194.45 57.8049C194.924 57.2865 195.23 56.7194 195.556 56.1457C195.779 55.7606 196.021 55.3856 196.281 55.013C196.782 54.2917 197.16 53.5729 197.469 52.7953C197.619 52.4332 197.811 52.0831 198.007 51.7331C198.432 50.8935 198.635 49.9972 198.854 49.1191C198.991 48.575 199.163 48.0451 199.397 47.5187C199.622 46.9799 199.698 46.4461 199.758 45.8861C199.792 45.577 199.839 45.2809 199.936 44.979C200.058 44.5997 200.108 44.2224 200.15 43.8343C200.158 43.7587 200.167 43.6832 200.175 43.6054C200.238 43.0054 200.278 42.4051 200.307 41.8036C200.313 41.683 200.313 41.683 200.319 41.56C200.372 40.2865 200.326 39.0259 200.214 37.7541C200.192 37.5055 200.172 37.2569 200.153 37.0083C200.089 36.2517 200.011 35.5262 199.758 34.7885C199.692 34.5794 199.66 34.3836 199.639 34.17C199.588 33.7281 199.381 33.3371 199.168 32.9238C198.695 31.9757 198.695 31.9757 198.564 31.5591C198.272 30.6317 197.835 29.6932 197.263 28.837C197.121 28.6198 196.997 28.3988 196.874 28.1757C196.674 27.8224 196.445 27.4937 196.177 27.1655C196.08 27.0315 196.08 27.0315 196.079 26.8779L195.868 26.8775L195.696 26.6179C195.476 26.2972 195.227 25.9927 194.97 25.6868C194.817 25.5011 194.674 25.3129 194.532 25.1225C194.337 24.8636 194.115 24.6446 193.859 24.4154C193.757 24.2843 193.655 24.1533 193.554 24.0217C193.182 23.5678 192.705 23.1729 192.212 22.7882C192.051 22.6352 192.013 22.5223 191.955 22.3376C191.817 22.2833 191.676 22.2323 191.534 22.1832C191.085 21.8997 190.78 21.5662 190.445 21.2103C190.235 20.9972 190.002 20.821 189.738 20.6433C189.429 20.4238 189.139 20.1993 188.86 19.9599C188.539 19.6882 188.19 19.4585 187.816 19.2263C187.579 19.072 187.383 18.9091 187.203 18.718L187.203 18.5643L187.025 18.5064C186.605 18.3403 186.272 18.1152 185.937 17.8705C185.484 17.572 185.01 17.3025 184.512 17.0456C184.46 17.0126 184.408 16.9797 184.354 16.9457L184.353 16.792C184.298 16.7751 184.242 16.7582 184.185 16.7407C183.838 16.5994 183.551 16.4128 183.252 16.2234C183.133 16.1489 183.015 16.0744 182.896 16C182.839 15.964 182.781 15.9279 182.722 15.8908C182.496 15.7506 182.264 15.6159 182.032 15.4817C181.978 15.4505 181.925 15.4193 181.869 15.3871C180.638 14.6259 180.638 14.6259 179.273 14.0171C179.078 13.9396 179.078 13.9396 178.866 13.7088L178.55 13.6313L178.549 13.4777L178.319 13.4196C177.996 13.3145 177.768 13.1774 177.495 13.0148L177.178 12.9373L177.178 12.7837L176.888 12.7255C176.519 12.6214 176.399 12.5217 176.123 12.3208C175.686 12.1181 175.262 11.9351 174.752 11.8572L174.752 11.7036L174.475 11.6503C174.04 11.526 173.814 11.4079 173.486 11.1634C173.413 10.9617 173.413 10.9617 173.485 10.7793C174.634 10.1571 177.107 10.6761 178.441 10.8214C178.62 10.8412 178.62 10.8412 178.803 10.8615C178.916 10.8738 179.029 10.8861 179.145 10.8988C181.055 11.1177 181.055 11.1177 181.701 11.4863C181.988 11.5528 181.988 11.5528 182.3 11.5979C182.797 11.6829 183.234 11.7936 183.694 11.9526C184.283 12.1554 184.841 12.2992 185.495 12.3386L185.705 12.2622C185.7 11.7058 185.495 11.358 184.963 10.9548L184.752 10.8776C184.682 10.775 184.611 10.6724 184.541 10.5699L184.33 10.4927L184.224 10.262L184.013 10.1848L184.012 10.0311L183.802 10.0307L183.801 9.80027L183.623 9.74232C183.057 9.51833 182.795 9.30679 182.564 8.87607C182.524 8.67749 182.615 8.588 182.743 8.41548C182.813 8.41409 182.884 8.4127 182.957 8.41127C183.278 8.40454 183.599 8.39674 183.921 8.38891C184.032 8.38674 184.143 8.38458 184.257 8.38235C184.365 8.37958 184.472 8.37681 184.583 8.37396C184.682 8.37174 184.781 8.36951 184.882 8.36722C185.184 8.34157 185.413 8.27954 185.69 8.19062L186.006 8.1144C186.107 7.89129 186.123 7.74801 186.124 7.51567C186.124 7.44068 186.125 7.36567 186.125 7.2884C186.125 7.16635 186.125 7.16635 186.126 7.04183C186.127 6.86753 186.129 6.69324 186.131 6.51895C186.134 6.24578 186.136 5.97263 186.136 5.69945C186.139 4.79532 186.153 3.90217 186.373 3.011C186.387 2.94833 186.402 2.88566 186.416 2.82109C186.509 2.49527 186.57 2.38222 186.932 2.16117C187.5 1.95674 188.027 2.07484 188.61 2.21853C189.048 2.3484 189.442 2.5283 189.84 2.7133C190.088 2.82593 190.088 2.82593 190.356 2.89673C190.651 2.98542 190.877 3.09897 191.134 3.2364C191.444 3.39904 191.748 3.55198 192.084 3.68473C192.391 3.81528 192.608 3.93392 192.836 4.13268L192.836 4.28632L193.04 4.31072L193.258 4.36394L193.364 4.59461C193.504 4.62073 193.645 4.64658 193.785 4.67223C193.954 4.79228 193.954 4.79228 194.109 4.93692C194.315 5.12746 194.451 5.22693 194.736 5.36543L194.736 5.51907L194.953 5.55789C195.271 5.67657 195.395 5.77091 195.62 5.96727C196.031 6.32395 196.419 6.64751 197.083 6.70465C197.382 6.68218 197.382 6.68218 197.689 6.60017L197.793 6.36991L198.004 6.37031C198.112 6.17239 198.219 5.97427 198.322 5.77465C198.568 5.31221 198.847 4.9286 199.251 4.53168C199.599 4.16183 199.891 3.76816 200.186 3.37467C200.475 2.99774 200.792 2.67967 201.196 2.36388C201.353 2.23272 201.462 2.10807 201.574 1.95508C201.954 1.46205 202.422 1.12943 203.05 0.803471C203.272 0.687688 203.272 0.687688 203.53 0.489597C204.089 0.0818358 204.575 0.0125485 205.351 0.0849463Z" fill="url(#paint0_linear_0_9)"/>
<path id="Subtract" d="M244.697 14.4646C245.118 14.2695 245.374 14.217 245.851 14.3415C246.885 14.9626 246.918 16.3247 247.045 17.2195C247.135 17.9472 247.14 18.6513 247.05 19.3777C247.026 19.5822 247.01 19.7869 246.993 19.9919C246.927 20.7382 246.812 21.4307 246.468 22.1374C246.303 22.4872 246.295 22.7392 246.409 23.1003C246.532 23.2055 246.532 23.2055 246.863 23.2068C247.724 23.1995 248.512 22.8391 249.257 22.5583C249.745 22.3763 250.206 22.2692 250.738 22.1785C251.051 22.1078 251.286 22.012 251.564 21.8874C252.225 21.6195 252.867 21.5223 253.609 21.4382L254.002 21.3913C256.465 21.1103 258.892 21.174 261.348 21.488C261.536 21.5119 261.725 21.5342 261.914 21.5554L262.192 21.5896C262.265 21.5983 262.337 21.6069 262.412 21.616C262.62 21.6719 262.62 21.672 262.842 21.8044C263.279 22.0551 263.762 22.2248 264.255 22.4089C264.451 22.4829 264.648 22.5574 264.845 22.6316C264.931 22.664 265.018 22.6968 265.107 22.7302C265.489 22.8789 265.824 23.0117 266.127 23.239C266.377 23.4175 266.601 23.5403 266.893 23.6775C267.279 23.8604 267.594 24.039 267.895 24.2937L267.896 24.447C267.99 24.4582 267.99 24.4581 268.086 24.4695C268.367 24.5365 268.458 24.6171 268.641 24.7849C268.84 24.9655 269.042 25.1317 269.268 25.2947C269.518 25.4975 269.762 25.7044 270.007 25.9109C270.061 25.9562 270.117 26.0018 270.173 26.0486C270.535 26.3546 270.535 26.3549 270.536 26.5261L270.746 26.5271C270.812 26.6291 270.813 26.6291 270.881 26.7331C271.052 26.971 271.237 27.1697 271.46 27.3826C272.066 27.9801 272.611 28.5711 272.862 29.2966C272.94 29.4318 273.02 29.5659 273.102 29.6999C273.345 30.1163 273.547 30.5382 273.737 30.9685C273.765 31.0292 273.792 31.0905 273.82 31.1531C273.846 31.2122 273.872 31.2718 273.898 31.3327C273.921 31.3849 273.944 31.4373 273.968 31.491C274.133 31.9919 274.159 32.4983 274.173 33.0105C274.175 33.0775 274.176 33.1446 274.178 33.2136C274.183 33.4306 274.187 33.648 274.189 33.865C274.191 33.9756 274.191 33.9758 274.192 34.0886C274.202 35.439 274.089 36.7619 273.211 37.9783C273.162 38.0812 273.116 38.185 273.074 38.2898C272.796 38.9293 272.364 39.5279 271.955 40.1267L271.857 40.2898C271.746 40.4336 271.745 40.433 271.549 40.5701C271.241 40.8031 271.054 41.0689 270.84 41.3503C270.769 41.4277 270.769 41.4274 270.696 41.5066H270.486L270.428 41.6599C270.249 41.9327 270.015 42.119 269.738 42.3415C269.551 42.4959 269.381 42.6543 269.214 42.8201C269.162 42.8706 269.111 42.9213 269.058 42.9734C268.932 43.0974 268.807 43.2218 268.683 43.3464C268.355 43.6303 267.934 43.8295 267.52 44.0408C267.286 44.1612 267.066 44.2867 266.845 44.4187C266.197 44.7739 265.438 45.0079 264.708 45.2595C264.636 45.2845 264.564 45.31 264.489 45.3357C262.698 45.9534 262.697 45.9529 262.065 46.0993C261.764 46.1657 261.764 46.1663 261.525 46.2878C261.197 46.4222 260.91 46.4744 260.541 46.529C260.423 46.5472 260.304 46.565 260.182 46.5837C259.125 46.718 258.057 46.7235 256.986 46.7234C256.739 46.7236 256.492 46.7253 256.245 46.7273C254.87 46.7317 253.598 46.633 252.346 46.1785C252.073 46.0802 251.799 45.9973 251.516 45.9167C250.771 45.7 250.175 45.435 249.545 45.0769C249.46 45.031 249.375 44.9855 249.287 44.9382C249.16 44.8688 249.16 44.8684 249.03 44.7976C248.913 44.7342 248.913 44.7342 248.794 44.6697C248.587 44.5323 248.49 44.4171 248.383 44.2302L248.173 44.2292C247.194 43.3851 246.459 42.4138 246.267 41.3064C246.255 41.2387 246.243 41.171 246.23 41.1013C245.986 39.4601 246.268 37.6815 247.616 36.3161C247.782 36.1725 247.946 36.057 248.142 35.9333H248.353C248.392 35.8639 248.392 35.8634 248.433 35.7927C248.577 35.6062 248.698 35.5365 248.943 35.4226C249.019 35.3871 249.096 35.3518 249.174 35.3152C249.254 35.279 249.334 35.2431 249.416 35.2058C249.493 35.1696 249.57 35.1327 249.649 35.0954C251.057 34.4444 252.493 34.1365 254.114 33.8816C254.297 33.8526 254.48 33.8238 254.662 33.7947C254.745 33.7816 254.828 33.7681 254.913 33.7546C255.358 33.6847 255.358 33.6845 255.714 33.489L255.713 33.1814C255.527 33.1323 255.34 33.0846 255.153 33.0368C255.049 33.0099 254.945 32.9826 254.838 32.9548C252.416 32.4394 249.761 32.6077 247.5 33.3962C247.42 33.4231 247.341 33.4506 247.259 33.4783C246.569 33.7185 245.97 34.0352 245.37 34.3777C245.188 34.4673 245.188 34.4679 244.978 34.4675L244.873 34.698C244.688 34.8052 244.497 34.9062 244.302 35.0036C243.849 35.2306 243.848 35.2305 243.507 35.5398L243.191 35.616L243.034 35.7742L242.877 35.9226H242.561C242.534 35.9654 242.508 36.0083 242.481 36.0525C242.33 36.2578 242.147 36.4236 241.944 36.6033C241.713 36.8105 241.497 37.0117 241.295 37.2351C241.118 37.427 240.936 37.5867 240.725 37.7576C240.396 38.0262 240.174 38.2902 239.938 38.6062C239.857 38.6873 239.775 38.7687 239.69 38.8523C239.405 39.1415 239.192 39.4429 238.988 39.7663C238.952 39.8233 238.915 39.8805 238.878 39.9392C238.574 40.4293 238.355 40.9264 238.158 41.4451C238.084 41.6114 238.011 41.7779 237.937 41.9441C237.731 42.4398 237.616 42.9269 237.534 43.4411C237.525 43.4952 237.515 43.5495 237.506 43.6052C237.202 45.3999 236.778 48.2418 238.281 49.824C238.331 49.8788 238.381 49.9335 238.433 49.99C238.651 50.1572 238.837 50.2155 239.139 50.281C239.432 50.2677 239.432 50.268 239.665 50.1286C239.718 49.9888 239.769 49.8483 239.806 49.7058C240.062 48.9868 240.622 48.3367 241.46 47.9187C241.551 47.8724 241.642 47.8257 241.736 47.7781C241.972 47.6745 241.972 47.6751 242.183 47.6755L242.287 47.4451C243.118 47.0232 244.199 46.6652 245.233 46.7595C245.448 46.8778 245.538 46.9448 245.587 47.1394C245.586 47.1955 245.585 47.2515 245.584 47.3093C245.583 47.4054 245.583 47.4059 245.582 47.5036C245.58 47.573 245.578 47.6431 245.576 47.7146C245.575 47.7866 245.575 47.8591 245.574 47.9333C245.572 48.1647 245.567 48.3963 245.562 48.6277C245.523 50.361 245.524 50.3611 246.017 52.0515C246.039 52.1019 246.062 52.1529 246.085 52.2048C246.279 52.6302 246.499 53.0482 246.723 53.4656C246.886 53.7746 247.008 54.0781 247.104 54.4011C247.225 54.7827 247.427 55.0467 247.743 55.3611C247.892 55.5147 248.002 55.6644 248.11 55.8347C248.302 56.1287 248.553 56.3717 248.832 56.6247C248.956 56.7528 248.956 56.7533 248.957 56.907L249.141 56.9646C249.413 57.0752 249.596 57.1983 249.801 57.3689V57.5232L250.038 57.5906C250.693 57.7871 250.694 57.787 250.928 57.9724C251.227 58.1772 251.556 58.3081 251.917 58.4441C252.022 58.4842 252.022 58.4842 252.129 58.5251C252.953 58.8378 253.799 59.1093 254.652 59.3757C254.72 59.3984 254.788 59.4217 254.857 59.4451C257.924 60.4715 261.099 60.5911 264.406 60.5769C264.747 60.5759 265.087 60.5762 265.428 60.5769C267.112 60.58 268.781 60.5747 270.451 60.404C270.664 60.3853 270.876 60.367 271.089 60.3484C271.262 60.3314 271.435 60.3144 271.608 60.2966C271.748 60.2823 271.748 60.2819 271.891 60.2673C272.45 60.2076 272.984 60.1263 273.524 60.0066C273.917 59.9305 274.313 59.8846 274.714 59.8367C275.522 59.7393 276.303 59.6066 277.081 59.4187V59.2644L277.291 59.2654C277.531 58.7283 277.485 58.3967 277.181 57.8816C277.117 57.7648 277.052 57.6478 276.988 57.531C276.953 57.4676 276.917 57.404 276.881 57.3386C276.508 56.6608 276.14 55.9798 275.87 55.2761C275.807 55.1105 275.806 55.1104 275.695 54.9499C275.539 54.6226 275.508 54.2947 275.468 53.9509C275.454 53.8357 275.454 53.8354 275.44 53.7175C275.035 49.92 275.035 49.9197 276.037 48.3035C276.235 47.9847 276.375 47.6594 276.515 47.3249C276.622 47.1121 276.767 46.9359 276.929 46.7429C276.981 46.6465 277.029 46.5485 277.072 46.4499C277.21 46.1693 277.393 45.9358 277.616 45.6872C277.789 45.4888 277.944 45.2844 278.101 45.0788C278.643 44.3939 279.296 43.7658 280.075 43.2146L280.337 43.0183C280.588 42.8396 280.851 42.6848 281.125 42.5251L281.354 42.3533C282.905 41.2474 284.944 40.5125 286.943 39.9314C287.197 39.856 287.442 39.7728 287.689 39.6863C288.281 39.4936 288.906 39.4121 289.537 39.3152L289.831 39.2585C290.726 39.0927 291.569 39.0464 292.491 39.0515C292.564 39.0518 292.636 39.0522 292.711 39.0525C294.975 39.0671 297.11 39.3684 299.195 40.0261C299.453 40.1067 299.713 40.1828 299.974 40.2585C300.438 40.3941 300.898 40.5351 301.355 40.6814C301.46 40.7141 301.46 40.7144 301.566 40.7478C302.037 40.898 302.475 41.07 302.918 41.2605C303.163 41.3601 303.409 41.4596 303.654 41.5583C303.835 41.6337 304.01 41.7161 304.184 41.8005V41.9548C304.27 41.9847 304.27 41.9849 304.358 42.0154C304.648 42.1253 304.918 42.2498 305.192 42.3786C305.343 42.449 305.343 42.4494 305.496 42.5212C305.692 42.6142 305.888 42.7086 306.083 42.8035V42.9568C306.142 42.9781 306.202 42.9993 306.263 43.0212C306.426 43.0818 306.587 43.1451 306.747 43.2107C307.303 43.4323 307.767 43.6058 308.401 43.4988C309.284 43.259 310.062 42.8441 310.787 42.4138C311.034 42.2727 311.293 42.1696 311.568 42.0603C311.794 41.9553 311.977 41.834 312.173 41.7009C312.599 41.4187 313.163 41.1265 313.764 41.1277L313.763 40.9743C316.259 40.0572 316.259 40.0567 316.603 40.0574L316.602 39.904C316.677 39.8745 316.752 39.8447 316.829 39.8142C317.495 39.5515 317.495 39.5515 318.152 39.2781C318.777 39.0247 319.437 38.8513 320.111 38.6814C320.185 38.6625 320.26 38.6442 320.336 38.6247C320.563 38.567 320.792 38.5097 321.02 38.4529C321.09 38.435 321.16 38.4166 321.232 38.3982C321.982 38.2112 322.747 38.0647 323.512 37.9148C323.782 37.8618 324.051 37.8089 324.321 37.7556C324.499 37.7207 324.499 37.7208 324.681 37.6853C324.906 37.6387 325.13 37.5874 325.353 37.5329C325.986 37.3824 326.671 37.3615 327.333 37.3122C327.445 37.3037 327.558 37.2957 327.674 37.2868C331.15 37.0689 334.639 37.3927 337.775 38.5661C338.105 38.6886 338.427 38.8025 338.771 38.904C339.496 39.1456 340.163 39.452 340.716 39.8728C340.847 39.9588 340.978 40.0445 341.111 40.1286C341.185 40.1758 341.26 40.2227 341.336 40.2712C341.475 40.3586 341.614 40.4458 341.754 40.532C342.23 40.8284 342.683 41.142 343.13 41.4617C343.22 41.5253 343.221 41.5257 343.313 41.5906C343.636 41.8241 343.857 42.0117 343.989 42.3376H344.2C344.301 42.4429 344.401 42.5492 344.495 42.6579C344.633 42.8112 344.784 42.9541 344.939 43.0984C345.551 43.6926 345.822 44.3216 346.105 45.03C346.156 45.1533 346.207 45.2769 346.258 45.4001C346.283 45.4606 346.307 45.5214 346.333 45.5837C346.406 45.7568 346.481 45.9291 346.558 46.1013C346.593 46.1821 346.594 46.1821 346.63 46.2644C346.677 46.3708 346.724 46.4776 346.772 46.5837C347.646 48.5636 346.973 50.7996 346.088 52.7029C346.063 52.7557 346.039 52.8086 346.014 52.863C345.761 53.4016 345.498 53.9236 345.097 54.4138C344.978 54.5594 344.874 54.7085 344.772 54.8611L344.562 54.8601L344.478 55.0329C344.358 55.2355 344.238 55.3862 344.038 55.5505H343.827L343.795 55.699L343.724 55.8572L343.408 55.9333C343.332 56.088 343.331 56.0885 343.304 56.241L343.093 56.24C343.071 56.2927 343.049 56.3458 343.026 56.4001C342.839 56.694 342.576 56.8976 342.273 57.1316C342.191 57.1974 342.191 57.1973 342.107 57.2644C341.795 57.5095 341.502 57.6849 341.099 57.8503L340.993 58.0036C340.724 58.051 340.724 58.0506 340.468 58.0788V58.2331C340.238 58.3306 340.008 58.4274 339.778 58.5242C339.714 58.5514 339.65 58.5791 339.584 58.6072C337.852 59.3336 335.577 59.7971 333.573 59.4646C333.348 59.4124 333.124 59.3568 332.902 59.2986C332.564 59.2135 332.233 59.1604 331.883 59.1091C331.168 58.9906 330.576 58.7807 329.938 58.5202C329.869 58.4921 329.801 58.4633 329.729 58.4343C329.433 58.3133 329.137 58.1922 328.843 58.0691C328.441 57.901 328.036 57.7422 327.619 57.5935L327.618 57.4402C327.54 57.4215 327.463 57.4027 327.383 57.3835C326.299 57.0183 325.196 55.7337 324.664 54.9685C324.558 54.8173 324.558 54.8167 324.398 54.6775C324.205 54.4805 324.102 54.2913 323.992 54.0632C323.953 53.9857 323.914 53.9077 323.874 53.8279C323.801 53.5471 323.873 53.3912 324.022 53.1316C324.673 53.177 324.972 53.3611 325.419 53.696C325.952 54.0764 326.541 54.4018 327.187 54.6736C327.247 54.7066 327.308 54.7402 327.37 54.7742C328.07 55.1476 328.824 55.3468 329.635 55.5525C329.786 55.5915 329.937 55.6328 330.087 55.6755C331.297 56.0109 332.559 56.0123 333.825 55.9158C333.909 55.9137 333.994 55.912 334.08 55.9099C335.415 55.8663 336.708 55.2186 337.611 54.5398L337.821 54.5408V54.3865C337.972 54.2942 338.124 54.2021 338.277 54.112C338.746 53.8198 339.031 53.4856 339.29 53.0837C339.393 52.9526 339.496 52.8212 339.599 52.6902C340.655 51.2559 340.673 49.5762 340.449 47.9822C340.442 47.9249 340.435 47.8674 340.427 47.8083C340.367 47.431 340.223 47.1344 340.004 46.7859C339.971 46.6983 339.938 46.6105 339.904 46.5202C339.774 46.2061 339.587 45.9415 339.368 45.656C339.293 45.5564 339.218 45.4568 339.144 45.3572C339.078 45.2703 339.013 45.183 338.945 45.0935C338.91 45.0343 338.875 44.9748 338.839 44.9138C338.745 44.7738 338.744 44.774 338.534 44.7136C338.23 44.6016 338.103 44.4469 337.902 44.2468C337.141 43.5464 336.013 42.955 334.868 42.6374C334.493 42.5321 334.135 42.4133 333.775 42.2829C333.109 42.0601 332.445 41.9594 331.727 41.8679C331.607 41.8511 331.487 41.8344 331.363 41.8171C330.07 41.6452 328.904 41.687 327.613 41.8357C327.494 41.8488 327.375 41.8622 327.252 41.8757C327.014 41.9021 326.776 41.9292 326.538 41.9568C326.313 41.9827 326.087 42.0075 325.861 42.031C325.143 42.1088 324.482 42.2382 323.798 42.4148C322.75 42.6806 322.749 42.68 322.262 42.7644C321.584 42.8854 320.998 43.1042 320.405 43.3679C320.284 43.4007 320.284 43.4009 320.161 43.4343C319.858 43.5273 319.62 43.6432 319.354 43.7839C319.012 43.9643 318.666 44.1288 318.303 44.2859C318.158 44.357 318.013 44.4294 317.869 44.5017C317.516 44.6753 317.156 44.8256 316.778 44.9695C316.082 45.24 315.498 45.5882 314.9 45.9597C314.625 46.1224 314.624 46.1227 314.309 46.199C314.065 46.3675 313.835 46.5423 313.606 46.7214C313.469 46.8123 313.468 46.8117 313.258 46.8113C313.04 47.1043 313.04 47.1046 312.944 47.4255C313.045 47.6064 313.151 47.786 313.262 47.9636L313.263 48.1941L313.579 48.2722C313.772 48.4593 313.772 48.4593 313.969 48.6902C314.035 48.7662 314.101 48.8423 314.169 48.9206C314.32 49.118 314.32 49.1186 314.32 49.2722H314.53C314.983 49.675 315.799 50.4377 315.801 50.9646L316.011 50.9656L316.124 51.157C316.275 51.3806 316.467 51.5471 316.698 51.7302C317.039 52.004 317.207 52.2369 317.386 52.5808L317.564 52.7976C317.703 52.9656 317.704 52.9657 317.704 53.1189L317.914 53.1199L318.093 53.3894C318.284 53.6666 318.495 53.9279 318.727 54.1882C318.822 54.2995 318.914 54.413 319.001 54.5281C319.355 54.9915 319.778 55.3619 320.282 55.741C320.663 56.0294 320.663 56.0298 320.664 56.198L320.979 56.2751C321.142 56.393 321.143 56.3932 321.316 56.5447C321.381 56.5999 321.446 56.6557 321.513 56.7126C321.581 56.7716 321.65 56.8306 321.72 56.8913C322.158 57.2698 322.568 57.6106 323.137 57.8845C323.303 57.9697 323.303 57.9694 323.554 58.157C323.86 58.3751 324.183 58.5302 324.541 58.699C324.764 58.81 324.962 58.9271 325.163 59.0583C325.449 59.2435 325.737 59.3795 326.072 59.5115C326.27 59.5941 326.449 59.6869 326.633 59.7859C326.95 59.9552 327.276 60.0789 327.629 60.2058C327.801 60.2823 327.972 60.3596 328.143 60.4372C328.594 60.637 329.028 60.7787 329.526 60.9011C329.711 60.9509 329.896 61.0004 330.08 61.0505C330.601 61.1897 331.126 61.3169 331.653 61.4402C331.951 61.5196 331.951 61.5195 332.258 61.6374C332.62 61.7638 332.94 61.8167 333.334 61.8679C333.406 61.8774 333.479 61.8874 333.553 61.8972C334.234 61.9852 334.919 62.0596 335.604 62.1316C336.114 62.1863 336.606 62.2587 337.107 62.3503C338.694 62.5923 340.614 62.6395 342.147 62.237C342.562 62.1355 342.973 62.0854 343.404 62.0359C344.527 61.9196 344.528 61.92 345.55 61.5915C345.977 61.4183 346.426 61.3359 346.896 61.241C347.491 61.1199 348.038 60.9963 348.586 60.7829L348.967 60.6882C349.486 60.5529 349.942 60.3428 350.411 60.1355C350.688 60.019 350.689 60.0192 351.004 59.9431V59.7888C351.142 59.7174 351.281 59.6474 351.425 59.5818C351.778 59.4158 352.116 59.2326 352.457 59.0535C352.685 58.9471 352.686 58.9476 352.896 58.948L353 58.7175L353.316 58.6413C353.496 58.5092 353.496 58.5088 353.67 58.3493C353.948 58.1099 354.218 57.9001 354.576 57.7214L354.787 57.7224L354.872 57.574C354.996 57.4158 354.996 57.4157 355.312 57.3396C355.439 57.1475 355.44 57.1472 355.521 56.9558H355.731L355.836 56.7253C355.976 56.7 356.117 56.6745 356.257 56.6492L356.361 56.4197C356.534 56.2902 356.71 56.1621 356.887 56.0359L357.149 55.8015C357.394 55.5916 357.628 55.4282 357.937 55.2702H358.147L358.22 55.1452C358.405 54.9 358.623 54.7112 358.882 54.5036H359.092L359.196 54.2742C359.77 53.8911 359.771 53.8908 360.038 53.8913L360.103 53.7234C360.257 53.4926 360.435 53.3766 360.71 53.2204C361.071 53.0127 361.361 52.8326 361.507 52.5115C361.638 52.4061 361.638 52.4055 361.822 52.281C362.109 52.0771 362.379 51.8725 362.629 51.6443L362.872 51.4382H363.082L363.164 51.3035C363.302 51.1182 363.455 50.9925 363.659 50.8445C363.755 50.774 363.755 50.7737 363.853 50.7019C364.026 50.5954 364.027 50.595 364.237 50.5954L364.342 50.366C364.479 50.2619 364.62 50.16 364.762 50.0593C364.872 49.9654 364.981 49.8706 365.09 49.7761C365.802 49.1805 366.639 48.7007 367.496 48.2224C367.838 48.0281 368.132 47.8365 368.405 47.5886C368.816 47.2178 369.351 47.0045 369.909 46.7654C370.039 46.7051 370.168 46.6445 370.297 46.5837C370.931 46.296 371.589 46.0365 372.241 45.7722C372.399 45.708 372.557 45.6436 372.715 45.5788C373.187 45.3854 373.665 45.2039 374.152 45.031C374.343 44.9618 374.532 44.8899 374.719 44.8152C375.994 44.316 377.35 44.1614 378.765 43.9978C378.877 43.9846 378.989 43.9714 379.104 43.9577C380.196 43.8386 381.269 43.8298 382.364 43.9372C382.5 43.95 382.635 43.9632 382.774 43.9763C383.166 44.0255 383.526 44.0947 383.905 44.1804C383.972 44.3963 383.971 44.3966 384.012 44.6413C383.776 44.9002 383.611 44.9614 383.237 45.1013C382.945 45.2112 382.674 45.3149 382.412 45.4597C382.226 45.5602 382.225 45.5597 382.015 45.5593L382.016 45.7126C381.839 45.8449 381.839 45.8456 381.608 45.991C381.495 46.0635 381.495 46.0634 381.379 46.1374C381.175 46.2491 381.174 46.2492 380.964 46.2488L380.932 46.3786C380.818 46.6609 380.641 46.8766 380.342 47.074C379.819 47.4907 379.621 48.0968 379.394 48.6277L379.289 48.8572C379.248 49.2401 379.222 49.5874 379.438 49.9431C379.681 50.148 379.795 50.1622 380.169 50.199C380.74 50.197 381.196 50.0031 381.698 49.824C382.036 49.706 382.367 49.6177 382.725 49.5388C382.914 49.4943 383.101 49.4425 383.285 49.3884C384.147 49.1409 384.965 49.0251 385.884 48.946C386.274 48.9124 386.636 48.8765 387.015 48.7966C387.56 48.6862 388.111 48.6465 388.673 48.6013C388.792 48.5916 388.911 48.582 389.033 48.572C389.365 48.5453 389.697 48.5194 390.028 48.4939C390.206 48.48 390.207 48.4797 390.389 48.4656C392.282 48.3256 394.168 48.3826 396.031 48.6589C396.262 48.6826 396.492 48.7053 396.723 48.7273C398.016 48.8759 399.204 49.1727 400.357 49.6238C400.658 49.7444 400.658 49.7448 400.944 49.823C401.209 49.9023 401.417 49.9996 401.65 50.1199C402.08 50.3346 402.518 50.5074 402.988 50.6697C403.347 50.7939 403.554 50.9228 403.833 51.1316C404.046 51.2696 404.261 51.4061 404.477 51.5417C404.991 51.8741 404.991 51.8744 405.015 52.1091L404.995 52.2868C404.638 52.4436 404.362 52.4582 403.948 52.4577C403.822 52.458 403.695 52.4584 403.564 52.4587C403.427 52.4584 403.289 52.4581 403.147 52.4577C403.002 52.4581 402.857 52.4581 402.712 52.4587C402.098 52.4611 401.483 52.4623 400.869 52.4617C398.859 52.4603 396.925 52.5416 394.937 52.7644C394.417 52.8217 393.895 52.8732 393.374 52.9245C391.205 53.1063 391.205 53.1064 389.105 53.5115C388.865 53.568 388.633 53.5931 388.383 53.6189C387.79 53.6885 387.248 53.8314 386.686 53.9802C386.008 54.1595 385.376 54.2925 384.658 54.3591C384.077 54.4363 383.54 54.6149 382.997 54.78C382.43 54.9515 381.861 55.1059 381.276 55.2419C380.106 55.5147 379.003 55.8422 377.948 56.3064C377.778 56.3592 377.608 56.4126 377.438 56.4636C377.15 56.5559 376.873 56.6609 376.594 56.7654C376.217 56.9043 375.855 57.0243 375.45 57.113C375.056 57.2011 374.753 57.3282 374.411 57.4939C373.974 57.6895 373.506 57.8446 373.044 58.0066C372.696 58.1376 372.381 58.2852 372.059 58.446C371.884 58.5234 371.709 58.6 371.533 58.6755L371.271 58.7908C370.482 59.135 370.482 59.135 370.215 59.2497C369.969 59.3588 369.733 59.4741 369.496 59.5935C369.103 59.7861 368.71 59.9168 368.274 60.0525C368.032 60.168 367.795 60.2879 367.561 60.4118C367.306 60.521 367.093 60.5576 366.802 60.5876L366.803 60.741C365.932 61.0971 365.931 61.0971 365.554 61.2283C365.249 61.3436 364.968 61.4705 364.68 61.6062C362.278 62.7298 362.278 62.7296 361.545 62.7283V62.8826L361.177 63.0154C361.099 63.0437 361.021 63.0731 360.941 63.1023C360.799 63.1538 360.656 63.2045 360.513 63.2546C359.956 63.4508 359.422 63.6743 358.89 63.9031C358.414 64.1049 358.413 64.1057 358.181 64.1052V64.2585C358.011 64.3027 358.011 64.3024 357.839 64.3474C357.688 64.3875 357.536 64.4283 357.385 64.4685C357.311 64.4877 357.236 64.5073 357.16 64.5271C356.66 64.6608 356.22 64.8241 355.762 65.0222C355.517 65.1022 355.273 65.1773 355.025 65.2507C354.936 65.2781 354.846 65.3056 354.754 65.3337C354.288 65.4759 353.822 65.6176 353.35 65.7488C353.28 65.7684 353.21 65.7881 353.138 65.8083C352.938 65.8642 352.737 65.9193 352.537 65.9743C352.184 66.0781 352.184 66.0781 351.925 66.2458C351.596 66.4335 351.29 66.5003 350.891 66.5876C350.458 66.6851 350.039 66.7803 349.642 66.9402C349.322 67.0664 349.014 67.1323 348.66 67.1931C348.548 67.2127 348.435 67.2325 348.319 67.2527C348.207 67.2723 348.094 67.292 347.978 67.3122C347.779 67.3491 347.581 67.3862 347.383 67.4236C345.323 67.8027 343.246 68.0224 341.13 68.1628C341.043 68.1688 340.955 68.1752 340.865 68.1814C339.257 68.276 337.642 68.2151 336.035 68.1257C335.752 68.1101 335.469 68.095 335.187 68.0808C333.726 68.0039 332.294 67.9036 330.92 67.5095C330.702 67.4672 330.482 67.4284 330.262 67.3933C330.086 67.3643 330.086 67.3643 329.907 67.3347C329.673 67.2966 329.438 67.259 329.203 67.2214C328.594 67.1183 328.164 67.0069 327.652 66.7351C327.448 66.6802 327.244 66.6255 327.039 66.573C326.78 66.4945 326.558 66.3961 326.321 66.2868C325.778 66.0392 325.208 65.8638 324.618 65.6843C324.238 65.5642 323.894 65.4266 323.541 65.2683L323.33 65.1911L323.329 65.0368L322.907 64.9597V64.8064L322.677 64.7429C322.382 64.6517 322.125 64.5422 321.853 64.4197L321.642 64.3523C321.346 64.2305 321.144 64.0559 320.903 63.8806C320.764 63.8021 320.623 63.7249 320.48 63.6492C320.131 63.4625 319.834 63.2595 319.531 63.0329L319.267 62.8786C319.003 62.7247 319.003 62.7241 318.76 62.5466C318.473 62.3379 318.177 62.141 317.875 61.9441C317.342 61.5925 316.856 61.2236 316.38 60.8308C316.157 60.6446 316.157 60.6445 315.918 60.4812C315.73 60.3371 315.73 60.3367 315.624 60.1062C315.452 59.975 315.275 59.8472 315.096 59.7214C313.301 58.3514 313.3 58.3507 313.299 57.9509L312.878 57.7966L312.877 57.6423L312.561 57.5652C312.406 57.4224 312.406 57.4223 312.25 57.2429C312.194 57.1797 312.138 57.1166 312.081 57.0515C312.005 56.9631 312.005 56.9628 311.927 56.8728C311.656 56.5711 311.374 56.2762 311.087 55.9831C311.019 55.9133 310.95 55.8431 310.88 55.7712C310.664 55.5617 310.664 55.5616 310.407 55.3826C310.069 55.1348 309.778 54.8675 309.482 54.5925C309.372 54.4904 309.262 54.3878 309.151 54.2859C309.103 54.2412 309.055 54.1961 309.006 54.1501C308.864 54.0215 308.863 54.0217 308.694 53.904C308.545 53.7935 308.545 53.7936 308.399 53.6111C308.243 53.4273 308.081 53.2938 307.866 53.1462C307.643 52.9822 307.444 52.8043 307.238 52.6286C306.766 52.2482 306.483 52.0799 305.783 51.9939C304.93 51.9721 304.416 52.3847 303.831 52.78C303.772 52.8206 303.713 52.8612 303.652 52.9031C303.448 53.0427 303.235 53.1752 303.021 53.3074C302.7 53.5131 302.399 53.7312 302.1 53.9538C301.837 54.1419 301.558 54.3152 301.279 54.49C301.076 54.6219 300.887 54.7596 300.698 54.9021C300.469 55.0735 300.242 55.2148 299.969 55.3474C299.585 55.5352 299.317 55.7725 299.032 56.0359C298.867 56.1564 298.866 56.1566 298.551 56.156L298.466 56.3044C298.341 56.4626 298.341 56.4626 298.025 56.5388C297.899 56.6922 297.898 56.692 297.815 56.8454H297.605L297.53 56.9783C297.367 57.1895 297.172 57.3188 296.923 57.4783C296.798 57.559 296.798 57.559 296.671 57.6413C296.451 57.7645 296.45 57.7648 296.24 57.7644V57.9187C296.064 58.0508 296.064 58.0507 295.833 58.196C295.72 58.2684 295.72 58.2686 295.604 58.3425C295.4 58.4543 295.4 58.4542 295.189 58.4538V58.6081C294.615 58.9908 294.614 58.9905 294.349 58.99C294.322 59.0356 294.295 59.0817 294.268 59.1286C294.129 59.3122 293.992 59.4075 293.771 59.5408C293.697 59.5866 293.623 59.6332 293.547 59.6804C293.465 59.7308 293.383 59.7808 293.299 59.8327C293.112 59.9518 292.926 60.0719 292.741 60.1921C292.655 60.2477 292.568 60.3038 292.479 60.3611C292.125 60.6099 291.887 60.7962 291.856 61.1648C291.869 61.3936 291.893 61.4875 292.112 61.655C292.364 61.7806 292.613 61.8825 292.886 61.9831C292.96 62.0125 293.034 62.0418 293.11 62.072C293.786 62.3329 294.464 62.5039 295.198 62.655C295.304 62.6778 295.411 62.7008 295.521 62.7243C297.522 63.1457 299.533 63.1617 301.598 63.1892C301.853 63.1927 302.109 63.1973 302.365 63.2019C302.481 63.2031 302.481 63.2026 302.6 63.2038C303.021 63.2121 303.362 63.2402 303.737 63.3865C303.836 63.5333 303.836 63.5337 303.844 63.6941C303.482 64.1797 303.045 64.3793 302.373 64.613L302.063 64.7283L301.742 64.8425C301.663 64.8724 301.584 64.9025 301.503 64.9333C300.993 65.125 300.496 65.284 299.944 65.4021C299.713 65.4546 299.713 65.4541 299.428 65.6062C299.141 65.67 298.855 65.7298 298.566 65.7868C297.849 65.9308 297.849 65.9311 297.173 66.154C296.192 66.5169 295.097 66.4676 294.021 66.4617C293.753 66.4603 293.485 66.4602 293.217 66.4607C290.972 66.4583 290.972 66.4581 289.952 66.0476C289.49 65.8818 288.973 65.8187 288.475 65.7341C287.917 65.6339 287.489 65.4976 287.001 65.2751C286.382 65.0734 285.708 65.0195 285.062 65.1824C284.787 65.279 284.527 65.3864 284.265 65.5007C284.206 65.5257 284.147 65.5512 284.087 65.5769C283.336 65.848 283.335 65.8478 282.793 66.2663C282.567 66.358 282.342 66.4425 282.109 66.5242C282.009 66.56 282.008 66.5598 281.905 66.5964C281.063 66.8946 280.211 67.1543 279.334 67.3952C279.066 67.4712 278.807 67.5529 278.547 67.6413C278.054 67.8057 277.539 67.9239 277.022 68.0417C276.699 68.1167 276.452 68.1895 276.167 68.3279C275.976 68.3667 275.782 68.401 275.588 68.4324C274.872 68.5558 274.183 68.7223 273.509 68.9363C273.19 69.0217 272.888 69.0639 272.553 69.1033C272.422 69.1188 272.29 69.1341 272.155 69.1501C272.019 69.1659 271.881 69.1818 271.74 69.198C271.545 69.2211 271.544 69.2212 271.345 69.2449C271.068 69.2773 270.791 69.3096 270.514 69.3406C270.204 69.3753 269.895 69.4134 269.587 69.4538C268.234 69.6245 266.908 69.6472 265.536 69.6355C265.175 69.6324 264.813 69.6308 264.452 69.6296C262.114 69.6195 259.817 69.514 257.491 69.3269C257.088 69.2945 256.684 69.2636 256.28 69.2322C256.02 69.2116 255.76 69.1904 255.5 69.1697C255.322 69.1558 255.321 69.1555 255.14 69.1413C253.303 68.992 253.302 68.9922 252.476 68.6667C251.805 68.5026 251.122 68.3686 250.427 68.2742C249.987 68.2141 249.619 68.0995 249.208 67.9695C248.703 67.8641 248.193 67.7721 247.678 67.698C247.598 67.6865 247.518 67.6756 247.437 67.6638C247.369 67.6551 247.301 67.6455 247.23 67.6365C246.996 67.5805 246.995 67.5812 246.652 67.4324C246.247 67.2575 245.849 67.1812 245.395 67.1023C244.638 66.9593 243.933 66.7673 243.221 66.532C243.132 66.503 243.043 66.474 242.952 66.4441C242.593 66.3221 242.285 66.2083 241.975 66.0261C241.665 65.8464 241.342 65.7671 240.973 65.6775C240.016 65.4304 239.142 65.0857 238.253 64.7312C237.834 64.5658 237.407 64.4115 236.979 64.2585L236.979 64.1052L236.801 64.0857C236.479 64.009 236.292 63.8769 236.03 63.7195C235.717 63.5612 235.398 63.4093 235.08 63.2566C234.835 63.1375 234.591 63.0175 234.347 62.8982C234.174 62.8144 234.001 62.7318 233.828 62.6492C233.323 62.3979 232.83 62.1331 232.338 61.8679C232.274 61.8342 232.209 61.8011 232.143 61.7663C231.597 61.4758 231.109 61.1543 230.622 60.8132C230.477 60.7118 230.331 60.6106 230.186 60.5095C230.123 60.4653 230.059 60.4212 229.994 60.3757C229.804 60.2453 229.803 60.2444 229.569 60.1277C229.477 60.0738 229.476 60.0743 229.382 60.0193V59.865L228.96 59.7107L228.959 59.5574L228.643 59.4802V59.3259H228.432C228.288 59.1994 228.147 59.0708 228.009 58.9411C227.834 58.8123 227.658 58.6833 227.481 58.5554C226.671 57.9484 225.89 57.348 225.263 56.6316C225.177 56.5417 225.091 56.4518 225.005 56.362C224.84 56.1697 224.84 56.169 224.84 56.0154H224.629C224.5 55.8698 224.381 55.7197 224.266 55.5681C224.058 55.2956 223.872 55.079 223.571 54.8611C223.461 54.7238 223.355 54.5842 223.254 54.4431C223.039 54.1433 223.039 54.1426 222.776 53.865C222.571 53.6581 222.454 53.4427 222.321 53.2068C222.116 52.8481 221.899 52.4995 221.653 52.154C221.404 51.7998 221.209 51.4457 221.03 51.0701C220.92 50.8541 220.79 50.6505 220.652 50.4431C220.415 50.0753 220.274 49.7134 220.157 49.3171C220.079 49.0825 220.079 49.0821 219.92 48.8308C218.998 47.2628 218.832 45.3217 218.791 43.6365C218.787 43.5249 218.784 43.413 218.78 43.3015C218.707 41.03 218.783 38.7725 219.607 36.5701C219.645 36.4391 219.682 36.3079 219.718 36.1765C219.799 35.9297 219.903 35.7239 220.048 35.4949C220.151 35.3018 220.21 35.1071 220.272 34.905C220.404 34.4985 220.593 34.1312 220.82 33.7488C220.981 33.4721 221.124 33.1919 221.266 32.9099C221.909 31.6358 222.584 30.3161 223.555 29.155C223.784 28.8788 224.009 28.6008 224.229 28.321C224.606 27.8468 224.998 27.3794 225.392 26.9128C225.439 26.8562 225.487 26.7993 225.536 26.741C225.579 26.6907 225.621 26.6404 225.665 26.5886C225.784 26.4403 225.89 26.2892 225.992 26.1345H226.203L226.281 25.9675C226.425 25.7297 226.607 25.5693 226.832 25.3679C226.98 25.2233 227.125 25.0773 227.271 24.9314C227.343 24.8583 227.417 24.7859 227.492 24.7107C227.671 24.5353 227.67 24.5348 227.775 24.3708L227.986 24.3718L228.064 24.2429C228.221 24.0297 228.409 23.8511 228.615 23.6618L228.839 23.4548L229.035 23.2976L229.246 23.2986L229.271 23.1687C229.417 22.8394 229.712 22.6406 230.078 22.4304C230.416 22.2357 230.605 22.0051 230.812 21.7322C230.849 21.6924 230.886 21.6521 230.925 21.6111L231.135 21.612C231.159 21.5683 231.184 21.5243 231.209 21.4792C231.376 21.2645 231.575 21.1362 231.83 20.9743C231.97 20.8849 231.97 20.8849 232.113 20.7937C232.206 20.7349 232.299 20.6765 232.395 20.616C232.477 20.5619 232.559 20.5076 232.644 20.4519C232.717 20.4034 232.791 20.3544 232.867 20.3044C232.933 20.2609 233 20.2175 233.068 20.1726C233.236 20.0797 233.236 20.0794 233.446 20.0798L233.551 19.8493C233.737 19.7153 233.737 19.7152 233.964 19.5769C234.184 19.4414 234.397 19.3085 234.601 19.1599L234.917 19.1609L234.916 19.0076C235.096 18.9143 235.097 18.9141 235.33 18.8161C235.658 18.6874 235.658 18.6873 235.862 18.4714C236.036 18.3931 236.211 18.3168 236.388 18.2419C236.568 18.1476 236.748 18.0517 236.926 17.9548C237.411 17.6956 237.907 17.4577 238.417 17.2253C238.956 16.975 239.48 16.7059 239.991 16.4265C240.708 16.0419 241.477 15.7642 242.276 15.4841C242.84 15.2866 243.386 15.0878 243.91 14.8376L244.208 14.699C244.372 14.6218 244.535 14.5438 244.697 14.4646ZM163.49 14.0456C163.908 14.1257 164.197 14.2647 164.551 14.4421C165.07 14.6997 165.597 14.9288 166.15 15.1452C166.584 15.3176 167.01 15.5001 167.436 15.6833C167.664 15.781 167.893 15.8766 168.124 15.9704C168.436 16.1048 168.723 16.2506 169.015 16.407C169.196 16.4993 169.381 16.5775 169.575 16.655C169.937 16.8092 169.938 16.8094 170.247 17.0017C170.62 17.224 170.979 17.3553 171.414 17.5036L171.415 17.657C171.502 17.666 171.502 17.6663 171.591 17.6755C171.924 17.756 172.125 17.8952 172.391 18.0622C172.746 18.2812 173.092 18.4815 173.491 18.655L173.841 18.8142L173.842 18.9675L174.059 19.0115C174.417 19.1399 174.616 19.295 174.889 19.5036C175.226 19.747 175.598 19.9577 175.968 20.1745C176.358 20.4091 176.731 20.656 177.104 20.906C177.331 21.059 177.331 21.0594 177.641 21.2029L177.642 21.3562L177.852 21.3572L177.853 21.5105L178.169 21.5876C178.336 21.7418 178.335 21.7425 178.512 21.9392C178.857 22.3107 179.235 22.6414 179.648 22.9734C179.836 23.1289 180.023 23.285 180.21 23.4411C180.321 23.5338 180.433 23.6267 180.545 23.7185C181.288 24.3336 181.969 25.0136 182.515 25.7302C182.675 25.9788 182.675 25.9787 182.924 26.0525C183.093 26.2851 183.243 26.523 183.396 26.7615C183.543 26.9934 183.543 26.9934 183.875 27.1296C183.988 27.2661 184.094 27.4067 184.193 27.5486C184.377 27.8095 184.539 28.005 184.827 28.2077C185.124 28.5479 185.372 28.9072 185.582 29.28C185.706 29.4925 185.843 29.7002 185.979 29.9089C186.255 30.3401 186.493 30.777 186.715 31.2243C186.824 31.435 186.824 31.435 186.991 31.5827C187.229 31.817 187.366 32.0782 187.515 32.3464C187.547 32.4038 187.579 32.4612 187.612 32.5202C187.872 32.9897 188.098 33.4648 188.309 33.947C188.426 34.2103 188.427 34.2106 188.59 34.4753C188.95 35.0888 189.166 35.745 189.333 36.3992C189.392 36.611 189.469 36.8183 189.546 37.0271C189.704 37.4741 189.793 37.9201 189.87 38.3777C189.901 38.5527 189.936 38.7273 189.978 38.9011C190.213 39.8882 190.214 40.8928 190.248 41.8913C190.25 41.9508 190.253 42.0107 190.255 42.072C190.265 42.3961 190.262 42.7196 190.253 43.0437C190.251 43.1105 190.25 43.1779 190.248 43.2468C190.222 44.1818 190.142 45.0897 189.921 46.0105C189.845 46.3264 189.798 46.6414 189.754 46.9607C189.555 48.1872 189.082 49.5516 188.276 50.6394C188.142 50.8515 188.057 51.0686 187.967 51.2927C187.694 51.9669 187.294 52.56 186.837 53.1765C186.605 53.4904 186.387 53.8081 186.176 54.1296C185.898 54.5501 185.634 54.9335 185.185 55.2712C184.915 55.5048 184.743 55.782 184.55 56.0515C184.39 56.2664 184.218 56.4534 183.985 56.6296L183.774 56.6286C183.735 56.7129 183.735 56.7135 183.695 56.7995C183.553 57.0317 183.39 57.1741 183.151 57.3581C182.924 57.5342 182.733 57.6924 182.564 57.9011C182.41 58.0866 182.268 58.1925 182.036 58.3259C181.782 58.4734 181.651 58.5728 181.466 58.7761L181.255 58.7751L181.177 58.905C180.87 59.3208 180.415 59.6509 179.891 59.9245H179.68L179.575 60.155C179.415 60.2698 179.415 60.2697 179.221 60.3845C179.027 60.4999 178.844 60.6114 178.672 60.7439C178.525 60.8444 178.525 60.8439 178.314 60.8435L178.249 60.9734C177.795 61.5323 176.777 61.8949 176.056 62.2517C175.994 62.2826 175.931 62.3136 175.867 62.3454C175.745 62.4063 175.622 62.4668 175.499 62.5271C175.173 62.6831 175.172 62.6832 174.952 62.9118C174.638 63.0343 174.316 63.1423 173.993 63.2527C173.726 63.3561 173.583 63.4481 173.375 63.6003L173.06 63.5993C173.032 63.6655 173.032 63.6656 173.004 63.7331C172.774 63.9913 172.43 64.0898 172.062 64.2214C171.526 64.407 171.526 64.4077 171.062 64.6716C170.896 64.7242 170.729 64.776 170.561 64.8259C170.285 64.9134 170.021 65.014 169.755 65.115C169.258 65.298 168.759 65.4463 168.236 65.5827C167.352 65.8145 166.503 66.0939 165.694 66.4451C165.103 66.6983 164.529 66.8434 163.865 66.9665C163.214 67.09 162.596 67.2319 161.974 67.4187C161.481 67.5583 160.973 67.6618 160.465 67.7673C160.298 67.8024 160.298 67.8027 160.127 67.8386C159.561 67.9559 158.998 68.0618 158.42 68.1423C157.79 68.2303 157.203 68.3757 156.599 68.5281C155.739 68.7421 154.93 68.8872 154.02 68.9411C153.837 68.9522 153.655 68.9633 153.473 68.9743C153.164 68.993 152.854 69.0106 152.545 69.0281C151.951 69.0629 151.364 69.1117 150.775 69.1775C149.329 69.3377 147.883 69.3683 146.421 69.3806C146.064 69.3838 145.708 69.3894 145.352 69.3962C142.624 69.447 140.031 69.3423 137.344 68.9724C137.265 68.9617 137.187 68.9512 137.106 68.9402C136.389 68.8358 135.705 68.6797 135.044 68.449C134.65 68.3163 134.257 68.2268 133.839 68.1433C133.219 68.0186 132.636 67.8617 132.044 67.6814C131.587 67.5431 131.131 67.4305 130.652 67.3396C130.426 67.2826 130.426 67.2824 130.181 67.1716C129.846 67.0285 129.519 66.9545 129.148 66.8718C128.113 66.6289 127.253 66.2597 126.373 65.7947C125.995 65.6074 125.596 65.4557 125.19 65.3035C124.959 65.2053 124.81 65.1063 124.626 64.9665C123.89 64.7167 123.13 64.7439 122.382 64.9392C122.182 64.9969 121.982 65.0551 121.783 65.115C121.031 65.3323 120.292 65.5277 119.507 65.6726C119.239 65.723 119.238 65.7234 118.93 65.8445C118.047 66.1652 117.079 66.1285 116.115 66.1228C115.873 66.1215 115.631 66.1223 115.389 66.1228C112.826 66.1202 112.826 66.1198 111.782 65.6335C111.471 65.5544 111.154 65.4975 110.834 65.4402C110.201 65.3268 109.704 65.1854 109.146 64.9372C108.921 64.8649 108.921 64.8653 108.719 64.8171C108.258 64.6962 107.832 64.5462 107.414 64.3581C107.136 64.2326 107.136 64.2329 106.781 64.1365C106.363 63.9968 106.104 63.8548 105.772 63.6247L105.771 63.4714H105.562L105.454 63.0867C105.799 62.9194 105.91 62.9141 106.312 62.9089C106.422 62.907 106.533 62.905 106.647 62.9031C106.768 62.9015 106.889 62.8998 107.014 62.8982C107.273 62.8927 107.532 62.8865 107.791 62.8806C107.994 62.8761 107.994 62.8764 108.201 62.8718C108.337 62.8688 108.473 62.8652 108.612 62.862C108.811 62.8578 108.811 62.8586 109.014 62.8542C110.801 62.8107 112.42 62.6527 114.121 62.2478C114.486 62.1627 114.855 62.0888 115.225 62.0163C115.482 61.9458 115.658 61.8469 115.874 61.7243C116.119 61.6468 116.364 61.5701 116.61 61.4949C116.914 61.4109 116.915 61.4107 117.136 61.2654C117.28 60.89 117.272 60.6149 117.027 60.2663C116.841 60.135 116.649 60.0184 116.442 59.904C116.392 59.8711 116.34 59.8384 116.288 59.8044V59.6501L116.109 59.5925C115.821 59.4784 115.583 59.3473 115.338 59.1882V59.0339L115.114 58.991C114.757 58.8602 114.595 58.7092 114.349 58.4851C114.117 58.2902 113.854 58.1348 113.577 57.9753C113.531 57.9434 113.486 57.9115 113.438 57.8786L113.438 57.7243L112.91 57.5701V57.4167L112.733 57.3581C112.44 57.243 112.194 57.1051 111.934 56.9538C111.793 56.8729 111.792 56.8724 111.648 56.7898L111.433 56.6452V56.4919C111.338 56.4817 111.338 56.4809 111.241 56.4704C110.948 56.398 110.873 56.3107 110.7 56.1257C110.237 55.6532 109.685 55.3135 109.063 54.9548C108.484 54.6159 107.946 54.2548 107.421 53.8718C107.25 53.759 107.078 53.6468 106.906 53.5349C106.517 53.2815 106.144 53.0218 105.782 52.7478C105.611 52.6217 105.61 52.6219 105.31 52.4851V52.3318C105.247 52.3112 105.184 52.2905 105.12 52.2693C104.885 52.1763 104.733 52.0775 104.544 51.9411C104.146 51.6882 103.829 51.6178 103.306 51.6365C102.98 51.6644 102.661 51.6936 102.358 51.7878L102.255 52.0183C102.091 52.1332 102.091 52.1339 101.894 52.2488C101.636 52.3991 101.497 52.5025 101.31 52.7077H101.099L101.079 52.8376C100.983 53.0387 100.841 53.1354 100.631 53.279C100.19 53.6047 99.7874 53.9781 99.5254 54.3952L99.3145 54.3943L99.2559 54.5476C99.0748 54.8245 98.8325 55.015 98.5518 55.241C98.3226 55.4318 98.1424 55.6394 97.9512 55.8513C97.7374 56.0507 97.5197 56.2477 97.3008 56.4441C97.1005 56.6231 97.1009 56.6236 96.9023 56.8484L96.6914 56.8474C96.6815 56.891 96.6713 56.9352 96.6611 56.9802C96.5701 57.1944 96.4278 57.322 96.2334 57.4949C95.9726 57.7313 95.7502 57.9669 95.5381 58.2283L95.3281 58.3044C95.2093 58.4591 95.2088 58.4599 95.1182 58.612L94.9082 58.6111L94.8887 58.741C94.7698 58.9894 94.5359 59.1266 94.2783 59.3015C93.6124 59.7751 92.99 60.2663 92.4082 60.7956L92.1787 60.987H91.9678C91.9395 61.033 91.9119 61.0794 91.8828 61.1267C91.7595 61.2936 91.6428 61.3926 91.4531 61.5202C91.3929 61.561 91.3326 61.6022 91.2705 61.6443C91.2064 61.6867 91.1423 61.7295 91.0762 61.7732C91.0106 61.817 90.9445 61.8609 90.877 61.906C89.3737 62.9023 89.373 62.9027 89.0273 62.9021L88.9229 63.1326L88.6064 63.1316C88.5799 63.1772 88.5537 63.2233 88.5264 63.2702C88.0578 63.8831 86.859 64.2426 86.0488 64.5876C85.8389 64.678 85.633 64.7731 85.4277 64.8689C84.8113 65.1513 84.1739 65.4135 83.502 65.6189C83.1887 65.7181 82.9236 65.8269 82.6348 65.9577C82.1217 66.1863 81.603 66.3511 81.0371 66.4978C80.9643 66.5171 80.8914 66.5365 80.8164 66.5564C80.0621 66.7478 79.285 66.8855 78.5117 67.03C78.3504 67.0607 78.3503 67.0612 78.1855 67.0925C73.5796 67.9505 67.1687 68.147 62.6221 66.9763C62.2947 66.8972 61.9626 66.852 61.624 66.8064C60.4865 66.6442 59.4973 66.4197 58.457 66.0486C58.2057 65.9601 57.9516 65.8761 57.6953 65.7956C57.3979 65.7021 57.1134 65.601 56.8271 65.491C56.4933 65.3669 56.1697 65.264 55.8125 65.1824C55.3653 65.0801 54.9671 64.9336 54.5518 64.7761C54.2907 64.6815 54.0283 64.6021 53.7568 64.5251C53.2113 64.3693 52.6964 64.1797 52.1758 63.9841C51.9431 63.8987 51.7104 63.8133 51.4775 63.7283C51.2886 63.6591 51.0991 63.5904 50.9102 63.5212V63.3669C50.8207 63.3527 50.8198 63.3532 50.7285 63.3386C50.4714 63.2865 50.2493 63.2141 50.0088 63.1296C49.9199 63.0986 49.8308 63.0679 49.7393 63.0359C49.6472 63.0034 49.5548 62.9707 49.46 62.9372C49.3665 62.9045 49.2731 62.8714 49.1768 62.8376C48.9462 62.7568 48.7156 62.6758 48.4854 62.5945L48.4844 62.4411L48.1416 62.3777C47.7467 62.2858 47.7462 62.2856 47.5596 62.1824C47.2422 62.0098 46.8943 61.8912 46.54 61.7654C45.772 61.4888 45.0173 61.1973 44.2666 60.8962L44.2656 60.7429C44.1272 60.712 44.1268 60.712 43.9854 60.6804C43.6462 60.5916 43.3688 60.4866 43.0605 60.3513C42.8966 60.2798 42.8958 60.2797 42.7285 60.2068C42.5504 60.1281 42.5502 60.128 42.3682 60.0476C42.1664 59.9587 41.9645 59.8698 41.7627 59.781C41.6261 59.7209 41.489 59.6606 41.3525 59.6003C40.9918 59.4416 40.629 59.2881 40.2588 59.1413C39.9115 59.0031 39.5996 58.8455 39.2822 58.6736C39.022 58.5446 38.744 58.4512 38.4609 58.3523C38.2607 58.2754 38.0918 58.1896 37.9121 58.0896C37.5127 57.8739 37.083 57.723 36.6377 57.5642C36.1546 57.3911 35.679 57.2076 35.2031 57.0242C35.1171 56.9911 35.031 56.9576 34.9424 56.9236C34.6039 56.793 34.2692 56.6619 33.9414 56.5173C33.7197 56.4121 33.7194 56.4123 33.4434 56.3581C33.1035 56.2703 32.8216 56.1624 32.5078 56.0339C32.1107 55.8714 31.7365 55.736 31.2949 55.6482V55.4939L31.0244 55.4363C30.6622 55.3396 30.6621 55.3396 30.3193 55.1902C30.0323 55.0655 29.7622 54.9875 29.4414 54.9206C28.1843 54.6518 26.9255 54.3679 25.7432 53.9519C25.1397 53.7511 24.5144 53.6428 23.8633 53.5642C23.3715 53.5027 22.9474 53.3932 22.4893 53.2507C21.7884 53.0394 21.0716 52.9183 20.3271 52.8249C20.0021 52.7821 19.6806 52.7306 19.3584 52.6775C17.8953 52.444 16.418 52.252 14.9297 52.1335C14.529 52.1015 14.1374 52.0567 13.7422 51.9988C13.1502 51.9237 12.5636 51.901 11.9648 51.8826C11.8557 51.8791 11.7463 51.8754 11.6338 51.8718C10.7278 51.8453 9.8215 51.8335 8.91504 51.8249C8.77752 51.8236 8.63973 51.8224 8.49805 51.821C7.93037 51.8155 7.36262 51.81 6.79492 51.8064C6.50943 51.8045 6.22396 51.8017 5.93848 51.7986C5.67269 51.7957 5.40642 51.7937 5.14062 51.7927C5.02238 51.7912 4.90406 51.7903 4.78223 51.7888C4.67813 51.788 4.57404 51.7867 4.4668 51.7859C4.38498 51.7758 4.30304 51.766 4.21875 51.7556C4.00729 51.5247 4.00722 51.5242 4 51.3513C4.16764 51.0332 4.48385 50.8156 4.8457 50.6042L5.05664 50.6052L5.16113 50.3747C5.33188 50.2932 5.50848 50.2181 5.68652 50.1452C5.83153 50.074 5.97602 50.0016 6.12012 49.9294C6.65682 49.6674 7.2188 49.4478 7.78906 49.2273C7.98185 49.151 8.17465 49.0744 8.36719 48.9978C8.51154 48.9413 8.51191 48.9411 8.65918 48.8835C8.84622 48.8083 9.03114 48.73 9.21289 48.6482C10.3575 48.1475 11.6717 48.0098 12.9824 47.8923C13.2014 47.8711 13.4206 47.8476 13.6377 47.8181C14.4726 47.7063 15.2802 47.6781 16.1289 47.6824C16.266 47.6828 16.4036 47.6829 16.5449 47.6833C17.73 47.692 18.8826 47.7923 20.0537 47.9197C20.4152 47.9552 20.7736 47.9709 21.1377 47.9851C21.6608 48.009 22.1145 48.0812 22.6143 48.1941C23.0575 48.2779 23.5035 48.3222 23.9561 48.3699C24.6944 48.4501 25.3241 48.5719 26.0049 48.8005C26.1975 48.8515 26.3904 48.902 26.584 48.9509C27.9711 49.3165 27.972 49.3161 28.3242 49.573C28.5349 49.5887 28.5348 49.5891 28.7783 49.5886C28.8604 49.5899 28.9427 49.5912 29.0273 49.5925C29.2975 49.5735 29.4646 49.5285 29.6924 49.4226C29.9974 48.7878 29.7204 48.1215 29.4746 47.5017C29.4492 47.436 29.4237 47.3702 29.3975 47.3025C29.2487 46.9477 29.0746 46.7076 28.7334 46.4245V46.2712L28.5225 46.2702L28.416 45.9626H28.2051L28.126 45.78C27.973 45.5466 27.8817 45.5263 27.5713 45.4236L27.4658 45.1931C27.3277 45.1382 27.1865 45.0871 27.0439 45.0388C26.9334 44.9706 26.8256 44.8997 26.7207 44.8269C26.3172 44.5657 25.8711 44.393 25.3936 44.2136C25.1452 44.1135 25.1448 44.1128 24.9336 43.9587C24.9723 43.7575 24.972 43.7572 25.0371 43.5749C26.395 43.2095 27.9267 43.1256 29.3535 43.2761C29.4526 43.2866 29.5522 43.2966 29.6543 43.3074C30.4342 43.3918 31.211 43.4876 31.9873 43.5886C32.1122 43.6046 32.1128 43.6045 32.2402 43.6208C32.954 43.7143 33.5132 43.7985 34.0957 44.1306C34.2702 44.1849 34.4451 44.2384 34.6201 44.2917C35.0195 44.4226 35.3962 44.5849 35.7764 44.7429C36.3077 44.9629 36.8402 45.1752 37.3877 45.3728C37.6357 45.4646 37.8726 45.5681 38.1094 45.6745C38.401 45.8052 38.6895 45.9288 38.9922 46.0456C39.751 46.3603 40.4189 46.7922 40.9521 47.2927C41.2392 47.4767 41.4333 47.5897 41.7959 47.6785V47.8318C41.8576 47.8522 41.9198 47.8732 41.9834 47.8943C42.226 47.9898 42.3977 48.0929 42.5986 48.2302C42.6691 48.2783 42.7399 48.3262 42.8125 48.3757C42.8861 48.4268 42.9603 48.4784 43.0361 48.531C43.1115 48.5828 43.187 48.6348 43.2646 48.6882C43.7382 49.0167 44.1871 49.3506 44.6064 49.7165C44.7461 49.8443 44.7459 49.8451 44.9629 49.9128L44.9639 50.0661C45.0256 50.086 45.0878 50.1062 45.1514 50.1267C45.4056 50.2289 45.5635 50.3376 45.7617 50.4919C45.8303 50.5452 45.8991 50.5982 45.9697 50.6531C46.0402 50.7087 46.1109 50.7646 46.1836 50.822C46.2546 50.8769 46.3263 50.9315 46.3994 50.988C46.745 51.2586 47.0358 51.5147 47.2871 51.8376L47.498 51.9148L47.6035 52.1452C47.7788 52.2719 47.7793 52.2715 47.9932 52.3952C48.3499 52.6151 48.6511 52.8434 48.9424 53.1091C49.0955 53.2434 49.0953 53.2438 49.3984 53.3777L49.3994 53.531C49.4623 53.5511 49.525 53.5718 49.5898 53.5925C49.836 53.6922 49.9623 53.787 50.1377 53.946C50.3206 54.1087 50.4977 54.2558 50.7051 54.4031C50.8766 54.533 50.8774 54.5328 50.8779 54.6863L51.0557 54.74C51.3691 54.8702 51.5864 55.0313 51.8271 55.2263L51.8281 55.3796C51.8867 55.3982 51.9455 55.4171 52.0059 55.4363C52.3019 55.5553 52.527 55.7002 52.7773 55.866C52.9112 55.9537 52.9113 55.9542 53.0479 56.0437C53.2999 56.2237 53.5206 56.4038 53.7275 56.612L53.7285 56.7663L53.9326 56.8288C54.1501 56.9204 54.1498 56.9207 54.2559 57.1511L54.4404 57.1804C54.7905 57.2519 54.9584 57.4243 55.2061 57.614L55.4502 57.7439L55.6279 57.8454V57.9988L55.8848 58.0378C56.3456 58.1801 56.6349 58.3832 56.9941 58.6335C57.2073 58.7859 57.208 58.7855 57.5273 58.8474V59.0007C57.6038 59.0215 57.6809 59.0428 57.7598 59.0642C58.0515 59.1549 58.2986 59.2594 58.5625 59.3874C58.6456 59.4271 58.7288 59.4667 58.8145 59.5076C58.9081 59.5624 58.9084 59.5629 59.0039 59.6189L59.0049 59.7722L59.2881 59.8347C59.6369 59.9265 59.6368 59.9273 59.8594 60.032C60.2764 60.2054 60.7132 60.3113 61.166 60.4245C61.2594 60.4483 61.353 60.4724 61.4492 60.4968C62.0834 60.6568 62.72 60.8052 63.3652 60.9392C63.6624 61.0157 63.9011 61.1227 64.1699 61.2419C64.9048 61.44 65.6872 61.5281 66.458 61.616C66.8446 61.6622 67.1893 61.7245 67.5547 61.8288C68.2144 61.9967 68.8858 61.9799 69.5762 61.9773C69.646 61.9772 69.7162 61.9764 69.7881 61.9763C70.8234 61.974 71.7915 61.9033 72.7969 61.7292C73.5577 61.5984 74.3363 61.5324 75.1113 61.4597C75.8367 61.3859 76.4524 61.2489 77.1211 61.0359C77.8026 60.8555 78.4994 60.7188 79.2002 60.5837C79.5303 60.5052 79.773 60.4058 80.0664 60.2732C80.2423 60.2186 80.2425 60.2185 80.4219 60.1628C80.8085 60.0423 81.1696 59.9015 81.5322 59.7478C81.6279 59.7077 81.628 59.7076 81.7256 59.6667C82.0801 59.5175 82.4295 59.3635 82.7744 59.2029C83.1158 59.05 83.1158 59.0501 83.3262 59.0505V58.8962C83.4978 58.8158 83.6738 58.7398 83.8516 58.6667C84.1164 58.5359 84.3775 58.4019 84.6387 58.2673C84.8005 58.184 84.9635 58.1008 85.127 58.0193C85.4345 57.8647 85.6383 57.748 85.8477 57.5183L86.1641 57.5193L86.2686 57.2888C86.4365 57.1707 86.4369 57.1705 86.6494 57.0447C87.03 56.8099 87.3532 56.5594 87.6758 56.2829C87.8954 56.096 88.1189 55.9228 88.3682 55.7566H88.5791L88.6641 55.6277C88.8991 55.2925 89.1306 55.009 89.5234 54.7595L89.7334 54.7605C89.7605 54.7205 89.7885 54.6806 89.8164 54.6394C89.9767 54.4057 90.1388 54.1722 90.3037 53.9402C90.3662 53.8514 90.4288 53.7621 90.4932 53.6706C90.6767 53.4562 90.6768 53.4558 90.9922 53.3796C91.002 53.3233 91.0123 53.2668 91.0225 53.2087C91.107 52.966 91.2288 52.8498 91.4502 52.6609C91.7745 52.3694 91.9645 52.1194 92.1445 51.7693C92.2953 51.5339 92.4496 51.3179 92.6484 51.1023C92.8457 50.8838 93.0173 50.6666 93.1865 50.4363C93.5702 49.9148 93.9988 49.4212 94.4512 48.9304L94.6738 48.6765C94.8701 48.4709 94.8702 48.4705 95.0801 48.3943L95.1846 48.1638C95.3573 48.0345 95.5328 47.9071 95.71 47.781C96.0884 47.4744 96.0754 47.227 96.0615 46.8269C96.0415 46.6148 96.0413 46.6144 95.8105 46.4324L95.5996 46.321L95.5986 46.1677L95.4326 46.112C95.0937 45.9808 94.7804 45.8244 94.4648 45.6658C94.4014 45.6347 94.3378 45.604 94.2725 45.572C94.1129 45.4919 93.9588 45.4057 93.8057 45.3191L93.8047 45.1658L93.5674 45.1072C93.2519 45.002 93.0989 44.8805 92.8555 44.7029C92.6456 44.6242 92.4343 44.5475 92.2227 44.4714C91.9753 44.3537 91.7317 44.2322 91.4893 44.1091C91.2668 43.9967 91.2667 43.9959 90.957 43.9304V43.7771L90.7197 43.7097C90.4755 43.6364 90.242 43.5574 90.0078 43.4685L90.0068 43.3142C89.8698 43.284 89.8695 43.2844 89.7295 43.2536C89.3736 43.1596 89.0839 43.0436 88.7617 42.8992C87.8206 42.4774 86.8787 42.2372 85.8164 42.029C85.5843 41.983 85.3521 41.9368 85.1201 41.8904C85.0186 41.8704 84.9171 41.8504 84.8125 41.8298C84.5259 41.7673 84.5256 41.7672 84.2656 41.6872C83.9588 41.6015 83.6725 41.5661 83.3477 41.532C83.224 41.5187 83.1 41.5056 82.9727 41.4919C82.8443 41.4787 82.7153 41.4656 82.583 41.4519C82.3288 41.4249 82.0745 41.3978 81.8203 41.3708C81.6516 41.3533 81.6507 41.3536 81.4785 41.3357C81.2588 41.3119 81.0391 41.2854 80.8203 41.2576C79.8024 41.1361 78.8153 41.1964 77.8281 41.3874C77.4107 41.4564 77 41.4845 76.5742 41.5124C75.7574 41.5717 75.0581 41.7231 74.3125 41.9783C74.2158 42.0112 74.1191 42.0449 74.0195 42.0788C72.4667 42.6529 71.439 43.4319 70.459 44.4617C70.4133 44.5017 70.3673 44.5415 70.3203 44.5827H70.1104L70.0234 44.7497C69.9022 44.9643 69.762 45.1639 69.6133 45.3689C69.0389 46.2073 68.5474 47.0878 68.543 48.0368C68.5395 48.1591 68.5367 48.2818 68.5332 48.404C68.5083 49.6286 68.5831 50.7444 69.2949 51.8786C69.3574 51.9805 69.3573 51.981 69.4209 52.0847C69.9232 52.8588 70.6326 53.6316 71.5537 54.1736L71.8311 54.3425L71.832 54.4958L72.0625 54.5583C72.3588 54.6501 72.3586 54.651 72.6006 54.7576C74.423 55.5551 76.5136 55.7196 78.5742 55.3533C79.521 55.14 80.4434 54.8523 81.3145 54.5095C81.519 54.4373 81.5192 54.4378 81.75 54.404C81.8127 54.3901 81.8759 54.3754 81.9404 54.3611L82.0449 54.1316C82.2775 53.992 82.2774 53.9909 82.5635 53.8484C82.6575 53.8008 82.7518 53.7538 82.8486 53.7048C83.0953 53.5958 83.0955 53.595 83.3057 53.5954L83.4102 53.366C83.628 53.2094 83.6287 53.2089 83.9033 53.0447C83.9925 52.9899 84.082 52.935 84.1738 52.8786C84.5086 52.7324 84.7082 52.7289 85.0928 52.7546C85.3013 53.0578 85.2061 53.3579 85.0967 53.6765C84.6521 54.484 84.0046 55.1805 83.209 55.823C83.0777 55.9331 82.9465 56.0438 82.8154 56.154C82.762 56.1979 82.7084 56.2417 82.6533 56.2868C82.5081 56.4082 82.3706 56.5349 82.2363 56.6628C81.9434 56.9198 81.6101 57.0734 81.2139 57.2361C81.145 57.2652 81.0758 57.294 81.0049 57.324C80.7951 57.412 80.5834 57.4987 80.3721 57.5847C80.2513 57.634 80.1303 57.6833 80.0059 57.7341C79.0218 58.127 78.0617 58.4789 76.9688 58.6775C76.6264 58.7419 76.2952 58.8245 75.9619 58.9099C74.2771 59.2919 72.3088 58.9185 70.7012 58.4929C70.6029 58.4669 70.5045 58.4415 70.4033 58.4148C69.9026 58.2755 69.5091 58.1366 69.1064 57.8708L68.8096 57.7458L68.5791 57.6394L68.5781 57.4861C68.5224 57.4813 68.4666 57.4763 68.4092 57.4714C68.0415 57.3793 67.7806 57.2017 67.4912 57.0183C67.4303 56.9801 67.3685 56.9414 67.3057 56.9021C66.8424 56.6074 66.4279 56.2958 66.0459 55.9441C65.9785 55.8832 65.9103 55.8232 65.8408 55.7605C65.3187 55.2809 64.8129 54.8059 64.459 54.2488C64.3363 54.0726 64.1906 53.9146 64.0371 53.7517C62.5719 52.1746 62.2149 50.2212 62.2012 48.366C62.1995 48.1986 62.1953 48.0313 62.1914 47.864C62.1808 47.097 62.3061 46.392 62.5322 45.6433C62.5564 45.5605 62.5805 45.4776 62.6055 45.3923C62.871 44.5102 63.2882 43.6233 63.9961 42.8806C64.1082 42.7509 64.2205 42.6209 64.332 42.491C64.8798 41.8559 65.4495 41.2529 66.1992 40.7341L66.3643 40.6091C66.5153 40.4947 66.6726 40.3839 66.8301 40.2742L67.04 40.2751V40.1208L67.2373 40.0593C67.4921 39.9721 67.4918 39.9715 67.6699 39.738L67.9863 39.739L68.0908 39.5085C68.4568 39.2619 68.8535 39.0427 69.2461 38.8191C69.3411 38.7613 69.3415 38.7618 69.4385 38.7029C69.9109 38.4299 70.4435 38.2988 71.0068 38.1501C71.3063 38.0667 71.58 37.9737 71.8623 37.864C73.0401 37.4235 74.3738 37.1928 75.6631 36.988C75.7333 36.9765 75.8037 36.9648 75.876 36.9529C77.8868 36.6312 79.9559 36.7133 81.9932 36.8699C82.1148 36.8791 82.237 36.8886 82.3623 36.8982C83.0466 36.9569 83.6533 37.0614 84.2988 37.2351C84.4976 37.2744 84.6971 37.3117 84.8975 37.3464C86.1736 37.5758 87.4853 37.8185 88.6914 38.2077C88.952 38.2907 89.1934 38.3551 89.4629 38.4158C89.9319 38.5273 90.3732 38.6742 90.8193 38.8269C90.8884 38.8505 90.9582 38.8739 91.0293 38.8982C91.3314 39.003 91.6089 39.1109 91.8877 39.2468V39.4001C91.947 39.4091 92.0072 39.4183 92.0684 39.4275C92.9583 39.6138 93.7887 40.077 94.583 40.4216C95.2566 40.7126 95.9414 40.9864 96.6338 41.2527V41.407L96.8379 41.4597C97.4983 41.6672 98.083 41.9214 98.6377 42.2556C99.9415 42.9615 99.9419 42.9616 101.484 43.1062C102.201 42.9607 102.765 42.6377 103.347 42.3113C103.587 42.1881 103.587 42.1878 103.798 42.1882L103.797 42.0349C104.08 41.8929 104.374 41.7689 104.67 41.6413C104.943 41.5048 105.077 41.385 105.268 41.1921C105.509 41.1094 105.755 41.0339 106.004 40.9636C106.215 40.8884 106.425 40.8114 106.635 40.7341C106.768 40.6856 106.902 40.637 107.035 40.5886C107.105 40.5631 107.176 40.5377 107.248 40.5115C107.89 40.2783 107.89 40.2782 108.104 40.2009C108.248 40.1482 108.392 40.095 108.535 40.0408C108.962 39.8807 109.371 39.7588 109.836 39.6648C110.483 39.5269 111.081 39.3494 111.684 39.1306C111.832 39.1107 111.982 39.0938 112.132 39.0788C112.222 39.0696 112.312 39.0601 112.404 39.0505C112.592 39.0317 112.78 39.0127 112.968 38.9939C113.396 38.9497 113.813 38.9018 114.232 38.823C114.915 38.7102 115.612 38.7199 116.309 38.7214C116.382 38.7215 116.456 38.7214 116.531 38.7214C118.321 38.7277 120.267 38.8224 121.843 39.5017C122.242 39.6644 122.665 39.7529 123.102 39.8474C123.385 39.9242 123.558 40.0182 123.797 40.1521C124.03 40.2399 124.265 40.325 124.502 40.4079C125.039 40.5997 125.54 40.807 126.031 41.0583C126.231 41.1633 126.231 41.1631 126.493 41.2663C127.104 41.5525 127.611 41.9385 128.122 42.3113C128.24 42.384 128.359 42.4563 128.479 42.5281C128.899 42.7876 129.247 43.0826 129.601 43.3894L129.864 43.6062C130.248 43.9453 130.551 44.3258 130.869 44.698C130.959 44.8012 131.05 44.9044 131.141 45.0076C131.235 45.1158 131.329 45.2244 131.424 45.3327C131.469 45.3836 131.514 45.4346 131.561 45.487C131.765 45.7231 131.95 45.9539 132.098 46.2117C132.229 46.4403 132.379 46.6366 132.556 46.8474C132.928 47.3378 133.099 47.8453 133.259 48.3874C133.303 48.5361 133.351 48.6847 133.398 48.8327C133.621 49.5572 133.707 50.2638 133.735 51.0027C133.738 51.0629 133.741 51.1233 133.743 51.1853C133.797 52.6542 133.629 54.0787 133.083 55.4929C133.004 55.7009 133.005 55.7011 132.971 55.9753C132.899 56.2814 132.717 56.505 132.493 56.7624C132.183 57.1341 131.956 57.5015 131.761 57.9128L131.63 58.1482C131.507 58.5023 131.607 58.8005 131.765 59.1423H131.976L131.977 59.2966C132.27 59.3453 132.564 59.3937 132.858 59.4421C132.94 59.4556 133.022 59.4692 133.106 59.4831C133.625 59.5684 134.144 59.6483 134.665 59.7243C134.918 59.7614 135.171 59.7994 135.424 59.8376C135.507 59.8501 135.59 59.8629 135.676 59.8757C135.84 59.9004 136.005 59.9249 136.169 59.9499C136.456 59.9929 136.745 60.0341 137.033 60.074C137.101 60.0833 137.169 60.0926 137.239 60.1023C138.397 60.26 139.539 60.3601 140.714 60.4031C140.795 60.4062 140.876 60.4086 140.959 60.4118C143.833 60.5225 146.817 60.6292 149.671 60.3288C149.773 60.3183 149.875 60.3075 149.979 60.2966C151.527 60.135 151.527 60.1347 153.011 59.7917C153.264 59.716 153.518 59.6603 153.781 59.6062C154.528 59.448 155.213 59.25 155.878 58.9577C156.204 58.8381 156.533 58.722 156.862 58.6062C157.147 58.5092 157.147 58.5088 157.351 58.3454C157.713 58.2241 158.051 58.1243 158.435 58.0456C158.731 57.9837 158.732 57.9836 158.862 57.8015L158.927 57.657L159.243 57.6579C159.271 57.6116 159.299 57.5651 159.327 57.5173C159.459 57.3428 159.572 57.2647 159.787 57.1452C160.171 56.9155 160.456 56.6567 160.752 56.3669C160.922 56.2019 160.923 56.2014 161.198 55.9763C161.825 55.3858 162.135 54.6752 162.447 53.9714C162.488 53.8799 162.529 53.7884 162.571 53.6941C163.384 51.8446 164.126 49.619 163.466 47.6833C163.383 47.4168 163.383 47.1827 163.415 46.9109C163.808 46.7202 164.118 46.7271 164.573 46.7595C164.827 46.8004 165.063 46.8542 165.311 46.9148L165.312 47.0681L165.693 47.1413C166.617 47.3654 167.542 47.8339 168.265 48.3025L168.37 48.5339C168.443 48.5845 168.444 48.5841 168.519 48.6355C168.744 48.8079 168.832 48.9861 168.952 49.2068C168.998 49.2887 169.044 49.3705 169.091 49.4548C169.165 49.5903 169.238 49.7262 169.311 49.862C169.455 50.124 169.518 50.2181 169.852 50.3806C170.288 50.3814 170.444 50.3321 170.759 50.1081C171.359 49.5103 171.575 48.883 171.738 48.156L171.792 47.9216C171.935 47.2486 171.984 46.59 171.98 45.9089C171.98 45.8305 171.98 45.83 171.979 45.7497C171.97 44.2301 171.677 42.7868 170.884 41.3747C170.681 41.0131 170.487 40.6504 170.301 40.2839C169.625 39.0068 168.679 37.888 167.438 36.8601C167.168 36.6243 167.168 36.6241 167.167 36.4704L166.852 36.3933C166.779 36.2348 166.779 36.2343 166.745 36.0857L166.534 36.0847C166.386 35.9691 166.385 35.9693 166.211 35.8113C165.857 35.505 165.471 35.2739 165.026 35.0408C164.966 35.0041 164.906 34.9672 164.845 34.9294V34.7761L164.601 34.7126C164.318 34.621 164.317 34.6212 164.176 34.5173C163.877 34.3006 163.514 34.1452 163.165 33.9753C163.093 33.9341 163.02 33.8928 162.945 33.8503V33.697L162.418 33.6189V33.4656L162.147 33.407C161.785 33.3103 161.785 33.3109 161.442 33.1609C159.672 32.4093 156.806 32.3132 154.853 32.6687C154.356 32.7658 153.919 32.8881 153.466 33.0642C153.487 33.2153 153.487 33.2155 153.572 33.3718C153.753 33.4535 153.754 33.4531 153.984 33.4949C154.07 33.5133 154.156 33.5325 154.244 33.5515C154.794 33.6563 155.346 33.7493 155.9 33.8386C156.805 33.9905 157.631 34.2327 158.46 34.5378C158.563 34.5753 158.665 34.6135 158.771 34.6521C159.026 34.7546 159.245 34.8668 159.475 34.9958L159.791 35.112C160.068 35.2134 160.298 35.3093 160.529 35.4587L160.53 35.613H160.741V35.7663L161.058 35.8445C161.566 36.2582 162.061 36.7112 162.254 37.2556C162.326 37.4733 162.327 37.473 162.463 37.7292C163.159 39.1733 163.214 40.9746 162.346 42.3767C162.298 42.4585 162.25 42.5405 162.2 42.6247C161.752 43.3342 161.145 43.9959 160.353 44.5242L160.195 44.6482C159.987 44.7871 159.754 44.8774 159.512 44.9831C159.387 45.0562 159.262 45.1293 159.138 45.2029C158.61 45.4954 158.025 45.6525 157.409 45.824C157.323 45.8506 157.236 45.8776 157.146 45.905C155.889 46.2909 154.619 46.5214 153.252 46.5202H152.463C152.196 46.5199 151.929 46.5212 151.662 46.5222C148.63 46.5241 148.629 46.5236 147.471 45.9988C147.182 45.8758 146.915 45.8068 146.596 45.7361C146.081 45.6147 145.611 45.468 145.134 45.282C144.865 45.1787 144.864 45.1786 144.529 45.0798C144.095 44.9453 143.69 44.7776 143.281 44.6062C143.209 44.576 143.135 44.5464 143.061 44.5154C142.92 44.4568 142.779 44.3979 142.639 44.3386C142.483 44.2731 142.325 44.2094 142.168 44.1462C141.867 44.0009 141.646 43.833 141.396 43.6423C141.254 43.5386 141.112 43.4351 140.97 43.3318C140.026 42.6434 140.025 42.6433 139.803 42.4802C139.68 42.3909 139.556 42.3021 139.431 42.2146C139.191 42.0466 139.074 41.9525 138.966 41.7175C138.861 41.6403 138.755 41.5629 138.649 41.4861C138.507 41.3388 138.369 41.1894 138.233 41.0388C138.163 40.9605 138.091 40.8821 138.019 40.8015C137.948 40.7228 137.877 40.6443 137.804 40.5632C137.552 40.2856 137.294 40.0132 137.024 39.7449C135.341 37.9884 134.684 35.7674 134.691 33.6628C134.691 33.6092 134.691 33.555 134.691 33.4997C134.692 32.6574 134.77 31.8533 135.03 31.032C135.054 30.9479 135.078 30.8637 135.103 30.7771C135.248 30.2984 135.467 29.8584 135.735 29.4099C135.855 29.2075 135.959 29.0039 136.062 28.7966C136.256 28.4341 136.535 28.1369 136.853 27.8259C137.022 27.6622 137.023 27.6616 137.126 27.489C137.228 27.3487 137.228 27.3487 137.543 27.196C137.634 27.077 137.719 26.9541 137.799 26.8308C138.188 26.2877 138.725 25.8557 139.282 25.4031C139.429 25.2815 139.569 25.1561 139.708 25.03C139.92 24.8501 140.096 24.7283 140.363 24.5984C140.671 24.4379 140.906 24.2763 141.145 24.0622C141.579 23.6818 142.114 23.3944 142.688 23.1335L142.898 23.1345L143.003 22.904C143.164 22.8113 143.164 22.8114 143.371 22.7224C143.485 22.6733 143.485 22.6729 143.602 22.6228C143.682 22.5893 143.761 22.5557 143.844 22.5212C143.921 22.4877 143.998 22.4542 144.077 22.4197C144.612 22.1929 145.143 22.0359 145.737 21.9109L145.736 21.7566L146.157 21.6804V21.5271C149.857 20.8392 154.583 20.5611 158.058 21.9343C158.291 22.0045 158.526 22.0713 158.763 22.1365C158.876 22.1678 158.989 22.1999 159.105 22.2322C159.212 22.2615 159.318 22.2908 159.428 22.321C160.088 22.5081 160.729 22.7111 161.363 22.9421C161.694 23.0297 161.925 23.0514 162.273 23.0173C162.499 22.8661 162.58 22.7737 162.61 22.5505C162.546 22.1712 162.435 21.8261 162.274 21.4617C161.769 20.2363 161.791 18.9067 161.832 17.6394C161.834 17.5486 161.835 17.4575 161.837 17.364C161.866 16.7944 162.008 16.25 162.174 15.6951C162.195 15.6245 162.216 15.5539 162.237 15.4812C162.703 14.0074 162.703 14.0067 163.49 14.0456ZM295.257 45.9568C294.043 45.8097 292.813 45.6912 291.604 45.8952C291.519 45.9133 291.436 45.9314 291.354 45.949C291.031 46.0154 290.777 46.0985 290.482 46.2185C290.138 46.366 289.787 46.4984 289.43 46.6277C289.353 46.655 289.279 46.6821 289.205 46.7087C289.054 46.7632 288.903 46.8173 288.752 46.8718C288.636 46.9136 288.522 46.9543 288.409 46.9949L288.41 47.1482L287.989 47.2243V47.3777C287.805 47.3962 287.805 47.3964 287.568 47.4538C286.917 47.8851 286.375 48.424 286.067 49.0261L285.996 49.2185L285.785 49.2175C285.509 49.544 285.254 49.8541 285.15 50.2341C285.104 50.434 285.045 50.6157 284.953 50.8074C284.663 51.4043 284.583 51.9328 284.592 52.5593C284.596 52.7272 284.601 52.8953 284.603 53.0632C284.604 53.5227 284.587 53.9705 284.747 54.4187C284.785 54.5042 284.821 54.5876 284.857 54.6706C284.891 54.7696 284.924 54.8656 284.957 54.9617C284.991 55.0618 285.024 55.1594 285.058 55.2566C285.188 55.6469 285.312 55.9194 285.706 56.2077C286.419 56.3588 286.858 56.231 287.495 55.9812L287.494 55.8279C287.81 55.8285 287.81 55.8277 287.956 55.7263C288.122 55.5893 288.123 55.59 288.36 55.4919C288.772 55.323 289.17 55.1573 289.524 54.9285C289.808 54.7417 290.104 54.5707 290.408 54.4021C290.998 54.0762 291.576 53.7452 292.119 53.3777C292.22 53.2987 292.325 53.2218 292.434 53.1482L292.749 53.072C292.964 52.8383 292.964 52.838 293.269 52.6599C293.383 52.5923 293.497 52.524 293.61 52.4558C293.669 52.4205 293.726 52.3865 293.783 52.3523C293.982 52.233 294.18 52.1135 294.378 51.9939C294.454 51.947 294.527 51.9016 294.601 51.8562C294.816 51.7243 294.946 51.6286 295.082 51.448C295.124 51.3781 295.124 51.3778 295.165 51.3093C295.375 51.3097 295.376 51.31 295.684 51.1189C295.915 50.9693 296.148 50.8304 296.397 50.697C296.899 50.4373 297.39 50.1965 297.792 49.8552C297.859 49.7519 297.927 49.6492 298.001 49.5486L298.219 49.5056L298.422 49.4724L298.526 49.2419H298.737C299.161 49.0414 299.491 48.7995 299.734 48.4763C299.905 48.1948 299.925 48.0065 299.784 47.7077C299.438 47.2199 299.438 47.2196 297.364 46.5632C297.186 46.5089 297.008 46.4526 296.831 46.3962C296.376 46.1905 296.011 46.0514 295.477 45.9812C295.402 45.9727 295.329 45.965 295.257 45.9568ZM119.445 46.1745C117.941 45.4637 116.251 45.3089 114.506 45.529C114.405 45.5425 114.307 45.556 114.21 45.5691C113.669 45.634 113.161 45.6865 112.685 45.8923C112.353 46.0525 112.353 46.0528 111.993 46.1374C111.209 46.3141 110.556 46.5427 109.874 46.8738C109.488 47.1149 109.218 47.3567 109.145 47.7292C109.22 48.1009 109.416 48.3523 109.775 48.6218C110.075 48.8108 110.373 49.0007 110.67 49.1921C110.843 49.3222 111.018 49.451 111.197 49.5769L111.408 49.5779L111.409 49.7312C111.47 49.7673 111.528 49.8026 111.587 49.8376C112.149 50.1254 112.693 50.4405 113.184 50.7908C113.487 51.0181 113.767 51.231 114.186 51.3308L114.363 51.3503L114.364 51.5036C114.42 51.5361 114.474 51.5679 114.528 51.5993C114.775 51.7253 114.775 51.7255 114.952 51.8386C115.014 51.8788 115.075 51.9178 115.136 51.9568C115.265 52.0399 115.395 52.1235 115.524 52.2068C115.591 52.2504 115.657 52.2933 115.722 52.3357C115.787 52.3773 115.851 52.4173 115.914 52.4577C116.087 52.5694 116.087 52.5699 116.264 52.6599C116.405 52.683 116.546 52.7081 116.686 52.737L116.791 52.9685L117.009 53.0212L117.213 53.0456L117.214 53.2761C117.461 53.439 117.461 53.4391 118.028 53.7331C118.395 53.9205 118.768 54.0975 119.076 54.3357C119.269 54.5148 119.418 54.6574 119.681 54.7839C119.945 54.8849 119.945 54.8847 120.129 54.9831C120.382 55.1193 120.631 55.2526 120.903 55.3679C121.082 55.4396 121.259 55.5139 121.435 55.5886L121.54 55.7429C122.027 55.9149 122.512 56.0514 123.055 56.0525C123.497 55.9303 123.789 55.7774 123.988 55.4597C124.019 55.3781 124.048 55.2987 124.078 55.2195C124.127 55.0953 124.176 54.9709 124.218 54.8454C124.237 54.7867 124.256 54.7296 124.274 54.6726C124.496 54.0272 124.624 53.4198 124.621 52.7527C124.619 52.6565 124.616 52.5628 124.614 52.4695C124.614 51.6002 124.529 50.8072 124.119 49.9851C124.09 49.9283 124.061 49.8733 124.032 49.8181C123.932 49.6176 123.83 49.4165 123.728 49.2165H123.517L123.198 48.5242H122.987C122.987 48.3706 122.987 48.3705 122.81 48.1706C122.692 48.0531 122.692 48.0524 122.577 47.9372C122.438 47.7962 122.294 47.6576 122.142 47.5242L121.931 47.5232C121.811 47.2634 121.81 47.2629 121.363 47.0095C121.301 46.9749 121.24 46.9415 121.179 46.9079C120.819 46.7011 120.49 46.5342 120.07 46.3962C119.722 46.2994 119.722 46.2996 119.445 46.1745Z" fill="url(#paint1_linear_0_9)"/>
</g>
<defs>
<filter id="filter0_d_0_9" x="0" y="0.0598307" width="409.015" height="77.5782" filterUnits="userSpaceOnUse" color-interpolation-filters="sRGB">
<feFlood flood-opacity="0" result="BackgroundImageFix"/>
<feColorMatrix in="SourceAlpha" type="matrix" values="0 0 0 0 0 0 0 0 0 0 0 0 0 0 0 0 0 0 127 0" result="hardAlpha"/>
<feOffset dy="4"/>
<feGaussianBlur stdDeviation="2"/>
<feComposite in2="hardAlpha" operator="out"/>
<feColorMatrix type="matrix" values="0 0 0 0 0 0 0 0 0 0 0 0 0 0 0 0 0 0 0.25 0"/>
<feBlend mode="normal" in2="BackgroundImageFix" result="effect1_dropShadow_0_9"/>
<feBlend mode="normal" in="SourceGraphic" in2="effect1_dropShadow_0_9" result="shape"/>
</filter>
<linearGradient id="paint0_linear_0_9" x1="205.743" y1="67.9843" x2="203.131" y2="-4.08148" gradientUnits="userSpaceOnUse">
<stop stop-color="#FFD073"/>
<stop offset="0.5" stop-color="#E8CC83"/>
<stop offset="1" stop-color="#FFC03F"/>
</linearGradient>
<linearGradient id="paint1_linear_0_9" x1="205.885" y1="69.6375" x2="205.592" y2="10.5768" gradientUnits="userSpaceOnUse">
<stop stop-color="#FFD073"/>
<stop offset="0.5" stop-color="#E8CC83"/>
<stop offset="1" stop-color="#FFC03F"/>
</linearGradient>
</defs>
</svg>
