<svg preserveAspectRatio="none" overflow="visible" style="display: block;" width="409.016" height="77.6398" viewBox="0 0 409.016 77.6398" fill="none" xmlns="http://www.w3.org/2000/svg">
<g id="Hiasan Atas" filter="url(#filter0_d_0_4)">
<path id="Vector" d="M205.353 0.0849457C205.596 0.163729 205.596 0.163729 205.775 0.239388L205.775 0.39303C205.869 0.403754 205.869 0.403754 205.964 0.414695C206.254 0.484496 206.354 0.573495 206.547 0.74499C206.609 0.800069 206.672 0.855148 206.737 0.911896C206.836 0.998385 206.836 0.998385 206.936 1.08662C207.137 1.24965 207.338 1.41222 207.54 1.5745C207.676 1.70259 207.676 1.70259 207.676 1.85623L208.098 2.01067L208.099 2.24114C208.194 2.27103 208.194 2.27103 208.291 2.30152C209.282 2.70739 209.862 3.86766 210.339 4.58587C210.518 4.8516 210.706 5.08538 210.953 5.31938C211.029 5.46711 211.105 5.61488 211.18 5.76303C211.495 6.36875 211.495 6.36875 212.163 6.75726C212.582 6.78485 212.795 6.76565 213.169 6.62954C213.417 6.47171 213.628 6.30509 213.838 6.12098C214.187 5.81479 214.556 5.5522 214.973 5.29461C215.18 5.16745 215.18 5.16745 215.414 4.98697C215.585 4.86726 215.585 4.86726 215.795 4.86766L215.9 4.6374C216.07 4.53132 216.246 4.42969 216.425 4.33111C216.507 4.27948 216.589 4.22784 216.674 4.17464C217.728 3.51777 218.898 3.02835 220.148 2.59352C220.424 2.49715 220.424 2.49715 220.689 2.37579C221.239 2.13959 221.881 1.97287 222.524 2.03809C222.934 2.14987 223.032 2.2401 223.221 2.53064C223.422 2.94288 223.431 3.34953 223.445 3.7827C223.449 3.87031 223.453 3.95792 223.457 4.04818C223.494 4.98593 223.493 5.92422 223.486 6.86211C223.486 6.92162 223.486 6.98113 223.485 7.04245C223.485 7.15415 223.484 7.26585 223.482 7.37755C223.482 7.65602 223.49 7.91736 223.6 8.18577C223.804 8.28608 223.804 8.28608 224.022 8.34021L224.127 8.41724C224.383 8.42716 224.635 8.43249 224.89 8.43489C225.048 8.43734 225.205 8.43984 225.362 8.44239C225.61 8.44603 225.859 8.44934 226.108 8.45183C226.347 8.4544 226.586 8.45838 226.826 8.46257C226.9 8.46296 226.975 8.46336 227.052 8.46376C227.261 8.46802 227.261 8.46801 227.603 8.50066C227.814 8.73152 227.814 8.73152 227.795 8.99556C227.715 9.25679 227.652 9.38888 227.396 9.57575L227.185 9.57535L227.081 9.88244L226.871 9.88204L226.812 10.0452C226.632 10.3089 226.414 10.4365 226.1 10.6158C225.9 10.7321 225.9 10.7321 225.716 10.9553L225.506 10.9549L225.441 11.1084C225.274 11.3743 225.054 11.5714 224.797 11.7938C224.637 11.9886 224.635 12.112 224.668 12.3361C224.785 12.4374 224.785 12.4374 225.077 12.4377C225.647 12.4312 226.145 12.2594 226.668 12.1094C226.882 12.051 227.095 11.9932 227.309 11.9355C227.588 11.8601 227.866 11.7842 228.144 11.7082C228.289 11.6688 228.434 11.6297 228.578 11.5908C228.9 11.5044 229.212 11.4161 229.522 11.3083C230.617 10.9669 231.876 10.9169 233.051 10.8343C233.299 10.816 233.547 10.7952 233.795 10.7735C236.326 10.554 236.326 10.554 237.194 10.9003C237.018 11.3525 236.612 11.5593 236.078 11.7822C235.877 11.8612 235.676 11.9394 235.474 12.0167C235.247 12.1064 235.035 12.2 234.823 12.3074C234.567 12.4317 234.567 12.4317 234.357 12.4313L234.357 12.585C234.146 12.6923 234.146 12.6923 233.864 12.8097C233.727 12.8675 233.727 12.8675 233.587 12.9265C233.494 12.9653 233.401 13.004 233.306 13.0439C232.574 13.315 232.574 13.315 232.045 13.7329L231.729 13.7323L231.729 13.8859L231.519 13.8855L231.519 14.0392C231.338 14.1322 231.151 14.2189 230.961 14.3022C230.616 14.4539 230.327 14.5941 230.048 14.8046C229.873 14.8772 229.697 14.9495 229.52 15.0199C229.21 15.1548 228.932 15.3169 228.65 15.4801C228.471 15.5698 228.471 15.5698 228.261 15.5694L228.156 15.7997C227.992 15.9206 227.992 15.9206 227.782 16.0486C227.706 16.0956 227.63 16.1426 227.551 16.191C227.474 16.2388 227.396 16.2866 227.316 16.3358C227.178 16.425 227.04 16.5144 226.902 16.6039C226.538 16.8361 226.162 17.0533 225.778 17.2682C224.825 17.8015 224.825 17.8015 223.954 18.4036C223.825 18.5014 223.696 18.5988 223.567 18.6957C223.506 18.742 223.445 18.7884 223.382 18.8361C223.219 18.9399 223.219 18.9399 223.008 18.9395L222.923 19.0882C222.799 19.2464 222.799 19.2464 222.483 19.3226C222.41 19.4237 222.341 19.5262 222.274 19.6295C222.138 19.7521 221.998 19.8717 221.854 19.9888C221.743 20.0794 221.743 20.0794 221.631 20.1717C221.434 20.3193 221.434 20.3193 221.223 20.3957C221.191 20.444 221.159 20.4922 221.126 20.542C220.978 20.7547 220.747 20.8618 220.497 21.0095C220.121 21.2725 219.835 21.5875 219.536 21.8971C219.469 21.9582 219.403 22.0193 219.334 22.0822L219.124 22.0818L219.019 22.312C218.566 22.6778 218.566 22.6778 218.179 22.7714C218.117 22.9166 218.117 22.9166 218.074 23.0785C217.911 23.2588 217.746 23.4323 217.57 23.6056C217.477 23.698 217.384 23.7905 217.292 23.883C217.247 23.9281 217.202 23.9732 217.155 24.0197C216.965 24.2136 216.785 24.4125 216.606 24.6121C216.523 24.7024 216.523 24.7024 216.438 24.7945C216.121 25.1405 216.121 25.1405 215.819 25.494C215.677 25.6676 215.525 25.831 215.367 25.9973C215.058 26.334 214.816 26.6843 214.575 27.0494C214.426 27.2659 214.264 27.4736 214.094 27.6817C213.661 28.2108 213.356 28.7447 213.075 29.325C212.945 29.5859 212.795 29.825 212.618 30.0696C212.36 30.4438 212.164 30.8414 211.984 31.2387C211.893 31.4401 211.893 31.4401 211.79 31.5849C210.692 33.2554 210.735 35.6038 210.572 37.4296C210.566 37.5021 210.559 37.5745 210.552 37.6492C210.418 39.1614 210.431 40.6596 210.544 42.1732C210.549 42.2399 210.554 42.3065 210.559 42.3751C210.638 43.4492 210.77 44.5095 210.997 45.5734C211.032 45.7414 211.067 45.9094 211.102 46.0775C211.19 46.4982 211.282 46.9185 211.375 47.3387C211.423 47.5592 211.469 47.7798 211.514 48.0005C211.527 48.0664 211.541 48.1323 211.555 48.2002C211.58 48.3202 211.604 48.4401 211.627 48.5602C211.697 48.8914 211.816 49.1811 211.987 49.4921C212.12 49.7537 212.196 50.0236 212.279 50.2955C212.507 51.094 212.507 51.094 212.969 51.829C213.137 52.0431 213.208 52.2227 213.28 52.4628C213.431 52.9242 213.637 53.3563 213.871 53.7987C213.922 53.8985 213.974 53.9983 214.025 54.0981C214.317 54.6679 214.615 55.2353 214.931 55.798C214.974 55.8757 215.016 55.9535 215.06 56.0335C215.105 56.1144 215.15 56.1953 215.196 56.2787L215.319 56.5009C215.478 56.7468 215.674 56.9583 215.884 57.1826C216.397 57.8021 216.864 58.4344 217.292 59.0871C217.459 59.3377 217.613 59.5334 217.894 59.7215C218.065 59.9844 218.205 60.2407 218.319 60.5193L218.425 60.7212L218.741 60.7986C218.896 60.9636 218.896 60.9636 219.052 61.1689C219.266 61.4498 219.486 61.6505 219.798 61.8761C219.912 62.0023 220.022 62.1307 220.128 62.2608C220.485 62.6781 220.895 63.0436 221.332 63.4166C221.656 63.6999 221.947 63.9965 222.24 64.2967C222.49 64.5414 222.762 64.7659 223.047 64.989C223.18 65.109 223.18 65.109 223.18 65.2626L223.602 65.4171L223.602 65.5707C223.663 65.587 223.724 65.6032 223.786 65.62C224.111 65.7636 224.254 65.9408 224.46 66.1725C224.532 66.2523 224.605 66.3322 224.679 66.4145C224.845 66.6183 224.972 66.8108 225.082 67.0331L224.872 67.1095C224.59 67.0207 224.321 66.9273 224.048 66.8247C223.935 66.7838 223.935 66.7838 223.82 66.7422C223.243 66.5281 222.757 66.2957 222.353 65.9188C222.087 65.6845 221.811 65.5284 221.466 65.3605C221.266 65.2483 221.121 65.1277 220.961 64.9847C220.684 64.7366 220.391 64.5823 220.018 64.4116C219.343 64.0498 218.626 63.5398 218.319 62.9656L218.222 62.7949L217.906 62.7175C217.796 62.591 217.691 62.4625 217.588 62.3328C217.458 62.2215 217.323 62.1124 217.186 62.0056C216.84 61.7271 216.547 61.4436 216.27 61.1276C216.029 60.8573 215.768 60.5977 215.509 60.3366C215.369 60.1776 215.369 60.1776 215.368 60.024L215.158 60.0236C215.13 59.9809 215.102 59.9383 215.073 59.8944C215.035 59.8387 214.998 59.7829 214.959 59.7255C214.904 59.6425 214.904 59.6425 214.848 59.5579C214.738 59.3966 214.738 59.3966 214.523 59.2542C214.491 59.1951 214.459 59.136 214.426 59.0751C214.304 58.8565 214.153 58.6938 213.961 58.5041C213.712 58.2527 213.492 58.0038 213.293 57.7298C213.028 57.3725 212.745 57.1071 212.237 56.9212C211.98 56.8572 211.98 56.8572 211.671 56.8673C211.666 57.1122 211.663 57.357 211.661 57.6019C211.659 57.6692 211.658 57.7365 211.656 57.8058C211.65 58.8075 211.907 59.7671 212.249 60.7332C212.305 60.8933 212.36 61.0537 212.414 61.2142C212.584 61.7051 212.77 62.1685 213.074 62.6264C213.247 62.9204 213.318 63.2324 213.407 63.5444C213.659 64.3629 214.057 65.1031 214.548 65.8608C214.581 65.9133 214.615 65.9658 214.65 66.0199C214.927 66.4489 215.203 66.8716 215.599 67.2503C215.817 67.4764 215.817 67.4764 215.858 67.6974C215.819 67.8605 215.819 67.8605 215.714 67.9371C214.62 68.0724 213.556 67.6649 212.657 67.24C212.479 67.1134 212.303 66.9846 212.129 66.8549C211.971 66.755 211.813 66.6555 211.654 66.5563C211.245 66.2931 210.939 66.0374 210.651 65.6997L210.65 65.5461L210.334 65.4687C210.164 65.2895 210.164 65.2895 209.984 65.0647C209.683 64.7105 209.443 64.4619 208.961 64.2369C208.751 64.2069 208.54 64.1803 208.329 64.1589C208.317 64.8594 208.349 65.553 208.413 66.2521C208.419 66.315 208.424 66.3779 208.43 66.4427C208.437 66.5266 208.437 66.5266 208.445 66.6122C208.443 66.7791 208.403 66.9185 208.339 67.0781C207.666 66.995 207.376 66.8648 206.968 66.4609C206.829 66.2775 206.697 66.0961 206.571 65.908C206.538 65.8597 206.504 65.8114 206.47 65.7616C206.227 65.4046 206.227 65.4046 206.226 65.2304L206.016 65.23L206.015 64.9995C205.724 64.9326 205.724 64.9326 205.383 64.9215C205.094 65.0632 205.094 65.0632 204.858 65.2278L204.647 65.2274L204.543 65.5345L204.332 65.5341C204.317 65.5833 204.302 65.6325 204.286 65.6831C204.12 66.1556 203.915 66.5232 203.389 66.8382C203.1 66.9145 203.1 66.9145 202.863 66.9141C202.652 66.8368 202.652 66.8368 202.546 66.6062C202.539 66.4715 202.539 66.3367 202.542 66.202C202.543 66.1223 202.544 66.0426 202.545 65.9606C202.548 65.7939 202.551 65.6273 202.555 65.4606C202.56 64.9931 202.517 64.5954 202.326 64.1475L202.116 64.1471L202.115 63.9935C201.587 64.2126 201.324 64.4403 201.046 64.8365C200.829 65.1329 200.609 65.4118 200.331 65.6801L200.227 65.9104L200.016 65.91C199.98 65.9754 199.98 65.9754 199.943 66.0422C199.666 66.3982 199.177 66.6416 198.756 66.9063C198.667 66.9652 198.667 66.9652 198.577 67.0254C197.815 67.519 196.482 68.0034 195.464 67.962C195.18 67.8981 195.18 67.8981 194.968 67.6673C195.102 67.3234 195.378 67.057 195.656 66.7683C195.813 66.5865 195.908 66.4094 196.016 66.2097C196.115 66.0747 196.214 65.9398 196.316 65.806C196.637 65.3841 196.923 64.9825 197.087 64.5124C197.153 64.3309 197.226 64.155 197.306 63.9768C197.657 63.1931 197.945 62.4074 198.194 61.6028C198.265 61.3705 198.342 61.1402 198.428 60.9106C198.743 60.0614 198.88 59.2083 199.006 58.3338C199.04 58.1493 199.04 58.1493 199.095 57.989C199.176 57.7452 199.153 57.4965 199.148 57.2468C199.147 57.1665 199.147 57.1665 199.146 57.0845C199.144 56.9529 199.142 56.8214 199.14 56.6899C198.257 56.9753 197.632 57.4992 197.245 58.1407C197.081 58.4009 196.87 58.6403 196.666 58.8847C196.545 59.0315 196.428 59.1805 196.313 59.33C195.869 59.8989 195.41 60.4405 194.794 60.9181C194.619 61.0593 194.619 61.0593 194.486 61.2377C194.227 61.5463 193.898 61.8062 193.572 62.0776C193.321 62.2899 193.096 62.4857 192.949 62.7469L192.739 62.7465L192.667 62.9144C192.499 63.1775 192.292 63.3124 192.004 63.5133C191.87 63.6263 191.737 63.7397 191.604 63.8535C191.27 64.1315 190.925 64.3535 190.509 64.5638C190.318 64.6598 190.318 64.6598 190.155 64.79C190.009 64.8923 190.009 64.8923 189.798 64.8919C189.771 64.9376 189.743 64.9833 189.715 65.0304C189.159 65.7713 187.564 66.4675 186.541 66.8062L186.199 66.9736C185.947 67.0945 185.783 67.1559 185.489 67.1883C185.528 67.0396 185.528 67.0396 185.594 66.8813L185.804 66.8048L185.908 66.5746C186.046 66.4706 186.186 66.3687 186.328 66.2681C186.473 66.1417 186.615 66.0139 186.755 65.8848C186.825 65.82 186.896 65.7551 186.968 65.6883C187.096 65.5692 187.219 65.4479 187.338 65.3241C187.386 65.2815 187.434 65.2388 187.483 65.1948L187.693 65.1952L187.903 64.8115L188.113 64.8119C188.139 64.7558 188.165 64.6997 188.191 64.6419C188.335 64.4078 188.502 64.264 188.742 64.0785C189.009 63.8719 189.216 63.6932 189.372 63.4315L189.582 63.4319C189.607 63.3909 189.632 63.3498 189.658 63.3075C189.829 63.0739 190.039 62.8717 190.257 62.6602C190.339 62.5802 190.421 62.5003 190.506 62.4179C190.68 62.257 190.851 62.1171 191.051 61.9751C191.158 61.8483 191.262 61.7202 191.366 61.5916C191.528 61.4142 191.693 61.2376 191.858 61.0614C192.011 60.897 192.011 60.897 192.099 60.6712L192.31 60.6716L192.382 60.5228C192.57 60.2009 192.806 59.9013 193.043 59.5975L193.254 59.5979C193.442 59.3345 193.591 59.0626 193.744 58.7874C193.943 58.4369 194.16 58.1205 194.451 57.8045C194.925 57.2861 195.232 56.719 195.557 56.1453C195.781 55.7602 196.023 55.3852 196.282 55.0126C196.783 54.2913 197.161 53.5725 197.47 52.795C197.621 52.4328 197.813 52.0828 198.009 51.7328C198.434 50.8932 198.636 49.9969 198.855 49.1187C198.993 48.5747 199.165 48.0447 199.398 47.5184C199.624 46.9796 199.7 46.4458 199.759 45.8858C199.794 45.5766 199.84 45.2806 199.938 44.9786C200.059 44.5994 200.11 44.2221 200.151 43.834C200.16 43.7584 200.168 43.6829 200.177 43.6051C200.24 43.0051 200.279 42.4048 200.308 41.8033C200.314 41.6827 200.314 41.6827 200.32 41.5597C200.374 40.2862 200.327 39.0256 200.215 37.7538C200.194 37.5053 200.174 37.2567 200.154 37.008C200.091 36.2515 200.012 35.5259 199.76 34.7883C199.693 34.5791 199.661 34.3834 199.641 34.1698C199.59 33.7278 199.383 33.3368 199.17 32.9236C198.697 31.9755 198.697 31.9755 198.566 31.5589C198.273 30.6315 197.837 29.693 197.265 28.8368C197.122 28.6196 196.999 28.3986 196.875 28.1755C196.675 27.8222 196.447 27.4935 196.178 27.1653C196.081 27.0313 196.081 27.0313 196.081 26.8777L195.87 26.8773L195.698 26.6177C195.478 26.297 195.228 25.9925 194.972 25.6867C194.819 25.5009 194.675 25.3128 194.534 25.1223C194.339 24.8634 194.117 24.6444 193.86 24.4152C193.758 24.2842 193.656 24.1531 193.555 24.0215C193.184 23.5677 192.707 23.1727 192.213 22.788C192.053 22.635 192.015 22.5221 191.957 22.3374C191.818 22.2831 191.677 22.2322 191.535 22.183C191.086 21.8996 190.781 21.566 190.446 21.2102C190.236 20.997 190.004 20.8209 189.739 20.6432C189.43 20.4237 189.141 20.1992 188.861 19.9597C188.54 19.6881 188.192 19.4583 187.818 19.2261C187.58 19.0719 187.385 18.909 187.205 18.7178L187.204 18.5642L187.026 18.5063C186.607 18.3401 186.274 18.1151 185.938 17.8704C185.486 17.5719 185.012 17.3024 184.514 17.0455C184.462 17.0125 184.409 16.9795 184.355 16.9456L184.355 16.7919C184.299 16.775 184.244 16.758 184.186 16.7406C183.839 16.5993 183.552 16.4127 183.253 16.2233C183.135 16.1488 183.016 16.0743 182.898 15.9999C182.84 15.9639 182.783 15.9278 182.723 15.8907C182.497 15.7505 182.266 15.6158 182.033 15.4816C181.98 15.4504 181.926 15.4192 181.871 15.387C180.639 14.6258 180.639 14.6258 179.274 14.017C179.079 13.9395 179.079 13.9395 178.868 13.7087L178.551 13.6312L178.551 13.4776L178.32 13.4196C177.997 13.3144 177.769 13.1773 177.496 13.0147L177.18 12.9373L177.179 12.7836L176.89 12.7255C176.52 12.6213 176.4 12.5217 176.125 12.3207C175.688 12.118 175.264 11.935 174.754 11.8572L174.753 11.7035L174.477 11.6502C174.041 11.5259 173.815 11.4078 173.488 11.1634C173.415 10.9616 173.415 10.9616 173.486 10.7793C174.636 10.157 177.108 10.676 178.443 10.8213C178.622 10.8412 178.622 10.8412 178.804 10.8614C178.917 10.8737 179.03 10.886 179.147 10.8987C181.057 11.1176 181.057 11.1176 181.702 11.4863C181.99 11.5527 181.99 11.5527 182.302 11.5978C182.798 11.6828 183.235 11.7936 183.696 11.9525C184.285 12.1553 184.843 12.2991 185.496 12.3385L185.707 12.2621C185.701 11.7057 185.497 11.3579 184.965 10.9547L184.754 10.8775C184.683 10.7749 184.613 10.6724 184.542 10.5698L184.331 10.4926L184.225 10.2619L184.014 10.1847L184.014 10.0311L183.803 10.0307L183.802 9.8002L183.624 9.74225C183.058 9.51827 182.796 9.30672 182.565 8.876C182.526 8.67743 182.616 8.58794 182.744 8.41542C182.815 8.41403 182.885 8.41264 182.958 8.41121C183.279 8.40449 183.601 8.39668 183.922 8.38885C184.033 8.38669 184.144 8.38452 184.259 8.38229C184.366 8.37952 184.474 8.37676 184.585 8.37391C184.683 8.37168 184.782 8.36945 184.884 8.36716C185.186 8.34151 185.415 8.27949 185.692 8.19056L186.007 8.11434C186.108 7.89124 186.125 7.74795 186.125 7.51562C186.126 7.44062 186.126 7.36562 186.127 7.28835C186.127 7.1663 186.127 7.1663 186.127 7.04178C186.129 6.86749 186.131 6.69319 186.133 6.5189C186.135 6.24574 186.138 5.97259 186.138 5.69941C186.14 4.79529 186.154 3.90215 186.375 3.01098C186.389 2.94831 186.403 2.88564 186.418 2.82107C186.511 2.49525 186.571 2.38221 186.933 2.16116C187.502 1.95673 188.028 2.07483 188.611 2.21851C189.05 2.34838 189.443 2.52829 189.842 2.71328C190.09 2.82592 190.09 2.82592 190.357 2.89671C190.652 2.9854 190.879 3.09895 191.136 3.23638C191.445 3.39901 191.75 3.55196 192.085 3.6847C192.393 3.81526 192.61 3.9339 192.837 4.13265L192.838 4.28629L193.042 4.31069L193.259 4.36391L193.365 4.59458C193.506 4.6207 193.646 4.64655 193.787 4.6722C193.955 4.79225 193.955 4.79225 194.11 4.93688C194.316 5.12743 194.453 5.2269 194.737 5.36539L194.738 5.51903L194.955 5.55785C195.272 5.67653 195.396 5.77087 195.621 5.96723C196.032 6.3239 196.421 6.64746 197.085 6.70461C197.383 6.68213 197.383 6.68213 197.69 6.60013L197.795 6.36987L198.005 6.37027C198.114 6.17234 198.221 5.97423 198.323 5.77461C198.57 5.31217 198.848 4.92856 199.253 4.53165C199.601 4.1618 199.893 3.76813 200.187 3.37464C200.476 2.99772 200.794 2.67965 201.198 2.36387C201.354 2.23271 201.464 2.10805 201.576 1.95507C201.955 1.46204 202.423 1.12942 203.051 0.803465C203.273 0.687684 203.273 0.687684 203.531 0.489594C204.09 0.0818352 204.576 0.0125484 205.353 0.0849457Z" fill="url(#paint0_linear_0_4)"/>
<path id="Subtract" d="M244.698 14.4663C245.119 14.2712 245.375 14.2197 245.852 14.3442C246.887 14.9653 246.92 16.3273 247.047 17.2221C247.137 17.9497 247.142 18.6532 247.052 19.3794C247.028 19.5839 247.011 19.7887 246.994 19.9936C246.928 20.7398 246.813 21.4324 246.469 22.1391C246.304 22.489 246.296 22.7418 246.41 23.103C246.533 23.2082 246.533 23.2081 246.865 23.2094C247.726 23.2021 248.513 22.8418 249.258 22.561C249.746 22.379 250.207 22.2719 250.739 22.1811C251.052 22.1105 251.287 22.0146 251.565 21.8901C252.226 21.6222 252.869 21.525 253.611 21.4409L254.003 21.394C256.466 21.1129 258.894 21.1766 261.35 21.4907C261.538 21.5145 261.726 21.5359 261.915 21.5571L262.193 21.5913C262.266 21.6 262.339 21.6086 262.414 21.6176C262.622 21.6735 262.622 21.6739 262.843 21.8061C263.28 22.057 263.763 22.2274 264.257 22.4116C264.453 22.4855 264.65 22.5601 264.847 22.6342C264.933 22.6666 265.02 22.6986 265.109 22.7319C265.491 22.8806 265.826 23.0134 266.129 23.2407C266.379 23.4192 266.602 23.542 266.894 23.6792C267.28 23.8622 267.595 24.0406 267.896 24.2954V24.4497C267.991 24.4608 267.992 24.4607 268.088 24.4721C268.368 24.5391 268.46 24.6191 268.642 24.7866C268.841 24.9673 269.043 25.1344 269.269 25.2973C269.519 25.5002 269.764 25.7071 270.009 25.9135C270.063 25.9587 270.118 26.0037 270.174 26.0503C270.537 26.3568 270.536 26.3572 270.537 26.5288H270.748C270.814 26.6307 270.814 26.631 270.882 26.7348C271.053 26.973 271.238 27.1721 271.462 27.3852C272.068 27.9826 272.613 28.573 272.864 29.2983C272.942 29.4335 273.021 29.5685 273.103 29.7026C273.346 30.1191 273.549 30.5407 273.739 30.9712C273.767 31.032 273.794 31.0931 273.822 31.1557L273.969 31.4926C274.134 31.9936 274.16 32.5 274.174 33.0122C274.176 33.0795 274.178 33.1469 274.18 33.2163C274.185 33.4331 274.188 33.6499 274.19 33.8667C274.192 33.9772 274.192 33.9778 274.193 34.0903C274.203 35.4407 274.09 36.7636 273.212 37.98C273.163 38.0829 273.117 38.1868 273.075 38.2915C272.797 38.9308 272.366 39.5298 271.957 40.1284L271.858 40.2915C271.747 40.4353 271.747 40.4357 271.551 40.5727C271.243 40.8058 271.056 41.0707 270.842 41.352C270.771 41.4297 270.771 41.43 270.698 41.5092L270.487 41.5083L270.429 41.6616C270.25 41.9344 270.016 42.1207 269.739 42.3432C269.552 42.4976 269.383 42.6561 269.216 42.8217C269.164 42.8725 269.112 42.9237 269.059 42.976C268.933 43.1 268.809 43.2246 268.685 43.3491C268.357 43.6329 267.936 43.8312 267.521 44.0425C267.287 44.1629 267.067 44.2883 266.846 44.4204C266.198 44.7756 265.44 45.0106 264.71 45.2622C264.638 45.2871 264.566 45.3117 264.491 45.3374C262.7 45.9552 262.699 45.9556 262.067 46.102C261.765 46.1685 261.765 46.168 261.526 46.2895C261.198 46.4239 260.911 46.4761 260.542 46.5307C260.423 46.5489 260.305 46.5677 260.183 46.5864C259.125 46.7207 258.058 46.7252 256.987 46.7251C256.741 46.7253 256.494 46.727 256.247 46.729C254.872 46.7334 253.599 46.6348 252.347 46.1801C252.074 46.0819 251.799 45.999 251.517 45.9184C250.772 45.7017 250.176 45.4376 249.546 45.0796C249.461 45.0336 249.376 44.9872 249.288 44.9399C249.161 44.8706 249.161 44.8711 249.031 44.8003C248.914 44.7368 248.914 44.7361 248.795 44.6714C248.588 44.534 248.492 44.4188 248.385 44.2319H248.174C247.195 43.3879 246.46 42.4164 246.268 41.3091C246.256 41.2414 246.244 41.1737 246.231 41.104C245.987 39.4627 246.27 37.6833 247.618 36.3178C247.784 36.1743 247.947 36.0586 248.143 35.935H248.354C248.393 35.8656 248.394 35.8654 248.435 35.7944C248.579 35.608 248.7 35.5392 248.945 35.4253C249.021 35.3897 249.097 35.3535 249.176 35.3169C249.255 35.2807 249.335 35.2447 249.417 35.2075C249.494 35.1713 249.572 35.1354 249.651 35.0981C251.059 34.4471 252.494 34.1382 254.116 33.8833C254.299 33.8543 254.482 33.8255 254.664 33.7964C254.747 33.7833 254.83 33.7698 254.915 33.7563C255.359 33.6864 255.36 33.6863 255.716 33.4907L255.715 33.1841C255.529 33.1349 255.341 33.0863 255.154 33.0385C255.051 33.0117 254.947 32.9852 254.84 32.9575C252.418 32.442 249.763 32.6104 247.502 33.3989C247.422 33.4258 247.342 33.4523 247.26 33.48C246.57 33.7202 245.971 34.0379 245.371 34.3803C245.189 34.4699 245.189 34.4696 244.979 34.4692L244.874 34.6997C244.689 34.807 244.498 34.9089 244.303 35.0063C243.85 35.2332 243.849 35.2332 243.508 35.5425L243.192 35.6186L243.035 35.7768L242.878 35.9253L242.562 35.9243C242.535 35.9671 242.509 36.01 242.482 36.0542C242.331 36.2594 242.149 36.4254 241.946 36.605C241.715 36.8123 241.499 37.0143 241.297 37.2378C241.12 37.4297 240.937 37.5893 240.726 37.7602C240.397 38.0287 240.175 38.2921 239.939 38.6079C239.858 38.689 239.776 38.7704 239.691 38.854C239.406 39.1432 239.193 39.4446 238.989 39.768C238.953 39.825 238.917 39.8822 238.88 39.9409C238.576 40.431 238.357 40.9281 238.16 41.4467C238.086 41.6131 238.012 41.7795 237.938 41.9458C237.732 42.4414 237.617 42.9286 237.535 43.4428C237.526 43.4969 237.516 43.5512 237.507 43.6069C237.202 45.4016 236.78 48.2435 238.283 49.8257C238.333 49.8805 238.383 49.9352 238.435 49.9917C238.653 50.1589 238.839 50.2181 239.141 50.2837C239.433 50.2704 239.433 50.2696 239.666 50.1303C239.719 49.9905 239.77 49.85 239.807 49.7075C240.063 48.9885 240.623 48.3384 241.461 47.9204C241.552 47.8741 241.644 47.8284 241.738 47.7807C241.974 47.6771 241.974 47.6768 242.185 47.6772L242.289 47.4467C243.12 47.025 244.2 46.667 245.234 46.7612C245.449 46.8796 245.54 46.9465 245.589 47.1411C245.588 47.1974 245.586 47.254 245.585 47.312C245.584 47.408 245.585 47.4082 245.584 47.5063C245.582 47.5756 245.579 47.6449 245.577 47.7163C245.576 47.7884 245.576 47.8607 245.575 47.935C245.573 48.1665 245.569 48.3979 245.564 48.6294C245.525 50.3629 245.525 50.3636 246.018 52.0542C246.04 52.1045 246.063 52.1547 246.086 52.2065C246.28 52.6321 246.501 53.0506 246.725 53.4682C246.888 53.7772 247.009 54.0807 247.105 54.4038C247.226 54.7853 247.428 55.0494 247.744 55.3637C247.893 55.5174 248.003 55.6662 248.111 55.8364C248.303 56.1304 248.554 56.3734 248.833 56.6264C248.957 56.7545 248.957 56.755 248.958 56.9087L249.143 56.9663C249.415 57.0769 249.597 57.201 249.802 57.3716L249.803 57.5249L250.04 57.5923C250.695 57.7886 250.695 57.7889 250.929 57.9741C251.228 58.179 251.557 58.3097 251.919 58.4458C252.024 58.4859 252.024 58.4859 252.131 58.5268C252.955 58.8395 253.8 59.111 254.653 59.3774C254.721 59.4002 254.789 59.4233 254.859 59.4467C257.926 60.4731 261.101 60.5928 264.407 60.5786C264.748 60.5776 265.088 60.5779 265.429 60.5786C267.113 60.5817 268.782 60.5774 270.452 60.4067C270.665 60.388 270.878 60.3688 271.091 60.3501C271.264 60.3331 271.437 60.3161 271.61 60.2983C271.75 60.284 271.75 60.2836 271.893 60.269C272.451 60.2093 272.986 60.1289 273.526 60.0092C273.919 59.9332 274.314 59.8863 274.715 59.8384C275.523 59.741 276.305 59.6083 277.083 59.4204L277.082 59.2671H277.293C277.533 58.7301 277.486 58.3991 277.183 57.8842C277.119 57.7675 277.054 57.6505 276.99 57.5337C276.955 57.4701 276.919 57.4058 276.883 57.3403C276.51 56.6626 276.141 55.9824 275.871 55.2788C275.808 55.113 275.807 55.1126 275.696 54.9516C275.54 54.6244 275.51 54.2973 275.47 53.9536C275.456 53.8379 275.456 53.8373 275.442 53.7192C275.037 49.9222 275.037 49.9221 276.039 48.3061C276.237 47.9873 276.376 47.6611 276.516 47.3266C276.623 47.1137 276.769 46.9377 276.931 46.7446C276.983 46.6482 277.031 46.5502 277.074 46.4516C277.212 46.1711 277.395 45.9374 277.618 45.6889C277.791 45.4906 277.946 45.286 278.103 45.0805C278.645 44.3958 279.297 43.7684 280.076 43.2173L280.339 43.02C280.59 42.8414 280.853 42.6874 281.127 42.5278L281.356 42.355C282.907 41.2492 284.945 40.5142 286.944 39.9331C287.198 39.8577 287.443 39.7744 287.69 39.688C288.282 39.4953 288.908 39.4138 289.539 39.3169L289.832 39.2602C290.727 39.0944 291.57 39.0491 292.493 39.0542C292.565 39.0545 292.638 39.0539 292.712 39.0542C294.976 39.0687 297.111 39.3701 299.196 40.0278C299.454 40.1085 299.714 40.1854 299.975 40.2612C300.439 40.3968 300.899 40.5377 301.357 40.6841C301.462 40.7168 301.462 40.7161 301.568 40.7495C302.039 40.8997 302.476 41.0728 302.919 41.2632C303.164 41.3628 303.41 41.4613 303.656 41.56C303.837 41.6354 304.011 41.7188 304.185 41.8032L304.186 41.9565C304.272 41.9863 304.272 41.9867 304.359 42.0171C304.649 42.1271 304.92 42.2524 305.194 42.3813C305.344 42.4516 305.345 42.4512 305.498 42.5229C305.694 42.6158 305.889 42.7103 306.084 42.8051L306.085 42.9594C306.144 42.9807 306.204 43.002 306.265 43.0239C306.428 43.0844 306.59 43.1478 306.749 43.2134C307.305 43.4349 307.769 43.6086 308.403 43.5014C309.286 43.2617 310.063 42.8458 310.788 42.4155C311.035 42.2744 311.294 42.1722 311.569 42.063C311.795 41.958 311.978 41.8358 312.174 41.7026C312.6 41.4204 313.164 41.1293 313.765 41.1303V40.976C316.26 40.0591 316.261 40.0594 316.604 40.06L316.604 39.9057C316.678 39.8763 316.753 39.8472 316.83 39.8169C317.496 39.5541 317.497 39.5534 318.154 39.2798C318.779 39.0264 319.439 38.8539 320.113 38.6841C320.187 38.6652 320.262 38.6459 320.338 38.6264C320.565 38.5687 320.793 38.5114 321.021 38.4546C321.091 38.4366 321.162 38.4193 321.234 38.4009C321.984 38.2139 322.748 38.0673 323.513 37.9175C323.783 37.8644 324.053 37.8106 324.323 37.7573C324.501 37.7224 324.501 37.7226 324.683 37.687C324.908 37.6404 325.132 37.59 325.354 37.5356C325.988 37.3851 326.673 37.3641 327.335 37.3149C327.447 37.3063 327.56 37.2974 327.676 37.2885C331.152 37.0706 334.64 37.3953 337.777 38.5688C338.107 38.6912 338.429 38.8052 338.772 38.9067C339.498 39.1483 340.164 39.4548 340.717 39.8755C340.848 39.9615 340.98 40.0462 341.113 40.1303C341.187 40.1775 341.262 40.2244 341.338 40.2729C341.477 40.3603 341.616 40.4475 341.756 40.5337C342.233 40.8302 342.685 41.1445 343.132 41.4643C343.222 41.5278 343.223 41.5277 343.314 41.5923C343.637 41.8259 343.859 42.0134 343.991 42.3393L344.201 42.3403C344.303 42.4457 344.403 42.5517 344.497 42.6606C344.635 42.8138 344.786 42.9558 344.941 43.1001C345.553 43.6944 345.823 44.3242 346.106 45.0327C346.157 45.156 346.209 45.2796 346.26 45.4028C346.284 45.4631 346.309 45.5233 346.335 45.5854C346.408 45.7585 346.483 45.9308 346.56 46.103C346.595 46.1839 346.595 46.1845 346.632 46.2671C346.679 46.3733 346.726 46.4794 346.774 46.5854C347.648 48.5653 346.974 50.8013 346.089 52.7046C346.064 52.7574 346.04 52.8103 346.015 52.8647C345.762 53.4032 345.5 53.9254 345.099 54.4155C344.98 54.5611 344.876 54.7102 344.774 54.8628H344.563L344.479 55.0346C344.359 55.2373 344.24 55.3888 344.04 55.5532L343.829 55.5522L343.797 55.7016L343.725 55.8598L343.409 55.936C343.333 56.0903 343.333 56.0906 343.306 56.2426H343.095C343.073 56.2954 343.051 56.3484 343.028 56.4028C342.841 56.6966 342.578 56.9003 342.275 57.1342C342.193 57.2 342.193 57.2 342.109 57.2671C341.797 57.5121 341.503 57.6866 341.1 57.852L340.995 58.0053C340.726 58.0528 340.725 58.0532 340.469 58.0815L340.47 58.2348C340.24 58.3324 340.01 58.429 339.779 58.5259C339.715 58.5531 339.652 58.5808 339.586 58.6089C337.854 59.3354 335.578 59.7989 333.574 59.4663C333.349 59.4141 333.125 59.3595 332.903 59.3012C332.565 59.2162 332.234 59.163 331.884 59.1118C331.169 58.9933 330.578 58.7823 329.94 58.5219C329.871 58.4938 329.802 58.4659 329.731 58.437C329.435 58.3161 329.139 58.1948 328.845 58.0717C328.442 57.9037 328.037 57.7449 327.62 57.5962V57.4419C327.542 57.4232 327.464 57.4045 327.384 57.3852C326.3 57.02 325.198 55.7364 324.666 54.9712C324.56 54.8197 324.56 54.8195 324.399 54.6801C324.206 54.4832 324.104 54.293 323.994 54.0649C323.955 53.9874 323.916 53.9094 323.876 53.8296C323.803 53.5489 323.874 53.3928 324.023 53.1333C324.674 53.1786 324.974 53.3627 325.421 53.6977C325.954 54.0781 326.543 54.4045 327.188 54.6762C327.249 54.7092 327.31 54.7419 327.372 54.7759C328.071 55.1492 328.825 55.3485 329.636 55.5542C329.787 55.5932 329.938 55.6355 330.088 55.6782C331.298 56.0136 332.561 56.014 333.827 55.9175C333.911 55.9154 333.995 55.9137 334.081 55.9116C335.416 55.868 336.709 55.2203 337.612 54.5415L337.823 54.5425L337.822 54.3891C337.973 54.2969 338.126 54.2048 338.279 54.1147C338.748 53.8223 339.033 53.4875 339.292 53.0854C339.394 52.9545 339.497 52.8237 339.6 52.6928C340.656 51.2585 340.675 49.578 340.451 47.9839C340.444 47.9266 340.437 47.869 340.429 47.81C340.369 47.4327 340.225 47.1361 340.006 46.7876C339.973 46.6999 339.94 46.6122 339.906 46.5219C339.776 46.2078 339.589 45.9432 339.37 45.6577C339.295 45.5581 339.219 45.4585 339.145 45.3589C339.079 45.272 339.014 45.1847 338.946 45.0952C338.911 45.0362 338.877 44.9772 338.841 44.9165C338.747 44.7762 338.746 44.7757 338.536 44.7153C338.231 44.6033 338.104 44.4489 337.903 44.2485C337.142 43.5481 336.015 42.9567 334.87 42.6391C334.495 42.5338 334.137 42.4151 333.776 42.2846C333.11 42.0619 332.445 41.9611 331.728 41.8696C331.608 41.8528 331.488 41.8361 331.365 41.8188C330.072 41.6469 328.906 41.6896 327.614 41.8384C327.495 41.8515 327.376 41.8639 327.253 41.8774C327.015 41.9038 326.777 41.9309 326.539 41.9585C326.314 41.9843 326.089 42.0092 325.863 42.0327C325.144 42.1105 324.484 42.2399 323.8 42.4165C322.752 42.6823 322.751 42.6826 322.264 42.7671C321.586 42.8881 321 43.1069 320.407 43.3706C320.286 43.4035 320.286 43.4034 320.162 43.437C319.859 43.53 319.621 43.6449 319.355 43.7856C319.013 43.966 318.668 44.1315 318.305 44.2885C318.16 44.3597 318.015 44.4311 317.871 44.5034C317.517 44.677 317.158 44.8282 316.78 44.9721C316.084 45.2427 315.499 45.5907 314.901 45.9624C314.626 46.1248 314.626 46.1246 314.311 46.2007C314.067 46.3691 313.837 46.5441 313.608 46.7231C313.471 46.814 313.47 46.8143 313.26 46.8139C313.042 47.1068 313.042 47.1068 312.946 47.4272C313.047 47.6083 313.152 47.7885 313.264 47.9663L313.265 48.1967L313.581 48.2739C313.774 48.461 313.774 48.461 313.971 48.6919C314.036 48.7678 314.102 48.8441 314.17 48.9223C314.321 49.1198 314.321 49.1203 314.321 49.2739H314.532C314.985 49.6766 315.799 50.4394 315.802 50.9663L316.013 50.9673L316.125 51.1596C316.276 51.3833 316.469 51.5488 316.7 51.7319C317.041 52.0058 317.209 52.2395 317.388 52.5835L317.566 52.7993C317.705 52.9675 317.705 52.9679 317.705 53.1216H317.916L318.095 53.3911C318.286 53.6683 318.496 53.9296 318.728 54.1899C318.823 54.3012 318.915 54.4146 319.002 54.5298C319.356 54.9933 319.78 55.3645 320.284 55.7436C320.665 56.0317 320.664 56.0317 320.665 56.1997L320.981 56.2768C321.144 56.3947 321.145 56.3949 321.318 56.5464C321.383 56.6016 321.448 56.6574 321.515 56.7143C321.583 56.7732 321.651 56.8324 321.721 56.893C322.159 57.2716 322.57 57.6123 323.139 57.8862C323.305 57.9714 323.305 57.972 323.556 58.1596C323.862 58.3777 324.185 58.532 324.543 58.7007C324.766 58.8116 324.963 58.9289 325.164 59.06C325.45 59.2453 325.738 59.3812 326.074 59.5132C326.272 59.5958 326.451 59.6896 326.635 59.7885C326.952 59.9578 327.277 60.0807 327.63 60.2075C327.802 60.284 327.974 60.3613 328.145 60.4389C328.596 60.6387 329.03 60.7804 329.528 60.9028C329.713 60.9525 329.897 61.0021 330.081 61.0522C330.601 61.1914 331.127 61.3196 331.654 61.4428C331.952 61.5223 331.952 61.5223 332.259 61.6401C332.621 61.7665 332.941 61.8194 333.336 61.8706C333.408 61.88 333.48 61.8891 333.554 61.8989C334.235 61.9869 334.92 62.0613 335.604 62.1333C336.115 62.188 336.607 62.2614 337.108 62.353C338.695 62.595 340.616 62.6414 342.149 62.2387C342.563 62.1373 342.974 62.088 343.405 62.0385C344.529 61.9223 344.529 61.9218 345.552 61.5932C345.979 61.42 346.428 61.3376 346.897 61.2426C347.493 61.1216 348.039 60.9989 348.587 60.7856L348.969 60.6899C349.488 60.5546 349.944 60.3445 350.413 60.1372C350.69 60.0207 350.69 60.021 351.006 59.9448V59.7915C351.144 59.72 351.283 59.6492 351.427 59.5835C351.78 59.4175 352.118 59.2352 352.459 59.0561C352.687 58.9498 352.687 58.9493 352.897 58.9497L353.002 58.7192L353.317 58.643C353.497 58.5107 353.498 58.5108 353.672 58.351C353.95 58.1116 354.22 57.9027 354.578 57.7241H354.788L354.874 57.5757C354.998 57.4176 354.998 57.4174 355.313 57.3413C355.441 57.1492 355.441 57.1489 355.522 56.9575H355.733L355.838 56.728C355.978 56.7027 356.118 56.6772 356.259 56.6518L356.363 56.4214C356.536 56.2919 356.712 56.1648 356.889 56.0385L357.15 55.8032C357.395 55.5931 357.63 55.43 357.938 55.2719H358.149L358.221 55.1479C358.406 54.9025 358.625 54.713 358.884 54.5053L359.094 54.5063L359.198 54.2759C359.772 53.893 359.772 53.8925 360.039 53.893L360.104 53.7251C360.258 53.4943 360.437 53.3792 360.712 53.2231C361.073 53.0153 361.363 52.8345 361.509 52.5132C361.64 52.408 361.64 52.4078 361.823 52.2837C362.11 52.0796 362.381 51.8743 362.631 51.646L362.873 51.4399L363.084 51.4409L363.166 51.3051C363.304 51.12 363.456 50.9942 363.661 50.8462C363.757 50.7758 363.757 50.7755 363.854 50.7036C364.028 50.5971 364.029 50.5977 364.239 50.5981L364.344 50.3676C364.481 50.2636 364.622 50.1618 364.764 50.061C364.873 49.9672 364.983 49.8732 365.092 49.7788C365.804 49.1831 366.641 48.7024 367.498 48.2241C367.84 48.0298 368.134 47.8382 368.407 47.5903C368.818 47.2196 369.353 47.0071 369.911 46.768C370.04 46.7078 370.17 46.6472 370.299 46.5864C370.933 46.2987 371.591 46.0392 372.243 45.7749C372.401 45.7107 372.559 45.6463 372.717 45.5815C373.189 45.3881 373.667 45.2065 374.154 45.0337C374.345 44.9645 374.534 44.8916 374.721 44.8169C375.995 44.3178 377.351 44.163 378.766 43.9995C378.878 43.9862 378.991 43.9731 379.106 43.9594C380.198 43.8403 381.27 43.8315 382.366 43.9389C382.502 43.9517 382.637 43.9649 382.776 43.978C383.168 44.0272 383.527 44.0965 383.906 44.1821C383.973 44.3982 383.973 44.3985 384.014 44.643C383.778 44.9019 383.613 44.9632 383.239 45.103C382.947 45.213 382.675 45.3166 382.413 45.4614C382.227 45.5617 382.227 45.5624 382.017 45.562V45.7153C381.841 45.8473 381.84 45.8476 381.61 45.9926C381.497 46.0652 381.496 46.0651 381.381 46.1391C381.176 46.251 381.176 46.2509 380.966 46.2505L380.934 46.3803C380.819 46.6627 380.643 46.8782 380.344 47.0757C379.82 47.4924 379.623 48.0984 379.396 48.6294L379.291 48.8598C379.25 49.2426 379.224 49.5893 379.439 49.9448C379.683 50.1497 379.797 50.1639 380.171 50.2007C380.742 50.1987 381.198 50.0048 381.7 49.8257C382.038 49.7077 382.369 49.6194 382.727 49.5405C382.916 49.4961 383.102 49.4451 383.286 49.3911C384.148 49.1434 384.967 49.0268 385.886 48.9477C386.276 48.914 386.638 48.8782 387.017 48.7983C387.562 48.6879 388.112 48.6492 388.675 48.604C388.793 48.5943 388.912 48.5847 389.034 48.5747C389.366 48.5479 389.698 48.5212 390.03 48.4956C390.208 48.4817 390.208 48.4824 390.39 48.4682C392.283 48.3283 394.17 48.3843 396.033 48.6606C396.263 48.6843 396.494 48.708 396.725 48.73C398.018 48.8785 399.205 49.1745 400.358 49.6255C400.659 49.7463 400.659 49.7465 400.946 49.8247C401.211 49.904 401.419 50.0013 401.652 50.1216C402.082 50.3363 402.52 50.5091 402.99 50.6714C403.349 50.7956 403.556 50.9255 403.834 51.1342C404.047 51.2723 404.263 51.4078 404.479 51.5434C404.993 51.8757 404.992 51.8763 405.016 52.1108L404.997 52.2885C404.64 52.4454 404.364 52.4599 403.95 52.4594C403.824 52.4597 403.697 52.4601 403.566 52.4604C403.429 52.4601 403.291 52.4598 403.149 52.4594C403.004 52.4598 402.858 52.4608 402.713 52.4614C402.099 52.4637 401.485 52.464 400.871 52.4634C398.861 52.462 396.927 52.5433 394.938 52.7661C394.419 52.8234 393.897 52.8749 393.376 52.9262C391.207 53.108 391.207 53.1081 389.107 53.5132C388.866 53.5698 388.635 53.5948 388.384 53.6206C387.791 53.6902 387.249 53.8331 386.688 53.9819C386.01 54.1612 385.378 54.2942 384.66 54.3608C384.079 54.4381 383.541 54.6166 382.998 54.7817C382.431 54.9532 381.863 55.1086 381.278 55.2446C380.108 55.5175 379.004 55.8448 377.949 56.3091C377.78 56.3619 377.609 56.4143 377.438 56.4653C377.151 56.5576 376.875 56.6627 376.596 56.7671C376.219 56.9061 375.856 57.027 375.451 57.1157C375.057 57.2037 374.755 57.33 374.413 57.4956C373.975 57.6913 373.507 57.8472 373.045 58.0092C372.697 58.1403 372.383 58.2879 372.061 58.4487C371.886 58.5261 371.711 58.6027 371.535 58.6782L371.272 58.7925C370.484 59.1366 370.484 59.1368 370.217 59.2514C369.971 59.3605 369.735 59.4767 369.498 59.5962C369.105 59.7888 368.711 59.9185 368.275 60.0542C368.033 60.1696 367.797 60.2897 367.562 60.4135C367.308 60.5227 367.095 60.5593 366.804 60.5893V60.7426C365.933 61.0987 365.933 61.0989 365.556 61.23C365.251 61.3452 364.97 61.4722 364.682 61.6079C362.28 62.7314 362.28 62.7313 361.547 62.73V62.8842L361.179 63.018C361.101 63.0464 361.023 63.0748 360.943 63.104C360.801 63.1555 360.658 63.2062 360.515 63.2563C359.958 63.4525 359.424 63.676 358.892 63.9048C358.415 64.1068 358.415 64.1073 358.182 64.1069L358.183 64.2602C358.013 64.3045 358.013 64.3049 357.84 64.3501C357.689 64.3901 357.538 64.4301 357.387 64.4702C357.313 64.4894 357.238 64.5089 357.162 64.5288C356.662 64.6625 356.222 64.8258 355.764 65.0239C355.519 65.1039 355.275 65.18 355.027 65.2534C354.938 65.2807 354.848 65.3082 354.756 65.3364C354.29 65.4786 353.824 65.6193 353.352 65.7505C353.282 65.7701 353.211 65.7898 353.139 65.81C352.939 65.8659 352.739 65.921 352.539 65.976C352.186 66.0799 352.186 66.0796 351.926 66.2475C351.597 66.4351 351.291 66.502 350.893 66.5893C350.46 66.6868 350.041 66.783 349.644 66.9428C349.324 67.0691 349.015 67.134 348.661 67.1948C348.549 67.2144 348.437 67.2342 348.321 67.2544C348.209 67.274 348.096 67.2937 347.979 67.3139C347.781 67.3508 347.583 67.3879 347.385 67.4253C345.325 67.8044 343.248 68.0251 341.132 68.1655C341.045 68.1715 340.957 68.1769 340.867 68.1831C339.259 68.2777 337.644 68.2168 336.037 68.1274C335.754 68.1118 335.471 68.0977 335.188 68.0835C333.727 68.0066 332.296 67.9061 330.922 67.5122C330.704 67.4698 330.483 67.4301 330.263 67.395C330.088 67.366 330.087 67.366 329.908 67.3364C329.674 67.2983 329.44 67.2607 329.205 67.2231C328.596 67.12 328.166 67.0096 327.654 66.7378C327.45 66.6829 327.246 66.6282 327.041 66.5757C326.782 66.4971 326.56 66.3979 326.323 66.2885C325.78 66.0409 325.21 65.8655 324.62 65.686C324.239 65.5659 323.895 65.4284 323.542 65.27L323.331 65.1928V65.0395L322.909 64.9614L322.908 64.8081L322.678 64.7456C322.383 64.6544 322.127 64.5448 321.854 64.4223L321.644 64.354C321.347 64.2321 321.145 64.0577 320.904 63.8823C320.765 63.8038 320.624 63.7265 320.482 63.6509C320.133 63.4641 319.835 63.2613 319.532 63.0346L319.269 62.8803C319.005 62.7263 319.004 62.7267 318.762 62.5493C318.475 62.3405 318.178 62.1438 317.876 61.9467C317.343 61.5952 316.858 61.2252 316.382 60.8325C316.159 60.6463 316.159 60.6461 315.92 60.4829C315.732 60.3388 315.731 60.3385 315.625 60.1079C315.453 59.9768 315.277 59.8488 315.098 59.7231C313.302 58.3529 313.302 58.3526 313.301 57.9526L312.879 57.7983V57.645L312.562 57.5669C312.408 57.424 312.408 57.424 312.252 57.2446C312.196 57.1814 312.14 57.1183 312.083 57.0532C312.006 56.9647 312.006 56.9648 311.928 56.8745C311.657 56.5729 311.376 56.2778 311.089 55.9848C311.02 55.9149 310.951 55.845 310.881 55.7729C310.665 55.5634 310.666 55.5632 310.409 55.3842C310.071 55.1365 309.78 54.8692 309.484 54.5942C309.374 54.4921 309.264 54.3895 309.153 54.2876C309.105 54.243 309.057 54.1987 309.008 54.1528C308.865 54.0239 308.865 54.0234 308.696 53.9057C308.547 53.7952 308.547 53.7954 308.401 53.6128C308.245 53.429 308.083 53.2955 307.868 53.1479C307.645 52.9839 307.445 52.807 307.239 52.6313C306.767 52.2509 306.485 52.0816 305.785 51.9956C304.932 51.9737 304.418 52.3864 303.833 52.7817C303.774 52.8225 303.714 52.8637 303.653 52.9057C303.449 53.0453 303.237 53.1771 303.023 53.3091C302.702 53.5148 302.4 53.7328 302.101 53.9555C301.838 54.1436 301.559 54.3169 301.28 54.4917C301.077 54.6236 300.888 54.7613 300.699 54.9038C300.47 55.0751 300.244 55.2165 299.971 55.3491C299.586 55.5369 299.319 55.7741 299.033 56.0376C298.868 56.1581 298.868 56.1583 298.552 56.1577L298.467 56.3061C298.342 56.4642 298.342 56.4644 298.027 56.5405C297.901 56.6939 297.9 56.6946 297.817 56.8481L297.606 56.8471L297.531 56.9809C297.368 57.1919 297.174 57.3206 296.925 57.48C296.8 57.5611 296.8 57.5612 296.672 57.644C296.452 57.7672 296.452 57.7675 296.241 57.7671L296.242 57.9204C296.066 58.0526 296.065 58.0524 295.835 58.1977C295.722 58.2703 295.721 58.2702 295.605 58.3442C295.401 58.456 295.401 58.4559 295.19 58.4555L295.191 58.6098C294.616 58.9927 294.616 58.9922 294.351 58.9917C294.324 59.0373 294.296 59.0834 294.269 59.1303C294.13 59.3138 293.994 59.4102 293.773 59.5434C293.699 59.5892 293.625 59.6349 293.549 59.6821C293.467 59.7326 293.385 59.7834 293.301 59.8354C293.114 59.9545 292.927 60.0735 292.742 60.1938C292.656 60.2494 292.57 60.3055 292.481 60.3628C292.126 60.6118 291.888 60.7984 291.857 61.1675C291.87 61.396 291.894 61.4894 292.113 61.6567C292.365 61.7824 292.615 61.8851 292.888 61.9858C292.962 62.0151 293.036 62.0445 293.112 62.0747C293.788 62.3355 294.466 62.5056 295.2 62.6567C295.306 62.6795 295.412 62.7026 295.521 62.726C297.523 63.1475 299.535 63.1633 301.6 63.1909C301.855 63.1944 302.111 63.199 302.367 63.2036C302.483 63.2048 302.483 63.2043 302.601 63.2055C303.022 63.2138 303.363 63.2429 303.738 63.3891C303.837 63.5358 303.837 63.5357 303.845 63.6958C303.483 64.1815 303.046 64.3819 302.374 64.6157L302.065 64.73L301.743 64.8442C301.664 64.8742 301.585 64.9042 301.504 64.935C300.994 65.1267 300.497 65.2857 299.945 65.4038C299.715 65.4561 299.714 65.4561 299.43 65.6079C299.143 65.6717 298.857 65.7324 298.568 65.7895C297.851 65.9335 297.85 65.9337 297.174 66.1567C296.193 66.5194 295.098 66.4693 294.021 66.4634C293.754 66.462 293.486 66.4619 293.219 66.4624C290.974 66.46 290.973 66.46 289.953 66.0493C289.491 65.8836 288.975 65.8204 288.477 65.7358C287.919 65.6356 287.491 65.5002 287.003 65.2778C286.383 65.076 285.709 65.0221 285.063 65.185C284.788 65.2817 284.528 65.3881 284.266 65.5024C284.207 65.5274 284.148 65.5528 284.088 65.5786C283.337 65.8497 283.336 65.8495 282.794 66.268C282.568 66.3597 282.343 66.4442 282.11 66.5259C282.01 66.5616 282.01 66.5625 281.907 66.5991C281.065 66.8973 280.213 67.156 279.336 67.3969C279.068 67.473 278.808 67.5545 278.548 67.643C278.055 67.8073 277.541 67.9257 277.024 68.0434C276.7 68.1185 276.453 68.1911 276.168 68.3296C275.977 68.3685 275.783 68.4027 275.589 68.4341C274.873 68.5575 274.185 68.724 273.511 68.938C273.192 69.0235 272.89 69.0656 272.554 69.105C272.423 69.1205 272.291 69.1358 272.156 69.1518C272.02 69.1676 271.883 69.1835 271.742 69.1997C271.546 69.2228 271.546 69.223 271.347 69.2466C271.07 69.2791 270.792 69.3113 270.515 69.3423C270.205 69.377 269.896 69.4151 269.588 69.4555C268.235 69.6262 266.909 69.6489 265.537 69.6372C265.176 69.6341 264.815 69.6325 264.454 69.6313C262.116 69.6212 259.818 69.5157 257.492 69.3286C257.089 69.2962 256.685 69.2653 256.281 69.2339C256.021 69.2133 255.761 69.1921 255.501 69.1714C255.323 69.1575 255.323 69.1582 255.141 69.144C253.304 68.9947 253.304 68.994 252.477 68.6684C251.806 68.5044 251.124 68.3703 250.429 68.2759C249.989 68.2158 249.621 68.1011 249.21 67.9712C248.705 67.8657 248.194 67.7738 247.679 67.6997C247.599 67.6883 247.52 67.6773 247.438 67.6655C247.37 67.6568 247.302 67.6481 247.231 67.6391C246.997 67.5833 246.997 67.5828 246.654 67.4341C246.249 67.2591 245.85 67.1839 245.396 67.105C244.639 66.962 243.934 66.769 243.222 66.5337C243.133 66.5046 243.044 66.4757 242.953 66.4458C242.594 66.3238 242.286 66.21 241.976 66.0278C241.666 65.8482 241.344 65.7698 240.975 65.6801C240.017 65.433 239.145 65.0875 238.255 64.7329C237.836 64.5675 237.408 64.4133 236.98 64.2602V64.1069L236.803 64.0874C236.481 64.0107 236.294 63.8788 236.031 63.7212C235.718 63.563 235.4 63.4109 235.082 63.2583C234.837 63.1392 234.592 63.0202 234.348 62.9009C234.175 62.817 234.002 62.7335 233.829 62.6509C233.324 62.3996 232.831 62.1357 232.339 61.8706C232.275 61.8369 232.211 61.8027 232.145 61.768C231.599 61.4775 231.11 61.157 230.624 60.8159C230.478 60.7143 230.332 60.6125 230.187 60.5112C230.123 60.467 230.06 60.423 229.995 60.3774C229.805 60.2469 229.804 60.2471 229.57 60.1303C229.478 60.0765 229.478 60.0759 229.384 60.021L229.383 59.8676L228.961 59.7134V59.5591L228.645 59.4819L228.644 59.3286L228.434 59.3276C228.29 59.2011 228.149 59.0725 228.011 58.9428C227.836 58.8139 227.659 58.686 227.482 58.5581C226.672 57.951 225.891 57.3499 225.264 56.6333C225.178 56.5435 225.093 56.4534 225.007 56.3637C224.842 56.1715 224.841 56.1714 224.841 56.018L224.63 56.0171C224.501 55.8715 224.382 55.7213 224.267 55.5698C224.059 55.2975 223.874 55.0806 223.573 54.8628C223.462 54.7254 223.356 54.586 223.255 54.4448C223.04 54.1453 223.04 54.1449 222.778 53.8676C222.573 53.6607 222.455 53.4455 222.322 53.2094C222.117 52.8508 221.9 52.5021 221.654 52.1567C221.405 51.8023 221.21 51.4475 221.031 51.0717C220.921 50.8558 220.792 50.6522 220.654 50.4448C220.417 50.0771 220.276 49.7159 220.159 49.3198C220.081 49.0849 220.08 49.0847 219.921 48.8335C218.999 47.2653 218.834 45.3236 218.793 43.6382C218.789 43.5266 218.785 43.4148 218.781 43.3032C218.708 41.0318 218.784 38.7741 219.608 36.5717C219.646 36.4411 219.683 36.3103 219.719 36.1792C219.8 35.9323 219.905 35.7256 220.05 35.4966C220.152 35.3037 220.211 35.1094 220.273 34.9077C220.405 34.5011 220.595 34.1339 220.822 33.7514C220.982 33.4748 221.125 33.1936 221.267 32.9116C221.91 31.6374 222.586 30.3178 223.557 29.1567C223.786 28.8804 224.011 28.6026 224.231 28.3227C224.608 27.8485 224.999 27.381 225.393 26.9145C225.44 26.858 225.488 26.8019 225.537 26.7436C225.58 26.6933 225.622 26.6422 225.666 26.5903C225.785 26.4422 225.891 26.2917 225.993 26.1372H226.204L226.282 25.9692C226.426 25.7315 226.608 25.5719 226.833 25.3706C226.981 25.2259 227.127 25.0801 227.272 24.9341C227.345 24.861 227.418 24.7876 227.493 24.7124C227.671 24.5371 227.672 24.5374 227.777 24.3735H227.987L228.066 24.2456C228.223 24.0324 228.411 23.8538 228.617 23.6645L228.84 23.4575L229.036 23.3003H229.247L229.273 23.1714C229.419 22.842 229.714 22.6433 230.08 22.4331C230.418 22.2385 230.606 22.0076 230.812 21.7348C230.85 21.695 230.887 21.6548 230.926 21.6137H231.137C231.161 21.5701 231.186 21.5259 231.211 21.4809C231.377 21.2664 231.577 21.1388 231.832 20.977C231.972 20.8877 231.972 20.8876 232.115 20.7964C232.208 20.7376 232.301 20.6782 232.396 20.6176C232.478 20.5636 232.56 20.5092 232.645 20.4536C232.718 20.405 232.793 20.3571 232.869 20.3071C232.935 20.2636 233.001 20.2192 233.069 20.1743C233.237 20.0814 233.237 20.0821 233.447 20.0825L233.552 19.852C233.738 19.7176 233.739 19.7171 233.966 19.5786C234.186 19.4432 234.399 19.3111 234.603 19.1626H234.918V19.0092C235.098 18.9162 235.098 18.9157 235.331 18.8178C235.659 18.6891 235.659 18.689 235.863 18.4731C236.037 18.3948 236.212 18.3185 236.389 18.2436C236.57 18.1493 236.749 18.0534 236.928 17.9565C237.413 17.6972 237.909 17.4594 238.419 17.227C238.958 16.9768 239.481 16.7085 239.992 16.4292C240.71 16.0445 241.478 15.7659 242.278 15.4858C242.842 15.2883 243.388 15.0895 243.912 14.8393L244.209 14.7007C244.373 14.6235 244.536 14.5455 244.698 14.4663ZM163.492 14.0483C163.91 14.1283 164.198 14.2674 164.552 14.4448C165.071 14.7023 165.598 14.9306 166.151 15.1469C166.585 15.3193 167.011 15.5028 167.437 15.686C167.665 15.7838 167.895 15.8792 168.126 15.9731C168.438 16.1074 168.724 16.2524 169.016 16.4087C169.198 16.501 169.382 16.5802 169.576 16.6577C169.938 16.8119 169.939 16.8118 170.249 17.0044C170.622 17.2265 170.98 17.358 171.415 17.5063L171.416 17.6596C171.503 17.6687 171.503 17.669 171.592 17.6782C171.925 17.7587 172.126 17.8978 172.392 18.0649C172.747 18.2839 173.093 18.4841 173.493 18.6577L173.842 18.8169L173.843 18.9702L174.061 19.0141C174.419 19.1425 174.617 19.2977 174.89 19.5063C175.227 19.7497 175.599 19.9594 175.969 20.1762C176.359 20.4108 176.732 20.6586 177.104 20.9087C177.332 21.0617 177.332 21.0621 177.642 21.2055L177.643 21.3589H177.854V21.5132L178.17 21.5903C178.337 21.7445 178.337 21.745 178.514 21.9419C178.859 22.3132 179.237 22.6442 179.649 22.976C179.837 23.1315 180.024 23.2877 180.211 23.4438C180.322 23.5364 180.434 23.6285 180.546 23.7202C181.289 24.3353 181.97 25.0162 182.516 25.7329C182.676 25.9812 182.676 25.9814 182.925 26.0551C183.094 26.2877 183.244 26.5257 183.397 26.7641C183.544 26.996 183.545 26.9959 183.877 27.1323C183.99 27.2687 184.095 27.4085 184.194 27.5503C184.378 27.8113 184.54 28.0067 184.828 28.2094C185.125 28.5495 185.373 28.9089 185.583 29.2817C185.707 29.4942 185.844 29.7027 185.979 29.9116C186.256 30.3427 186.495 30.7787 186.717 31.226C186.825 31.4366 186.825 31.437 186.992 31.5844C187.23 31.8186 187.367 32.08 187.516 32.3481C187.548 32.4056 187.58 32.4637 187.613 32.5229C187.873 32.9924 188.099 33.4675 188.31 33.9497C188.427 34.2129 188.427 34.213 188.591 34.478C188.951 35.0915 189.167 35.7476 189.334 36.4018C189.393 36.6136 189.47 36.8201 189.547 37.0288C189.705 37.4759 189.794 37.9217 189.871 38.3794C189.902 38.5546 189.937 38.7298 189.979 38.9038C190.214 39.8909 190.215 40.8954 190.249 41.894C190.251 41.9535 190.254 42.0133 190.256 42.0747C190.266 42.3988 190.263 42.7223 190.254 43.0464C190.252 43.1131 190.251 43.1798 190.249 43.2485C190.223 44.1836 190.143 45.0923 189.922 46.0132C189.846 46.3291 189.799 46.6442 189.755 46.9634C189.556 48.1897 189.083 49.5534 188.277 50.6411C188.143 50.8533 188.058 51.0711 187.968 51.2954C187.695 51.9693 187.296 52.5619 186.839 53.1782C186.607 53.4921 186.388 53.8098 186.177 54.1313C185.899 54.5519 185.635 54.9361 185.186 55.2739C184.916 55.5076 184.744 55.7847 184.551 56.0542C184.391 56.269 184.219 56.4552 183.986 56.6313H183.775C183.737 56.7154 183.736 56.7153 183.696 56.8012C183.554 57.0334 183.392 57.1758 183.153 57.3598C182.926 57.536 182.735 57.6941 182.566 57.9028C182.412 58.0884 182.27 58.1942 182.038 58.3276C181.783 58.4752 181.652 58.5743 181.467 58.7778L181.256 58.7768L181.178 58.9067C180.871 59.3227 180.416 59.6535 179.892 59.9272L179.681 59.9262L179.576 60.1567C179.416 60.2715 179.416 60.2714 179.222 60.3862C179.028 60.5016 178.845 60.6131 178.673 60.7456C178.526 60.8461 178.526 60.8466 178.315 60.8462L178.25 60.9751C177.796 61.534 176.778 61.8966 176.057 62.2534C175.995 62.2843 175.932 62.3153 175.868 62.3471C175.746 62.408 175.623 62.4685 175.5 62.5288C175.174 62.6848 175.173 62.6849 174.953 62.9135C174.639 63.0359 174.318 63.144 173.995 63.2544C173.728 63.3579 173.585 63.4498 173.377 63.602L173.061 63.601C173.033 63.6672 173.033 63.6674 173.005 63.7348C172.775 63.993 172.431 64.0924 172.062 64.2241C171.527 64.4096 171.526 64.4095 171.063 64.6733C170.897 64.7259 170.73 64.7777 170.562 64.8276C170.286 64.9151 170.022 65.0157 169.756 65.1167C169.259 65.2997 168.76 65.448 168.237 65.5844C167.353 65.8162 166.504 66.0956 165.695 66.4467C165.104 66.7001 164.53 66.846 163.866 66.9692C163.215 67.0927 162.597 67.2336 161.975 67.4204C161.482 67.5599 160.975 67.6636 160.467 67.769C160.299 67.8042 160.299 67.8044 160.128 67.8403C159.562 67.9576 158.999 68.0635 158.421 68.144C157.791 68.232 157.204 68.3774 156.6 68.5298C155.739 68.7438 154.931 68.8889 154.021 68.9428C153.838 68.9539 153.656 68.965 153.474 68.976C153.165 68.9947 152.855 69.0132 152.546 69.0307C151.952 69.0656 151.365 69.1134 150.776 69.1792C149.33 69.3394 147.884 69.3709 146.422 69.3833C146.065 69.3865 145.709 69.3911 145.353 69.3979C142.625 69.4487 140.032 69.344 137.345 68.9741C137.266 68.9634 137.188 68.9529 137.107 68.9419C136.39 68.8375 135.706 68.6814 135.045 68.4507C134.651 68.318 134.258 68.2294 133.84 68.146C133.22 68.0213 132.637 67.8634 132.045 67.6831C131.588 67.5449 131.133 67.4321 130.654 67.3413C130.428 67.2841 130.427 67.2842 130.182 67.1733C129.847 67.0302 129.52 66.9572 129.149 66.8745C128.114 66.6316 127.254 66.2623 126.374 65.7973C125.996 65.61 125.597 65.4574 125.191 65.3051C124.96 65.207 124.811 65.109 124.627 64.9692C123.891 64.7193 123.131 64.7455 122.383 64.9409C122.183 64.9986 121.983 65.0578 121.784 65.1176C121.032 65.3349 120.293 65.5303 119.508 65.6753C119.24 65.7257 119.239 65.7251 118.931 65.8462C118.048 66.1669 117.08 66.1311 116.116 66.1255C115.874 66.1242 115.632 66.124 115.39 66.1245C112.827 66.1219 112.826 66.1223 111.783 65.6362C111.472 65.5571 111.155 65.4992 110.835 65.4419C110.202 65.3285 109.705 65.1881 109.147 64.9399C108.922 64.8674 108.922 64.8671 108.72 64.8188C108.259 64.6979 107.833 64.5479 107.415 64.3598C107.137 64.2343 107.137 64.2346 106.782 64.1382C106.364 63.9985 106.105 63.8574 105.773 63.6274L105.772 63.4731H105.562L105.455 63.0884C105.8 62.9211 105.911 62.9158 106.312 62.9106C106.423 62.9087 106.534 62.9067 106.648 62.9048C106.769 62.9032 106.89 62.9015 107.015 62.8999C107.274 62.8944 107.533 62.8882 107.792 62.8823C107.995 62.8778 107.995 62.8781 108.202 62.8735C108.338 62.8705 108.474 62.8678 108.613 62.8647C108.812 62.8605 108.812 62.8603 109.015 62.8559C110.802 62.8124 112.421 62.6544 114.122 62.2495C114.487 62.1644 114.856 62.0905 115.226 62.018C115.483 61.9475 115.659 61.8486 115.875 61.726C116.12 61.6485 116.365 61.5718 116.611 61.4966C116.916 61.4126 116.915 61.4124 117.137 61.2671C117.281 60.8917 117.273 60.6166 117.028 60.268C116.842 60.1368 116.65 60.0201 116.443 59.9057C116.393 59.8728 116.341 59.84 116.289 59.8061V59.6528L116.11 59.5942C115.822 59.4801 115.584 59.3489 115.339 59.1899V59.0366L115.115 58.9926C114.758 58.8619 114.596 58.7109 114.35 58.4868C114.118 58.292 113.855 58.1365 113.578 57.977C113.532 57.9451 113.487 57.9132 113.439 57.8803L113.438 57.727L112.911 57.5717V57.4184L112.734 57.3598C112.441 57.2447 112.195 57.1068 111.935 56.9555C111.794 56.8747 111.793 56.8741 111.649 56.7915L111.434 56.6469V56.4936C111.339 56.4834 111.338 56.4836 111.242 56.4731C110.949 56.4007 110.874 56.3125 110.701 56.1274C110.238 55.6549 109.686 55.3152 109.064 54.9565C108.485 54.6177 107.947 54.2575 107.422 53.8745C107.251 53.7617 107.079 53.6485 106.907 53.5366C106.519 53.2833 106.145 53.0243 105.783 52.7505C105.612 52.6244 105.611 52.6245 105.311 52.4878V52.3335C105.248 52.3129 105.185 52.2922 105.121 52.271C104.886 52.178 104.734 52.0792 104.545 51.9428C104.147 51.69 103.83 51.6195 103.307 51.6382C102.981 51.6661 102.662 51.6963 102.359 51.7905L102.255 52.021C102.092 52.1355 102.092 52.1358 101.895 52.2505C101.637 52.4009 101.498 52.505 101.311 52.7104L101.1 52.7094L101.08 52.8393C100.984 53.0405 100.842 53.1371 100.632 53.2807C100.191 53.6064 99.7883 53.9798 99.5264 54.3969L99.3154 54.396L99.2568 54.5503C99.0758 54.827 98.8333 55.0168 98.5527 55.2426C98.3236 55.4335 98.1433 55.6412 97.9521 55.853C97.7384 56.0524 97.5206 56.2494 97.3018 56.4458C97.1013 56.6249 97.1017 56.6255 96.9033 56.8501H96.6924C96.6825 56.8936 96.6723 56.9371 96.6621 56.9819C96.5711 57.1962 96.4288 57.3237 96.2344 57.4966C95.9736 57.733 95.7511 57.9686 95.5391 58.23L95.3291 58.3071C95.2104 58.4617 95.2098 58.4616 95.1191 58.6137L94.9092 58.6128L94.8896 58.7426C94.7708 58.9911 94.5369 59.1283 94.2793 59.3032C93.6134 59.7768 92.991 60.268 92.4092 60.7973L92.1797 60.9897L91.9688 60.9887C91.9405 61.0347 91.9129 61.0811 91.8838 61.1284C91.7604 61.2954 91.6438 61.3943 91.4541 61.5219C91.3938 61.5628 91.3336 61.6039 91.2715 61.646C91.2073 61.6884 91.1433 61.7311 91.0771 61.7749C91.0116 61.8187 90.9455 61.8625 90.8779 61.9077C89.3739 62.9046 89.3734 62.9044 89.0273 62.9038L88.9238 63.1342L88.6074 63.1333C88.5809 63.1788 88.5547 63.225 88.5273 63.2719C88.0589 63.8848 86.8601 64.2443 86.0498 64.5893C85.8399 64.6797 85.6339 64.7748 85.4287 64.8706C84.8123 65.153 84.1749 65.4152 83.5029 65.6206C83.1896 65.7198 82.9246 65.8286 82.6357 65.9594C82.1226 66.188 81.6039 66.3528 81.0381 66.4995C80.9653 66.5188 80.8924 66.5382 80.8174 66.5581C80.0631 66.7495 79.286 66.8882 78.5127 67.0327C78.3514 67.0633 78.3511 67.0629 78.1865 67.0942C73.5804 67.9522 67.1687 68.1488 62.6221 66.978C62.2949 66.899 61.9633 66.8537 61.625 66.8081C60.4875 66.6459 59.4982 66.4214 58.458 66.0503C58.2067 65.9618 57.9525 65.8778 57.6963 65.7973C57.3989 65.7038 57.1144 65.6027 56.8281 65.4926C56.4942 65.3686 56.1707 65.2657 55.8135 65.1841C55.3664 65.0818 54.968 64.9362 54.5527 64.7788C54.2917 64.6842 54.0293 64.6038 53.7578 64.5268C53.2123 64.371 52.6974 64.1814 52.1768 63.9858C51.944 63.9004 51.7105 63.816 51.4775 63.7309C51.2887 63.6618 51.1 63.5921 50.9111 63.5229L50.9102 63.3696C50.821 63.3554 50.8207 63.3548 50.7295 63.3403C50.4724 63.2882 50.2502 63.2168 50.0098 63.1323C49.9208 63.1012 49.8319 63.0696 49.7402 63.0376C49.6482 63.0051 49.5557 62.9724 49.4609 62.9389C49.3674 62.9062 49.2741 62.8731 49.1777 62.8393C48.9471 62.7585 48.7157 62.6775 48.4854 62.5962V62.4428L48.1426 62.3794C47.7476 62.2874 47.7472 62.2873 47.5605 62.1841C47.2432 62.0115 46.8953 61.8929 46.541 61.7671C45.7729 61.4904 45.0183 61.199 44.2676 60.8979L44.2666 60.7446C44.1281 60.7136 44.1278 60.7137 43.9863 60.6821C43.6471 60.5932 43.3689 60.4893 43.0605 60.354C42.8968 60.2826 42.8967 60.2823 42.7295 60.2094C42.551 60.1306 42.5513 60.1297 42.3691 60.0493C42.1675 59.9605 41.9654 59.8724 41.7637 59.7837C41.627 59.7235 41.49 59.6633 41.3535 59.603C40.9927 59.4442 40.6301 59.2899 40.2598 59.143C39.9125 59.0048 39.6006 58.8472 39.2832 58.6753C39.023 58.5463 38.745 58.4529 38.4619 58.354C38.2616 58.2771 38.0918 58.1923 37.9121 58.0923C37.5128 57.8767 37.0839 57.7246 36.6387 57.5659C36.1556 57.3928 35.68 57.2093 35.2041 57.0259C35.118 56.9928 35.0311 56.9593 34.9424 56.9253C34.604 56.7948 34.27 56.6635 33.9424 56.519C33.7207 56.4138 33.7202 56.4139 33.4443 56.3598C33.1045 56.272 32.8217 56.1651 32.5078 56.0366C32.1108 55.8741 31.7374 55.7377 31.2959 55.6499L31.2949 55.4966L31.0254 55.438C30.6631 55.3413 30.663 55.3413 30.3203 55.1919C30.0332 55.0672 29.7623 54.9902 29.4414 54.9233C28.1843 54.6545 26.9255 54.3696 25.7432 53.9536C25.1398 53.7529 24.5152 53.6454 23.8643 53.5669C23.3723 53.5054 22.9485 53.395 22.4902 53.2524C21.7892 53.0411 21.0718 52.9201 20.3271 52.8266C20.0022 52.7838 19.6815 52.7323 19.3594 52.6792C17.896 52.4457 16.4183 52.2537 14.9297 52.1352C14.5292 52.1032 14.1382 52.0594 13.7432 52.0014C13.151 51.9263 12.5638 51.9027 11.9648 51.8842C11.8557 51.8808 11.7463 51.878 11.6338 51.8745C10.7279 51.848 9.82236 51.8352 8.91602 51.8266C8.77845 51.8253 8.64076 51.8241 8.49902 51.8227C7.93133 51.8172 7.3636 51.8117 6.7959 51.8081C6.51029 51.8062 6.22407 51.8044 5.93848 51.8012C5.67286 51.7984 5.40723 51.7964 5.1416 51.7954C5.02336 51.7939 4.90502 51.792 4.7832 51.7905C4.6792 51.7897 4.57492 51.7894 4.46777 51.7885C4.38584 51.7785 4.30317 51.7677 4.21875 51.7573C4.0076 51.5268 4.00721 51.5266 4 51.354C4.1676 51.0356 4.4846 50.8174 4.84668 50.6059L5.05762 50.6069L5.16211 50.3764C5.33279 50.2949 5.50953 50.2197 5.6875 50.1469C5.83243 50.0758 5.97707 50.0043 6.12109 49.9321C6.65785 49.6701 7.21972 49.4495 7.79004 49.229C7.98287 49.1527 8.17559 49.0761 8.36816 48.9995C8.51243 48.943 8.51292 48.9438 8.66016 48.8862C8.84718 48.811 9.03213 48.7317 9.21387 48.6499C10.3584 48.1494 11.6729 48.0115 12.9834 47.894C13.2022 47.8728 13.4207 47.8493 13.6377 47.8198C14.4726 47.708 15.2802 47.6808 16.1289 47.685C16.2661 47.6854 16.4036 47.6856 16.5449 47.686C17.7301 47.6946 18.8825 47.794 20.0537 47.9214C20.4154 47.9569 20.7744 47.9726 21.1387 47.9868C21.6616 48.0106 22.1146 48.083 22.6143 48.1958C23.0577 48.2796 23.5043 48.3238 23.957 48.3716C24.6954 48.4518 25.325 48.5745 26.0059 48.8032C26.1984 48.8541 26.3915 48.9037 26.585 48.9526C27.9723 49.3182 27.9728 49.3186 28.3252 49.5757C28.5355 49.5914 28.5359 49.5908 28.7793 49.5903C28.8613 49.5915 28.9438 49.5929 29.0283 49.5942C29.2984 49.5751 29.4656 49.5302 29.6934 49.4243C29.9983 48.7895 29.7214 48.1232 29.4756 47.5034C29.4501 47.4376 29.4247 47.3719 29.3984 47.3042C29.2497 46.9494 29.0756 46.7093 28.7344 46.4262L28.7334 46.2729H28.5234L28.417 45.9653L28.2061 45.9643L28.127 45.7817C27.974 45.5484 27.8827 45.528 27.5723 45.4253L27.4658 45.1948C27.3279 45.14 27.1873 45.0887 27.0449 45.0405C26.9343 44.9723 26.8256 44.9014 26.7207 44.8286C26.3173 44.5675 25.871 44.3947 25.3936 44.2153C25.1456 44.1154 25.1454 44.1152 24.9346 43.9614C24.9733 43.76 24.9731 43.7595 25.0381 43.5776C26.396 43.2121 27.9276 43.1273 29.3545 43.2778C29.4536 43.2883 29.5532 43.2993 29.6553 43.31C30.4351 43.3945 31.2121 43.4893 31.9883 43.5903C32.113 43.6063 32.1132 43.6062 32.2402 43.6225C32.9541 43.7161 33.5141 43.8002 34.0967 44.1323C34.271 44.1865 34.4453 44.2411 34.6201 44.2944C35.0195 44.4252 35.3962 44.5876 35.7764 44.7456C36.3078 44.9656 36.8411 45.1778 37.3887 45.3755C37.6366 45.4673 37.8736 45.5699 38.1104 45.6762C38.402 45.8069 38.6904 45.9305 38.9932 46.0473C39.7517 46.3619 40.419 46.7941 40.9521 47.2944C41.2393 47.4784 41.4342 47.5913 41.7969 47.6801V47.8344C41.8586 47.8549 41.9208 47.8749 41.9844 47.896C42.227 47.9915 42.3988 48.0946 42.5996 48.2319C42.6702 48.2801 42.7407 48.3288 42.8135 48.3784C42.8871 48.4294 42.9612 48.4801 43.0371 48.5327C43.1125 48.5845 43.188 48.6365 43.2656 48.6899C43.739 49.0183 44.1872 49.3525 44.6064 49.7182C44.7463 49.8462 44.7468 49.8467 44.9639 49.9145V50.0678C45.0256 50.0877 45.0877 50.1079 45.1514 50.1284C45.4059 50.2306 45.5643 50.3392 45.7627 50.4936C45.8313 50.5469 45.9001 50.5999 45.9707 50.6548C46.0412 50.7104 46.1119 50.7663 46.1846 50.8237C46.2555 50.8785 46.3263 50.9342 46.3994 50.9907C46.745 51.2612 47.0359 51.5164 47.2871 51.8393L47.498 51.9165L47.6045 52.1469C47.7798 52.2736 47.7802 52.2742 47.9941 52.3979C48.3507 52.6177 48.6522 52.8462 48.9434 53.1118C49.0961 53.2458 49.0965 53.2456 49.3994 53.3794V53.5337C49.4624 53.5538 49.5259 53.5735 49.5908 53.5942C49.837 53.6939 49.9633 53.7887 50.1387 53.9477C50.3216 54.1104 50.4987 54.2575 50.7061 54.4048C50.8777 54.5347 50.8774 54.5353 50.8779 54.6889L51.0566 54.7417C51.3701 54.8719 51.5874 55.033 51.8281 55.228V55.3813C51.8868 55.3999 51.9463 55.4188 52.0068 55.438C52.303 55.557 52.5279 55.7028 52.7783 55.8686C52.912 55.9562 52.9123 55.9559 53.0488 56.0454C53.301 56.2255 53.5214 56.4063 53.7285 56.6147L53.7295 56.768L53.9336 56.8305C54.151 56.9221 54.1509 56.9226 54.2568 57.1528L54.4414 57.1821C54.7912 57.2536 54.9586 57.4261 55.2061 57.6157L55.4502 57.7456L55.6289 57.8471V58.0005L55.8857 58.0395C56.3466 58.1818 56.6359 58.3849 56.9951 58.6352C57.2082 58.7876 57.2084 58.7873 57.5273 58.8491L57.5283 59.0034C57.6047 59.0241 57.6811 59.0446 57.7598 59.0659C58.0516 59.1566 58.2986 59.2612 58.5625 59.3891C58.6458 59.4289 58.7296 59.4683 58.8154 59.5092C58.9091 59.5641 58.9093 59.5646 59.0049 59.6206V59.7739L59.2891 59.8374C59.6375 59.9291 59.6378 59.929 59.8604 60.0337C60.2773 60.2071 60.7134 60.3131 61.166 60.4262C61.2595 60.45 61.3539 60.474 61.4502 60.4985C62.0843 60.6585 62.721 60.8069 63.3662 60.9409C63.6633 61.0174 63.9021 61.1244 64.1709 61.2436C64.9058 61.4417 65.6882 61.5308 66.459 61.6186C66.8457 61.6649 67.1901 61.7271 67.5557 61.8315C68.2152 61.9994 68.8859 61.9816 69.5762 61.979C69.646 61.9789 69.7162 61.979 69.7881 61.979C70.8236 61.9767 71.7923 61.906 72.7979 61.7319C73.5585 61.6011 74.3364 61.5341 75.1113 61.4614C75.8369 61.3876 76.4533 61.2507 77.1221 61.0376C77.8036 60.8572 78.5003 60.7205 79.2012 60.5854C79.5313 60.5069 79.7739 60.4075 80.0674 60.2749C80.2433 60.2202 80.2434 60.2203 80.4229 60.1645C80.8095 60.044 81.1706 59.9032 81.5332 59.7495C81.6288 59.7095 81.629 59.7093 81.7266 59.6684C82.081 59.5192 82.4305 59.3652 82.7754 59.2046C83.1166 59.0518 83.1167 59.0518 83.3271 59.0522V58.8989C83.4988 58.8184 83.6747 58.7425 83.8525 58.6694C84.1175 58.5385 84.3783 58.4037 84.6396 58.269C84.8014 58.1857 84.9644 58.1025 85.1279 58.021C85.4352 57.8665 85.6394 57.7504 85.8486 57.521H86.165L86.2695 57.2905C86.4373 57.1726 86.438 57.1722 86.6504 57.0464C87.0309 56.8116 87.3542 56.561 87.6768 56.2846C87.8964 56.0977 88.1199 55.9245 88.3691 55.7583L88.5801 55.7592L88.665 55.6294C88.9 55.2942 89.1315 55.0117 89.5244 54.7622H89.7344C89.7615 54.7221 89.7894 54.6824 89.8174 54.6411C89.9776 54.4074 90.1398 54.1748 90.3047 53.9428C90.3672 53.8539 90.4297 53.7649 90.4941 53.6733C90.678 53.4586 90.6777 53.4585 90.9932 53.3823C91.003 53.326 91.0133 53.2694 91.0234 53.2114C91.108 52.9684 91.2296 52.8517 91.4512 52.6626C91.7755 52.371 91.9654 52.1213 92.1455 51.771C92.2962 51.5357 92.4507 51.3204 92.6494 51.105C92.8467 50.8865 93.0173 50.6683 93.1865 50.438C93.5701 49.9166 93.9989 49.4238 94.4512 48.9331L94.6748 48.6792C94.8714 48.4732 94.8709 48.4723 95.0811 48.396L95.1855 48.1665C95.3583 48.0371 95.5338 47.9088 95.7109 47.7827C96.0894 47.476 96.0764 47.2289 96.0625 46.8286C96.0425 46.6164 96.0425 46.6162 95.8115 46.4341L95.6006 46.3237L95.5996 46.1694L95.4336 46.1137C95.0947 45.9825 94.7814 45.8271 94.4658 45.6684C94.4023 45.6373 94.3389 45.6058 94.2734 45.5737C94.1138 45.4935 93.9598 45.4074 93.8066 45.3208L93.8057 45.1675L93.5684 45.1098C93.2527 45.0047 93.1 44.8822 92.8564 44.7046C92.6465 44.6259 92.4353 44.5492 92.2236 44.4731C91.9763 44.3554 91.7327 44.2338 91.4902 44.1108C91.2679 43.9985 91.2676 43.9986 90.958 43.9331V43.7798L90.7207 43.7114C90.4764 43.6381 90.2429 43.5591 90.0088 43.4702L90.0078 43.3169C89.8706 43.2867 89.8705 43.2862 89.7305 43.2553C89.3746 43.1613 89.0848 43.0453 88.7627 42.9009C87.8216 42.4791 86.8797 42.2399 85.8174 42.0317C85.5852 41.9857 85.3531 41.9395 85.1211 41.893C85.0196 41.8731 84.9181 41.853 84.8135 41.8325C84.5269 41.77 84.5266 41.7699 84.2666 41.6899C83.9597 41.6041 83.6735 41.5687 83.3486 41.5346C83.2249 41.5214 83.1002 41.5083 82.9727 41.4946C82.8444 41.4813 82.7161 41.4672 82.584 41.4536C82.3296 41.4266 82.0747 41.3995 81.8203 41.3725C81.652 41.355 81.6515 41.3553 81.4795 41.3374C81.2598 41.3136 81.0401 41.288 80.8213 41.2602C79.8033 41.1387 78.8163 41.1991 77.8291 41.3901C77.4116 41.4591 77.001 41.4862 76.5752 41.5141C75.7583 41.5734 75.0592 41.7257 74.3135 41.9809C74.2167 42.0139 74.1193 42.0465 74.0195 42.0805C72.4669 42.6546 71.4399 43.4337 70.46 44.4634C70.4142 44.5035 70.3684 44.5441 70.3213 44.5854L70.1113 44.5844L70.0244 44.7514C69.9031 44.9662 69.7622 45.1664 69.6133 45.3716C69.039 46.2098 68.5484 47.0897 68.5439 48.0385C68.5404 48.1609 68.5367 48.2834 68.5332 48.4057C68.5083 49.6305 68.5838 50.7469 69.2959 51.8813C69.3582 51.9829 69.3582 51.9835 69.4219 52.0874C69.9241 52.8614 70.6338 53.6334 71.5547 54.1753L71.832 54.3442L71.833 54.4975L72.0635 54.561C72.3595 54.6526 72.3596 54.6527 72.6016 54.7592C74.424 55.5568 76.5146 55.7223 78.5752 55.3559C79.5221 55.1427 80.4443 54.854 81.3154 54.5112C81.5198 54.439 81.5201 54.4395 81.751 54.4057C81.8136 54.3918 81.8768 54.3781 81.9414 54.3637L82.0449 54.1333C82.2776 53.9936 82.2783 53.9936 82.5645 53.851C82.6586 53.8034 82.7526 53.7556 82.8496 53.7065C83.0963 53.5975 83.0964 53.5977 83.3066 53.5981L83.4111 53.3676C83.629 53.2111 83.6297 53.2106 83.9043 53.0464C83.9933 52.9917 84.0821 52.9366 84.1738 52.8803C84.5089 52.7339 84.709 52.7305 85.0938 52.7563C85.3024 53.0595 85.2071 53.3595 85.0977 53.6782C84.653 54.4859 84.0057 55.183 83.21 55.8257C83.0787 55.9357 82.9474 56.0456 82.8164 56.1557C82.7628 56.1997 82.7095 56.2442 82.6543 56.2895C82.5091 56.4108 82.3715 56.5367 82.2373 56.6645C81.9444 56.9214 81.611 57.0751 81.2148 57.2378C81.1458 57.2669 81.076 57.2966 81.0049 57.3266C80.7953 57.4146 80.5842 57.5014 80.373 57.5874C80.2523 57.6367 80.1312 57.686 80.0068 57.7368C79.0229 58.1296 78.0626 58.4816 76.9697 58.6801C76.6274 58.7446 76.2961 58.8262 75.9629 58.9116C74.2781 59.2936 72.3098 58.9212 70.7021 58.4956C70.6038 58.4696 70.5056 58.4432 70.4043 58.4165C69.9036 58.2772 69.5101 58.1383 69.1074 57.8725L68.8105 57.7475L68.5801 57.6411L68.5791 57.4878C68.5234 57.483 68.4676 57.478 68.4102 57.4731C68.0422 57.381 67.7809 57.2035 67.4912 57.02C67.4303 56.9819 67.3693 56.943 67.3066 56.9038C66.8434 56.6091 66.4279 56.2985 66.0459 55.9467C65.9785 55.8859 65.9112 55.8248 65.8418 55.7622C65.3197 55.2825 64.8139 54.8076 64.46 54.2505C64.3371 54.0741 64.1908 53.9164 64.0371 53.7534C62.572 52.1764 62.2159 50.2237 62.2021 48.3686C62.2005 48.2011 62.1963 48.0332 62.1924 47.8657C62.1818 47.0987 62.3071 46.3946 62.5332 45.646C62.5575 45.5629 62.5814 45.4796 62.6064 45.394C62.872 44.512 63.2892 43.6259 63.9971 42.8833C64.1092 42.7535 64.2214 42.6236 64.333 42.4936C64.8809 41.8584 65.4503 41.2547 66.2002 40.7358L66.3652 40.6108C66.5162 40.4964 66.6736 40.3866 66.8311 40.2768H67.041V40.1235L67.2383 40.061C67.4927 39.9739 67.493 39.9738 67.6709 39.7407H67.9873L68.0918 39.5112C68.4578 39.2646 68.8545 39.0454 69.2471 38.8217C69.3421 38.764 69.3425 38.7635 69.4395 38.7046C69.9118 38.4317 70.4446 38.3015 71.0078 38.1528C71.3073 38.0694 71.5809 37.9763 71.8633 37.8667C73.0411 37.4262 74.3748 37.1945 75.6641 36.9897C75.7342 36.9782 75.8047 36.9665 75.877 36.9546C77.8877 36.633 79.9569 36.7159 81.9941 36.8725C82.1158 36.8818 82.238 36.8913 82.3633 36.9009C83.0473 36.9596 83.6535 37.0632 84.2988 37.2368C84.4978 37.2761 84.6979 37.3134 84.8984 37.3481C86.1747 37.5775 87.4862 37.8211 88.6924 38.2104C88.953 38.2933 89.1944 38.3578 89.4639 38.4184C89.9328 38.5299 90.3742 38.676 90.8203 38.8286C90.8894 38.8522 90.9591 38.8766 91.0303 38.9009C91.3322 39.0056 91.6099 39.1127 91.8887 39.2485V39.4018C91.948 39.4108 92.0082 39.42 92.0693 39.4292C92.9594 39.6155 93.7896 40.0797 94.584 40.4243C95.2576 40.7153 95.9424 40.9891 96.6348 41.2553V41.4087L96.8389 41.4614C97.4992 41.6689 98.084 41.9232 98.6387 42.2573C99.9425 42.9632 99.9429 42.9633 101.485 43.1079C102.202 42.9624 102.766 42.6394 103.348 42.313C103.588 42.1899 103.588 42.1905 103.799 42.1909L103.798 42.0366C104.081 41.8947 104.376 41.7706 104.671 41.643C104.944 41.5066 105.078 41.3874 105.269 41.1948C105.51 41.1121 105.756 41.0356 106.005 40.9653C106.216 40.8901 106.426 40.8132 106.636 40.7358C106.769 40.6873 106.903 40.6397 107.036 40.5913C107.106 40.5658 107.177 40.5404 107.249 40.5141C107.891 40.2809 107.891 40.2809 108.104 40.2036C108.249 40.1509 108.393 40.0967 108.536 40.0425C108.963 39.8824 109.372 39.7605 109.837 39.6665C110.484 39.5286 111.082 39.3511 111.685 39.1323C111.833 39.1124 111.983 39.0955 112.133 39.0805C112.223 39.0713 112.313 39.0627 112.405 39.0532C112.593 39.0343 112.781 39.0154 112.969 38.9966C113.397 38.9523 113.814 38.9035 114.233 38.8247C114.916 38.7119 115.613 38.7226 116.31 38.7241C116.383 38.7241 116.457 38.724 116.532 38.7241C118.322 38.7304 120.268 38.8251 121.844 39.5044C122.243 39.667 122.666 39.7546 123.103 39.8491C123.386 39.9259 123.559 40.0208 123.798 40.1548C124.031 40.2426 124.266 40.3277 124.503 40.4106C125.04 40.6023 125.541 40.8088 126.032 41.06C126.232 41.165 126.232 41.1657 126.494 41.269C127.105 41.5552 127.612 41.9412 128.123 42.3139C128.241 42.3866 128.36 42.4589 128.479 42.5307C128.9 42.7903 129.248 43.0852 129.602 43.3921L129.865 43.6089C130.249 43.948 130.552 44.3284 130.87 44.7007C130.96 44.8038 131.051 44.9072 131.142 45.0102C131.236 45.1185 131.33 45.2271 131.425 45.3354C131.47 45.3863 131.515 45.4364 131.562 45.4887C131.766 45.7249 131.951 45.9565 132.099 46.2143C132.23 46.4428 132.38 46.6384 132.557 46.8491C132.93 47.3396 133.1 47.8478 133.26 48.3901C133.304 48.5388 133.352 48.6873 133.399 48.8354C133.621 49.5599 133.708 50.2666 133.736 51.0053C133.739 51.0655 133.742 51.1259 133.744 51.188C133.798 52.6567 133.63 54.0805 133.084 55.4946C133.005 55.7028 133.006 55.7035 132.972 55.978C132.9 56.2839 132.718 56.5068 132.494 56.7641C132.184 57.1358 131.957 57.5033 131.762 57.9145L131.631 58.1499C131.508 58.5039 131.608 58.8023 131.766 59.144L131.977 59.145L131.978 59.2983C132.271 59.347 132.565 59.3954 132.859 59.4438C132.941 59.4573 133.023 59.4709 133.107 59.4848C133.626 59.5701 134.145 59.65 134.666 59.726C134.919 59.7631 135.172 59.801 135.425 59.8393C135.508 59.8518 135.591 59.8646 135.677 59.8774C135.841 59.9021 136.006 59.9275 136.17 59.9526C136.457 59.9956 136.746 60.0358 137.034 60.0757C137.102 60.085 137.17 60.0943 137.24 60.104C138.398 60.2617 139.54 60.3618 140.715 60.4048C140.796 60.4079 140.877 60.4113 140.96 60.4145C143.834 60.5251 146.818 60.6309 149.672 60.3305C149.774 60.32 149.876 60.3091 149.98 60.2983C151.528 60.1367 151.528 60.1374 153.012 59.7944C153.265 59.7186 153.518 59.663 153.782 59.6089C154.529 59.4506 155.214 59.2517 155.879 58.9594C156.205 58.8398 156.534 58.7237 156.863 58.6079C157.148 58.5109 157.148 58.5114 157.352 58.3481C157.714 58.2267 158.052 58.126 158.437 58.0473C158.733 57.9855 158.733 57.9853 158.863 57.8032L158.929 57.6596H159.244C159.272 57.6133 159.3 57.5667 159.328 57.519C159.46 57.3446 159.573 57.2663 159.788 57.1469C160.172 56.9171 160.457 56.6585 160.753 56.3686C160.923 56.2036 160.924 56.2031 161.199 55.978C161.826 55.3875 162.137 54.6778 162.449 53.9741C162.49 53.8823 162.531 53.7903 162.573 53.6958C163.386 51.8463 164.128 49.6207 163.468 47.685C163.385 47.4185 163.384 47.1844 163.416 46.9126C163.809 46.7219 164.119 46.7288 164.574 46.7612C164.828 46.8021 165.064 46.8559 165.312 46.9165L165.312 47.0698L165.694 47.143C166.618 47.3671 167.543 47.8365 168.266 48.3051L168.371 48.5356C168.445 48.5862 168.445 48.5866 168.52 48.6382C168.745 48.8105 168.833 48.988 168.953 49.2085C168.999 49.2903 169.045 49.3731 169.092 49.4575C169.166 49.593 169.239 49.7289 169.312 49.8647C169.456 50.1266 169.519 50.2198 169.853 50.3823C170.29 50.3831 170.445 50.3338 170.76 50.1098C171.36 49.512 171.576 48.8847 171.739 48.1577C171.757 48.0806 171.775 48.0037 171.793 47.9243C171.936 47.2512 171.985 46.5928 171.981 45.9116C171.981 45.8329 171.982 45.8326 171.981 45.7524C171.972 44.2327 171.679 42.7886 170.886 41.3764C170.683 41.0148 170.488 40.6521 170.302 40.2856C169.626 39.0086 168.68 37.8896 167.439 36.8618C167.169 36.6262 167.169 36.6257 167.168 36.4721L166.853 36.395C166.78 36.2364 166.78 36.2363 166.746 36.0874H166.535C166.386 35.9716 166.386 35.9713 166.212 35.813C165.858 35.5069 165.473 35.2765 165.028 35.0434C164.968 35.0067 164.908 34.97 164.846 34.9321V34.7778L164.602 34.7153C164.318 34.6236 164.319 34.6231 164.177 34.519C163.878 34.3023 163.515 34.1479 163.166 33.978C163.094 33.9368 163.021 33.8955 162.946 33.853V33.6987L162.419 33.6216V33.4673L162.148 33.4096C161.786 33.313 161.786 33.3125 161.444 33.1626C159.674 32.4109 156.807 32.3149 154.854 32.6704C154.357 32.7675 153.92 32.8907 153.467 33.0669C153.488 33.2175 153.488 33.2176 153.573 33.3735C153.755 33.4553 153.755 33.4558 153.985 33.4975C154.071 33.516 154.157 33.5342 154.245 33.5532C154.794 33.658 155.347 33.7511 155.901 33.8403C156.806 33.9922 157.632 34.2354 158.461 34.5405C158.564 34.578 158.667 34.6151 158.773 34.6538C159.028 34.7563 159.246 34.8695 159.476 34.9985L159.792 35.1137C160.069 35.2151 160.299 35.3119 160.53 35.4614L160.531 35.6147L160.742 35.6157V35.769L161.059 35.8462C161.567 36.2599 162.063 36.7129 162.256 37.2573C162.328 37.475 162.328 37.4757 162.464 37.7319C163.16 39.1758 163.215 40.9764 162.347 42.3784C162.299 42.4602 162.251 42.5422 162.201 42.6264C161.753 43.336 161.146 43.9976 160.354 44.5259L160.196 44.6499C159.988 44.7888 159.755 44.8791 159.513 44.9848C159.388 45.0579 159.263 45.132 159.139 45.2055C158.611 45.498 158.025 45.6542 157.41 45.8257C157.323 45.8523 157.237 45.8793 157.147 45.9067C155.89 46.2926 154.62 46.524 153.253 46.5229C153.169 46.523 153.084 46.5228 152.997 46.5229C152.819 46.523 152.642 46.5223 152.464 46.5219C152.197 46.5216 151.93 46.5229 151.663 46.5239C148.631 46.5258 148.631 46.5254 147.472 46.0005C147.183 45.8775 146.916 45.8095 146.597 45.7387C146.082 45.6174 145.612 45.4697 145.135 45.2837C144.866 45.1805 144.865 45.1803 144.53 45.0815C144.096 44.947 143.691 44.7802 143.282 44.6089C143.209 44.5787 143.136 44.5481 143.062 44.5171C142.921 44.4585 142.78 44.3996 142.64 44.3403C142.484 44.2748 142.326 44.2111 142.169 44.1479C141.868 44.0027 141.646 43.8356 141.396 43.645C141.255 43.5413 141.113 43.4377 140.971 43.3344C140.028 42.6464 140.027 42.6457 139.805 42.4829C139.682 42.3935 139.557 42.3048 139.432 42.2173C139.192 42.0493 139.075 41.9542 138.967 41.7192C138.862 41.6421 138.756 41.5655 138.65 41.4887C138.508 41.3415 138.37 41.192 138.234 41.0415C138.164 40.9632 138.092 40.8848 138.02 40.8042C137.949 40.7253 137.878 40.6461 137.805 40.5649C137.553 40.2874 137.295 40.0158 137.025 39.7475C135.342 37.991 134.685 35.7692 134.692 33.6645C134.692 33.611 134.692 33.5575 134.692 33.5024C134.693 32.66 134.771 31.8551 135.031 31.0337C135.055 30.9496 135.079 30.8654 135.104 30.7788C135.249 30.3003 135.468 29.8609 135.736 29.4126C135.856 29.21 135.96 29.0058 136.062 28.7983C136.257 28.4358 136.536 28.1396 136.854 27.8286C137.024 27.6646 137.024 27.6644 137.127 27.4917C137.229 27.351 137.229 27.3506 137.544 27.1977C137.635 27.0787 137.72 26.9568 137.8 26.8335C138.189 26.2902 138.726 25.8575 139.283 25.4048C139.43 25.2832 139.57 25.1587 139.709 25.0327C139.921 24.8527 140.097 24.731 140.364 24.601C140.672 24.4407 140.907 24.2789 141.146 24.0649C141.58 23.6845 142.115 23.3971 142.689 23.1362H142.899L143.004 22.9057C143.165 22.813 143.165 22.8131 143.372 22.7241C143.486 22.6751 143.486 22.6755 143.603 22.6255C143.682 22.592 143.762 22.5584 143.845 22.5239C143.922 22.4904 143.999 22.4569 144.078 22.4223C144.613 22.1955 145.144 22.0376 145.738 21.9126L145.737 21.7592L146.158 21.6831V21.5298C149.858 20.8418 154.584 20.5628 158.059 21.936C158.292 22.0062 158.527 22.074 158.764 22.1391C158.877 22.1704 158.99 22.2016 159.106 22.2339C159.213 22.2632 159.319 22.2925 159.429 22.3227C160.089 22.5098 160.73 22.7138 161.364 22.9448C161.695 23.0324 161.926 23.054 162.274 23.02C162.5 22.8688 162.581 22.7761 162.611 22.5532C162.547 22.174 162.436 21.8287 162.275 21.4643C161.77 20.2389 161.792 18.9085 161.833 17.6411C161.835 17.5503 161.836 17.4593 161.838 17.3657C161.867 16.7963 162.009 16.2525 162.175 15.6977C162.196 15.6272 162.217 15.5565 162.238 15.4839C162.704 14.0097 162.705 14.0094 163.492 14.0483ZM295.258 45.9585C294.044 45.8114 292.815 45.694 291.605 45.8979C291.521 45.916 291.438 45.9331 291.355 45.9507C291.033 46.0171 290.779 46.1002 290.484 46.2202C290.14 46.3677 289.788 46.5 289.431 46.6294C289.354 46.6568 289.28 46.6838 289.206 46.7104C289.055 46.7649 288.904 46.819 288.753 46.8735C288.637 46.9153 288.524 46.956 288.411 46.9966V47.1509L287.99 47.227L287.991 47.3803C287.807 47.3989 287.807 47.3991 287.57 47.4565C286.92 47.8877 286.377 48.4259 286.069 49.0278L285.997 49.2202L285.786 49.2192C285.51 49.5457 285.256 49.8567 285.152 50.2368C285.106 50.4365 285.047 50.6176 284.955 50.8091C284.665 51.4061 284.585 51.9354 284.594 52.562C284.598 52.7297 284.602 52.8972 284.604 53.0649C284.605 53.5244 284.589 53.9722 284.749 54.4204C284.786 54.5059 284.823 54.5893 284.859 54.6723C284.893 54.7712 284.925 54.8673 284.958 54.9634C284.992 55.0636 285.025 55.161 285.059 55.2583C285.189 55.6488 285.313 55.922 285.707 56.2104C286.42 56.3614 286.859 56.2326 287.496 55.9829V55.8296C287.812 55.8302 287.812 55.8303 287.958 55.729C288.124 55.5921 288.124 55.5915 288.361 55.4936C288.773 55.3247 289.172 55.16 289.526 54.9311C289.81 54.7444 290.105 54.5724 290.409 54.4038C290.999 54.0779 291.577 53.7479 292.12 53.3803C292.222 53.3012 292.327 53.2236 292.436 53.1499L292.751 53.0737C292.966 52.8401 292.966 52.8398 293.271 52.6616C293.385 52.594 293.499 52.5267 293.612 52.4585C293.671 52.4232 293.727 52.3882 293.784 52.354C293.983 52.2347 294.181 52.1152 294.379 51.9956C294.455 51.9487 294.529 51.9034 294.603 51.8579C294.818 51.7261 294.948 51.6302 295.084 51.4497C295.125 51.3804 295.125 51.3801 295.166 51.312C295.377 51.3124 295.377 51.312 295.686 51.1206C295.917 50.971 296.15 50.8321 296.399 50.6987C296.901 50.4391 297.391 50.198 297.793 49.8569C297.86 49.7535 297.929 49.6511 298.003 49.5503L298.22 49.5073L298.424 49.4741L298.528 49.2436L298.738 49.2446C299.162 49.044 299.493 48.8015 299.736 48.478C299.907 48.1965 299.927 48.0082 299.786 47.7094C299.44 47.2216 299.439 47.2213 297.365 46.5649C297.187 46.5107 297.01 46.4542 296.833 46.3979C296.378 46.1922 296.013 46.0531 295.479 45.9829C295.404 45.9744 295.33 45.9667 295.258 45.9585ZM119.446 46.1762C117.942 45.4654 116.252 45.3115 114.507 45.5317C114.406 45.5452 114.308 45.5577 114.211 45.5708C113.67 45.6358 113.162 45.6891 112.686 45.895C112.354 46.0551 112.354 46.0545 111.994 46.1391C111.21 46.3158 110.557 46.5444 109.875 46.8755C109.488 47.1168 109.219 47.3591 109.146 47.7319C109.221 48.1034 109.418 48.3541 109.776 48.6235C110.076 48.8125 110.374 49.0024 110.671 49.1938C110.844 49.324 111.019 49.4536 111.198 49.5796H111.409L111.41 49.7339C111.471 49.77 111.529 49.8053 111.588 49.8403C112.15 50.1281 112.694 50.4431 113.185 50.7934C113.488 51.0207 113.768 51.2327 114.187 51.3325L114.364 51.352L114.365 51.5063C114.421 51.5387 114.475 51.5705 114.529 51.602C114.776 51.728 114.776 51.728 114.953 51.8413C115.015 51.8815 115.076 51.9204 115.137 51.9594C115.266 52.0426 115.396 52.1262 115.525 52.2094C115.592 52.2531 115.658 52.295 115.723 52.3374C115.788 52.379 115.852 52.42 115.915 52.4604C116.088 52.572 116.088 52.5716 116.265 52.6616C116.406 52.6847 116.547 52.7108 116.687 52.7397L116.792 52.9702L117.01 53.0229L117.214 53.0473L117.215 53.2778C117.462 53.4408 117.462 53.4408 118.029 53.7348C118.396 53.9222 118.769 54.0991 119.077 54.3374C119.27 54.5165 119.419 54.6591 119.682 54.7856C119.946 54.8866 119.946 54.8864 120.13 54.9848C120.383 55.1211 120.632 55.2552 120.904 55.3706C121.083 55.4422 121.26 55.5156 121.436 55.5903L121.541 55.7446C122.028 55.9166 122.513 56.0541 123.056 56.0551C123.498 55.933 123.79 55.7791 123.989 55.4614C124.02 55.3798 124.049 55.3004 124.079 55.2212C124.128 55.097 124.176 54.9726 124.219 54.8471C124.238 54.7884 124.257 54.7313 124.275 54.6743C124.497 54.0289 124.625 53.4216 124.622 52.7544C124.62 52.6581 124.617 52.5646 124.615 52.4712C124.615 51.6019 124.53 50.809 124.12 49.9868C124.091 49.9299 124.062 49.875 124.033 49.8198C123.933 49.6194 123.831 49.4191 123.729 49.2192L123.518 49.2182L123.199 48.5268L122.988 48.5259C122.988 48.3726 122.988 48.3723 122.811 48.1723C122.693 48.0548 122.693 48.0551 122.578 47.9399C122.439 47.7987 122.295 47.6594 122.143 47.5259H121.932C121.812 47.2657 121.812 47.2657 121.364 47.0122C121.301 46.9775 121.241 46.9433 121.18 46.9096C120.82 46.7028 120.491 46.5369 120.071 46.3989C119.723 46.302 119.723 46.3013 119.446 46.1762Z" fill="url(#paint1_linear_0_4)"/>
</g>
<defs>
<filter id="filter0_d_0_4" x="0" y="0.0598302" width="409.016" height="77.5799" filterUnits="userSpaceOnUse" color-interpolation-filters="sRGB">
<feFlood flood-opacity="0" result="BackgroundImageFix"/>
<feColorMatrix in="SourceAlpha" type="matrix" values="0 0 0 0 0 0 0 0 0 0 0 0 0 0 0 0 0 0 127 0" result="hardAlpha"/>
<feOffset dy="4"/>
<feGaussianBlur stdDeviation="2"/>
<feComposite in2="hardAlpha" operator="out"/>
<feColorMatrix type="matrix" values="0 0 0 0 0 0 0 0 0 0 0 0 0 0 0 0 0 0 0.25 0"/>
<feBlend mode="normal" in2="BackgroundImageFix" result="effect1_dropShadow_0_4"/>
<feBlend mode="normal" in="SourceGraphic" in2="effect1_dropShadow_0_4" result="shape"/>
</filter>
<linearGradient id="paint0_linear_0_4" x1="205.744" y1="67.9838" x2="203.133" y2="-4.08145" gradientUnits="userSpaceOnUse">
<stop stop-color="#FFD073"/>
<stop offset="0.5" stop-color="#E8CC83"/>
<stop offset="1" stop-color="#FFC03F"/>
</linearGradient>
<linearGradient id="paint1_linear_0_4" x1="205.886" y1="69.6393" x2="205.593" y2="10.5795" gradientUnits="userSpaceOnUse">
<stop stop-color="#FFD073"/>
<stop offset="0.5" stop-color="#E8CC83"/>
<stop offset="1" stop-color="#FFC03F"/>
</linearGradient>
</defs>
</svg>
