<svg width="1923" height="193" viewBox="0 0 1923 193" fill="none" xmlns="http://www.w3.org/2000/svg">
<path d="M961 43.6609C1171.93 43.6609 1362.74 81.8884 1500.71 143.569C1569.7 174.411 1625.35 211.059 1663.7 251.601C1702.05 292.128 1723 336.411 1723 382.661C1723 428.911 1702.05 473.194 1663.7 513.721C1625.35 554.263 1569.7 590.911 1500.71 621.753C1362.74 683.433 1171.93 721.661 961 721.661C750.073 721.661 559.258 683.433 421.288 621.753C352.299 590.911 296.654 554.263 258.297 513.721C219.954 473.194 199 428.911 199 382.661C199 336.411 219.954 292.128 258.297 251.601C296.654 211.059 352.299 174.411 421.288 143.569C559.258 81.8884 750.073 43.6609 961 43.6609Z" fill="url(#paint0_linear_731_470)" stroke="#BDB090" stroke-width="6"/>
<path d="M467 70C261.5 21.5 0 56.5436 -8 51.5436V235.544H1943.5V43.0436L1930.5 38.5436C1790.5 -13.0564 1664.5 -2.14196 1586 31.1614C1504.5 55.5 1412.73 77.9567 1286.5 104.5C1021.21 160.283 809.5 131 626 104.5L467 70Z" fill="#1B4682" stroke="#BDB090" stroke-width="6"/>
<defs>
<linearGradient id="paint0_linear_731_470" x1="968.5" y1="74.661" x2="961" y2="297.161" gradientUnits="userSpaceOnUse">
<stop stop-color="#131D40"/>
<stop offset="1" stop-color="#314BA6"/>
</linearGradient>
</defs>
</svg>
