<svg width="160" height="60" viewBox="0 0 160 60" fill="none" xmlns="http://www.w3.org/2000/svg">
<g filter="url(#filter0_d_667_64)">
<path d="M80.2466 0.311596C80.339 0.369227 80.339 0.369227 80.4067 0.424733L80.4072 0.538491C80.4426 0.546162 80.4426 0.546162 80.4788 0.553988C80.5889 0.604833 80.6267 0.670444 80.7001 0.796866C80.724 0.837467 80.7479 0.878067 80.7726 0.919898C80.81 0.983652 80.81 0.983652 80.8482 1.04869C80.9245 1.16883 81.001 1.28862 81.0777 1.40819C81.1294 1.50264 81.1294 1.50264 81.1298 1.6164L81.2899 1.72954L81.2906 1.90017C81.3267 1.92203 81.3267 1.92203 81.3634 1.94433C81.74 2.24198 81.9615 3.0994 82.1434 3.62981C82.2113 3.82604 82.2833 3.9986 82.3772 4.17114C82.4062 4.28031 82.4352 4.3895 82.4636 4.49898C82.5841 4.94656 82.5841 4.94656 82.8378 5.2323C82.9966 5.25152 83.0774 5.23668 83.2191 5.13483C83.3127 5.01725 83.3923 4.89328 83.4717 4.75635C83.6037 4.52864 83.743 4.33315 83.9007 4.14122C83.9792 4.04646 83.9792 4.04646 84.0676 3.91216C84.1321 3.82303 84.1321 3.82303 84.2119 3.82272L84.2512 3.65193C84.3157 3.57289 84.3822 3.49714 84.4499 3.42363C84.4809 3.38517 84.5119 3.3467 84.5439 3.30706C84.9423 2.81767 85.3854 2.45191 85.8584 2.12635C85.9627 2.0542 85.9627 2.0542 86.0631 1.96358C86.2712 1.78711 86.5142 1.66181 86.7583 1.70825C86.9136 1.78983 86.9512 1.85636 87.0232 2.07094C87.0997 2.37559 87.1041 2.67665 87.11 2.99734C87.1117 3.0622 87.1133 3.12705 87.1149 3.19388C87.1303 3.88809 87.131 4.58284 87.1299 5.27729C87.1299 5.32135 87.1299 5.36541 87.1299 5.41081C87.1299 5.49352 87.1297 5.57623 87.1294 5.65894C87.1295 5.86513 87.1332 6.05861 87.1751 6.25703C87.2526 6.33071 87.2526 6.33071 87.3352 6.37016L87.3754 6.42689C87.4721 6.4335 87.5679 6.43672 87.6646 6.43776C87.7242 6.43912 87.7837 6.44052 87.8433 6.44195C87.9375 6.44394 88.0318 6.44567 88.126 6.44679C88.2168 6.44801 88.3074 6.45026 88.3981 6.45268C88.4264 6.45275 88.4547 6.45283 88.4838 6.45291C88.5633 6.45545 88.5633 6.45545 88.6928 6.47864C88.7733 6.64896 88.7733 6.64896 88.7665 6.84452C88.7363 7.03817 88.7128 7.13615 88.616 7.27526L88.5362 7.27557L88.4972 7.50324L88.4173 7.50355L88.3954 7.62451C88.3275 7.82033 88.245 7.91544 88.1263 8.04904C88.0505 8.13574 88.0505 8.13574 87.9814 8.30157L87.9016 8.30188L87.8771 8.41574C87.8144 8.61305 87.7312 8.75962 87.6342 8.92505C87.5737 9.06975 87.5734 9.16108 87.5862 9.32695C87.6307 9.40159 87.6307 9.40159 87.7412 9.401C87.9574 9.39456 88.1458 9.26588 88.3439 9.15336C88.4247 9.10946 88.5056 9.06605 88.5865 9.02268C88.692 8.96612 88.7974 8.90909 88.9028 8.85198C88.9575 8.82241 89.0123 8.79305 89.0672 8.76385C89.1889 8.69894 89.3073 8.63264 89.4243 8.55191C89.839 8.29602 90.3161 8.25537 90.7614 8.19079C90.8555 8.17651 90.9494 8.1604 91.0433 8.14367C92.0025 7.9738 92.0025 7.9738 92.3319 8.22775C92.266 8.56306 92.1124 8.71737 91.9102 8.88396C91.8342 8.94302 91.7581 9.00147 91.6816 9.05927C91.5955 9.12638 91.5156 9.19628 91.4354 9.27641C91.3384 9.36922 91.3384 9.36922 91.2586 9.36953L91.259 9.48329C91.1791 9.56337 91.1791 9.56337 91.0726 9.6511C91.0207 9.69431 91.0207 9.69431 90.9677 9.73838C90.9326 9.76734 90.8974 9.79629 90.8612 9.82612C90.5843 10.029 90.5843 10.029 90.3842 10.3399L90.2645 10.3404L90.2649 10.4541L90.1851 10.4544L90.1856 10.5682C90.117 10.6376 90.0461 10.7023 89.9743 10.7645C89.8439 10.8779 89.7343 10.9825 89.629 11.1392C89.5626 11.1934 89.4961 11.2475 89.4291 11.3001C89.3119 11.4009 89.2068 11.5217 89.1 11.6434C89.0325 11.7103 89.0325 11.7103 88.9526 11.7106L88.9134 11.8814C88.8512 11.9714 88.8512 11.9714 88.7719 12.0668C88.7431 12.1018 88.7143 12.1368 88.6847 12.1729C88.6553 12.2085 88.6259 12.2441 88.5956 12.2808C88.5434 12.3472 88.4913 12.4138 88.4392 12.4805C88.3016 12.6534 88.1592 12.8153 88.0142 12.9756C87.6535 13.3732 87.6535 13.3732 87.3243 13.8215C87.2758 13.8943 87.227 13.9668 87.178 14.0389C87.1549 14.0734 87.1318 14.1079 87.1081 14.1434C87.0465 14.2207 87.0465 14.2207 86.9666 14.221L86.9346 14.3314C86.8877 14.4489 86.8877 14.4489 86.7682 14.5062C86.7406 14.5813 86.7145 14.6574 86.6892 14.734C86.6381 14.8252 86.5851 14.9142 86.5306 15.0013C86.4889 15.0687 86.4889 15.0687 86.4463 15.1374C86.3719 15.2472 86.3719 15.2472 86.2923 15.3044C86.2801 15.3402 86.268 15.376 86.2555 15.413C86.1997 15.5709 86.1123 15.6508 86.0178 15.7609C85.8756 15.9568 85.7677 16.1908 85.6547 16.4209C85.6296 16.4663 85.6045 16.5117 85.5787 16.5585L85.4989 16.5588L85.4596 16.7296C85.2883 17.0018 85.2883 17.0018 85.1416 17.0722C85.1184 17.1799 85.1184 17.1799 85.1026 17.2998C85.041 17.4338 84.9785 17.5628 84.912 17.6916C84.8771 17.7603 84.8422 17.829 84.8073 17.8978C84.7902 17.9313 84.7732 17.9648 84.7556 17.9994C84.6837 18.1435 84.6159 18.2913 84.5482 18.4396C84.5169 18.5067 84.5169 18.5067 84.485 18.5751C84.3651 18.8322 84.3651 18.8322 84.2514 19.0949C84.1977 19.2238 84.1402 19.3452 84.0807 19.4688C83.964 19.719 83.8729 19.9791 83.7822 20.2501C83.7258 20.4108 83.6648 20.5651 83.6005 20.7196C83.4375 21.1126 83.3225 21.5088 83.2169 21.9393C83.168 22.1329 83.1116 22.3103 83.0447 22.4919C82.9476 22.7698 82.8738 23.0647 82.8061 23.3594C82.7718 23.5088 82.7718 23.5088 82.733 23.6163C82.3195 24.8564 82.3391 26.595 82.2801 27.9474C82.2777 28.0011 82.2754 28.0547 82.2729 28.11C82.224 29.2301 82.2314 30.3394 82.2763 31.4597C82.2783 31.5091 82.2802 31.5584 82.2822 31.6092C82.3141 32.4042 82.3655 33.1889 82.4533 33.976C82.4668 34.1003 82.4802 34.2246 82.4937 34.3489C82.5278 34.6602 82.5633 34.9711 82.5991 35.282C82.6177 35.4451 82.6353 35.6083 82.6525 35.7716C82.6578 35.8204 82.663 35.8691 82.6685 35.9193C82.678 36.0081 82.6873 36.0968 82.6963 36.1857C82.7232 36.4307 82.7689 36.6449 82.8341 36.8746C82.8849 37.068 82.9144 37.2676 82.9459 37.4687C83.0337 38.0592 83.0337 38.0592 83.2097 38.6021C83.274 38.7601 83.3011 38.8929 83.3288 39.0705C83.3867 39.4117 83.4655 39.731 83.5547 40.0579C83.5743 40.1316 83.5939 40.2054 83.6134 40.2792C83.7249 40.7002 83.8386 41.1195 83.9596 41.5352C83.9758 41.5926 83.992 41.65 84.0088 41.7092C84.0259 41.7689 84.0431 41.8287 84.0608 41.8903L84.1075 42.0545C84.1682 42.2361 84.2426 42.3922 84.3228 42.5576C84.5182 43.0149 84.6959 43.4816 84.8591 43.9637C84.9227 44.1487 84.9814 44.2932 85.0885 44.4317C85.1536 44.6259 85.2068 44.8152 85.2504 45.0212L85.2909 45.1703L85.4109 45.2267C85.4699 45.3485 85.4699 45.3485 85.5292 45.5C85.6108 45.7074 85.6947 45.8553 85.8132 46.0215C85.8568 46.1146 85.8986 46.2094 85.939 46.3054C86.0746 46.6133 86.2306 46.8828 86.397 47.1577C86.52 47.3665 86.6309 47.5853 86.7424 47.8067C86.8373 47.9872 86.9412 48.1526 87.0495 48.317C87.0997 48.4054 87.0997 48.4054 87.1002 48.5192L87.2603 48.6323L87.2607 48.7461C87.2837 48.758 87.3067 48.7698 87.3304 48.782C87.4539 48.8875 87.5081 49.0183 87.5867 49.1892C87.6142 49.2481 87.6417 49.307 87.6701 49.3677C87.7334 49.5182 87.7817 49.6603 87.8237 49.8246L87.7441 49.8818C87.637 49.8168 87.535 49.7485 87.4315 49.6733C87.3887 49.6434 87.3887 49.6434 87.3451 49.6129C87.1258 49.456 86.9414 49.2853 86.7877 49.0075C86.6865 48.8347 86.5817 48.7199 86.4508 48.5966C86.3744 48.5142 86.3194 48.4252 86.2587 48.3198C86.1532 48.1369 86.0421 48.0235 85.9003 47.8982C85.6438 47.6323 85.3716 47.2567 85.2544 46.8324L85.2171 46.7064L85.0971 46.65C85.0554 46.5566 85.0153 46.4618 84.9763 46.366C84.9266 46.284 84.8755 46.2036 84.8232 46.1249C84.6916 45.9197 84.5803 45.7106 84.4747 45.4775C84.383 45.278 84.2837 45.0865 84.185 44.894C84.1319 44.7767 84.1319 44.7767 84.1314 44.6629L84.0516 44.6632C84.0409 44.6317 84.0301 44.6003 84.0191 44.5678C84.0048 44.5267 83.9906 44.4855 83.9759 44.4431C83.9548 44.3818 83.9548 44.3818 83.9333 44.3193C83.8915 44.2002 83.8915 44.2002 83.8099 44.0954C83.7976 44.0517 83.7854 44.0081 83.7727 43.9631C83.7262 43.8016 83.6687 43.6815 83.5957 43.5416C83.5011 43.3562 83.417 43.1726 83.3415 42.9703C83.2402 42.7065 83.1327 42.5107 82.94 42.3746C82.8423 42.3279 82.8423 42.3279 82.7253 42.3363C82.7236 42.5176 82.723 42.6989 82.7225 42.8802C82.722 42.9301 82.7215 42.9799 82.721 43.0312C82.7202 43.773 82.8191 44.4827 82.95 45.197C82.9716 45.3154 82.9925 45.434 83.0134 45.5527C83.0783 45.9157 83.1497 46.2583 83.2654 46.5964C83.3316 46.8136 83.3592 47.0444 83.3932 47.2752C83.4899 47.8805 83.642 48.4274 83.8289 48.987C83.8418 49.0258 83.8546 49.0645 83.8678 49.1045C83.9737 49.4213 84.0788 49.7335 84.2296 50.0128C84.3126 50.1796 84.3126 50.1796 84.3282 50.343C84.3137 50.464 84.3137 50.464 84.274 50.521C83.8597 50.6243 83.4557 50.3256 83.1145 50.0136C83.0466 49.9204 82.9799 49.8256 82.9138 49.73C82.8538 49.6565 82.7936 49.5833 82.7333 49.5103C82.5779 49.3166 82.4612 49.1282 82.3516 48.879L82.3512 48.7652L82.2312 48.7088C82.1663 48.5766 82.1663 48.5766 82.0979 48.4107C81.9833 48.1493 81.8918 47.9659 81.7088 47.8008C81.6293 47.7791 81.5494 47.76 81.4691 47.7448C81.4657 48.2635 81.4788 48.7769 81.5044 49.2944C81.5065 49.3409 81.5086 49.3875 81.5108 49.4355C81.5138 49.4976 81.5138 49.4976 81.517 49.5609C81.5165 49.6845 81.5014 49.7878 81.4775 49.9062C81.2221 49.8466 81.1122 49.751 80.9569 49.4532C80.9038 49.3178 80.8536 49.1838 80.8056 49.045C80.7928 49.0093 80.7801 48.9736 80.767 48.9368C80.6744 48.6732 80.6744 48.6732 80.6739 48.5442L80.5941 48.5445L80.5934 48.3739C80.4832 48.3252 80.4832 48.3252 80.3537 48.3179C80.2442 48.4237 80.2442 48.4237 80.155 48.5462L80.0752 48.5466L80.0362 48.7742L79.9563 48.7745C79.9506 48.811 79.9449 48.8475 79.939 48.885C79.8766 49.2354 79.7998 49.5081 79.6009 49.7429C79.4913 49.8002 79.4913 49.8002 79.4015 49.8005C79.3215 49.744 79.3215 49.744 79.2809 49.5735C79.2781 49.4738 79.2777 49.374 79.2786 49.2742C79.2789 49.2152 79.2791 49.1562 79.2794 49.0955C79.2803 48.9721 79.2814 48.8487 79.2826 48.7253C79.2838 48.3791 79.267 48.0848 79.194 47.7537L79.1141 47.754L79.1137 47.6402C78.9139 47.804 78.8147 47.9733 78.7095 48.2675C78.6279 48.4876 78.5449 48.6947 78.44 48.8942L78.4008 49.065L78.3209 49.0653C78.3072 49.1139 78.3072 49.1139 78.2932 49.1634C78.1888 49.4278 78.0038 49.6094 77.8448 49.8066C77.8112 49.8505 77.8112 49.8505 77.7769 49.8953C77.4891 50.263 76.9844 50.6255 76.5984 50.5978C76.4906 50.5513 76.4906 50.5513 76.4101 50.381C76.4602 50.126 76.5645 49.928 76.6695 49.7134C76.7286 49.5783 76.7644 49.4469 76.8051 49.2987C76.8425 49.1985 76.8799 49.0984 76.9184 48.9989C77.0391 48.6857 77.1472 48.3875 77.2087 48.0389C77.2332 47.9044 77.2607 47.7739 77.2907 47.6418C77.4226 47.0604 77.5308 46.4779 77.6237 45.8814C77.6506 45.7092 77.6791 45.5384 77.7116 45.3683C77.8298 44.7385 77.8805 44.1065 77.9269 43.4587C77.9393 43.3219 77.9393 43.3219 77.9601 43.2031C77.9904 43.0223 77.9815 42.8382 77.9791 42.6534C77.9786 42.5939 77.9786 42.5939 77.9781 42.5332C77.9773 42.4358 77.9762 42.3384 77.975 42.241C77.6409 42.4549 77.4049 42.8446 77.2591 43.3208C77.1971 43.5139 77.1176 43.6917 77.0407 43.8733C76.9949 43.9824 76.9509 44.093 76.9075 44.204C76.7402 44.6265 76.5671 45.0288 76.3339 45.3843C76.2679 45.4893 76.2679 45.4893 76.2177 45.6218C76.1202 45.851 75.9958 46.0444 75.8727 46.2463C75.7778 46.4042 75.6929 46.5499 75.6376 46.7437L75.5577 46.744L75.5308 46.8685C75.4677 47.0637 75.3894 47.1643 75.2806 47.3139C75.2299 47.3979 75.1795 47.4822 75.1294 47.5669C75.003 47.7737 74.8728 47.939 74.7153 48.0959C74.6429 48.1676 74.6429 48.1676 74.5815 48.2644C74.5262 48.3406 74.5262 48.3406 74.4463 48.3409C74.436 48.3749 74.4257 48.4088 74.4151 48.4437C74.2053 48.9939 73.6016 49.514 73.2145 49.7677L73.0853 49.8927C72.9899 49.9829 72.9279 50.0288 72.8165 50.0537C72.831 49.9434 72.831 49.9434 72.8555 49.826L72.9351 49.7688L72.9744 49.598C73.0263 49.5206 73.0794 49.4448 73.1331 49.3699C73.1877 49.2759 73.2414 49.1809 73.2942 49.0849C73.3208 49.0367 73.3474 48.9885 73.3748 48.9388C73.4229 48.8502 73.4696 48.7601 73.5144 48.6681C73.5325 48.6363 73.5505 48.6046 73.5691 48.5719L73.6489 48.5716L73.7276 48.2869L73.8075 48.2866C73.8172 48.2449 73.8269 48.2033 73.8369 48.1605C73.8909 47.9867 73.9539 47.8798 74.0448 47.7417C74.1457 47.588 74.224 47.4551 74.2825 47.2609L74.3623 47.2606C74.3717 47.2301 74.3811 47.1996 74.3908 47.1682C74.4554 46.9948 74.5345 46.8444 74.617 46.6872C74.648 46.6278 74.679 46.5683 74.711 46.5071C74.7766 46.3874 74.8413 46.2834 74.9169 46.1777C74.9573 46.0835 74.9966 45.9883 75.0355 45.8928C75.097 45.761 75.159 45.6297 75.2214 45.4988C75.279 45.3767 75.279 45.3767 75.3123 45.2092L75.3921 45.2089L75.4191 45.0986C75.49 44.8596 75.579 44.6371 75.6684 44.4115L75.7482 44.4112C75.8192 44.2156 75.8754 44.0138 75.933 43.8096C76.008 43.5496 76.0897 43.3146 76.1996 43.0798C76.3785 42.6946 76.4938 42.2739 76.6164 41.8482C76.7005 41.5624 76.7918 41.2841 76.8895 41.0074C77.0784 40.4719 77.2206 39.9386 77.3366 39.362C77.3931 39.0934 77.4654 38.8337 77.5392 38.574C77.6989 37.9511 77.7744 37.2868 77.8561 36.636C77.9074 36.2328 77.9718 35.8399 78.0596 35.4495C78.1441 35.0499 78.1722 34.6545 78.194 34.2397C78.2065 34.0107 78.2238 33.7914 78.2603 33.5675C78.3058 33.2863 78.3243 33.0068 78.3396 32.7193C78.3427 32.6634 78.3458 32.6075 78.3489 32.5498C78.3718 32.1054 78.3859 31.6608 78.3961 31.2153C78.3982 31.126 78.3982 31.126 78.4003 31.0349C78.4186 30.0919 78.3991 29.1586 78.3548 28.2173C78.3463 28.0333 78.3384 27.8493 78.3306 27.6653C78.3055 27.1053 78.2745 26.5683 78.1777 26.0229C78.1523 25.8682 78.1398 25.7233 78.1318 25.5652C78.1117 25.2381 78.0328 24.9492 77.9514 24.6439C77.7708 23.9433 77.7708 23.9433 77.7205 23.6351C77.6082 22.9494 77.4413 22.2557 77.2234 21.6234C77.169 21.463 77.1219 21.2998 77.0746 21.1349C76.9984 20.8739 76.9113 20.6312 76.809 20.389C76.772 20.29 76.772 20.29 76.7715 20.1763L76.6917 20.1766L76.6261 19.9849C76.5421 19.7481 76.4472 19.5233 76.3494 19.2976C76.2912 19.1605 76.2366 19.0216 76.1827 18.881C76.1083 18.6899 76.0238 18.5284 75.9262 18.3594C75.8874 18.2627 75.8485 18.1659 75.8102 18.0688C75.6687 17.7338 75.4873 17.4428 75.2996 17.1594C75.2386 17.0465 75.2239 16.963 75.2018 16.8265C75.1492 16.7866 75.0956 16.7493 75.0417 16.7133C74.8711 16.5048 74.7549 16.2587 74.6276 15.9962C74.5477 15.8389 74.4592 15.7092 74.3587 15.5784C74.2412 15.4167 74.1311 15.2514 74.0249 15.0749C73.9027 14.8747 73.7703 14.7056 73.6282 14.5347C73.5379 14.4212 73.4637 14.3011 73.3952 14.1601L73.3948 14.0464L73.3272 14.004C73.1678 13.8822 73.0413 13.7165 72.9138 13.5363C72.7418 13.3166 72.5619 13.1184 72.3727 12.9296C72.3528 12.9054 72.3329 12.8811 72.3124 12.8561L72.312 12.7423C72.2909 12.73 72.2698 12.7176 72.2481 12.7048C72.1163 12.6012 72.0072 12.4638 71.8937 12.3245C71.8487 12.2697 71.8036 12.2149 71.7585 12.1601C71.7367 12.1336 71.7148 12.1071 71.6923 12.0797C71.6064 11.9766 71.5185 11.8775 71.4301 11.7788C71.4097 11.7559 71.3894 11.7329 71.3684 11.7093C70.9004 11.1492 70.9004 11.1492 70.3822 10.7024C70.308 10.6456 70.308 10.6456 70.2276 10.4753L70.1076 10.4188L70.1071 10.3051L70.0197 10.2628C69.8971 10.1858 69.8104 10.085 69.7067 9.96536L69.5867 9.90895L69.5863 9.79519L69.4763 9.75296C69.3362 9.67689 69.2905 9.60348 69.1858 9.45547C69.0199 9.30667 68.8588 9.17236 68.6656 9.11621L68.6651 9.00246L68.5602 8.96376C68.3949 8.873 68.309 8.7862 68.1846 8.60617C68.1566 8.45697 68.1566 8.45697 68.1835 8.32177C68.6182 7.85774 69.5561 8.23489 70.0623 8.33862C70.1302 8.35279 70.1302 8.35279 70.1994 8.36725C70.2423 8.37604 70.2851 8.38484 70.3293 8.3939C71.0536 8.55044 71.0536 8.55044 71.2988 8.82156C71.4079 8.86994 71.4079 8.86994 71.5262 8.90244C71.7145 8.96393 71.8804 9.04468 72.0551 9.16101C72.2786 9.30948 72.4903 9.41436 72.7382 9.44164L72.8178 9.38445C72.8149 8.97254 72.7368 8.71562 72.5346 8.41859L72.4546 8.36202C72.4277 8.28629 72.4008 8.21055 72.3739 8.13482L72.2938 8.07825L72.2532 7.90776L72.1732 7.8512L72.1727 7.73744L72.0929 7.73775L72.0922 7.56711L72.0247 7.52471C71.8098 7.36051 71.7101 7.20463 71.622 6.88638C71.6067 6.73947 71.6409 6.67294 71.6891 6.54484C71.7159 6.54361 71.7426 6.54238 71.7702 6.54111C71.892 6.5352 72.0138 6.52849 72.1356 6.52177C72.1777 6.51985 72.2198 6.51792 72.2632 6.51594C72.3039 6.51358 72.3447 6.51123 72.3867 6.5088C72.4241 6.50686 72.4615 6.50493 72.5001 6.50294C72.6145 6.48308 72.7013 6.43649 72.8061 6.36985L72.9256 6.31251C72.9636 6.14702 72.9696 6.04089 72.9694 5.86886C72.9695 5.81333 72.9696 5.7578 72.9696 5.70058C72.9695 5.61021 72.9695 5.61021 72.9694 5.51801C72.9698 5.38896 72.9703 5.2599 72.9708 5.13085C72.9714 4.92858 72.9718 4.72633 72.9715 4.52406C72.9711 3.85462 72.975 3.19328 73.0573 2.5328C73.0626 2.48636 73.0679 2.43992 73.0734 2.39207C73.1081 2.15056 73.131 2.06668 73.2678 1.90197C73.483 1.74896 73.6826 1.83489 73.9039 1.9396C74.0703 2.03449 74.2198 2.16656 74.3711 2.30239C74.4652 2.38507 74.4652 2.38507 74.5668 2.43672C74.6787 2.50153 74.7647 2.58495 74.8623 2.68597C74.9799 2.8055 75.0956 2.91786 75.2228 3.01518C75.3396 3.11096 75.4221 3.19818 75.5085 3.34469L75.509 3.45844L75.5864 3.47592L75.6688 3.5147L75.7094 3.68518C75.7627 3.70412 75.816 3.72285 75.8693 3.74144C75.9334 3.82985 75.9334 3.82985 75.9923 3.93649C76.0706 4.07698 76.1226 4.15023 76.2305 4.25196L76.231 4.36571L76.3134 4.39383C76.4339 4.48079 76.481 4.55028 76.5665 4.69502C76.7228 4.95793 76.8707 5.19638 77.1225 5.23677C77.2355 5.21927 77.2355 5.21927 77.3517 5.15767L77.3909 4.98688L77.4708 4.98657C77.5116 4.83971 77.5519 4.69271 77.5905 4.54461C77.6833 4.2015 77.7883 3.91667 77.941 3.62162C78.0722 3.34677 78.1824 3.05445 78.2935 2.76225C78.4025 2.48233 78.5223 2.24592 78.675 2.01094C78.7341 1.91337 78.7754 1.82076 78.8176 1.70717C78.9608 1.34102 79.1378 1.09339 79.3753 0.850239C79.4593 0.763871 79.4593 0.763871 79.5568 0.616457C79.768 0.312933 79.9521 0.26023 80.2466 0.311596Z" fill="url(#paint0_linear_667_64)"/>
<path d="M64.4 10.7706C64.5584 10.8286 64.668 10.9306 64.8025 11.061C64.9997 11.2502 65.1999 11.4176 65.4099 11.5762C65.5747 11.7025 65.7362 11.8373 65.8978 11.9718C65.9844 12.0434 66.0717 12.1139 66.1594 12.1827C66.2777 12.2811 66.386 12.3879 66.4966 12.5026C66.5656 12.5705 66.6364 12.6276 66.7102 12.6844C66.8478 12.7976 66.8473 12.7985 66.9651 12.9403C67.1066 13.1036 67.243 13.1992 67.4079 13.3077L67.4084 13.4219C67.4414 13.4284 67.4421 13.4278 67.4758 13.4344C67.6019 13.4929 67.6781 13.5957 67.7786 13.7184C67.9136 13.8795 68.0456 14.0269 68.1973 14.1542L68.3296 14.2709L68.3301 14.3852L68.4132 14.4171C68.549 14.5111 68.6243 14.6255 68.7281 14.7791C68.8563 14.9583 68.998 15.1132 69.1382 15.2726C69.2866 15.4451 69.4286 15.6271 69.57 15.811C69.6564 15.9234 69.6565 15.9237 69.774 16.029L69.7744 16.1422L69.8545 16.1419L69.855 16.2562L69.9743 16.3124C70.0377 16.4261 70.0379 16.4264 70.1052 16.5716C70.2367 16.8457 70.3798 17.09 70.5369 17.3346C70.6083 17.4492 70.6801 17.5644 70.7511 17.6795C70.7933 17.7476 70.8362 17.8156 70.8789 17.8831C71.1614 18.3362 71.42 18.8377 71.6278 19.3665C71.6889 19.5502 71.6895 19.5503 71.784 19.6042C71.8485 19.7759 71.9054 19.9518 71.9638 20.1279C72.0197 20.2993 72.0195 20.2997 72.1455 20.3996C72.1884 20.5003 72.2289 20.6032 72.2668 20.7078C72.3368 20.9005 72.3986 21.0449 72.508 21.1941C72.6211 21.4451 72.7162 21.7106 72.7962 21.986C72.8436 22.143 72.8958 22.297 72.9475 22.4512C73.0529 22.7696 73.1438 23.0923 73.2286 23.4228C73.27 23.5781 73.2697 23.5785 73.3331 23.687C73.4236 23.8596 73.4759 24.0527 73.5326 24.2507C73.5449 24.2931 73.5575 24.3359 73.5702 24.3795C73.6695 24.7263 73.7555 25.0777 73.836 25.4341C73.8811 25.6287 73.8817 25.6288 73.944 25.8243C74.0813 26.2776 74.1635 26.7631 74.2279 27.2471C74.2505 27.4037 74.2801 27.5564 74.3097 27.7106C74.3702 28.0413 74.4047 28.3715 74.4347 28.7101C74.4466 28.8397 74.4602 28.969 74.4763 29.0977C74.5668 29.8279 74.569 30.5718 74.5835 31.3111C74.5844 31.3552 74.5851 31.3996 74.586 31.4449C74.5903 31.6847 74.5898 31.9239 74.5868 32.1637C74.5863 32.2132 74.586 32.2631 74.5855 32.3141C74.5771 33.0065 74.548 33.679 74.4655 34.3614C74.4372 34.5957 74.4192 34.8292 74.4028 35.0658C74.3291 35.9744 74.1529 36.9859 73.849 37.7935C73.7985 37.951 73.7666 38.1121 73.7327 38.2784C73.6303 38.7783 73.4788 39.2187 73.3065 39.6765C73.2191 39.9095 73.137 40.145 73.0573 40.3836C72.9527 40.6956 72.8534 40.9804 72.6837 41.2317C72.5819 41.4055 72.5166 41.6116 72.4437 41.8117C72.3834 41.9713 72.3187 42.1102 72.2305 42.2413L72.1514 42.2416C72.1368 42.304 72.1366 42.304 72.1217 42.3677C72.0682 42.54 72.0063 42.6456 71.9162 42.7825C71.8303 42.9137 71.7579 43.0316 71.6942 43.1867C71.6361 43.3243 71.5826 43.4027 71.4952 43.502C71.3989 43.612 71.3488 43.6866 71.2787 43.8378L71.1996 43.8381L71.1697 43.9339C71.054 44.2427 70.8818 44.4885 70.6834 44.6926L70.6043 44.6929L70.565 44.864C70.5045 44.9496 70.5044 44.9498 70.4309 45.0354C70.3576 45.1214 70.288 45.2042 70.2229 45.3028C70.1676 45.3775 70.1672 45.3773 70.0875 45.3776L70.0634 45.4744C69.892 45.8894 69.506 46.1606 69.2331 46.4268C69.2098 46.4497 69.1862 46.4728 69.1621 46.4964C69.1159 46.5418 69.0695 46.5868 69.023 46.6317C68.8995 46.7482 68.8992 46.7488 68.8161 46.9187C68.6973 47.0101 68.5758 47.0914 68.4538 47.174C68.3526 47.2514 68.2981 47.3194 68.2195 47.4327L68.1003 47.4332C68.0901 47.4821 68.0897 47.4823 68.0792 47.5319C67.9926 47.7238 67.8618 47.798 67.7223 47.8966C67.5197 48.0354 67.5196 48.0356 67.3447 48.232C67.2815 48.2715 67.2185 48.3115 67.1547 48.349C67.0504 48.4145 66.9507 48.4895 66.8499 48.565C66.6619 48.7019 66.473 48.8134 66.275 48.9159C65.9402 49.09 65.6187 49.2989 65.3127 49.5612C65.0889 49.7505 64.8712 49.8595 64.6199 49.9526C64.3731 50.0459 64.139 50.1532 63.9034 50.2933C63.7169 50.398 63.5246 50.4757 63.3322 50.5553C63.2689 50.5817 63.2687 50.5816 63.2045 50.6085C62.99 50.6969 62.777 50.7783 62.5579 50.8396C62.3194 50.9065 62.0963 51.0148 61.8676 51.1293C61.542 51.2902 61.2362 51.4001 60.8913 51.4427C60.8222 51.4514 60.7525 51.4602 60.6834 51.4689C60.5663 51.4836 60.4491 51.4984 60.332 51.5123C60.1068 51.5398 59.8847 51.5768 59.6615 51.6272C59.1135 51.7499 58.5656 51.7775 58.0118 51.7909C57.8765 51.7942 57.7407 51.7991 57.6056 51.8051C56.5718 51.8506 55.5893 51.7803 54.5702 51.5142C54.5405 51.5065 54.51 51.4991 54.4793 51.4911C54.2074 51.4159 53.9484 51.3017 53.6976 51.1328C53.548 51.0357 53.3985 50.9716 53.2397 50.911C53.0046 50.8205 52.7835 50.7056 52.5587 50.5738C52.3853 50.4728 52.2128 50.3907 52.0314 50.3249C51.9455 50.2832 51.9454 50.2829 51.8522 50.2015C51.7252 50.0965 51.6003 50.0435 51.4598 49.9833C51.067 49.8065 50.741 49.5352 50.4069 49.1935C50.2634 49.056 50.1121 48.9444 49.9582 48.8329C49.8703 48.7609 49.8131 48.6886 49.7434 48.5857C49.4641 48.4028 49.176 48.4238 48.8927 48.5705C48.817 48.6138 48.741 48.6583 48.6657 48.7032C48.3809 48.8662 48.1013 49.013 47.804 49.1226C47.7025 49.1607 47.7023 49.161 47.5858 49.2513C47.2516 49.4914 46.8845 49.4679 46.5192 49.4664C46.4274 49.4662 46.3356 49.4664 46.2438 49.4675C45.2725 49.473 45.2722 49.4731 44.8762 49.1164C44.7582 49.0587 44.6376 49.0167 44.5163 48.9752C44.2765 48.8931 44.0878 48.7905 43.8762 48.6086C43.7908 48.5556 43.7903 48.5553 43.7138 48.5203C43.5388 48.4321 43.377 48.3224 43.2183 48.1844C43.1128 48.0922 43.1129 48.0916 42.9784 48.0212C42.82 47.9191 42.721 47.8159 42.5951 47.6467L42.5947 47.5325L42.5146 47.5328L42.4735 47.2488C42.6038 47.124 42.646 47.1187 42.7981 47.1137C42.8402 47.112 42.8827 47.1101 42.926 47.1083C42.9717 47.1068 43.0177 47.1055 43.0647 47.1039C43.1628 47.0991 43.2614 47.0942 43.3596 47.0891C43.4358 47.0852 43.4361 47.0856 43.5138 47.0816C43.5652 47.079 43.6171 47.0759 43.67 47.0732C43.7453 47.0695 43.7456 47.0696 43.8224 47.0658C44.4998 47.0284 45.113 46.9068 45.7571 46.6022C45.8952 46.5381 46.0353 46.4825 46.1754 46.4277C46.2729 46.3747 46.3398 46.3004 46.4216 46.209C46.5141 46.151 46.6072 46.0943 46.7002 46.038C46.8153 45.975 46.8151 45.9745 46.8988 45.8663C46.9529 45.588 46.9492 45.3845 46.8559 45.1272C46.7851 45.0306 46.7124 44.9445 46.6341 44.8605C46.6148 44.8362 46.5951 44.8115 46.5752 44.7865L46.5748 44.6732L46.5072 44.6305C46.3977 44.5468 46.3072 44.4499 46.2141 44.3328L46.2136 44.2195L46.1286 44.1876C45.9932 44.0919 45.9318 43.9808 45.838 43.8157C45.7501 43.6721 45.6496 43.5582 45.5446 43.4409C45.5271 43.4173 45.5105 43.3931 45.4925 43.3688L45.4921 43.2555L45.2915 43.1421L45.291 43.0288L45.2245 42.9861C45.1132 42.9016 45.0195 42.7997 44.9206 42.6884C44.8671 42.629 44.8673 42.6285 44.8127 42.5678L44.7302 42.4616L44.7298 42.3484C44.6939 42.341 44.6939 42.3404 44.6575 42.333C44.5462 42.2802 44.5171 42.2155 44.4514 42.0789C44.275 41.7306 44.0659 41.4808 43.8299 41.2171C43.6096 40.9678 43.4053 40.7018 43.2057 40.4197C43.1408 40.3369 43.0756 40.2546 43.0104 40.1724C42.8626 39.986 42.7197 39.7948 42.5823 39.593C42.5171 39.5001 42.517 39.4998 42.4029 39.3994L42.4024 39.2861C42.3787 39.271 42.3554 39.255 42.3309 39.2395C42.2419 39.1714 42.1841 39.0994 42.1122 38.9991C41.9609 38.813 41.8408 38.7611 41.6426 38.7764C41.5191 38.798 41.3983 38.8214 41.2837 38.892L41.2443 39.0631C41.1826 39.1484 41.1819 39.148 41.1073 39.2335C41.01 39.3456 40.9576 39.4235 40.8869 39.5762L40.8069 39.5765L40.8004 39.6722C40.7642 39.8214 40.71 39.8932 40.6308 40C40.4642 40.2424 40.3118 40.5202 40.2131 40.8298L40.134 40.8301L40.112 40.9444C40.0437 41.1499 39.9515 41.2911 39.8454 41.4592C39.7589 41.6011 39.6908 41.7558 39.6187 41.9132C39.538 42.0613 39.4559 42.2076 39.3733 42.3536C39.2976 42.4868 39.2971 42.4869 39.2221 42.654L39.143 42.6543C39.1394 42.6865 39.1355 42.7188 39.1317 42.752C39.0975 42.9109 39.0435 43.0059 38.9701 43.1345C38.8716 43.3102 38.7875 43.4854 38.7076 43.6794L38.6277 43.7374C38.5831 43.8518 38.5836 43.8524 38.5495 43.9652L38.4694 43.9655L38.462 44.0612C38.4173 44.2455 38.3295 44.348 38.2322 44.4782C37.9804 44.8308 37.7453 45.1966 37.5256 45.5903L37.4382 45.7322L37.3581 45.7325C37.3475 45.7667 37.3373 45.801 37.3263 45.8362C37.2798 45.9601 37.236 46.0338 37.1644 46.1288C37.1416 46.1591 37.1188 46.1896 37.0954 46.2209C37.0711 46.2525 37.0465 46.2843 37.0215 46.3169C36.9968 46.3494 36.9722 46.3823 36.9467 46.4158C36.378 47.1584 36.3777 47.1582 36.2465 47.1588L36.2071 47.3298L36.088 47.3303C36.078 47.3641 36.0674 47.3981 36.0571 47.4329C35.8805 47.888 35.4271 48.1583 35.1205 48.4161C35.0412 48.4835 34.9626 48.5535 34.885 48.625C34.6518 48.8359 34.411 49.0325 34.1567 49.1864C34.038 49.2609 33.937 49.3419 33.8276 49.4397C33.6335 49.6103 33.4379 49.7342 33.2237 49.8444C33.1961 49.8589 33.1684 49.8737 33.1399 49.8886C32.8543 50.0326 32.5602 50.1373 32.2673 50.2465C32.2061 50.2697 32.2057 50.2693 32.1434 50.2929C30.3988 50.9415 27.9689 51.1052 26.2438 50.2514C26.1197 50.1939 25.9937 50.1617 25.8654 50.1289C25.434 50.0121 25.0588 49.8486 24.664 49.5769C24.5686 49.5121 24.4715 49.4504 24.3742 49.3915C24.2615 49.3232 24.1538 49.2498 24.0452 49.1692C23.9186 49.0783 23.796 49.0026 23.6606 48.9431C23.4909 48.8687 23.3395 48.7615 23.1819 48.6462C23.0829 48.577 22.9832 48.5189 22.8804 48.4628C22.6733 48.3489 22.4769 48.21 22.2792 48.0667C22.191 48.0042 22.1031 47.9414 22.0148 47.8792C21.9432 47.8286 21.871 47.7783 21.7994 47.7277L21.7989 47.6134C21.765 47.6031 21.7651 47.6027 21.7305 47.5922C21.6329 47.5544 21.5487 47.5019 21.4574 47.44C21.4236 47.4172 21.3894 47.3945 21.3546 47.371C21.3198 47.3473 21.2848 47.3237 21.2489 47.2992C21.2133 47.2752 21.1778 47.2511 21.1412 47.2264C21.0537 47.1672 20.9661 47.1082 20.8788 47.0487L20.8783 46.9344L20.7483 46.889C20.5983 46.8221 20.5979 46.8223 20.527 46.7463C20.4064 46.6194 20.2746 46.5314 20.1401 46.4392C19.8486 46.2367 19.5621 46.0236 19.2772 45.8029L19.2768 45.6897C19.2241 45.6671 19.2239 45.6672 19.1702 45.6442C19.0416 45.5794 18.9366 45.5025 18.8196 45.4034C18.7573 45.3509 18.7567 45.3509 18.6932 45.2974C18.6254 45.2395 18.6252 45.2398 18.556 45.1807C18.4794 45.1155 18.4034 45.0495 18.3268 44.9844C18.2749 44.9403 18.2228 44.8964 18.171 44.8522C18.0339 44.7356 17.8962 44.6226 17.7556 44.5149C17.6238 44.4136 17.5056 44.2979 17.3851 44.1716C17.2862 44.0769 17.1802 44.008 17.0727 43.9355C16.9968 43.8793 16.9321 43.8174 16.8639 43.744C16.7123 43.5856 16.5499 43.4743 16.381 43.3581C16.1975 43.2314 16.0162 43.0963 15.8355 42.9618C15.8029 42.9377 15.7701 42.9129 15.7365 42.888C15.6082 42.7924 15.4808 42.6967 15.3565 42.5906C15.2724 42.5135 15.2722 42.5135 15.1675 42.4742C15.0388 42.4102 14.9321 42.3314 14.8131 42.2373C14.6625 42.1182 14.5203 42.0187 14.353 41.9549L14.3526 41.8406L14.2499 41.7981C14.1126 41.7276 14.1123 41.7278 13.9826 41.6184C13.8735 41.5269 13.7705 41.4701 13.6488 41.4215C13.1719 41.2261 12.6944 41.0196 12.2456 40.715C12.0166 40.5681 11.7795 40.49 11.5326 40.4336C11.3461 40.3895 11.1851 40.3094 11.0112 40.2052C10.7452 40.0507 10.4731 39.9629 10.1907 39.8959C10.0675 39.8651 9.94615 39.8273 9.82404 39.7889C9.26901 39.6202 8.70823 39.4824 8.1438 39.399C7.99202 39.3764 7.84396 39.3448 7.69421 39.3031C7.46971 39.2492 7.24706 39.2346 7.02006 39.2227C6.97862 39.2204 6.93676 39.2177 6.89405 39.2154C6.5507 39.1983 6.20718 39.1919 5.86367 39.1881C5.81161 39.1875 5.75909 39.1874 5.70546 39.1868C5.49039 39.1844 5.27499 39.1815 5.05992 39.1805C4.95184 39.18 4.84377 39.1793 4.73569 39.1779C4.63494 39.1765 4.5337 39.1761 4.43295 39.1761C4.38819 39.1753 4.34331 39.1745 4.29719 39.1737C4.25787 39.1734 4.21855 39.1725 4.17805 39.1722C4.14697 39.165 4.11525 39.1576 4.08323 39.1501C4.00301 38.9804 4.00302 38.98 4.00004 38.8526C4.0631 38.6164 4.18321 38.4543 4.32015 38.2967L4.39925 38.2964L4.43862 38.1253C4.50324 38.0644 4.57074 38.0081 4.63815 37.9536C4.6929 37.9006 4.74718 37.8466 4.80159 37.7928C5.00463 37.5973 5.21751 37.4328 5.43334 37.2679C5.50626 37.2109 5.57957 37.1544 5.6524 37.0971C5.70694 37.055 5.70696 37.0546 5.76242 37.0117C5.8332 36.9555 5.90293 36.8962 5.97169 36.8351C6.40483 36.4611 6.90349 36.3559 7.40015 36.2651C7.48305 36.2488 7.56579 36.23 7.64797 36.2075C7.96422 36.1224 8.27023 36.0996 8.5919 36.1003C8.64392 36.1002 8.69651 36.0998 8.7501 36.0997C9.19917 36.1027 9.63588 36.1736 10.0799 36.2645C10.217 36.2897 10.3531 36.3003 10.4912 36.3097C10.6895 36.3259 10.8617 36.3788 11.0513 36.4609C11.2194 36.5216 11.3891 36.5528 11.5606 36.5868C11.8404 36.6441 12.079 36.733 12.3372 36.9002C12.4103 36.9374 12.4839 36.974 12.5574 37.0097C13.0833 37.2761 13.0836 37.2761 13.2174 37.4651C13.2971 37.4762 13.2974 37.4763 13.3893 37.4752C13.4204 37.4759 13.452 37.4771 13.484 37.4778C13.5865 37.4629 13.6502 37.429 13.7365 37.3498C13.8511 36.879 13.7449 36.3864 13.6508 35.9283C13.6411 35.8798 13.631 35.8309 13.621 35.7809C13.5641 35.5187 13.4982 35.3411 13.3684 35.1325L13.368 35.0192L13.2879 35.0195L13.247 34.7922L13.1669 34.7925L13.1371 34.6568C13.0788 34.4847 13.0439 34.4701 12.9261 34.395L12.8854 34.2242C12.8331 34.1841 12.7797 34.1468 12.7258 34.1116C12.6839 34.0615 12.6429 34.0093 12.6031 33.9558C12.4498 33.7635 12.2797 33.6361 12.0984 33.5046C12.0045 33.4315 12.004 33.4311 11.9239 33.3178C11.9382 33.1688 11.9384 33.1686 11.9628 33.0335C12.477 32.7589 13.0575 32.6922 13.5986 32.7996C13.6361 32.807 13.6734 32.8149 13.712 32.8226C14.0078 32.8829 14.3031 32.9506 14.5975 33.0232C14.6447 33.0347 14.6451 33.0346 14.6933 33.0463C14.964 33.1134 15.1757 33.1744 15.3969 33.4185C15.4631 33.4582 15.5293 33.498 15.5956 33.5369C15.7472 33.6326 15.891 33.7513 16.0354 33.8672C16.2371 34.0286 16.4388 34.185 16.6466 34.3297C16.7407 34.397 16.831 34.4722 16.9209 34.5503C17.0316 34.6462 17.1411 34.7368 17.2559 34.8224C17.544 35.0532 17.7979 35.3714 18.0007 35.7405C18.1098 35.8758 18.1836 35.9587 18.3212 36.0234L18.3216 36.1376C18.3448 36.1525 18.3682 36.167 18.3921 36.1823C18.4842 36.2524 18.5501 36.3283 18.6265 36.4294C18.6533 36.4648 18.6803 36.5001 18.7079 36.5365C18.7358 36.574 18.7636 36.6119 18.7924 36.6505C18.821 36.6886 18.8502 36.727 18.8797 36.7663C19.0597 37.0082 19.23 37.2544 19.3895 37.5241C19.4427 37.6184 19.4426 37.6187 19.5248 37.6681L19.5253 37.7824C19.5487 37.7969 19.5726 37.8111 19.5967 37.8261C19.6933 37.9009 19.753 37.9811 19.8283 38.0947C19.8543 38.1339 19.881 38.1731 19.9078 38.2135C19.9347 38.2546 19.9617 38.2959 19.9894 38.3382C20.0164 38.3786 20.0431 38.4193 20.0709 38.4609C20.2022 38.6601 20.3126 38.8484 20.4083 39.0866L20.4886 39.1439L20.5293 39.3136C20.5959 39.4069 20.5962 39.4076 20.6775 39.4986C20.8128 39.6601 20.9273 39.828 21.0379 40.0236C21.0962 40.1226 21.0964 40.1229 21.2116 40.2211L21.212 40.3354C21.2358 40.3501 21.2599 40.3649 21.2844 40.38C21.3777 40.4531 21.4258 40.5228 21.4925 40.64C21.562 40.7599 21.6298 40.8686 21.7086 40.977C21.7735 41.0722 21.7735 41.0726 21.7739 41.1858L21.8414 41.2246C21.9605 41.3201 22.0433 41.4391 22.1348 41.5828L22.1353 41.6971C22.1575 41.7106 22.18 41.7238 22.2028 41.7378C22.3153 41.8251 22.4009 41.932 22.496 42.0541C22.5468 42.1185 22.5465 42.119 22.5981 42.1845C22.6939 42.3171 22.7788 42.4498 22.8576 42.6034L22.858 42.7177L22.9353 42.7633C23.0179 42.8305 23.0178 42.8308 23.0583 43.0011L23.1277 43.0223C23.2605 43.0743 23.3249 43.2018 23.419 43.3415L23.5112 43.4368L23.5789 43.5108L23.5793 43.625L23.6771 43.653C23.8519 43.757 23.9622 43.9065 24.0987 44.0908C24.1795 44.2028 24.1795 44.2033 24.3005 44.2482L24.3009 44.3615C24.3299 44.3766 24.3591 44.3915 24.389 44.4071C24.4997 44.4734 24.5934 44.5502 24.6936 44.6441C24.7253 44.6733 24.7571 44.7026 24.7897 44.7326C24.8252 44.7729 24.8251 44.7734 24.8613 44.8144L24.8617 44.9287L24.9693 44.9741C25.1018 45.0412 25.1021 45.0408 25.1867 45.1178C25.345 45.245 25.5102 45.3225 25.682 45.405C25.7174 45.4223 25.7531 45.4394 25.7896 45.4573C26.0302 45.5739 26.2716 45.6823 26.5164 45.7796C26.6292 45.8354 26.7199 45.9137 26.822 46.0011C27.1009 46.1457 27.3979 46.2093 27.6902 46.2721C27.8368 46.3053 27.9672 46.3505 28.1059 46.4268C28.3561 46.5491 28.6103 46.5342 28.8719 46.5302C28.8984 46.53 28.9257 46.5292 28.953 46.5289C29.3453 46.5243 29.7121 46.4697 30.0929 46.338C30.381 46.2389 30.6763 46.1875 30.97 46.1314C31.2447 46.0747 31.4774 45.9707 31.7305 45.8111C31.9885 45.6756 32.2528 45.5732 32.5182 45.4711C32.6432 45.412 32.7354 45.3374 32.8464 45.2384C32.9129 45.1975 32.913 45.1976 32.9809 45.1558C33.1271 45.0656 33.2635 44.9603 33.4006 44.8456C33.4368 44.8157 33.4376 44.8153 33.4745 44.7848C33.6085 44.6734 33.7403 44.5583 33.8706 44.4385C33.9999 44.3242 34.0003 44.3237 34.0802 44.3234L34.0797 44.2101C34.1446 44.1501 34.211 44.0931 34.2783 44.0385C34.3785 43.9408 34.4771 43.8399 34.5759 43.7395C34.6371 43.6773 34.6989 43.616 34.7608 43.5551C34.8772 43.4397 34.9547 43.3527 35.0337 43.182L35.1529 43.1815L35.1922 43.0105C35.2556 42.9227 35.256 42.9227 35.3361 42.8293C35.48 42.6544 35.6027 42.4679 35.7245 42.2623C35.8075 42.1232 35.8924 41.9945 35.9866 41.8707L36.0667 41.8704L36.0986 41.7736C36.1871 41.5248 36.2737 41.3145 36.4222 41.1287L36.5023 41.1284C36.5125 41.0988 36.5227 41.069 36.5332 41.0385C36.5936 40.8651 36.6546 40.6923 36.7167 40.5202C36.7403 40.4542 36.7639 40.3877 36.7882 40.3197C36.8575 40.1603 36.8583 40.1604 36.9778 40.1031C36.9815 40.0613 36.9843 40.0192 36.9881 39.9761C37.0197 39.7962 37.066 39.7097 37.1496 39.5692C37.2721 39.3525 37.3439 39.1669 37.4116 38.9071C37.4684 38.7323 37.5271 38.5724 37.6021 38.4122C37.6765 38.25 37.7405 38.0882 37.8043 37.9173C37.9489 37.5302 38.1107 37.1638 38.2814 36.7992L38.3656 36.6104C38.4398 36.4572 38.4404 36.457 38.5201 36.3998L38.5594 36.2288C38.6246 36.1326 38.6907 36.0376 38.7575 35.9438C38.9005 35.7157 38.8954 35.5326 38.8895 35.2363C38.8816 35.0792 38.8816 35.0789 38.7937 34.9446L38.7133 34.8629L38.7128 34.7496L38.6492 34.7089C38.5207 34.6127 38.4024 34.4977 38.2827 34.3812C38.2586 34.3583 38.234 34.3357 38.2092 34.3122C38.1486 34.2533 38.0898 34.19 38.0317 34.1263L38.0313 34.013L37.9413 33.9704C37.8215 33.8935 37.7631 33.8035 37.6706 33.6726C37.591 33.6151 37.5108 33.5592 37.4306 33.5037C37.3367 33.4172 37.2444 33.3276 37.1523 33.2372C37.0678 33.1546 37.0677 33.1545 36.9506 33.1071L36.9501 32.9928L36.8601 32.9434C36.7674 32.8898 36.6788 32.8318 36.5899 32.7667L36.5894 32.6534C36.5373 32.6314 36.537 32.6313 36.4838 32.6089C36.3488 32.5403 36.2388 32.4556 36.1166 32.3496C35.7592 32.04 35.4018 31.8653 34.9989 31.7143C34.9108 31.6808 34.8228 31.6465 34.7348 31.6128C34.6964 31.5983 34.6579 31.5841 34.6184 31.5693C34.5098 31.5239 34.5092 31.5238 34.411 31.4656C34.2944 31.4029 34.1852 31.377 34.0619 31.3527C34.0151 31.3433 33.9684 31.3337 33.9202 31.3239C33.8715 31.3145 33.8227 31.305 33.7726 31.2952C33.6762 31.276 33.5797 31.257 33.4833 31.2378C33.4193 31.2252 33.4186 31.2256 33.3533 31.2129C33.2701 31.1959 33.187 31.1771 33.1041 31.1572C32.718 31.0701 32.3437 31.1179 31.9697 31.2622C31.8117 31.3144 31.6558 31.3359 31.4945 31.3578C31.1851 31.404 30.9206 31.5188 30.6385 31.7098C30.6019 31.7344 30.5651 31.759 30.5274 31.7844C29.9397 32.2139 29.5508 32.794 29.1808 33.5592C29.1636 33.5889 29.1461 33.6187 29.1284 33.6493L29.0493 33.6496L29.0166 33.7737C28.971 33.9329 28.9182 34.0812 28.8621 34.2333C28.6456 34.8558 28.461 35.5087 28.4606 36.2115C28.4595 36.3019 28.458 36.3925 28.4568 36.483C28.4492 37.3898 28.4795 38.2162 28.751 39.0541C28.7748 39.1292 28.7743 39.1298 28.7985 39.2063C28.99 39.778 29.2602 40.3484 29.6102 40.747L29.7161 40.8707L29.7165 40.9849L29.8036 41.0305C29.9162 41.0976 29.9163 41.0979 30.0083 41.1762C30.7002 41.7613 31.4932 41.8771 32.2736 41.6C32.6321 41.4394 32.9817 41.2232 33.3112 40.967C33.3881 40.9133 33.3886 40.9129 33.476 40.8873C33.4996 40.8768 33.5238 40.8665 33.5481 40.8557L33.5865 40.6847C33.6744 40.5807 33.675 40.5811 33.783 40.4749C33.8185 40.4395 33.8543 40.4037 33.8909 40.3671C33.9843 40.2856 33.9846 40.2857 34.0644 40.2854L34.1038 40.1143C34.1861 39.9979 34.1857 39.9975 34.2894 39.8753C34.3232 39.8345 34.3577 39.7939 34.3924 39.7519C34.5192 39.6426 34.5948 39.6388 34.7407 39.6568C34.8202 39.8806 34.7844 40.1031 34.7434 40.3394C34.576 40.9387 34.3315 41.4568 34.0308 41.9349C33.9813 42.0168 33.9319 42.0987 33.8824 42.1806C33.8621 42.2133 33.8411 42.2458 33.8203 42.2795C33.7654 42.3698 33.7138 42.4643 33.6631 42.5594C33.5525 42.7504 33.426 42.8652 33.2761 42.9867C33.2501 43.0084 33.2241 43.0301 33.1973 43.0524C33.1179 43.1182 33.0378 43.1825 32.9578 43.2467C32.9121 43.2836 32.8666 43.3206 32.8196 43.3586C32.4472 43.6523 32.0839 43.916 31.67 44.0662C31.5404 44.1149 31.4149 44.1764 31.2888 44.2405C30.6507 44.5283 29.9035 44.258 29.2935 43.9475C29.2564 43.9287 29.2192 43.9098 29.181 43.8903C28.991 43.7887 28.8412 43.6865 28.6882 43.4909L28.5755 43.3995L28.4883 43.3217L28.4879 43.2075C28.4667 43.2041 28.4452 43.2005 28.4234 43.197C28.2839 43.1298 28.1844 42.9993 28.0744 42.8644C28.0514 42.8365 28.0285 42.8084 28.0048 42.7797C27.8287 42.5628 27.6708 42.333 27.5255 42.0735C27.4999 42.0288 27.4741 41.9842 27.4478 41.9381C27.2492 41.5845 27.056 41.2345 26.921 40.8229C26.8742 40.6927 26.8188 40.5757 26.7604 40.4554C26.2028 39.292 26.0643 37.8473 26.0564 36.4737C26.0555 36.3497 26.0547 36.2257 26.053 36.1017C26.0478 35.5338 26.0938 35.0116 26.1784 34.4567C26.1874 34.3954 26.1967 34.3341 26.206 34.271C26.3053 33.6172 26.4619 32.9595 26.729 32.4076C26.7713 32.3113 26.8138 32.2146 26.8558 32.1181C27.0625 31.6463 27.2774 31.1979 27.5607 30.8116L27.6238 30.7186C27.6809 30.6334 27.7401 30.5506 27.7996 30.4689L27.8787 30.4686L27.8783 30.3553L27.9533 30.3091C28.0498 30.2437 28.0503 30.2434 28.1174 30.0702L28.2365 30.0697L28.2759 29.8986C28.4143 29.715 28.5649 29.5519 28.7134 29.3852C28.7493 29.3423 28.7488 29.3417 28.7853 29.298C28.9639 29.0946 29.1661 28.9963 29.3794 28.8846C29.4926 28.822 29.5961 28.7523 29.7028 28.6704C30.1486 28.3409 30.6542 28.1658 31.1426 28.0105C31.1692 28.0017 31.1961 27.9929 31.2236 27.9838C31.9851 27.74 32.7693 27.7954 33.5416 27.9055C33.5878 27.912 33.6348 27.9178 33.6823 27.9245C33.9416 27.966 34.1719 28.042 34.4167 28.1687C34.492 28.1971 34.5677 28.2238 34.6436 28.2488C35.1275 28.415 35.6249 28.5914 36.0825 28.8761C36.1814 28.9367 36.273 28.9841 36.3751 29.0282C36.5532 29.1095 36.7215 29.2162 36.8909 29.328C36.9171 29.3452 36.9433 29.3627 36.9703 29.3804C37.0848 29.4571 37.1897 29.5363 37.2955 29.636L37.2959 29.7493C37.3184 29.7557 37.3412 29.7629 37.3643 29.7695C37.702 29.9049 38.0177 30.2453 38.3193 30.4982C38.5751 30.7118 38.8352 30.9124 39.0981 31.1075L39.0985 31.2218L39.1758 31.2605C39.4263 31.4122 39.6481 31.5982 39.8588 31.8438C40.354 32.3627 40.3545 32.363 40.9393 32.4656C41.2107 32.3558 41.4242 32.1153 41.644 31.872C41.7349 31.7802 41.7348 31.7799 41.8146 31.7795L41.8141 31.6663C41.9211 31.5604 42.0323 31.4672 42.1441 31.372C42.2475 31.2701 42.2983 31.1814 42.3703 31.0381C42.4616 30.9762 42.5548 30.9189 42.6489 30.8661C42.7288 30.8098 42.8091 30.7532 42.8885 30.6953C42.9389 30.659 42.989 30.6225 43.0394 30.5863C43.066 30.5672 43.0929 30.548 43.1203 30.5284C43.363 30.354 43.3628 30.3534 43.4436 30.2957C43.4982 30.2562 43.553 30.2164 43.6072 30.1759C43.7687 30.0561 43.9242 29.9646 44.1002 29.8937C44.3454 29.7898 44.572 29.6562 44.7998 29.4925C44.8558 29.4775 44.9122 29.4652 44.9686 29.4538C45.0026 29.4467 45.0371 29.4392 45.0721 29.4319C45.1432 29.4174 45.2146 29.4026 45.2858 29.3881C45.4481 29.3541 45.6061 29.3168 45.7648 29.2573C46.0231 29.1718 46.2875 29.178 46.5516 29.1771C46.5794 29.1769 46.6078 29.1769 46.6365 29.1768C47.3148 29.1763 48.0521 29.2409 48.6504 29.7392C48.8019 29.8584 48.9626 29.9217 49.128 29.9903C49.2356 30.0464 49.3019 30.1164 49.3925 30.2149C49.481 30.2792 49.5701 30.3416 49.6599 30.4023C49.8638 30.5427 50.0544 30.694 50.2408 30.8786C50.3167 30.9557 50.3169 30.9565 50.4162 31.0322C50.6479 31.2423 50.8413 31.5259 51.0354 31.8003C51.0803 31.8538 51.1255 31.9071 51.1708 31.9599C51.3306 32.1509 51.4626 32.3688 51.5971 32.595L51.6974 32.7547C51.8431 33.0046 51.9584 33.2853 52.0794 33.5599C52.1137 33.6359 52.1484 33.7121 52.1828 33.788C52.2189 33.868 52.2552 33.9488 52.2912 34.0288C52.3082 34.0662 52.3259 34.1033 52.3434 34.1419C52.4213 34.3161 52.4911 34.4868 52.5476 34.6772C52.5978 34.8461 52.6549 34.9908 52.7223 35.1463C52.8644 35.5084 52.93 35.8838 52.9914 36.2849C53.0083 36.3948 53.0261 36.5044 53.0444 36.6138C53.1297 37.1496 53.1637 37.6728 53.1757 38.2197C53.1767 38.2644 53.1781 38.3094 53.1791 38.3555C53.2017 39.4427 53.1395 40.4974 52.9347 41.5459C52.9053 41.7001 52.9056 41.7006 52.8931 41.9035C52.8665 42.1301 52.7981 42.2962 52.7138 42.4872C52.5967 42.7634 52.5102 43.0366 52.4368 43.3418L52.3877 43.5168C52.3419 43.7791 52.3803 43.9995 52.4404 44.2519L52.5205 44.2516L52.5209 44.3659C52.6323 44.401 52.7438 44.436 52.8553 44.471C52.8861 44.4808 52.9174 44.4899 52.9492 44.5C53.1457 44.5616 53.3431 44.6196 53.5407 44.6744C53.6364 44.7011 53.7324 44.7287 53.8281 44.7563C53.8596 44.7653 53.8914 44.775 53.9239 44.7843C53.9864 44.8021 54.0492 44.8201 54.1116 44.8382C54.2206 44.8692 54.3298 44.8981 54.4391 44.9268C54.4648 44.9335 54.4908 44.94 54.5173 44.947C54.9564 45.0604 55.3891 45.1312 55.8346 45.1596C55.8652 45.1617 55.8958 45.1639 55.9274 45.1661C57.017 45.2397 58.1485 45.3097 59.2298 45.079C59.2683 45.0709 59.3071 45.0625 59.3469 45.0542C59.9328 44.9301 59.933 44.93 60.4948 44.6718C60.5907 44.615 60.6864 44.5728 60.7863 44.5319C61.069 44.4126 61.3285 44.2638 61.5803 44.0455C61.7038 43.9559 61.8288 43.87 61.9533 43.7833C62.0611 43.7106 62.0612 43.7098 62.1381 43.5882C62.275 43.4974 62.403 43.4222 62.5483 43.363C62.6606 43.3163 62.6606 43.3159 62.7097 43.1807L62.7347 43.0742L62.8538 43.0737C62.8642 43.0393 62.8749 43.0045 62.8857 42.9691C62.9353 42.8398 62.9782 42.7819 63.0594 42.693C63.2046 42.5217 63.3127 42.329 63.4243 42.1135C63.4887 41.9908 63.488 41.9903 63.5921 41.8228C63.8288 41.3838 63.9455 40.8575 64.0629 40.3356C64.0783 40.2676 64.0941 40.1994 64.11 40.1293C64.4153 38.7575 64.6936 37.1072 64.4403 35.6759C64.4086 35.4788 64.4077 35.306 64.4195 35.1046C64.5681 34.9623 64.6858 34.966 64.8585 34.9887C64.9549 35.0182 65.0444 35.0577 65.1382 35.1018L65.1387 35.2151L65.2834 35.2683C65.6338 35.4314 65.9849 35.7762 66.2594 36.1209L66.3001 36.2917C66.328 36.3289 66.3286 36.3287 66.357 36.3666C66.4428 36.4937 66.4758 36.6258 66.5218 36.7889C66.5392 36.8493 66.5563 36.91 66.5743 36.9722C66.6024 37.0723 66.6307 37.1724 66.6584 37.2727C66.7137 37.4662 66.7375 37.5355 66.864 37.6547C67.0297 37.6541 67.0891 37.617 67.208 37.4503C67.4345 37.006 67.5154 36.5411 67.5763 36.0025C67.5829 35.9453 67.5894 35.8875 67.5962 35.8286C67.6493 35.33 67.667 34.8424 67.6646 34.3381C67.6644 34.2799 67.6643 34.2794 67.6641 34.2199C67.6582 33.0949 67.545 32.0273 67.2423 30.9842C67.1649 30.717 67.0905 30.4483 67.0195 30.1775C66.7616 29.234 66.4013 28.4079 65.9296 27.6505C65.827 27.4774 65.8273 27.477 65.8269 27.3638L65.7065 27.3066C65.6787 27.1898 65.6785 27.1893 65.6656 27.0792L65.5855 27.0795C65.5292 26.9946 65.529 26.9945 65.4627 26.8779C65.3282 26.6522 65.182 26.4826 65.0132 26.3113C64.9904 26.2842 64.967 26.2574 64.9435 26.2295L64.9431 26.1152L64.8511 26.0697C64.7436 26.0026 64.7434 26.0025 64.6894 25.9258C64.576 25.7663 64.4386 25.6526 64.306 25.5279C64.2785 25.4975 64.2511 25.4667 64.2227 25.4354L64.2222 25.3221L64.0218 25.2663L64.0214 25.152L63.9196 25.1094C63.7822 25.0389 63.7814 25.039 63.6514 24.9288C62.9791 24.3777 61.8927 24.3153 61.1529 24.5841C60.9649 24.6574 60.7993 24.7493 60.6277 24.881C60.6361 24.9928 60.6362 24.993 60.6686 25.1084C60.7375 25.1684 60.7378 25.1684 60.8252 25.1986C60.8578 25.2121 60.8905 25.2254 60.924 25.2393C61.1323 25.3153 61.3417 25.3823 61.5518 25.4468C61.8947 25.5566 62.208 25.7343 62.5225 25.9577C62.5616 25.9851 62.6008 26.0129 62.641 26.0412C62.7378 26.1164 62.8212 26.1991 62.9086 26.2941L63.0281 26.3786C63.1332 26.4528 63.2214 26.5233 63.3094 26.6333L63.3098 26.7476L63.3889 26.7473L63.3894 26.8605L63.5097 26.9177C63.703 27.2225 63.8911 27.5564 63.9649 27.9589C63.9927 28.1198 63.9936 28.1199 64.0454 28.3092C64.3113 29.3762 64.3339 30.7092 64.007 31.7498C63.989 31.8105 63.9716 31.872 63.9531 31.9346C63.7844 32.4611 63.5548 32.9522 63.2554 33.3455L63.1962 33.4385C63.1176 33.542 63.0291 33.6095 62.9374 33.6885C62.8901 33.743 62.8425 33.7973 62.7955 33.8522C62.5959 34.0703 62.3741 34.1879 62.141 34.3166C62.1082 34.3366 62.0755 34.357 62.0417 34.3776C61.5656 34.6668 61.0851 34.8411 60.5669 34.8443C60.5351 34.8446 60.503 34.8453 60.4702 34.8456C60.403 34.8462 60.3353 34.8461 60.2681 34.8464C60.167 34.8469 60.0655 34.849 59.9644 34.8505C58.8149 34.8607 58.8142 34.8602 58.374 34.4749C58.2646 34.3848 58.1631 34.3352 58.0422 34.2838C57.8469 34.1954 57.6694 34.0872 57.4882 33.951C57.3859 33.8752 57.3853 33.8756 57.2581 33.8034C57.0932 33.705 56.9394 33.5824 56.7841 33.4566C56.7566 33.4346 56.7292 33.4123 56.7009 33.3896C56.6473 33.3466 56.5935 33.3029 56.5402 33.2593C56.4812 33.2114 56.4216 33.1647 56.3619 33.1184C56.2476 33.0118 56.1634 32.8888 56.0685 32.7485C56.0147 32.6721 55.9604 32.5956 55.9064 32.5196C55.5477 32.0126 55.5473 32.0125 55.4626 31.8924C55.4158 31.8266 55.3689 31.7611 55.3212 31.6967C55.2301 31.5731 55.1863 31.5035 55.145 31.3302C55.105 31.2733 55.0644 31.2163 55.0242 31.1597C54.9701 31.0511 54.9173 30.9404 54.8657 30.8293C54.8388 30.7717 54.8116 30.7142 54.7839 30.6548C54.7569 30.5967 54.73 30.5383 54.7022 30.4784C54.6064 30.2736 54.5085 30.0729 54.4059 29.875C53.765 28.5793 53.5128 26.9359 53.5124 25.3775C53.5123 25.3379 53.5121 25.2981 53.5119 25.2574C53.511 24.6339 53.5395 24.0384 53.6367 23.4297C53.6455 23.3674 53.6551 23.3044 53.6642 23.2402C53.7186 22.8854 53.8004 22.5594 53.9015 22.2266C53.9466 22.0762 53.9861 21.9249 54.0247 21.771C54.0979 21.5021 54.2029 21.2813 54.3227 21.0501C54.3868 20.9285 54.3874 20.9285 54.4262 20.8007C54.4648 20.6961 54.4643 20.6955 54.5836 20.5813C54.6179 20.493 54.6501 20.4028 54.6802 20.3114C54.8268 19.908 55.0299 19.5855 55.2405 19.2487C55.2957 19.1585 55.3481 19.0661 55.4006 18.9726C55.4806 18.8386 55.5482 18.7474 55.6493 18.6504C55.7657 18.5308 55.8546 18.4108 55.9446 18.2518C56.1088 17.9688 56.3104 17.7539 56.5279 17.5591L56.608 17.5588L56.6473 17.3887C56.7082 17.3196 56.7081 17.3189 56.7865 17.2524C56.8293 17.216 56.8295 17.2159 56.8731 17.1788C56.9034 17.1538 56.9343 17.1281 56.9656 17.1023C56.9945 17.0774 57.0234 17.0524 57.0532 17.0267C57.2554 16.8573 57.4565 16.7387 57.6816 16.6444L57.6811 16.5311L57.8411 16.4739L57.8406 16.3596C59.242 15.8396 61.0335 15.6195 62.3524 16.6262C62.441 16.6775 62.53 16.7271 62.6196 16.7746C62.6626 16.7975 62.7055 16.8209 62.7498 16.8444C62.7901 16.8658 62.8306 16.8874 62.8721 16.9094C63.1226 17.0459 63.3656 17.1945 63.6063 17.3635C63.7316 17.4274 63.8195 17.443 63.9512 17.4169C64.0365 17.3042 64.0675 17.2351 64.0788 17.0697C64.0538 16.7892 64.011 16.5338 63.9497 16.2645C63.7565 15.3588 63.7628 14.3744 63.7765 13.4361C63.777 13.3688 63.7772 13.3013 63.7777 13.232C63.788 12.8101 63.8407 12.4065 63.9028 11.9952C63.9106 11.9429 63.9185 11.8907 63.9266 11.8369C64.1011 10.744 64.1015 10.744 64.4 10.7706ZM95.1817 10.846C95.3408 10.7005 95.438 10.6617 95.6189 10.7525C96.0118 11.2096 96.0259 12.2177 96.0754 12.8797C96.1106 13.4182 96.1137 13.9393 96.0806 14.4773C96.0718 14.6289 96.0659 14.7806 96.06 14.9325C96.0359 15.4851 95.9934 15.998 95.864 16.5221C95.8019 16.7816 95.7994 16.9689 95.8433 17.2361C95.8897 17.3132 95.89 17.3135 96.0155 17.3135C96.3417 17.3056 96.6401 17.0366 96.9218 16.8266C97.1065 16.6905 97.2808 16.609 97.4822 16.5402C97.6009 16.487 97.6904 16.4153 97.7959 16.3222C98.0457 16.1222 98.2887 16.0486 98.5699 15.9842L98.7182 15.9485C99.6514 15.7333 100.572 15.7737 101.504 15.9992C101.575 16.0163 101.646 16.032 101.718 16.0472L101.823 16.0712C101.851 16.0775 101.879 16.0839 101.907 16.0904C101.986 16.131 101.986 16.1312 102.07 16.2284C102.236 16.4129 102.419 16.5377 102.607 16.6726C102.681 16.7268 102.756 16.7815 102.83 16.8358C102.863 16.8596 102.896 16.8832 102.93 16.9077C103.075 17.0167 103.202 17.1138 103.317 17.2812C103.412 17.4127 103.498 17.5026 103.608 17.6033C103.755 17.7377 103.875 17.8692 103.989 18.0569L103.99 18.1712C104.025 18.1791 104.025 18.1793 104.062 18.1875C104.168 18.2362 104.204 18.2955 104.273 18.4191C104.348 18.552 104.425 18.6744 104.511 18.7941C104.606 18.9435 104.699 19.0961 104.792 19.2481C104.812 19.2814 104.833 19.3152 104.855 19.3494C104.992 19.5752 104.993 19.5757 104.994 19.7024L105.074 19.7021C105.099 19.7773 105.098 19.7778 105.124 19.8543C105.157 19.9424 105.191 20.0235 105.228 20.1019L105.512 20.6653C105.672 20.9989 105.807 21.3445 105.88 21.7468C105.909 21.8467 105.94 21.9463 105.971 22.0453C106.063 22.353 106.141 22.6647 106.213 22.9829C106.224 23.0278 106.234 23.0731 106.245 23.1194C106.255 23.1632 106.265 23.2071 106.275 23.2521C106.284 23.2905 106.293 23.3287 106.302 23.3683C106.365 23.7387 106.375 24.1137 106.381 24.493C106.382 24.5428 106.383 24.593 106.384 24.6443C106.386 24.8048 106.387 24.9652 106.389 25.1257C106.389 25.2075 106.39 25.2077 106.39 25.2908C106.396 26.2906 106.356 27.2709 106.025 28.1741C106.006 28.2503 105.988 28.3271 105.973 28.4047C105.868 28.879 105.706 29.3242 105.551 29.7687L105.515 29.8889C105.473 29.9958 105.473 29.9963 105.398 30.0984C105.282 30.2718 105.212 30.4686 105.131 30.6776C105.104 30.7352 105.104 30.7352 105.077 30.794L104.997 30.7943L104.975 30.9086C104.908 31.111 104.819 31.2491 104.714 31.4145C104.644 31.5293 104.579 31.6467 104.516 31.7698C104.497 31.8075 104.477 31.8455 104.457 31.8843C104.41 31.9765 104.363 32.0696 104.316 32.1622C104.192 32.3732 104.033 32.522 103.876 32.6795C103.788 32.7694 103.704 32.8624 103.62 32.9608C103.376 33.2256 103.088 33.4016 102.812 33.5899C102.785 33.6086 102.758 33.6276 102.73 33.6469C102.051 34.1095 102.051 34.1095 101.812 34.2198C101.697 34.2698 101.697 34.2697 101.607 34.3602C101.483 34.4607 101.374 34.4999 101.234 34.5414C101.189 34.5552 101.145 34.5697 101.098 34.5839C100.698 34.6864 100.293 34.693 99.8869 34.696C99.7935 34.697 99.7001 34.6989 99.6067 34.701C99.0855 34.7083 98.6031 34.6384 98.1276 34.3054C98.0242 34.2335 97.9198 34.1732 97.8124 34.1143C97.5298 33.9559 97.3034 33.7623 97.0639 33.499C97.0316 33.4653 96.9991 33.4307 96.9658 33.3959C96.918 33.3453 96.9179 33.3447 96.8687 33.2927C96.8244 33.2463 96.8239 33.2459 96.7785 33.1984C96.7001 33.0975 96.6637 33.0125 96.623 32.8748L96.5429 32.8751C96.1708 32.253 95.8904 31.536 95.8157 30.7168C95.8112 30.6666 95.8072 30.6161 95.8025 30.5645C95.7074 29.3499 95.8119 28.0324 96.3209 27.0175C96.3837 26.9106 96.4448 26.8237 96.519 26.7316L96.5991 26.7312C96.614 26.6802 96.6137 26.6798 96.6289 26.6276C96.6834 26.4891 96.7292 26.4375 96.8222 26.3524C96.851 26.3259 96.8801 26.2994 96.9098 26.272C96.9398 26.2451 96.9693 26.2174 97.0003 26.1896C97.0294 26.1627 97.0589 26.1359 97.0888 26.1082C97.6214 25.6221 98.1653 25.3888 98.7796 25.1954C98.8488 25.1734 98.9182 25.1522 98.9874 25.1301C99.0186 25.1203 99.0498 25.1097 99.082 25.0995C99.2504 25.0464 99.2512 25.0469 99.3859 24.901L99.385 24.6735C99.3144 24.6377 99.2436 24.6017 99.1727 24.5669C99.1332 24.5473 99.093 24.5281 99.0523 24.5078C98.1336 24.1333 97.128 24.2655 96.2724 24.8556C96.2424 24.8756 96.2118 24.8958 96.1809 24.9165C95.9197 25.0964 95.6927 25.3339 95.4657 25.5892C95.3972 25.6556 95.3969 25.6558 95.3175 25.6562L95.2781 25.8272C95.2084 25.907 95.1358 25.9821 95.0622 26.0546C94.8909 26.2239 94.89 26.2242 94.7611 26.4542L94.6421 26.5113L94.583 26.6297L94.5229 26.7393L94.4038 26.7398C94.3939 26.7716 94.384 26.8039 94.3739 26.8366C94.3169 26.989 94.2471 27.112 94.1704 27.2456C94.0831 27.3998 94.0022 27.5503 93.9261 27.7163C93.8594 27.8589 93.7899 27.9777 93.7099 28.1048C93.5858 28.3045 93.5022 28.5004 93.4135 28.7349C93.3826 28.7952 93.3513 28.8557 93.3195 28.9179C93.2117 29.1328 93.1312 29.3566 93.0545 29.5966C93.0409 29.6388 93.028 29.6813 93.014 29.7247C92.8994 30.0886 92.8167 30.4573 92.743 30.842C92.7152 30.9654 92.6873 31.0891 92.6594 31.2124C92.5823 31.5799 92.5398 31.9406 92.5095 32.3214C92.506 32.3615 92.5027 32.4022 92.4992 32.4435C92.3865 33.7732 92.2303 35.8778 92.8023 37.0449C92.8212 37.0853 92.8399 37.1261 92.8594 37.1678C92.9426 37.291 93.0134 37.3339 93.1278 37.3816C93.2386 37.3709 93.2388 37.3711 93.3266 37.2675C93.3464 37.1639 93.3653 37.0594 93.3791 36.9538C93.475 36.4208 93.6869 35.9382 94.0038 35.6262C94.0383 35.5917 94.0733 35.5569 94.1088 35.5213C94.1979 35.4439 94.1978 35.4438 94.2775 35.4435L94.3169 35.2724C94.6312 34.9578 95.0401 34.6898 95.4321 34.7564C95.5134 34.8433 95.5482 34.8926 95.5669 35.0361C95.5666 35.0778 95.5668 35.1201 95.5665 35.1631C95.5663 35.2341 95.5662 35.2342 95.566 35.3066C95.5654 35.358 95.5644 35.41 95.5637 35.4629C95.5636 35.5161 95.5635 35.5692 95.5634 35.624C95.5628 35.7955 95.5619 35.9673 95.5605 36.1387C95.5482 37.4224 95.548 37.4228 95.7373 38.6732C95.7459 38.7102 95.7543 38.7472 95.7632 38.7854C95.8372 39.0999 95.9215 39.4095 96.007 39.718C96.0693 39.9464 96.1162 40.1709 96.1533 40.4098C96.1997 40.6918 96.2759 40.8871 96.3963 41.1189C96.453 41.232 96.4949 41.3415 96.5363 41.467C96.6094 41.6842 96.7047 41.8642 96.811 42.0509C96.8581 42.1452 96.8583 42.1452 96.8587 42.2587L96.9282 42.3014C97.0315 42.3825 97.1015 42.4735 97.1794 42.5992L97.1798 42.7125L97.2699 42.762C97.5181 42.9054 97.5182 42.9058 97.6069 43.0419C97.7207 43.1927 97.8461 43.2884 97.9833 43.3881C98.0231 43.4175 98.0229 43.4183 98.0636 43.4483C98.3762 43.6774 98.6973 43.8758 99.0211 44.0706C99.0468 44.0872 99.0729 44.1039 99.0994 44.1211C100.263 44.8721 101.467 44.9522 102.72 44.9322C102.849 44.9304 102.978 44.9292 103.107 44.9287C103.746 44.9262 104.378 44.9177 105.011 44.7865C105.092 44.772 105.173 44.758 105.253 44.7436C105.319 44.7305 105.385 44.7174 105.45 44.7038C105.503 44.6928 105.503 44.692 105.557 44.6809C105.768 44.635 105.971 44.5733 106.176 44.4832C106.324 44.4258 106.474 44.3901 106.626 44.3535C106.932 44.2791 107.228 44.1789 107.523 44.0375L107.523 43.9242L107.603 43.9239C107.693 43.5255 107.675 43.2801 107.559 42.8996C107.534 42.8133 107.51 42.7265 107.485 42.6402C107.472 42.5934 107.458 42.5469 107.444 42.4987C107.301 41.9979 107.161 41.4941 107.058 40.9738C107.034 40.8516 107.033 40.8516 106.991 40.7329C106.931 40.491 106.919 40.2484 106.904 39.994C106.898 39.9087 106.899 39.9084 106.893 39.8212C106.734 37.011 106.734 37.0108 107.111 35.8115C107.185 35.575 107.238 35.3331 107.29 35.0852C107.33 34.9273 107.385 34.7963 107.446 34.6529C107.466 34.5815 107.484 34.509 107.5 34.4359C107.552 34.2278 107.622 34.0544 107.706 33.8697C107.771 33.7224 107.829 33.5703 107.888 33.4178C108.093 32.9091 108.339 32.4415 108.633 32.0311L108.733 31.8852C108.828 31.7523 108.927 31.6367 109.031 31.5178L109.117 31.3896C109.703 30.5663 110.475 30.0166 111.232 29.5805C111.329 29.524 111.421 29.4616 111.515 29.3968C111.739 29.2524 111.976 29.1904 112.215 29.1168L112.326 29.0743C112.665 28.949 112.985 28.9121 113.334 28.9132C113.362 28.9132 113.389 28.9128 113.417 28.9129C114.275 28.9171 115.086 29.1342 115.877 29.6152C115.975 29.674 116.073 29.7297 116.172 29.785C116.348 29.8839 116.523 29.9875 116.696 30.0944C116.736 30.1184 116.736 30.1186 116.777 30.143C116.955 30.2528 117.122 30.3792 117.29 30.5189C117.383 30.5918 117.476 30.6643 117.569 30.7366C117.638 30.7919 117.704 30.8534 117.77 30.9155L117.77 31.0287C117.803 31.0506 117.803 31.0511 117.837 31.0734C117.947 31.154 118.049 31.2461 118.153 31.3407C118.21 31.3923 118.211 31.3921 118.269 31.4448C118.343 31.513 118.418 31.5823 118.491 31.6519L118.492 31.7652C118.514 31.7808 118.537 31.7967 118.56 31.8128C118.622 31.8571 118.683 31.9037 118.744 31.9517C118.955 32.1142 119.131 32.2413 119.371 32.1602C119.705 31.9802 119.999 31.6706 120.273 31.35C120.367 31.2448 120.465 31.1679 120.569 31.0862C120.655 31.0078 120.724 30.9169 120.798 30.8177C120.959 30.6075 121.173 30.3905 121.401 30.3896L121.4 30.2753C122.344 29.5897 122.345 29.589 122.475 29.5885L122.474 29.4753C122.503 29.4531 122.532 29.4303 122.561 29.4075C122.812 29.2114 122.813 29.2114 123.061 29.0071C123.298 28.8179 123.548 28.6876 123.803 28.5599C123.831 28.5457 123.86 28.5312 123.888 28.5166C123.974 28.4733 124.061 28.4304 124.147 28.3877C124.173 28.3742 124.2 28.3612 124.228 28.3473C124.511 28.2067 124.801 28.0958 125.09 27.9826C125.193 27.9426 125.295 27.9016 125.398 27.8613C125.464 27.8352 125.465 27.8357 125.533 27.809C125.618 27.7739 125.704 27.7356 125.788 27.6948C126.027 27.5815 126.287 27.5632 126.538 27.5248C126.581 27.5182 126.624 27.5117 126.668 27.5048C127.985 27.3335 129.308 27.5637 130.498 28.4235C130.624 28.5132 130.746 28.5969 130.876 28.6711C131.151 28.8477 131.404 29.0725 131.615 29.3821C131.664 29.4452 131.714 29.5082 131.765 29.5699C131.793 29.6045 131.821 29.6395 131.85 29.6751C131.903 29.7393 131.956 29.8035 132.009 29.8668C132.19 30.085 132.362 30.3168 132.532 30.5523C132.567 30.599 132.567 30.599 132.602 30.6468C132.725 30.8187 132.808 30.9568 132.859 31.1975L132.939 31.1972C132.978 31.275 133.015 31.3537 133.051 31.4341C133.104 31.547 133.162 31.6514 133.22 31.7577C133.453 32.1959 133.557 32.6619 133.665 33.1856C133.685 33.2767 133.704 33.3678 133.723 33.4588C133.733 33.5035 133.742 33.5484 133.752 33.5945C133.78 33.7224 133.809 33.8496 133.838 33.9769C133.852 34.0367 133.852 34.0369 133.866 34.0979C133.884 34.1766 133.903 34.2556 133.921 34.334C134.255 35.7974 134.003 37.4547 133.67 38.8663C133.661 38.9055 133.652 38.9452 133.642 38.9856C133.547 39.3849 133.448 39.7724 133.297 40.1363C133.252 40.2444 133.212 40.3546 133.174 40.4679L133.095 40.4682L133.062 40.5962C133.018 40.7465 132.973 40.8584 132.897 40.9807L132.817 40.981L132.806 41.0914L132.779 41.2087L132.659 41.2667C132.63 41.3811 132.63 41.3816 132.62 41.4944L132.54 41.4948C132.531 41.5338 132.523 41.5728 132.515 41.613C132.444 41.8311 132.345 41.983 132.231 42.1571C132.2 42.2058 132.199 42.2061 132.168 42.256C132.049 42.4381 131.939 42.5685 131.786 42.692L131.747 42.8055C131.645 42.8414 131.645 42.8413 131.548 42.8629L131.548 42.9771C131.461 43.05 131.374 43.1226 131.286 43.195C131.262 43.2153 131.238 43.2358 131.213 43.2568C130.558 43.7997 129.696 44.1497 128.936 43.9092C128.85 43.8712 128.766 43.8306 128.681 43.7881C128.553 43.7262 128.428 43.6879 128.295 43.6509C128.024 43.5653 127.799 43.4112 127.557 43.2202C127.531 43.1996 127.505 43.1783 127.478 43.157C127.365 43.0684 127.252 42.98 127.141 42.8898C126.988 42.7666 126.835 42.6499 126.676 42.541L126.676 42.4268C126.647 42.4133 126.617 42.4 126.587 42.3861C126.176 42.1188 125.755 41.171 125.553 40.6059C125.512 40.4941 125.512 40.4941 125.451 40.3915C125.378 40.2462 125.339 40.1056 125.297 39.937C125.282 39.8797 125.267 39.8224 125.252 39.7633C125.224 39.5558 125.25 39.44 125.306 39.2475C125.553 39.2792 125.667 39.4147 125.837 39.6615C126.04 39.9415 126.264 40.1812 126.509 40.3805C126.532 40.4047 126.555 40.4286 126.578 40.4535C126.844 40.7279 127.13 40.8735 127.437 41.0234C127.495 41.0519 127.552 41.0823 127.609 41.1136C128.069 41.3584 128.547 41.356 129.027 41.2809C129.059 41.2792 129.09 41.2774 129.123 41.2756C129.629 41.2395 130.118 40.7561 130.46 40.2509L130.54 40.2506L130.539 40.1373C130.596 40.0686 130.653 39.9996 130.711 39.9325C130.888 39.7148 130.997 39.4666 131.094 39.1683C131.133 39.071 131.171 38.9732 131.21 38.8759C131.609 37.8108 131.613 36.567 131.526 35.3873C131.523 35.3449 131.52 35.3022 131.517 35.2585C131.494 34.9793 131.439 34.7596 131.355 34.5022C131.343 34.4375 131.33 34.3728 131.317 34.3061C131.267 34.0739 131.196 33.8789 131.113 33.6682C131.084 33.5948 131.055 33.5213 131.027 33.4478C131.002 33.3836 130.977 33.319 130.951 33.2528C130.938 33.2092 130.924 33.1652 130.91 33.1202C130.875 33.0169 130.875 33.0162 130.795 32.9722C130.68 32.8901 130.631 32.7762 130.555 32.6284C130.265 32.1122 129.837 31.6782 129.403 31.4463C129.261 31.3695 129.124 31.2827 128.988 31.1872C128.735 31.0241 128.483 30.9513 128.21 30.8856C128.165 30.8734 128.119 30.8614 128.072 30.849C127.582 30.7254 127.14 30.7602 126.651 30.874C126.606 30.8841 126.56 30.8935 126.514 30.9039C126.424 30.9241 126.334 30.9454 126.244 30.9665C126.158 30.9863 126.073 31.0051 125.987 31.0231C125.715 31.0828 125.465 31.1806 125.206 31.3133C124.809 31.5131 124.809 31.5124 124.624 31.5763C124.367 31.6678 124.146 31.8323 123.922 32.0292C123.876 32.0538 123.875 32.0535 123.829 32.0784C123.714 32.1481 123.624 32.2345 123.523 32.3394C123.394 32.4739 123.263 32.5976 123.125 32.7149C123.071 32.7678 123.016 32.821 122.962 32.8747C122.828 33.0042 122.692 33.1174 122.549 33.225C122.286 33.4273 122.064 33.6872 121.838 33.9641C121.734 34.0852 121.734 34.0854 121.614 34.1427C121.523 34.2681 121.436 34.3982 121.349 34.5314C121.297 34.599 121.297 34.599 121.217 34.5993C121.135 34.8166 121.135 34.8171 121.099 35.0549C121.138 35.1884 121.178 35.3208 121.22 35.4519L121.221 35.6228L121.341 35.6789C121.414 35.8171 121.415 35.8174 121.49 35.9879C121.515 36.044 121.54 36.1007 121.566 36.1585C121.623 36.3038 121.623 36.3044 121.623 36.4181L121.703 36.4178C121.876 36.7149 122.185 37.277 122.187 37.6669L122.267 37.6666L122.309 37.809C122.367 37.974 122.441 38.0962 122.529 38.231C122.658 38.4326 122.722 38.6049 122.79 38.8589L122.858 39.0188C122.911 39.143 122.911 39.1431 122.912 39.2568L122.992 39.2565L123.06 39.4555C123.133 39.6599 123.213 39.8525 123.301 40.0444C123.337 40.1266 123.372 40.2109 123.405 40.2959C123.54 40.6381 123.701 40.9113 123.893 41.1905C124.038 41.4029 124.037 41.4034 124.038 41.5279L124.158 41.584C124.22 41.6708 124.22 41.6711 124.286 41.7827C124.31 41.8233 124.335 41.8637 124.36 41.9055C124.386 41.949 124.412 41.9932 124.439 42.038C124.606 42.317 124.762 42.5682 124.978 42.7693C125.041 42.8318 125.041 42.832 125.136 42.9699C125.253 43.1305 125.376 43.2439 125.512 43.3678C125.596 43.4494 125.672 43.536 125.748 43.6325C125.857 43.7687 125.966 43.8685 126.093 43.9652C126.168 44.0258 126.236 44.0947 126.306 44.1675C126.426 44.2919 126.55 44.3818 126.684 44.4746C126.749 44.5307 126.814 44.5878 126.879 44.6447C127.05 44.7913 127.216 44.8943 127.405 44.9835C127.475 45.0198 127.544 45.0565 127.614 45.0931C127.812 45.1946 128.011 45.2881 128.211 45.3778C128.324 45.4358 128.325 45.4351 128.441 45.5215C128.578 45.614 128.699 45.6531 128.849 45.6898C128.876 45.6966 128.904 45.703 128.932 45.71C129.19 45.7732 129.45 45.8265 129.71 45.8779C129.903 45.9169 130.09 45.9694 130.28 46.0358C130.882 46.2105 131.61 46.2391 132.191 45.9366C132.347 45.8603 132.503 45.8222 132.667 45.7843C133.092 45.6951 133.092 45.6951 133.479 45.4491C133.64 45.3196 133.811 45.2571 133.989 45.1854C134.214 45.0941 134.421 45.0017 134.629 44.8421L134.773 44.7703C134.969 44.6686 135.142 44.5118 135.319 44.357C135.424 44.2699 135.425 44.2699 135.544 44.2126L135.544 44.0993C135.596 44.0459 135.649 43.9935 135.703 43.9444C135.837 43.8205 135.965 43.6839 136.094 43.5503C136.18 43.4709 136.18 43.4708 136.26 43.4705L136.299 43.2995L136.419 43.2424C136.486 43.1439 136.487 43.1439 136.552 43.025C136.658 42.847 136.76 42.6912 136.895 42.5579L136.974 42.5576L137.006 42.4471C137.053 42.3297 137.054 42.3299 137.174 42.2726C137.222 42.1302 137.221 42.1299 137.252 41.9881L137.332 41.9878L137.371 41.8168C137.424 41.7977 137.477 41.7786 137.53 41.7595L137.569 41.5885C137.635 41.4921 137.701 41.3975 137.768 41.3035L137.867 41.1283C137.96 40.9722 138.048 40.8504 138.165 40.7326L138.245 40.7323L138.272 40.6404C138.342 40.4582 138.424 40.3173 138.522 40.1629L138.602 40.1625L138.641 39.9915C138.858 39.7064 138.858 39.7065 138.959 39.7061L138.983 39.582C139.041 39.4106 139.109 39.3244 139.213 39.208C139.35 39.0531 139.459 38.9186 139.514 38.6805C139.564 38.6021 139.564 38.6018 139.634 38.5091C139.742 38.3573 139.844 38.205 139.938 38.0353L140.03 37.8816L140.11 37.8813L140.14 37.7806C140.192 37.6432 140.25 37.5501 140.328 37.44C140.364 37.3875 140.363 37.3868 140.4 37.3333C140.466 37.254 140.467 37.2539 140.547 37.2536L140.586 37.0835C140.638 37.0061 140.691 36.9303 140.744 36.8554C140.786 36.7855 140.827 36.7152 140.868 36.6449C141.137 36.2018 141.454 35.8437 141.778 35.4871C141.907 35.3422 142.019 35.1993 142.122 35.015C142.277 34.7394 142.48 34.5801 142.691 34.4015C142.74 34.3565 142.789 34.3115 142.838 34.2661C143.077 34.0514 143.326 33.8572 143.573 33.6597C143.633 33.6117 143.693 33.5639 143.753 33.5155C143.931 33.3709 144.112 33.2345 144.296 33.1052C144.368 33.0535 144.44 32.9999 144.51 32.9442C144.993 32.5709 145.507 32.4521 146.043 32.3269C146.086 32.3167 146.128 32.3065 146.172 32.2961C146.586 32.2047 146.992 32.1954 147.407 32.2718C147.459 32.2808 147.511 32.2902 147.564 32.2995C147.712 32.3348 147.848 32.3849 147.992 32.4472C148.017 32.6069 148.018 32.607 148.033 32.7879C147.944 32.9803 147.881 33.0261 147.74 33.1308C147.629 33.213 147.527 33.2908 147.428 33.3986C147.358 33.4736 147.357 33.4731 147.277 33.4734L147.278 33.5877C147.211 33.6859 147.211 33.6861 147.124 33.7944C147.081 33.8483 147.081 33.8483 147.038 33.9031C146.96 33.9864 146.96 33.9864 146.881 33.9867L146.868 34.0834C146.825 34.2927 146.759 34.4529 146.646 34.5999C146.448 34.91 146.374 35.359 146.289 35.7527L146.249 35.9238C146.235 36.2073 146.225 36.4646 146.307 36.7272C146.4 36.8778 146.443 36.8876 146.584 36.9137C146.801 36.9106 146.973 36.7662 147.163 36.6321C147.291 36.5438 147.417 36.4772 147.552 36.4177C147.624 36.3842 147.695 36.3461 147.765 36.3056C148.091 36.1198 148.401 36.0309 148.749 35.9697C148.897 35.9436 149.035 35.916 149.178 35.8557C149.384 35.7726 149.593 35.7418 149.805 35.7068C149.85 35.6993 149.896 35.6915 149.942 35.6838C150.068 35.663 150.194 35.6436 150.32 35.6237C150.387 35.613 150.387 35.6126 150.455 35.6017C151.173 35.4926 151.888 35.529 152.594 35.7282C152.682 35.745 152.77 35.7613 152.857 35.7769C153.348 35.8832 153.798 36.0992 154.236 36.4298C154.35 36.5184 154.35 36.5183 154.459 36.5754C154.559 36.6332 154.638 36.7049 154.727 36.7931C154.89 36.9508 155.057 37.0777 155.235 37.1964C155.371 37.2874 155.45 37.3832 155.556 37.5369C155.637 37.6385 155.718 37.7389 155.8 37.8387C155.995 38.0833 155.996 38.0832 156.005 38.2569L155.998 38.3887C155.863 38.5059 155.758 38.5173 155.601 38.5182C155.553 38.5188 155.505 38.5192 155.456 38.5198C155.404 38.5199 155.351 38.5202 155.298 38.5204C155.243 38.5211 155.188 38.5221 155.133 38.523C154.9 38.5265 154.667 38.5283 154.434 38.5296C153.673 38.5344 152.94 38.6002 152.186 38.7708C151.989 38.8147 151.792 38.8547 151.594 38.8942C150.772 39.035 150.772 39.0349 149.977 39.3409C149.886 39.3835 149.798 39.4023 149.703 39.4221C149.478 39.4753 149.273 39.5833 149.06 39.6951C148.804 39.8297 148.565 39.9298 148.293 39.9813C148.072 40.0401 147.869 40.1744 147.663 40.2982C147.448 40.4267 147.234 40.5431 147.012 40.6454C146.569 40.8508 146.151 41.0965 145.751 41.4433C145.687 41.4828 145.623 41.5221 145.559 41.5603C145.45 41.6295 145.345 41.708 145.239 41.7861C145.097 41.8901 144.96 41.9808 144.807 42.0476C144.657 42.1139 144.542 42.2086 144.413 42.3323C144.247 42.4785 144.07 42.5949 143.895 42.7162C143.764 42.8142 143.644 42.9239 143.522 43.0438C143.456 43.1016 143.39 43.1591 143.324 43.2155L143.224 43.3018C142.927 43.5586 142.926 43.5587 142.825 43.6442C142.732 43.7257 142.643 43.812 142.553 43.9011C142.404 44.0449 142.256 44.143 142.09 44.2447C141.999 44.3308 141.91 44.4201 141.821 44.5123C141.725 44.5939 141.644 44.6213 141.533 44.6443L141.534 44.7586C141.204 45.0248 141.204 45.0245 141.061 45.1227C140.945 45.2089 140.84 45.304 140.731 45.4053C139.822 46.2442 139.821 46.2438 139.544 46.2449L139.544 46.3591L139.405 46.4593C139.375 46.4804 139.345 46.5013 139.315 46.5231C139.261 46.5617 139.208 46.6005 139.153 46.638C138.943 46.7849 138.741 46.9519 138.539 47.1228C138.359 47.2736 138.359 47.2739 138.27 47.2742L138.271 47.3875C138.207 47.4207 138.206 47.4205 138.141 47.4544C138.084 47.4845 138.027 47.5148 137.969 47.5449C137.941 47.5594 137.914 47.5743 137.885 47.5892C137.695 47.6897 137.528 47.8114 137.355 47.9595C137.262 48.0194 137.17 48.0764 137.076 48.1314C137.042 48.1519 137.008 48.1722 136.973 48.1934C136.797 48.3 136.621 48.4066 136.442 48.505C136.415 48.5197 136.388 48.5341 136.361 48.5493C136.286 48.5912 136.21 48.6328 136.134 48.6742C136 48.752 136.001 48.7522 135.902 48.8772C135.778 49.0171 135.662 49.0669 135.511 49.1327C135.347 49.2061 135.189 49.2786 135.038 49.3982C134.917 49.4926 134.8 49.542 134.666 49.5881C134.624 49.6029 134.581 49.6173 134.537 49.6325C134.495 49.6474 134.452 49.6627 134.408 49.678C134.333 49.7059 134.257 49.7336 134.182 49.7619C133.402 50.0484 132.615 50.2177 131.813 50.3277C131.78 50.3324 131.747 50.337 131.713 50.3418C131.104 50.4164 130.492 50.3763 129.883 50.3147C129.775 50.304 129.667 50.2935 129.56 50.2838C129.006 50.2311 128.464 50.1618 127.942 49.874C127.86 49.8434 127.777 49.8144 127.693 49.7891C127.626 49.7681 127.626 49.768 127.558 49.7466C127.469 49.7191 127.38 49.6918 127.291 49.6647C127.06 49.5901 126.897 49.5093 126.703 49.3095C126.625 49.2695 126.548 49.2296 126.47 49.1913C126.372 49.1339 126.287 49.0616 126.198 48.9814C125.991 48.7996 125.775 48.6708 125.551 48.5396C125.407 48.4517 125.276 48.3508 125.142 48.2345L125.062 48.1782L125.061 48.0649L124.902 48.0079L124.901 47.8947L124.813 47.8491C124.702 47.7824 124.604 47.7019 124.501 47.612L124.421 47.5625C124.308 47.4731 124.231 47.3441 124.14 47.215C124.087 47.1573 124.034 47.1003 123.98 47.0447C123.847 46.9074 123.734 46.758 123.619 46.591L123.519 46.4782C123.419 46.3648 123.418 46.3645 123.326 46.2338C123.217 46.0803 123.104 45.9356 122.99 45.7908C122.787 45.5319 122.602 45.2592 122.421 44.9697C122.337 44.8326 122.336 44.8327 122.245 44.7126C122.174 44.6065 122.175 44.6061 122.134 44.4357C122.069 44.339 122.001 44.2449 121.933 44.1523C121.25 43.1429 121.25 43.1425 121.249 42.8463L121.089 42.7337L121.089 42.6194L120.969 42.5632C120.91 42.458 120.91 42.4578 120.85 42.3254C120.829 42.2788 120.808 42.2321 120.786 42.1841C120.757 42.1189 120.757 42.1189 120.727 42.0525C120.624 41.8299 120.518 41.6117 120.408 41.3955C120.382 41.3439 120.355 41.2927 120.329 41.2396C120.247 41.0851 120.247 41.0847 120.15 40.9531C120.021 40.7707 119.91 40.5733 119.798 40.3705C119.756 40.2954 119.714 40.2204 119.672 40.1454C119.654 40.1125 119.635 40.079 119.616 40.0451C119.562 39.9504 119.562 39.9502 119.498 39.8639C119.441 39.7825 119.441 39.782 119.386 39.6475C119.326 39.512 119.265 39.4132 119.183 39.3045C119.098 39.1837 119.022 39.0532 118.944 38.9236C118.764 38.6435 118.657 38.5187 118.392 38.457C118.069 38.4433 117.874 38.7505 117.653 39.0449C117.631 39.0751 117.608 39.1058 117.585 39.1369C117.508 39.2409 117.428 39.3402 117.347 39.4387C117.225 39.5919 117.111 39.7538 116.998 39.9195C116.899 40.0594 116.794 40.1881 116.688 40.3182C116.611 40.4165 116.539 40.5195 116.468 40.6257C116.381 40.753 116.296 40.858 116.193 40.9568C116.047 41.097 115.946 41.274 115.838 41.4699C115.776 41.5595 115.776 41.56 115.656 41.5605L115.624 41.67C115.577 41.7874 115.577 41.7881 115.458 41.8454C115.41 41.9593 115.41 41.9595 115.379 42.0733L115.299 42.0736L115.271 42.1723C115.209 42.329 115.136 42.4248 115.042 42.5434C114.994 42.6038 114.994 42.6041 114.945 42.6658C114.862 42.7575 114.862 42.7579 114.783 42.7582L114.783 42.8715C114.717 42.9699 114.717 42.9703 114.63 43.0782C114.587 43.1322 114.586 43.1327 114.542 43.1879C114.465 43.271 114.465 43.2712 114.385 43.2715L114.386 43.3848C114.168 43.67 114.168 43.6708 114.067 43.6712C114.057 43.7048 114.047 43.7383 114.037 43.7729C113.984 43.9091 113.933 43.981 113.849 44.0802C113.821 44.1143 113.794 44.1489 113.765 44.1841C113.734 44.2217 113.702 44.259 113.671 44.2977C113.6 44.3864 113.53 44.4756 113.46 44.5652C113.427 44.6064 113.395 44.648 113.361 44.6905C113.227 44.8759 113.137 45.015 113.126 45.2881C113.13 45.4574 113.14 45.5268 113.224 45.6501C113.319 45.7424 113.414 45.8174 113.518 45.8911C113.546 45.9126 113.574 45.9341 113.603 45.9562C113.859 46.1474 114.117 46.2721 114.395 46.3818C114.435 46.3983 114.475 46.4151 114.517 46.4321C115.276 46.7384 116.039 46.7447 116.822 46.7591C116.919 46.761 117.016 46.7631 117.113 46.7658C117.156 46.7663 117.157 46.7659 117.202 46.7664C117.361 46.7713 117.491 46.7924 117.633 46.8995C117.67 47.0076 117.67 47.0082 117.674 47.1269C117.537 47.4871 117.372 47.6359 117.118 47.8107L117 47.8971L116.878 47.9825C116.848 48.0049 116.818 48.0272 116.788 48.0503C116.595 48.1936 116.407 48.3132 116.198 48.4022C116.111 48.4417 116.11 48.4418 116.003 48.5553C115.894 48.6034 115.785 48.6482 115.676 48.6913C115.405 48.7998 115.404 48.7999 115.149 48.9668C114.777 49.2383 114.362 49.2052 113.954 49.2039C113.853 49.2037 113.751 49.204 113.65 49.2051C112.799 49.2098 112.798 49.2102 112.411 48.9091C112.236 48.7877 112.04 48.742 111.851 48.6808C111.639 48.6082 111.477 48.5092 111.292 48.3461C111.057 48.1985 110.801 48.1602 110.557 48.2825C110.453 48.3549 110.354 48.4346 110.254 48.52C110.232 48.5387 110.21 48.5577 110.187 48.5769C109.903 48.7797 109.903 48.7802 109.698 49.0916C109.613 49.1599 109.528 49.223 109.44 49.284C109.402 49.3108 109.401 49.3116 109.362 49.339C109.043 49.5621 108.721 49.7566 108.389 49.9375C108.287 49.9945 108.189 50.055 108.091 50.1213C107.904 50.2443 107.709 50.3336 107.514 50.4223C107.391 50.4788 107.297 50.5332 107.189 50.6365C107.117 50.6658 107.043 50.6927 106.97 50.7164C106.699 50.8099 106.439 50.9352 106.183 51.0955C106.062 51.1597 105.948 51.1918 105.82 51.2219C105.771 51.2337 105.721 51.2454 105.67 51.2576C105.618 51.2697 105.566 51.282 105.513 51.2944C105.439 51.3121 105.439 51.3121 105.363 51.3301C105.258 51.355 105.153 51.3789 105.048 51.4026C104.931 51.4292 104.814 51.4592 104.697 51.4899C104.185 51.6202 103.682 51.6403 103.162 51.6356C103.025 51.6343 102.888 51.634 102.751 51.6342C101.865 51.6334 100.994 51.5625 100.112 51.4306C99.9593 51.4078 99.806 51.3862 99.653 51.3641C99.5544 51.3496 99.4555 51.3349 99.3569 51.3203C99.2893 51.3105 99.2891 51.3103 99.2201 51.3003C98.524 51.1951 98.5237 51.195 98.21 50.9566C97.9554 50.837 97.6962 50.7395 97.4325 50.6715C97.266 50.6283 97.1268 50.5438 96.9707 50.4487C96.7791 50.3721 96.5853 50.3062 96.3899 50.2527C96.3598 50.2445 96.3298 50.2362 96.2989 50.2277C96.2732 50.2215 96.2472 50.2149 96.2207 50.2085C96.1316 50.1678 96.1312 50.1679 96.0014 50.0589C95.8478 49.9307 95.696 49.8757 95.5239 49.8186C95.2369 49.715 94.9694 49.5741 94.699 49.4019C94.6654 49.3806 94.6309 49.3597 94.5962 49.3378C94.46 49.2487 94.3437 49.1654 94.2259 49.0317C94.1085 48.8996 93.986 48.8416 93.846 48.7763C93.4828 48.5961 93.1508 48.3431 92.813 48.0831C92.654 47.9619 92.4915 47.8493 92.3292 47.7373L92.3288 47.623L92.2614 47.6096C92.1395 47.5538 92.0689 47.456 91.9693 47.3402C91.8506 47.2241 91.7292 47.1129 91.6086 47.0008C91.5156 46.9133 91.4221 46.825 91.3293 46.7373C91.2639 46.6758 91.198 46.615 91.1323 46.5544C90.9403 46.3699 90.7534 46.1753 90.5665 45.9805C90.5422 45.9558 90.518 45.931 90.493 45.9056C90.2859 45.692 90.1 45.4558 89.9151 45.2047C89.8598 45.13 89.8046 45.0552 89.7492 44.9807C89.7252 44.9482 89.7003 44.9159 89.6755 44.8824C89.6031 44.7863 89.6034 44.7861 89.5147 44.7004C89.4795 44.6607 89.4799 44.6601 89.444 44.6196L89.4436 44.5063L89.283 44.3927L89.2826 44.2794L89.1622 44.2232L89.1618 44.109L89.0827 44.1093C89.028 44.016 88.9741 43.9213 88.9214 43.8257C88.8549 43.7309 88.7881 43.6364 88.7211 43.5423C88.413 43.0953 88.1166 42.6522 87.8777 42.1237C87.8451 42.0575 87.8119 41.991 87.7792 41.9249C87.7164 41.7831 87.7162 41.7826 87.7157 41.6693L87.6357 41.6696C87.5866 41.5621 87.5415 41.451 87.4977 41.3391C87.4187 41.138 87.3483 40.978 87.2339 40.8176C87.1917 40.7162 87.1512 40.6128 87.1126 40.5085C87.0308 40.2874 87.0311 40.2871 86.9312 40.0825C86.8531 39.9299 86.8082 39.7711 86.7575 39.5968C86.6792 39.3318 86.5961 39.0736 86.5025 38.8185C86.4076 38.5569 86.3331 38.2952 86.265 38.0177C86.223 37.8581 86.173 37.7075 86.1206 37.5544C86.0304 37.2829 85.9757 37.0159 85.9308 36.7231C85.9009 36.5493 85.9014 36.5487 85.8406 36.3631C85.4889 35.2047 85.4226 33.7677 85.4047 32.52C85.4032 32.4375 85.4014 32.3545 85.3998 32.272C85.3687 30.5906 85.3945 28.9192 85.7037 27.2864C85.7179 27.1893 85.7323 27.0916 85.7455 26.9942C85.7758 26.8113 85.815 26.6587 85.8695 26.4888C85.9081 26.3456 85.9302 26.2008 85.9538 26.051C86.0031 25.7498 86.0739 25.4774 86.1594 25.1938C86.2197 24.9885 86.2738 24.7803 86.3269 24.571C86.5689 23.6258 86.8229 22.6469 87.1891 21.7844C87.2756 21.5792 87.3602 21.3722 87.4435 21.1643C87.5855 20.8121 87.7333 20.4652 87.8818 20.1187C87.8998 20.0766 87.9185 20.0348 87.937 19.9915C87.9531 19.9541 87.9689 19.9166 87.9854 19.878C88.0303 19.7679 88.0704 19.6555 88.1091 19.5406L88.1882 19.5403L88.218 19.4162C88.2723 19.2397 88.3414 19.1208 88.4262 18.971C88.4819 18.8635 88.5371 18.7556 88.5919 18.6471C88.6195 18.5928 88.6469 18.5377 88.6753 18.4818C88.7423 18.352 88.7422 18.3516 88.7817 18.2304L88.8618 18.2301L88.8917 18.1342C88.9506 17.9761 89.0213 17.8433 89.099 17.7028L89.1834 17.5491L89.2581 17.4316L89.3382 17.4313L89.3476 17.3356C89.4022 17.0914 89.5135 16.9433 89.6521 16.7865C89.7799 16.6415 89.8515 16.4704 89.9294 16.2679C89.9435 16.2383 89.9575 16.2084 89.972 16.1779L90.0511 16.1776C90.0603 16.145 90.0695 16.1123 90.079 16.0788C90.1418 15.9195 90.2176 15.8244 90.3139 15.7039C90.3669 15.6372 90.3667 15.6367 90.4208 15.5687C90.4559 15.5249 90.4915 15.4816 90.5277 15.4364C90.5587 15.3961 90.59 15.3555 90.6219 15.314C90.6498 15.2779 90.6778 15.2415 90.7065 15.2043C90.7314 15.1719 90.7566 15.1397 90.7823 15.1063C90.8456 15.0371 90.8457 15.0368 90.9256 15.0365L90.964 14.8654C91.0344 14.7655 91.0348 14.7656 91.1204 14.6626C91.2037 14.5617 91.2844 14.4628 91.3614 14.3521L91.4815 14.3517L91.481 14.2384C91.5492 14.1688 91.5493 14.1684 91.6377 14.0952C91.7616 13.999 91.7619 13.9989 91.8389 13.8386C91.9045 13.7801 91.9707 13.7228 92.0374 13.6669C92.1057 13.5966 92.1734 13.5253 92.2407 13.4532C92.4241 13.2598 92.6121 13.0816 92.805 12.908C93.0088 12.7212 93.207 12.5212 93.4003 12.3129C93.6717 12.026 93.9629 11.8181 94.2658 11.6084C94.4792 11.4605 94.6856 11.3113 94.884 11.1245L94.9969 11.0215C95.0589 10.964 95.1204 10.9052 95.1817 10.846ZM47.7517 34.6861C47.1806 34.1641 46.54 34.0547 45.8788 34.2227C45.8408 34.233 45.8035 34.2425 45.7666 34.2525C45.5615 34.3021 45.3688 34.343 45.1885 34.4969C45.0635 34.6161 45.0632 34.6161 44.9275 34.6796C44.6306 34.8126 44.3829 34.9844 44.1249 35.2315C43.9788 35.4112 43.8762 35.5912 43.8491 35.8674C43.8783 36.1421 43.9536 36.3272 44.0899 36.5256C44.2037 36.6646 44.3168 36.8044 44.4294 36.9452C44.4953 37.041 44.5627 37.1359 44.6307 37.2286L44.7108 37.2283L44.7113 37.3425C44.7343 37.3691 44.7566 37.3956 44.779 37.4214C44.9923 37.6327 45.1987 37.8643 45.3852 38.1221C45.5004 38.2896 45.6068 38.4464 45.7657 38.5191L45.8331 38.5325L45.8335 38.6468C45.8548 38.6706 45.8757 38.6937 45.8963 38.7168C45.9899 38.8094 45.9899 38.8095 46.0572 38.893C46.0808 38.9225 46.1039 38.951 46.1268 38.9796C46.1762 39.0408 46.2257 39.1023 46.275 39.1636C46.3004 39.1957 46.3249 39.2269 46.3496 39.258C46.3744 39.2887 46.3981 39.3189 46.4222 39.3486C46.4879 39.4308 46.4885 39.4304 46.5556 39.4965C46.6092 39.5132 46.6622 39.5325 46.715 39.5535L46.7557 39.7233L46.8379 39.762L46.9161 39.7802L46.9168 39.9502C47.0108 40.0701 47.0104 40.0708 47.2257 40.2869C47.3649 40.4245 47.5067 40.5542 47.6239 40.7296C47.6971 40.8617 47.7538 40.9669 47.8537 41.0598C47.9539 41.1337 47.9544 41.1333 48.0242 41.2056C48.1203 41.3058 48.2149 41.404 48.3183 41.4887C48.3859 41.5412 48.4533 41.5962 48.5201 41.651L48.5596 41.7641C48.7445 41.8901 48.9289 41.9902 49.1347 41.9894C49.302 41.8977 49.4126 41.7834 49.4874 41.5476C49.4989 41.4871 49.5098 41.4284 49.5209 41.3697C49.5392 41.2777 49.5577 41.1852 49.5736 41.0922C49.5807 41.0487 49.5876 41.0064 49.5945 40.9642C49.6777 40.4856 49.7249 40.0349 49.7228 39.5408C49.7219 39.4698 49.7209 39.4008 49.72 39.3318C49.7187 38.6882 49.6858 38.1013 49.5293 37.4937C49.518 37.4516 49.5065 37.4106 49.4956 37.3698C49.4571 37.2217 49.4188 37.0736 49.3796 36.9259L49.2995 36.9262L49.1774 36.415L49.0983 36.4153C49.0979 36.3016 49.0975 36.3015 49.0299 36.1538C48.9853 36.0672 48.9851 36.0672 48.9414 35.9823C48.8885 35.8782 48.8341 35.7757 48.7761 35.6773L48.696 35.6776C48.6503 35.4853 48.6496 35.4849 48.4797 35.2985C48.4559 35.2732 48.4331 35.2483 48.4101 35.2236C48.2734 35.0715 48.1481 34.9493 47.9887 34.8483C47.8568 34.7777 47.8565 34.7777 47.7517 34.6861ZM114.392 34.0175C113.932 33.9121 113.465 33.8283 113.007 33.9829C112.975 33.9965 112.944 34.0101 112.913 34.0233C112.791 34.0733 112.695 34.1352 112.583 34.2247C112.453 34.335 112.32 34.4341 112.184 34.531C112.155 34.5515 112.128 34.572 112.1 34.5919C112.042 34.6326 111.985 34.6729 111.928 34.7136C111.884 34.7449 111.841 34.7756 111.799 34.8059L111.799 34.9202L111.639 34.9774L111.64 35.0907C111.57 35.1049 111.57 35.1058 111.481 35.149C111.235 35.4701 111.03 35.8706 110.914 36.3172L110.887 36.4589L110.807 36.4592C110.703 36.7018 110.607 36.9324 110.568 37.2141C110.55 37.3622 110.529 37.497 110.494 37.6391C110.385 38.082 110.355 38.4737 110.36 38.9375C110.362 39.0618 110.363 39.1863 110.364 39.3106C110.365 39.6506 110.36 39.982 110.422 40.3133C110.436 40.3765 110.449 40.4383 110.463 40.4996C110.476 40.5726 110.489 40.6435 110.501 40.7143C110.514 40.7885 110.527 40.861 110.54 40.9329C110.59 41.2216 110.637 41.4237 110.787 41.6361C111.057 41.7459 111.224 41.6493 111.465 41.4625L111.465 41.3483C111.584 41.3478 111.585 41.3479 111.64 41.2724C111.703 41.1708 111.703 41.1703 111.793 41.097C111.949 40.9709 112.099 40.8476 112.233 40.6773C112.34 40.5383 112.452 40.4102 112.567 40.2844C112.79 40.0414 113.009 39.7958 113.214 39.5221C113.253 39.4633 113.292 39.4056 113.333 39.3508L113.453 39.2937C113.534 39.1199 113.534 39.1191 113.649 38.9863C113.692 38.9359 113.735 38.8852 113.778 38.8344C113.8 38.8082 113.822 38.7824 113.843 38.757C113.918 38.6683 113.993 38.5794 114.068 38.4905C114.096 38.4556 114.125 38.4215 114.152 38.3876C114.234 38.2894 114.283 38.2183 114.335 38.0842C114.35 38.0324 114.35 38.0323 114.366 37.9815C114.445 37.9812 114.446 37.9807 114.562 37.8382C114.65 37.7269 114.737 37.6239 114.832 37.5246C115.021 37.3309 115.207 37.1504 115.359 36.8966C115.385 36.8199 115.41 36.7435 115.438 36.6687L115.521 36.6371L115.598 36.6115L115.637 36.4404L115.717 36.4401C115.877 36.2904 116.002 36.1103 116.094 35.8703C116.158 35.6613 116.165 35.5217 116.111 35.3009C115.979 34.9409 115.979 34.9406 115.192 34.4607C115.124 34.4211 115.057 34.3796 114.99 34.3384C114.817 34.1875 114.679 34.0862 114.476 34.0357C114.448 34.0297 114.42 34.0234 114.392 34.0175Z" fill="url(#paint1_linear_667_64)"/>
</g>
<defs>
<filter id="filter0_d_667_64" x="0" y="0.293959" width="160.005" height="59.5244" filterUnits="userSpaceOnUse" color-interpolation-filters="sRGB">
<feFlood flood-opacity="0" result="BackgroundImageFix"/>
<feColorMatrix in="SourceAlpha" type="matrix" values="0 0 0 0 0 0 0 0 0 0 0 0 0 0 0 0 0 0 127 0" result="hardAlpha"/>
<feOffset dy="4"/>
<feGaussianBlur stdDeviation="2"/>
<feComposite in2="hardAlpha" operator="out"/>
<feColorMatrix type="matrix" values="0 0 0 0 0 0 0 0 0 0 0 0 0 0 0 0 0 0 0.25 0"/>
<feBlend mode="normal" in2="BackgroundImageFix" result="effect1_dropShadow_667_64"/>
<feBlend mode="normal" in="SourceGraphic" in2="effect1_dropShadow_667_64" result="shape"/>
</filter>
<linearGradient id="paint0_linear_667_64" x1="80.4952" y1="50.5843" x2="76.3314" y2="-2.52641" gradientUnits="userSpaceOnUse">
<stop stop-color="#FFD073"/>
<stop offset="0.5" stop-color="#E8CC83"/>
<stop offset="1" stop-color="#FFC03F"/>
</linearGradient>
<linearGradient id="paint1_linear_667_64" x1="80.576" y1="51.7264" x2="79.9854" y2="8.15348" gradientUnits="userSpaceOnUse">
<stop stop-color="#FFD073"/>
<stop offset="0.5" stop-color="#E8CC83"/>
<stop offset="1" stop-color="#FFC03F"/>
</linearGradient>
</defs>
</svg>
