<svg width="898" height="246" viewBox="0 0 898 246" fill="none" xmlns="http://www.w3.org/2000/svg">
<g opacity="0.2">
<path d="M0 4.80852C81.9287 -8.28856 159.4 8.44639 187.895 18.4511C206.233 22.453 265.084 41.9171 353.783 87.7568C464.658 145.056 582.303 180.527 645.781 185.438C696.563 189.368 766.812 187.076 795.589 185.438L804.353 201.261C762.361 206.695 687.175 208.527 573.84 193.664C414.045 172.709 331.777 144.55 310.618 133.09C271.685 117.628 178.076 86.4863 115.106 85.6132C52.1364 84.7401 12.1313 85.2494 0 85.6132V4.80852Z" fill="#EBC870"/>
<path d="M332.624 187.115C239.185 162.667 71.9416 163.832 0 167.47V85.613C12.1313 85.2492 52.1365 84.7398 115.107 85.613C178.077 86.4861 271.685 117.628 310.618 133.09C331.778 144.55 414.045 172.709 573.84 193.664C733.635 214.619 817.595 202.395 839.6 193.664L898 234.592C872.27 249.436 751.296 246.234 694.025 242.778C612.491 234.41 426.063 211.563 332.624 187.115Z" fill="#C99D3F"/>
</g>
</svg>
