<svg width="1923" height="441" viewBox="0 0 1923 441" fill="none" xmlns="http://www.w3.org/2000/svg">
<path opacity="0.6" d="M759.109 0H2105.98C2098.94 2.49421 2091.5 4.3315 2084.24 6.16863C2002.05 26.9776 1923.33 57.826 1838.53 67.2902C1761.35 75.9041 1687.5 68.983 1611.39 56.267C1527.75 42.2957 1440.01 25.9703 1355.05 31.3349C1311.55 34.304 1268.33 40.3702 1225.69 49.487C1134.83 69.1322 1040.31 101.244 946.726 80.2249C897.076 69.0731 856.973 39.1822 811.825 17.7558C794.729 9.64232 777.256 4.97373 759.109 0Z" fill="#FFC03F"/>
<path opacity="0.6" d="M765.044 93.7952C868.813 95.4555 937.68 135.954 1041.14 136.114C1128.18 136.25 1193.48 116.837 1276.77 95.8267C1387.18 67.9739 1499.19 59.3675 1606.3 106.468C1529.83 96.1181 1453.56 105.005 1378.91 123.088C1339.14 132.717 1298.79 143.797 1258.72 151.675C1213.71 160.383 1168.01 165.069 1122.18 165.681C1042.62 167.12 963.297 156.597 886.879 134.464C845.711 122.097 807.245 105.274 764.125 97.8955L765.044 93.7952Z" fill="#FFC03F"/>
<path opacity="0.6" d="M-336 20.0598C-191.176 80.449 -53.8002 93.5102 100.812 75.6337C181.375 66.319 266.474 55.7636 347.131 66.0578C434.818 77.2495 523.969 108.46 609.055 133.507C747.062 174.132 873.155 192.102 1016.65 192.118C1020.7 192.798 1025.34 193.052 1028.24 195.784C998.99 204.663 926.166 211.41 895.62 213.612C798.448 220.852 700.755 216.149 604.733 199.608C477.807 177.157 362.904 142.18 232.75 139.707C37.7166 136.001 -140.597 209.437 -336 164.883V20.0598Z" fill="#FFC03F"/>
<g opacity="0.2">
<path d="M-47 248.836C43.2308 238.387 128.552 251.739 159.935 259.721C180.131 262.914 244.947 278.442 342.635 315.013C464.745 360.727 594.312 389.025 664.223 392.944C720.151 396.078 797.518 394.25 829.211 392.944L838.863 405.567C792.617 409.902 709.81 411.362 584.99 399.505C409.004 382.787 318.4 360.323 295.096 351.18C252.217 338.844 149.122 313.999 79.7705 313.302C10.4196 312.605 -33.6394 313.012 -47 313.302V248.836Z" fill="#EBC870"/>
<path d="M319.331 394.281C216.423 374.776 32.2319 375.705 -47 378.608V313.302C-33.6393 313.012 10.4198 312.606 79.771 313.302C149.122 313.999 252.217 338.844 295.095 351.179C318.399 360.322 409.003 382.787 584.991 399.505C760.979 416.224 853.447 406.471 877.682 399.505L942 432.158C913.663 444 780.429 441.446 717.354 438.689C627.558 432.013 422.239 413.785 319.331 394.281Z" fill="#C99D3F"/>
</g>
<g opacity="0.2">
<path d="M1927.57 201.976C1845.5 191.145 1767.9 204.985 1739.35 213.258C1720.98 216.567 1662.03 232.662 1573.17 270.567C1462.1 317.95 1344.25 347.281 1280.66 351.343C1229.79 354.592 1159.42 352.697 1130.59 351.343L1121.81 364.427C1163.88 368.921 1239.2 370.435 1352.73 358.145C1512.8 340.816 1595.21 317.531 1616.41 308.055C1655.41 295.269 1749.19 269.517 1812.27 268.795C1875.35 268.073 1915.42 268.494 1927.57 268.795V201.976Z" fill="#EBC870"/>
<path d="M1594.37 352.729C1687.97 332.513 1855.51 333.475 1927.57 336.484V268.795C1915.42 268.494 1875.35 268.073 1812.27 268.795C1749.19 269.517 1655.41 295.269 1616.41 308.054C1595.22 317.531 1512.8 340.816 1352.73 358.144C1192.65 375.473 1108.55 365.364 1086.5 358.144L1028 391.989C1053.77 404.263 1174.96 401.616 1232.33 398.758C1314.01 391.838 1500.76 372.946 1594.37 352.729Z" fill="#C99D3F"/>
</g>
</svg>
