<svg width="1920" height="323" viewBox="0 0 1920 323" fill="none" xmlns="http://www.w3.org/2000/svg">
<path opacity="0.6" d="M1398.92 204.761C1502.69 206.421 1571.55 246.919 1675.01 247.079C1762.06 247.215 1827.35 227.803 1910.65 206.792C2021.06 178.939 2133.06 170.333 2240.18 217.433C2163.71 207.083 2087.43 215.97 2012.78 234.053C1973.02 243.683 1932.67 254.763 1892.6 262.641C1847.58 271.348 1801.89 276.034 1756.06 276.647C1676.49 278.085 1597.17 267.562 1520.75 245.43C1479.59 233.062 1441.12 216.239 1398 208.861L1398.92 204.761Z" fill="#FFC03F"/>
<path d="M-1 132C137.536 190.595 268.946 203.269 416.845 185.923C493.91 176.885 575.313 166.643 652.468 176.632C736.347 187.491 821.628 217.774 903.018 242.077C1035.03 281.495 1155.65 298.932 1292.91 298.948C1296.79 299.607 1301.23 299.854 1304 302.505C1276.02 311.12 1206.36 317.667 1177.14 319.803C1084.19 326.828 990.736 322.264 898.884 306.215C777.469 284.431 667.556 250.493 543.053 248.093C356.489 244.498 185.919 315.752 -1 272.522V132Z" fill="#C8B485"/>
<path d="M2190.27 31.1329C2049.88 49.459 1890.99 121.639 1750.7 137.254C1632.67 150.394 1518.18 107.573 1400.8 82.6005C1245.21 49.4952 1105.01 118.002 969.598 217.527C1071.14 187.814 1230.97 115.078 1336.01 136.132C1391.96 147.341 1526.35 198.102 1582.35 206.156C1644.2 217.148 1642.6 220.982 1704.89 215.278C1813.1 206.043 1934.54 172.049 2033.55 121.417C2086.79 93.3511 2135.44 57.773 2192.38 38.2789L2190.27 31.1329Z" fill="#C8B485"/>
</svg>
