<svg width="884" height="246" viewBox="0 0 884 246" fill="none" xmlns="http://www.w3.org/2000/svg">
<g opacity="0.2">
<path d="M898 4.80852C816.071 -8.28856 738.6 8.44639 710.105 18.4511C691.767 22.453 632.916 41.9171 544.217 87.7568C433.342 145.056 315.697 180.527 252.219 185.438C201.437 189.368 131.188 187.076 102.411 185.438L93.6475 201.261C135.639 206.695 210.825 208.527 324.16 193.664C483.955 172.709 566.223 144.55 587.382 133.09C626.315 117.628 719.924 86.4863 782.894 85.6132C845.864 84.7401 885.869 85.2494 898 85.6132V4.80852Z" fill="#EBC870"/>
<path d="M565.376 187.115C658.815 162.667 826.058 163.832 898 167.47V85.613C885.869 85.2492 845.864 84.7398 782.893 85.613C719.923 86.4861 626.315 117.628 587.382 133.09C566.222 144.55 483.955 172.709 324.16 193.664C164.365 214.619 80.4053 202.395 58.3996 193.664L0 234.592C25.7297 249.436 146.704 246.234 203.975 242.778C285.509 234.41 471.937 211.563 565.376 187.115Z" fill="#C99D3F"/>
</g>
</svg>
