<svg width="1920" height="217" viewBox="0 0 1920 217" fill="none" xmlns="http://www.w3.org/2000/svg">
<path opacity="0.6" d="M727.535 0H2074.41C2067.37 2.49421 2059.92 4.3315 2052.67 6.16863C1970.48 26.9776 1891.75 57.826 1806.95 67.2902C1729.77 75.9041 1655.93 68.983 1579.81 56.267C1496.17 42.2957 1408.44 25.9703 1323.48 31.3349C1279.98 34.304 1236.75 40.3702 1194.11 49.487C1103.26 69.1322 1008.74 101.244 915.152 80.2249C865.502 69.0731 825.398 39.1822 780.25 17.7558C763.155 9.64232 745.682 4.97373 727.535 0Z" fill="#FFC03F"/>
<path opacity="0.6" d="M733.47 93.7952C837.238 95.4555 906.106 135.954 1009.56 136.114C1096.61 136.25 1161.9 116.837 1245.2 95.8267C1355.61 67.9739 1467.61 59.3675 1574.73 106.468C1498.26 96.1181 1421.98 105.005 1347.33 123.088C1307.57 132.717 1267.22 143.797 1227.15 151.675C1182.14 160.383 1136.44 165.069 1090.61 165.681C1011.04 167.12 931.723 156.597 855.305 134.464C814.137 122.097 775.67 105.274 732.551 97.8955L733.47 93.7952Z" fill="#FFC03F"/>
<path opacity="0.6" d="M-367.574 20.0598C-222.75 80.449 -85.3744 93.5102 69.2381 75.6337C149.801 66.319 234.9 55.7636 315.557 66.0578C403.243 77.2495 492.395 108.46 577.481 133.507C715.488 174.132 841.581 192.102 985.075 192.118C989.127 192.798 993.77 193.052 996.664 195.784C967.415 204.663 894.592 211.41 864.046 213.612C766.874 220.852 669.181 216.149 573.159 199.608C446.232 177.157 331.33 142.18 201.176 139.707C6.14241 136.001 -172.171 209.437 -367.574 164.883V20.0598Z" fill="#FFC03F"/>
</svg>
